<svg class="marks" width="454" height="347" viewBox="0 0 454 347" version="1.1" xmlns="http://www.w3.org/2000/svg" xmlns:xlink="http://www.w3.org/1999/xlink"><rect width="454" height="347" style="fill: white;"></rect><g transform="translate(48,10)"><g class="mark-group role-frame root"><g transform="translate(0,0)"><path class="background" d="M0.5,0.5h400v300h-400Z" style="fill: none; stroke: #ddd;"></path><g><g class="mark-group role-axis"><g transform="translate(0.5,300.5)"><path class="background" d="M0,0h0v0h0Z" style="pointer-events: none; fill: none;"></path><g><g class="mark-rule role-axis-grid" style="pointer-events: none;"><line transform="translate(0,-300)" x2="0" y2="300" style="fill: none; stroke: #ddd; stroke-width: 1; opacity: 1;"></line><line transform="translate(50,-300)" x2="0" y2="300" style="fill: none; stroke: #ddd; stroke-width: 1; opacity: 1;"></line><line transform="translate(100,-300)" x2="0" y2="300" style="fill: none; stroke: #ddd; stroke-width: 1; opacity: 1;"></line><line transform="translate(150,-300)" x2="0" y2="300" style="fill: none; stroke: #ddd; stroke-width: 1; opacity: 1;"></line><line transform="translate(200,-300)" x2="0" y2="300" style="fill: none; stroke: #ddd; stroke-width: 1; opacity: 1;"></line><line transform="translate(250,-300)" x2="0" y2="300" style="fill: none; stroke: #ddd; stroke-width: 1; opacity: 1;"></line><line transform="translate(300,-300)" x2="0" y2="300" style="fill: none; stroke: #ddd; stroke-width: 1; opacity: 1;"></line><line transform="translate(350,-300)" x2="0" y2="300" style="fill: none; stroke: #ddd; stroke-width: 1; opacity: 1;"></line><line transform="translate(400,-300)" x2="0" y2="300" style="fill: none; stroke: #ddd; stroke-width: 1; opacity: 1;"></line></g></g><path class="foreground" d="" style="pointer-events: none; display: none; fill: none;"></path></g></g><g class="mark-group role-axis"><g transform="translate(0.5,0.5)"><path class="background" d="M0,0h0v0h0Z" style="pointer-events: none; fill: none;"></path><g><g class="mark-rule role-axis-grid" style="pointer-events: none;"><line transform="translate(0,300)" x2="400" y2="0" style="fill: none; stroke: #ddd; stroke-width: 1; opacity: 1;"></line><line transform="translate(0,270)" x2="400" y2="0" style="fill: none; stroke: #ddd; stroke-width: 1; opacity: 1;"></line><line transform="translate(0,240)" x2="400" y2="0" style="fill: none; stroke: #ddd; stroke-width: 1; opacity: 1;"></line><line transform="translate(0,210)" x2="400" y2="0" style="fill: none; stroke: #ddd; stroke-width: 1; opacity: 1;"></line><line transform="translate(0,180)" x2="400" y2="0" style="fill: none; stroke: #ddd; stroke-width: 1; opacity: 1;"></line><line transform="translate(0,150)" x2="400" y2="0" style="fill: none; stroke: #ddd; stroke-width: 1; opacity: 1;"></line><line transform="translate(0,120)" x2="400" y2="0" style="fill: none; stroke: #ddd; stroke-width: 1; opacity: 1;"></line><line transform="translate(0,90)" x2="400" y2="0" style="fill: none; stroke: #ddd; stroke-width: 1; opacity: 1;"></line><line transform="translate(0,60)" x2="400" y2="0" style="fill: none; stroke: #ddd; stroke-width: 1; opacity: 1;"></line><line transform="translate(0,30)" x2="400" y2="0" style="fill: none; stroke: #ddd; stroke-width: 1; opacity: 1;"></line><line transform="translate(0,0)" x2="400" y2="0" style="fill: none; stroke: #ddd; stroke-width: 1; opacity: 1;"></line></g></g><path class="foreground" d="" style="pointer-events: none; display: none; fill: none;"></path></g></g><g class="mark-group role-axis"><g transform="translate(0.5,300.5)"><path class="background" d="M0,0h0v0h0Z" style="pointer-events: none; fill: none;"></path><g><g class="mark-rule role-axis-tick" style="pointer-events: none;"><line transform="translate(0,0)" x2="0" y2="5" style="fill: none; stroke: #888; stroke-width: 1; opacity: 1;"></line><line transform="translate(50,0)" x2="0" y2="5" style="fill: none; stroke: #888; stroke-width: 1; opacity: 1;"></line><line transform="translate(100,0)" x2="0" y2="5" style="fill: none; stroke: #888; stroke-width: 1; opacity: 1;"></line><line transform="translate(150,0)" x2="0" y2="5" style="fill: none; stroke: #888; stroke-width: 1; opacity: 1;"></line><line transform="translate(200,0)" x2="0" y2="5" style="fill: none; stroke: #888; stroke-width: 1; opacity: 1;"></line><line transform="translate(250,0)" x2="0" y2="5" style="fill: none; stroke: #888; stroke-width: 1; opacity: 1;"></line><line transform="translate(300,0)" x2="0" y2="5" style="fill: none; stroke: #888; stroke-width: 1; opacity: 1;"></line><line transform="translate(350,0)" x2="0" y2="5" style="fill: none; stroke: #888; stroke-width: 1; opacity: 1;"></line><line transform="translate(400,0)" x2="0" y2="5" style="fill: none; stroke: #888; stroke-width: 1; opacity: 1;"></line></g><g class="mark-text role-axis-label" style="pointer-events: none;"><text text-anchor="start" transform="translate(0,15)" style="font-family: sans-serif; font-size: 10px; fill: #000; opacity: 1;">0</text><text text-anchor="middle" transform="translate(50,15)" style="font-family: sans-serif; font-size: 10px; fill: #000; opacity: 1;">50</text><text text-anchor="middle" transform="translate(100,15)" style="font-family: sans-serif; font-size: 10px; fill: #000; opacity: 1;">100</text><text text-anchor="middle" transform="translate(150,15)" style="font-family: sans-serif; font-size: 10px; fill: #000; opacity: 1;">150</text><text text-anchor="middle" transform="translate(200,15)" style="font-family: sans-serif; font-size: 10px; fill: #000; opacity: 1;">200</text><text text-anchor="middle" transform="translate(250,15)" style="font-family: sans-serif; font-size: 10px; fill: #000; opacity: 1;">250</text><text text-anchor="middle" transform="translate(300,15)" style="font-family: sans-serif; font-size: 10px; fill: #000; opacity: 1;">300</text><text text-anchor="middle" transform="translate(350,15)" style="font-family: sans-serif; font-size: 10px; fill: #000; opacity: 1;">350</text><text text-anchor="end" transform="translate(400,15)" style="font-family: sans-serif; font-size: 10px; fill: #000; opacity: 1;">400</text></g><g class="mark-rule role-axis-domain" style="pointer-events: none;"><line transform="translate(0,0)" x2="400" y2="0" style="fill: none; stroke: #888; stroke-width: 1; opacity: 1;"></line></g><g class="mark-text role-axis-title" style="pointer-events: none;"><text text-anchor="middle" transform="translate(200,30)" style="font-family: sans-serif; font-size: 11px; font-weight: bold; fill: #000; opacity: 1;">Tage</text></g></g><path class="foreground" d="" style="pointer-events: none; display: none; fill: none;"></path></g></g><g class="mark-group role-axis"><g transform="translate(0.5,0.5)"><path class="background" d="M0,0h0v0h0Z" style="pointer-events: none; fill: none;"></path><g><g class="mark-rule role-axis-tick" style="pointer-events: none;"><line transform="translate(0,300)" x2="-5" y2="0" style="fill: none; stroke: #888; stroke-width: 1; opacity: 1;"></line><line transform="translate(0,270)" x2="-5" y2="0" style="fill: none; stroke: #888; stroke-width: 1; opacity: 1;"></line><line transform="translate(0,240)" x2="-5" y2="0" style="fill: none; stroke: #888; stroke-width: 1; opacity: 1;"></line><line transform="translate(0,210)" x2="-5" y2="0" style="fill: none; stroke: #888; stroke-width: 1; opacity: 1;"></line><line transform="translate(0,180)" x2="-5" y2="0" style="fill: none; stroke: #888; stroke-width: 1; opacity: 1;"></line><line transform="translate(0,150)" x2="-5" y2="0" style="fill: none; stroke: #888; stroke-width: 1; opacity: 1;"></line><line transform="translate(0,120)" x2="-5" y2="0" style="fill: none; stroke: #888; stroke-width: 1; opacity: 1;"></line><line transform="translate(0,90)" x2="-5" y2="0" style="fill: none; stroke: #888; stroke-width: 1; opacity: 1;"></line><line transform="translate(0,60)" x2="-5" y2="0" style="fill: none; stroke: #888; stroke-width: 1; opacity: 1;"></line><line transform="translate(0,30)" x2="-5" y2="0" style="fill: none; stroke: #888; stroke-width: 1; opacity: 1;"></line><line transform="translate(0,0)" x2="-5" y2="0" style="fill: none; stroke: #888; stroke-width: 1; opacity: 1;"></line></g><g class="mark-text role-axis-label" style="pointer-events: none;"><text text-anchor="end" transform="translate(-7,303)" style="font-family: sans-serif; font-size: 10px; fill: #000; opacity: 1;">0%</text><text text-anchor="end" transform="translate(-7,273)" style="font-family: sans-serif; font-size: 10px; fill: #000; opacity: 1;">2%</text><text text-anchor="end" transform="translate(-7,243)" style="font-family: sans-serif; font-size: 10px; fill: #000; opacity: 1;">4%</text><text text-anchor="end" transform="translate(-7,213)" style="font-family: sans-serif; font-size: 10px; fill: #000; opacity: 1;">6%</text><text text-anchor="end" transform="translate(-7,183.00000000000003)" style="font-family: sans-serif; font-size: 10px; fill: #000; opacity: 1;">8%</text><text text-anchor="end" transform="translate(-7,153)" style="font-family: sans-serif; font-size: 10px; fill: #000; opacity: 1;">10%</text><text text-anchor="end" transform="translate(-7,123)" style="font-family: sans-serif; font-size: 10px; fill: #000; opacity: 1;">12%</text><text text-anchor="end" transform="translate(-7,92.99999999999999)" style="font-family: sans-serif; font-size: 10px; fill: #000; opacity: 1;">14%</text><text text-anchor="end" transform="translate(-7,63.00000000000002)" style="font-family: sans-serif; font-size: 10px; fill: #000; opacity: 1;">16%</text><text text-anchor="end" transform="translate(-7,33.00000000000003)" style="font-family: sans-serif; font-size: 10px; fill: #000; opacity: 1;">18%</text><text text-anchor="end" transform="translate(-7,3)" style="font-family: sans-serif; font-size: 10px; fill: #000; opacity: 1;">20%</text></g><g class="mark-rule role-axis-domain" style="pointer-events: none;"><line transform="translate(0,300)" x2="0" y2="-300" style="fill: none; stroke: #888; stroke-width: 1; opacity: 1;"></line></g><g class="mark-text role-axis-title" style="pointer-events: none;"><text text-anchor="middle" transform="translate(-31.0146484375,150) rotate(-90) translate(0,-2)" style="font-family: sans-serif; font-size: 11px; font-weight: bold; fill: #000; opacity: 1;">Anteil der Bevölkerung</text></g></g><path class="foreground" d="" style="pointer-events: none; display: none; fill: none;"></path></g></g><g class="mark-area role-mark layer_0_marks"><path d="M0,300L0,300L1,300L1,300L2,300L2,300L3,300L3,300L4,300L4,300L5,300L5,300L6,300L6,300L7.000000000000001,300L7.000000000000001,300L8,300L8,300L9,300L9,300L10,300L10,300L11,300L11,300L12,300L12,300L13,300L13,300L14.000000000000002,300L14.000000000000002,300L15,300L15,300L16,300L16,300L17,300L17,300L18,300L18,300L19,300L19,300L20,300L20,300L21,300L21,300L22,300L22,300L23,300L23,300L24,300L24,300L25,300L25,300L26,300L26,300L27,300L27,300L28.000000000000004,300L28.000000000000004,300L28.999999999999996,300L28.999999999999996,0L30,0L30,0L31,0L31,0L32,0L32,0L33,0L33,0L34,0L34,0L35,0L35,0L36,0L36,0L37,0L37,0L38,0L38,0L39,0L39,0L40,0L40,0L41,0L41,0L42,0L42,0L43,0L43,0L44,0L44,0L45,0L45,0L46,0L46,0L47,0L47,0L48,0L48,0L49,0L49,0L50,0L50,0L51,0L51,0L52,0L52,0L53,0L53,0L54,0L54,0L55.00000000000001,0L55.00000000000001,0L56.00000000000001,0L56.00000000000001,0L56.99999999999999,0L56.99999999999999,0L57.99999999999999,0L57.99999999999999,300L59,300L59,300L60,300L60,300L61,300L61,300L62,300L62,300L63,300L63,300L64,300L64,300L65,300L65,300L66,300L66,300L67,300L67,300L68,300L68,300L69,300L69,300L70,300L70,300L71,300L71,300L72,300L72,300L73,300L73,300L74,300L74,300L75,300L75,300L76,300L76,300L77,300L77,300L78,300L78,300L79,300L79,300L80,300L80,300L81,300L81,300L82,300L82,300L83,300L83,300L84,300L84,300L85,300L85,300L86,300L86,300L87,300L87,300L88,300L88,300L89,300L89,300L90,300L90,300L91,300L91,300L92,300L92,300L93,300L93,300L94,300L94,300L95,300L95,300L96,300L96,300L97,300L97,300L98,300L98,300L99,300L99,300L100,300L100,300L101,300L101,300L102,300L102,300L103,300L103,300L104,300L104,300L105,300L105,300L106,300L106,300L107,300L107,300L108,300L108,300L109.00000000000001,300L109.00000000000001,300L110.00000000000001,300L110.00000000000001,300L111.00000000000001,300L111.00000000000001,300L112.00000000000001,300L112.00000000000001,300L112.99999999999999,300L112.99999999999999,300L113.99999999999999,300L113.99999999999999,300L114.99999999999999,300L114.99999999999999,300L115.99999999999999,300L115.99999999999999,300L117,300L117,300L118,300L118,300L119,300L119,300L120,300L120,300L121,300L121,300L122,300L122,300L123,300L123,300L124,300L124,300L125,300L125,300L126,300L126,300L127,300L127,300L128,300L128,300L129,300L129,300L130,300L130,300L131,300L131,300L132,300L132,300L133,300L133,300L134,300L134,300L135,300L135,300L136,300L136,300L137,300L137,300L138,300L138,300L139,300L139,300L140,300L140,300L141,300L141,300L142,300L142,300L143,300L143,300L144,300L144,300L145,300L145,300L146,300L146,300L147,300L147,300L148,300L148,300L149,300L149,300L150,300L150,300L151,300L151,300L152,300L152,300L153,300L153,300L154,300L154,300L155,300L155,300L156,300L156,300L157,300L157,300L158,300L158,300L159,300L159,300L160,300L160,300L161,300L161,300L162,300L162,300L163,300L163,300L164,300L164,300L165,300L165,300L166,300L166,300L167,300L167,300L168,300L168,300L169,300L169,300L170,300L170,300L171,300L171,300L172,300L172,300L173,300L173,300L174,300L174,300L175,300L175,300L176,300L176,300L177,300L177,300L178,300L178,300L179,300L179,300L180,300L180,300L181,300L181,300L182,300L182,300L183,300L183,300L184,300L184,300L185,300L185,300L186,300L186,300L187,300L187,300L188,300L188,300L189,300L189,300L190,300L190,300L191,300L191,300L192,300L192,300L193,300L193,300L194,300L194,300L195,300L195,300L196,300L196,300L197,300L197,300L198,300L198,300L199,300L199,300L200,300L200,300L200.99999999999997,300L200.99999999999997,300L202,300L202,300L202.99999999999997,300L202.99999999999997,300L204,300L204,300L204.99999999999997,300L204.99999999999997,300L206,300L206,300L206.99999999999997,300L206.99999999999997,300L208,300L208,300L209,300L209,300L210,300L210,300L211,300L211,300L212,300L212,300L213,300L213,300L214,300L214,300L215,300L215,300L216,300L216,300L217,300L217,300L218.00000000000003,300L218.00000000000003,300L219,300L219,300L220.00000000000003,300L220.00000000000003,300L221,300L221,300L222.00000000000003,300L222.00000000000003,300L223,300L223,300L224.00000000000003,300L224.00000000000003,300L225,300L225,300L225.99999999999997,300L225.99999999999997,300L227,300L227,300L227.99999999999997,300L227.99999999999997,300L229,300L229,300L229.99999999999997,300L229.99999999999997,300L231,300L231,300L231.99999999999997,300L231.99999999999997,300L233,300L233,300L234,300L234,300L235,300L235,300L236,300L236,300L237,300L237,300L238,300L238,300L239,300L239,300L240,300L240,300L241,300L241,300L242,300L242,300L243.00000000000003,300L243.00000000000003,300L244,300L244,300L245.00000000000003,300L245.00000000000003,300L246,300L246,300L247.00000000000003,300L247.00000000000003,300L248,300L248,300L249.00000000000003,300L249.00000000000003,300L250,300L250,300L250.99999999999997,300L250.99999999999997,300L252,300L252,300L252.99999999999997,300L252.99999999999997,300L254,300L254,300L254.99999999999997,300L254.99999999999997,300L256,300L256,300L257,300L257,300L258,300L258,300L259,300L259,300L260,300L260,300L261,300L261,300L262,300L262,300L263,300L263,300L264,300L264,300L265,300L265,300L266,300L266,300L267,300L267,300L268,300L268,300L269,300L269,300L270,300L270,300L271,300L271,300L272,300L272,300L273,300L273,300L274,300L274,300L275,300L275,300L276,300L276,300L277,300L277,300L278,300L278,300L279,300L279,300L280,300L280,300L281,300L281,300L282,300L282,300L283,300L283,300L284,300L284,300L285,300L285,300L286,300L286,300L287,300L287,300L288,300L288,300L289,300L289,300L290,300L290,300L291,300L291,300L292,300L292,300L293,300L293,300L294,300L294,300L295,300L295,300L296,300L296,300L297,300L297,300L298,300L298,300L299,300L299,300L300,300L300,300L301,300L301,300L302,300L302,300L303,300L303,300L304,300L304,300L305,300L305,300L306,300L306,300L307,300L307,300L308,300L308,300L309,300L309,300L310,300L310,300L311,300L311,300L312,300L312,300L313,300L313,300L314,300L314,300L315,300L315,300L316,300L316,300L317,300L317,300L318,300L318,300L319,300L319,300L320,300L320,300L321,300L321,300L322,300L322,300L323,300L323,300L324,300L324,300L325,300L325,300L326,300L326,300L327,300L327,300L328,300L328,300L329,300L329,300L330,300L330,300L331,300L331,300L332,300L332,300L333,300L333,300L334,300L334,300L335,300L335,300L336,300L336,300L337,300L337,300L338,300L338,300L339,300L339,300L340,300L340,300L341,300L341,300L342,300L342,300L343,300L343,300L344,300L344,300L345,300L345,300L346,300L346,300L347,300L347,300L348,300L348,300L349,300L349,300L350,300L350,300L351,300L351,300L352,300L352,300L353,300L353,300L354,300L354,300L355,300L355,300L356,300L356,300L357,300L357,300L358,300L358,300L359,300L359,300L360,300L360,300L361,300L361,300L362,300L362,300L363,300L363,300L364,300L364,300L363,300L363,300L362,300L362,300L361,300L361,300L360,300L360,300L359,300L359,300L358,300L358,300L357,300L357,300L356,300L356,300L355,300L355,300L354,300L354,300L353,300L353,300L352,300L352,300L351,300L351,300L350,300L350,300L349,300L349,300L348,300L348,300L347,300L347,300L346,300L346,300L345,300L345,300L344,300L344,300L343,300L343,300L342,300L342,300L341,300L341,300L340,300L340,300L339,300L339,300L338,300L338,300L337,300L337,300L336,300L336,300L335,300L335,300L334,300L334,300L333,300L333,300L332,300L332,300L331,300L331,300L330,300L330,300L329,300L329,300L328,300L328,300L327,300L327,300L326,300L326,300L325,300L325,300L324,300L324,300L323,300L323,300L322,300L322,300L321,300L321,300L320,300L320,300L319,300L319,300L318,300L318,300L317,300L317,300L316,300L316,300L315,300L315,300L314,300L314,300L313,300L313,300L312,300L312,300L311,300L311,300L310,300L310,300L309,300L309,300L308,300L308,300L307,300L307,300L306,300L306,300L305,300L305,300L304,300L304,300L303,300L303,300L302,300L302,300L301,300L301,300L300,300L300,300L299,300L299,300L298,300L298,300L297,300L297,300L296,300L296,300L295,300L295,300L294,300L294,300L293,300L293,300L292,300L292,300L291,300L291,300L290,300L290,300L289,300L289,300L288,300L288,300L287,300L287,300L286,300L286,300L285,300L285,300L284,300L284,300L283,300L283,300L282,300L282,300L281,300L281,300L280,300L280,300L279,300L279,300L278,300L278,300L277,300L277,300L276,300L276,300L275,300L275,300L274,300L274,300L273,300L273,300L272,300L272,300L271,300L271,300L270,300L270,300L269,300L269,300L268,300L268,300L267,300L267,300L266,300L266,300L265,300L265,300L264,300L264,300L263,300L263,300L262,300L262,300L261,300L261,300L260,300L260,300L259,300L259,300L258,300L258,300L257,300L257,300L256,300L256,300L254.99999999999997,300L254.99999999999997,300L254,300L254,300L252.99999999999997,300L252.99999999999997,300L252,300L252,300L250.99999999999997,300L250.99999999999997,300L250,300L250,300L249.00000000000003,300L249.00000000000003,300L248,300L248,300L247.00000000000003,300L247.00000000000003,300L246,300L246,300L245.00000000000003,300L245.00000000000003,300L244,300L244,300L243.00000000000003,300L243.00000000000003,300L242,300L242,300L241,300L241,300L240,300L240,300L239,300L239,300L238,300L238,300L237,300L237,300L236,300L236,300L235,300L235,300L234,300L234,300L233,300L233,300L231.99999999999997,300L231.99999999999997,300L231,300L231,300L229.99999999999997,300L229.99999999999997,300L229,300L229,300L227.99999999999997,300L227.99999999999997,300L227,300L227,300L225.99999999999997,300L225.99999999999997,300L225,300L225,300L224.00000000000003,300L224.00000000000003,300L223,300L223,300L222.00000000000003,300L222.00000000000003,300L221,300L221,300L220.00000000000003,300L220.00000000000003,300L219,300L219,300L218.00000000000003,300L218.00000000000003,300L217,300L217,300L216,300L216,300L215,300L215,300L214,300L214,300L213,300L213,300L212,300L212,300L211,300L211,300L210,300L210,300L209,300L209,300L208,300L208,300L206.99999999999997,300L206.99999999999997,300L206,300L206,300L204.99999999999997,300L204.99999999999997,300L204,300L204,300L202.99999999999997,300L202.99999999999997,300L202,300L202,300L200.99999999999997,300L200.99999999999997,300L200,300L200,300L199,300L199,300L198,300L198,300L197,300L197,300L196,300L196,300L195,300L195,300L194,300L194,300L193,300L193,300L192,300L192,300L191,300L191,300L190,300L190,300L189,300L189,300L188,300L188,300L187,300L187,300L186,300L186,300L185,300L185,300L184,300L184,300L183,300L183,300L182,300L182,300L181,300L181,300L180,300L180,300L179,300L179,300L178,300L178,300L177,300L177,300L176,300L176,300L175,300L175,300L174,300L174,300L173,300L173,300L172,300L172,300L171,300L171,300L170,300L170,300L169,300L169,300L168,300L168,300L167,300L167,300L166,300L166,300L165,300L165,300L164,300L164,300L163,300L163,300L162,300L162,300L161,300L161,300L160,300L160,300L159,300L159,300L158,300L158,300L157,300L157,300L156,300L156,300L155,300L155,300L154,300L154,300L153,300L153,300L152,300L152,300L151,300L151,300L150,300L150,300L149,300L149,300L148,300L148,300L147,300L147,300L146,300L146,300L145,300L145,300L144,300L144,300L143,300L143,300L142,300L142,300L141,300L141,300L140,300L140,300L139,300L139,300L138,300L138,300L137,300L137,300L136,300L136,300L135,300L135,300L134,300L134,300L133,300L133,300L132,300L132,300L131,300L131,300L130,300L130,300L129,300L129,300L128,300L128,300L127,300L127,300L126,300L126,300L125,300L125,300L124,300L124,300L123,300L123,300L122,300L122,300L121,300L121,300L120,300L120,300L119,300L119,300L118,300L118,300L117,300L117,300L115.99999999999999,300L115.99999999999999,300L114.99999999999999,300L114.99999999999999,300L113.99999999999999,300L113.99999999999999,300L112.99999999999999,300L112.99999999999999,300L112.00000000000001,300L112.00000000000001,300L111.00000000000001,300L111.00000000000001,300L110.00000000000001,300L110.00000000000001,300L109.00000000000001,300L109.00000000000001,300L108,300L108,300L107,300L107,300L106,300L106,300L105,300L105,300L104,300L104,300L103,300L103,300L102,300L102,300L101,300L101,300L100,300L100,300L99,300L99,300L98,300L98,300L97,300L97,300L96,300L96,300L95,300L95,300L94,300L94,300L93,300L93,300L92,300L92,300L91,300L91,300L90,300L90,300L89,300L89,300L88,300L88,300L87,300L87,300L86,300L86,300L85,300L85,300L84,300L84,300L83,300L83,300L82,300L82,300L81,300L81,300L80,300L80,300L79,300L79,300L78,300L78,300L77,300L77,300L76,300L76,300L75,300L75,300L74,300L74,300L73,300L73,300L72,300L72,300L71,300L71,300L70,300L70,300L69,300L69,300L68,300L68,300L67,300L67,300L66,300L66,300L65,300L65,300L64,300L64,300L63,300L63,300L62,300L62,300L61,300L61,300L60,300L60,300L59,300L59,300L57.99999999999999,300L57.99999999999999,300L56.99999999999999,300L56.99999999999999,300L56.00000000000001,300L56.00000000000001,300L55.00000000000001,300L55.00000000000001,300L54,300L54,300L53,300L53,300L52,300L52,300L51,300L51,300L50,300L50,300L49,300L49,300L48,300L48,300L47,300L47,300L46,300L46,300L45,300L45,300L44,300L44,300L43,300L43,300L42,300L42,300L41,300L41,300L40,300L40,300L39,300L39,300L38,300L38,300L37,300L37,300L36,300L36,300L35,300L35,300L34,300L34,300L33,300L33,300L32,300L32,300L31,300L31,300L30,300L30,300L28.999999999999996,300L28.999999999999996,300L28.000000000000004,300L28.000000000000004,300L27,300L27,300L26,300L26,300L25,300L25,300L24,300L24,300L23,300L23,300L22,300L22,300L21,300L21,300L20,300L20,300L19,300L19,300L18,300L18,300L17,300L17,300L16,300L16,300L15,300L15,300L14.000000000000002,300L14.000000000000002,300L13,300L13,300L12,300L12,300L11,300L11,300L10,300L10,300L9,300L9,300L8,300L8,300L7.000000000000001,300L7.000000000000001,300L6,300L6,300L5,300L5,300L4,300L4,300L3,300L3,300L2,300L2,300L1,300L1,300L0,300L0,300Z" style="fill: #69a9d0; opacity: 0.5;"></path></g><g class="mark-area role-mark layer_1_marks"><path d="M0,300L1,300L1,300L2,300L2,300L3,300L3,300L4,300L4,300L5,300L5,300L6,300L6,300L7.000000000000001,300L7.000000000000001,300L8,300L8,300L9,300L9,300L10,300L10,300L11,300L11,300L12,300L12,300L13,300L13,300L14.000000000000002,300L14.000000000000002,300L15,300L15,300L16,300L16,300L17,300L17,300L18,300L18,300L19,300L19,300L20,300L20,300L21,300L21,300L22,300L22,300L23,300L23,300L24,300L24,300L25,300L25,300L26,300L26,300L27,300L27,300L28.000000000000004,300L28.000000000000004,300L28.999999999999996,300L28.999999999999996,300L30,300L30,300L31,300L31,300L32,300L32,300L33,300L33,300L34,300L34,300L35,300L35,300L36,300L36,300L37,300L37,300L38,300L38,300L39,300L39,300L40,300L40,300L41,300L41,300L42,300L42,300L43,300L43,300L44,300L44,300L45,300L45,300L46,300L46,300L47,300L47,300L48,300L48,300L49,300L49,300L50,300L50,300L51,300L51,300L52,300L52,300L53,300L53,300L54,300L54,300L55.00000000000001,300L55.00000000000001,300L56.00000000000001,300L56.00000000000001,300L56.99999999999999,300L56.99999999999999,300L57.99999999999999,300L57.99999999999999,0L59,0L59,0L60,0L60,0L61,0L61,0L62,0L62,0L63,0L63,0L64,0L64,0L65,0L65,0L66,0L66,0L67,0L67,0L68,0L68,0L69,0L69,0L70,0L70,0L71,0L71,0L72,0L72,0L73,0L73,0L74,0L74,0L75,0L75,0L76,0L76,0L77,0L77,0L78,0L78,0L79,0L79,0L80,0L80,0L81,0L81,0L82,0L82,0L83,0L83,0L84,0L84,0L85,0L85,0L86,0L86,0L87,0L87,0L88,0L88,0L89,0L89,0L90,0L90,0L91,0L91,0L92,0L92,0L93,0L93,0L94,0L94,0L95,0L95,0L96,0L96,0L97,0L97,0L98,0L98,0L99,0L99,0L100,0L100,0L101,0L101,0L102,0L102,0L103,0L103,0L104,0L104,0L105,0L105,0L106,0L106,0L107,0L107,0L108,0L108,0L109.00000000000001,0L109.00000000000001,0L110.00000000000001,0L110.00000000000001,0L111.00000000000001,0L111.00000000000001,0L112.00000000000001,0L112.00000000000001,0L112.99999999999999,0L112.99999999999999,0L113.99999999999999,0L113.99999999999999,0L114.99999999999999,0L114.99999999999999,0L115.99999999999999,0L115.99999999999999,0L117,0L117,0L118,0L118,0L119,0L119,0L120,0L120,0L121,0L121,0L122,0L122,0L123,0L123,0L124,0L124,0L125,0L125,0L126,0L126,0L127,0L127,0L128,0L128,0L129,0L129,0L130,0L130,0L131,0L131,0L132,0L132,0L133,0L133,0L134,0L134,0L135,0L135,0L136,0L136,0L137,0L137,0L138,0L138,0L139,0L139,0L140,0L140,0L141,0L141,0L142,0L142,0L143,0L143,0L144,0L144,0L145,0L145,0L146,0L146,0L147,0L147,0L148,0L148,0L149,0L149,0L150,0L150,0L151,0L151,0L152,0L152,0L153,0L153,0L154,0L154,0L155,0L155,0L156,0L156,0L157,0L157,0L158,0L158,0L159,0L159,0L160,0L160,0L161,0L161,0L162,0L162,0L163,0L163,0L164,0L164,0L165,0L165,0L166,0L166,0L167,0L167,0L168,0L168,0L169,0L169,0L170,0L170,0L171,0L171,0L172,0L172,0L173,0L173,0L174,0L174,0L175,0L175,0L176,0L176,0L177,0L177,0L178,0L178,0L179,0L179,0L180,0L180,0L181,0L181,0L182,0L182,0L183,0L183,0L184,0L184,0L185,0L185,0L186,0L186,0L187,0L187,0L188,0L188,0L189,0L189,0L190,0L190,0L191,0L191,0L192,0L192,0L193,0L193,0L194,0L194,0L195,0L195,0L196,0L196,0L197,0L197,0L198,0L198,0L199,0L199,0L200,0L200,0L200.99999999999997,0L200.99999999999997,0L202,0L202,0L202.99999999999997,0L202.99999999999997,0L204,0L204,0L204.99999999999997,0L204.99999999999997,0L206,0L206,0L206.99999999999997,0L206.99999999999997,0L208,0L208,0L209,0L209,0L210,0L210,0L211,0L211,0L212,0L212,0L213,0L213,0L214,0L214,0L215,0L215,0L216,0L216,0L217,0L217,0L218.00000000000003,0L218.00000000000003,0L219,0L219,0L220.00000000000003,0L220.00000000000003,0L221,0L221,0L222.00000000000003,0L222.00000000000003,0L223,0L223,0L224.00000000000003,0L224.00000000000003,0L225,0L225,0L225.99999999999997,0L225.99999999999997,0L227,0L227,0L227.99999999999997,0L227.99999999999997,0L229,0L229,0L229.99999999999997,0L229.99999999999997,0L231,0L231,0L231.99999999999997,0L231.99999999999997,0L233,0L233,0L234,0L234,0L235,0L235,0L236,0L236,0L237,0L237,0L238,0L238,0L239,0L239,0L240,0L240,0L241,0L241,0L242,0L242,0L243.00000000000003,0L243.00000000000003,0L244,0L244,0L245.00000000000003,0L245.00000000000003,0L246,0L246,0L247.00000000000003,0L247.00000000000003,0L248,0L248,0L249.00000000000003,0L249.00000000000003,0L250,0L250,0L250.99999999999997,0L250.99999999999997,0L252,0L252,0L252.99999999999997,0L252.99999999999997,0L254,0L254,0L254.99999999999997,0L254.99999999999997,0L256,0L256,0L257,0L257,0L258,0L258,0L259,0L259,0L260,0L260,0L261,0L261,0L262,0L262,0L263,0L263,0L264,0L264,0L265,0L265,0L266,0L266,0L267,0L267,0L268,0L268,0L269,0L269,0L270,0L270,0L271,0L271,0L272,0L272,0L273,0L273,0L274,0L274,0L275,0L275,0L276,0L276,0L277,0L277,0L278,0L278,0L279,0L279,0L280,0L280,0L281,0L281,0L282,0L282,0L283,0L283,0L284,0L284,0L285,0L285,0L286,0L286,0L287,0L287,0L288,0L288,0L289,0L289,0L290,0L290,0L291,0L291,0L292,0L292,0L293,0L293,0L294,0L294,0L295,0L295,0L296,0L296,0L297,0L297,0L298,0L298,0L299,0L299,0L300,0L300,0L301,0L301,0L302,0L302,0L303,0L303,0L304,0L304,0L305,0L305,0L306,0L306,0L307,0L307,0L308,0L308,0L309,0L309,0L310,0L310,0L311,0L311,0L312,0L312,0L313,0L313,0L314,0L314,0L315,0L315,0L316,0L316,0L317,0L317,0L318,0L318,0L319,0L319,0L320,0L320,0L321,0L321,0L322,0L322,0L323,0L323,0L324,0L324,0L325,0L325,0L326,0L326,0L327,0L327,0L328,0L328,0L329,0L329,0L330,0L330,0L331,0L331,0L332,0L332,0L333,0L333,0L334,0L334,0L335,0L335,0L336,0L336,0L337,0L337,0L338,0L338,0L339,0L339,0L340,0L340,0L341,0L341,0L342,0L342,0L343,0L343,0L344,0L344,0L345,0L345,0L346,0L346,0L347,0L347,0L348,0L348,0L349,0L349,0L350,0L350,0L351,0L351,0L352,0L352,0L353,0L353,0L354,0L354,0L355,0L355,0L356,0L356,0L357,0L357,0L358,0L358,0L359,0L359,0L360,0L360,0L361,0L361,0L362,0L362,0L363,0L363,0L364,0L364,0L364,300L364,300L363,300L363,300L362,300L362,300L361,300L361,300L360,300L360,300L359,300L359,300L358,300L358,300L357,300L357,300L356,300L356,300L355,300L355,300L354,300L354,300L353,300L353,300L352,300L352,300L351,300L351,300L350,300L350,300L349,300L349,300L348,300L348,300L347,300L347,300L346,300L346,300L345,300L345,300L344,300L344,300L343,300L343,300L342,300L342,300L341,300L341,300L340,300L340,300L339,300L339,300L338,300L338,300L337,300L337,300L336,300L336,300L335,300L335,300L334,300L334,300L333,300L333,300L332,300L332,300L331,300L331,300L330,300L330,300L329,300L329,300L328,300L328,300L327,300L327,300L326,300L326,300L325,300L325,300L324,300L324,300L323,300L323,300L322,300L322,300L321,300L321,300L320,300L320,300L319,300L319,300L318,300L318,300L317,300L317,300L316,300L316,300L315,300L315,300L314,300L314,300L313,300L313,300L312,300L312,300L311,300L311,300L310,300L310,300L309,300L309,300L308,300L308,300L307,300L307,300L306,300L306,300L305,300L305,300L304,300L304,300L303,300L303,300L302,300L302,300L301,300L301,300L300,300L300,300L299,300L299,300L298,300L298,300L297,300L297,300L296,300L296,300L295,300L295,300L294,300L294,300L293,300L293,300L292,300L292,300L291,300L291,300L290,300L290,300L289,300L289,300L288,300L288,300L287,300L287,300L286,300L286,300L285,300L285,300L284,300L284,300L283,300L283,300L282,300L282,300L281,300L281,300L280,300L280,300L279,300L279,300L278,300L278,300L277,300L277,300L276,300L276,300L275,300L275,300L274,300L274,300L273,300L273,300L272,300L272,300L271,300L271,300L270,300L270,300L269,300L269,300L268,300L268,300L267,300L267,300L266,300L266,300L265,300L265,300L264,300L264,300L263,300L263,300L262,300L262,300L261,300L261,300L260,300L260,300L259,300L259,300L258,300L258,300L257,300L257,300L256,300L256,300L254.99999999999997,300L254.99999999999997,300L254,300L254,300L252.99999999999997,300L252.99999999999997,300L252,300L252,300L250.99999999999997,300L250.99999999999997,300L250,300L250,300L249.00000000000003,300L249.00000000000003,300L248,300L248,300L247.00000000000003,300L247.00000000000003,300L246,300L246,300L245.00000000000003,300L245.00000000000003,300L244,300L244,300L243.00000000000003,300L243.00000000000003,300L242,300L242,300L241,300L241,300L240,300L240,300L239,300L239,300L238,300L238,300L237,300L237,300L236,300L236,300L235,300L235,300L234,300L234,300L233,300L233,300L231.99999999999997,300L231.99999999999997,300L231,300L231,300L229.99999999999997,300L229.99999999999997,300L229,300L229,300L227.99999999999997,300L227.99999999999997,300L227,300L227,300L225.99999999999997,300L225.99999999999997,300L225,300L225,300L224.00000000000003,300L224.00000000000003,300L223,300L223,300L222.00000000000003,300L222.00000000000003,300L221,300L221,300L220.00000000000003,300L220.00000000000003,300L219,300L219,300L218.00000000000003,300L218.00000000000003,300L217,300L217,300L216,300L216,300L215,300L215,300L214,300L214,300L213,300L213,300L212,300L212,300L211,300L211,300L210,300L210,300L209,300L209,300L208,300L208,300L206.99999999999997,300L206.99999999999997,300L206,300L206,300L204.99999999999997,300L204.99999999999997,300L204,300L204,300L202.99999999999997,300L202.99999999999997,300L202,300L202,300L200.99999999999997,300L200.99999999999997,300L200,300L200,300L199,300L199,300L198,300L198,300L197,300L197,300L196,300L196,300L195,300L195,300L194,300L194,300L193,300L193,300L192,300L192,300L191,300L191,300L190,300L190,300L189,300L189,300L188,300L188,300L187,300L187,300L186,300L186,300L185,300L185,300L184,300L184,300L183,300L183,300L182,300L182,300L181,300L181,300L180,300L180,300L179,300L179,300L178,300L178,300L177,300L177,300L176,300L176,300L175,300L175,300L174,300L174,300L173,300L173,300L172,300L172,300L171,300L171,300L170,300L170,300L169,300L169,300L168,300L168,300L167,300L167,300L166,300L166,300L165,300L165,300L164,300L164,300L163,300L163,300L162,300L162,300L161,300L161,300L160,300L160,300L159,300L159,300L158,300L158,300L157,300L157,300L156,300L156,300L155,300L155,300L154,300L154,300L153,300L153,300L152,300L152,300L151,300L151,300L150,300L150,300L149,300L149,300L148,300L148,300L147,300L147,300L146,300L146,300L145,300L145,300L144,300L144,300L143,300L143,300L142,300L142,300L141,300L141,300L140,300L140,300L139,300L139,300L138,300L138,300L137,300L137,300L136,300L136,300L135,300L135,300L134,300L134,300L133,300L133,300L132,300L132,300L131,300L131,300L130,300L130,300L129,300L129,300L128,300L128,300L127,300L127,300L126,300L126,300L125,300L125,300L124,300L124,300L123,300L123,300L122,300L122,300L121,300L121,300L120,300L120,300L119,300L119,300L118,300L118,300L117,300L117,300L115.99999999999999,300L115.99999999999999,300L114.99999999999999,300L114.99999999999999,300L113.99999999999999,300L113.99999999999999,300L112.99999999999999,300L112.99999999999999,300L112.00000000000001,300L112.00000000000001,300L111.00000000000001,300L111.00000000000001,300L110.00000000000001,300L110.00000000000001,300L109.00000000000001,300L109.00000000000001,300L108,300L108,300L107,300L107,300L106,300L106,300L105,300L105,300L104,300L104,300L103,300L103,300L102,300L102,300L101,300L101,300L100,300L100,300L99,300L99,300L98,300L98,300L97,300L97,300L96,300L96,300L95,300L95,300L94,300L94,300L93,300L93,300L92,300L92,300L91,300L91,300L90,300L90,300L89,300L89,300L88,300L88,300L87,300L87,300L86,300L86,300L85,300L85,300L84,300L84,300L83,300L83,300L82,300L82,300L81,300L81,300L80,300L80,300L79,300L79,300L78,300L78,300L77,300L77,300L76,300L76,300L75,300L75,300L74,300L74,300L73,300L73,300L72,300L72,300L71,300L71,300L70,300L70,300L69,300L69,300L68,300L68,300L67,300L67,300L66,300L66,300L65,300L65,300L64,300L64,300L63,300L63,300L62,300L62,300L61,300L61,300L60,300L60,300L59,300L59,300L57.99999999999999,300L57.99999999999999,300L56.99999999999999,300L56.99999999999999,300L56.00000000000001,300L56.00000000000001,300L55.00000000000001,300L55.00000000000001,300L54,300L54,300L53,300L53,300L52,300L52,300L51,300L51,300L50,300L50,300L49,300L49,300L48,300L48,300L47,300L47,300L46,300L46,300L45,300L45,300L44,300L44,300L43,300L43,300L42,300L42,300L41,300L41,300L40,300L40,300L39,300L39,300L38,300L38,300L37,300L37,300L36,300L36,300L35,300L35,300L34,300L34,300L33,300L33,300L32,300L32,300L31,300L31,300L30,300L30,300L28.999999999999996,300L28.999999999999996,300L28.000000000000004,300L28.000000000000004,300L27,300L27,300L26,300L26,300L25,300L25,300L24,300L24,300L23,300L23,300L22,300L22,300L21,300L21,300L20,300L20,300L19,300L19,300L18,300L18,300L17,300L17,300L16,300L16,300L15,300L15,300L14.000000000000002,300L14.000000000000002,300L13,300L13,300L12,300L12,300L11,300L11,300L10,300L10,300L9,300L9,300L8,300L8,300L7.000000000000001,300L7.000000000000001,300L6,300L6,300L5,300L5,300L4,300L4,300L3,300L3,300L2,300L2,300L1,300L1,300L0,300Z" style="fill: #ffffff; opacity: 0.5;"></path></g><g class="mark-line role-mark layer_2_marks"><path d="M0,299.9817073170732L1,299.98280600763405L2,299.9828134660762L3,299.98211458094653L4,299.98092967413373L5,299.97938152026904L6,299.9775347522981L7.000000000000001,299.97541899958725L8,299.9730424372456L9,299.97039968235345L10,299.96747635236716L11,299.96425164865093L12,299.9606997662924L13,299.9567906036526L14.000000000000002,299.95249004457105L15,299.94775997783705L16,299.94255814629935L17,299.9368378797482L18,299.9305477416677L19,299.92363110583767L20,299.91602567028025L21,299.90766291086163L22,299.89846747360224L23,299.88835650260586L24,299.87723889901105L25,299.8650145052126L26,299.85157320762744L27,299.83679395038365L28.000000000000004,299.8205436514393L28.999999999999996,299.8026760117356L30,299.7874868881594L31,299.7776528665657L32,299.7712868465816L33,299.7671667663491L34,299.7645012363965L35,299.7627777629308L36,299.761664461019L37,299.76094640564895L38,299.7604844135953L39,299.7601883511271L40,299.7599998484289L41,299.7598811051494L42,299.7598076437346L43,299.7597636107759L44,299.759738740421L45,299.7597263845095L46,299.75972223768406L47,299.7597235117787L48,299.75972840115674L49,299.7597357364656L50,299.75974476040903L51,299.7597549825384L52,299.759766085215L53,299.7597778627118L54,299.7597901817755L55.00000000000001,299.75980295608645L56.00000000000001,299.75981612971907L56.99999999999999,299.75982966643045L57.99999999999999,299.7545763823222L59,299.7411390107648L60,299.72185313982516L61,299.6979922450018L62,299.6701941528931L63,299.63871122198395L64,299.6035565820607L65,299.5645890755472L66,299.5215619721383L67,299.4741502218726L68,299.4219649203136L69,299.36456011970506L70,299.3014349277167L71,299.23203268264876L72,299.15573819809407L73,299.07187366046816L74,298.9796935020923L75,298.8783784201512L76,298.76702862081083L77,298.64465631287453L78,298.5101774417535L79,298.3624026335494L80,298.200027305607L81,298.02162089107355L82,297.8256151191233L83,297.61029128870257L84,297.37376647147903L85,297.1139785790425L86,296.82867023037636L87,296.5153713584431L88,296.1713804997745L89,295.79374471870614L90,295.37923812895684L91,294.9243389903585L92,294.4252053785576L93,293.8776494514627L94,293.27711036928747L95,292.6186259666101L96,291.8968033264889L97,291.1057884701048L98,290.2392354525951L99,289.2902752488312L100,288.2514849241705L101,287.11485771706504L102,285.87177481524867L103,284.512979787343L104,283.0285568391536L105,281.4079143001578L106,279.6397750113848L107,277.71217558046015L108,275.61247679067156L109.00000000000001,273.3273877937352L110.00000000000001,270.843007072555L111.00000000000001,268.14488351866675L112.00000000000001,265.21810131219564L112.99999999999999,262.0473925969156L113.99999999999999,258.617282179167L114.99999999999999,254.91226860881238L115.99999999999999,250.91704597640273L117,246.6167705281081L118,241.99737569583962L119,237.0459382958139L120,231.75109739393943L121,226.10352560369753L122,220.09645031576918L123,213.72621952419917L124,206.99290351102925L125,199.9009197279062L126,192.45966387975807L127,184.68412565886143L128,176.59546306940425L129,168.22150518221488L130,159.59715004438638L131,150.7646228925485L132,141.77355393944185L133,132.68085680083706L134,123.55036271578163L135,114.45219490547017L136,105.46188921503769L137,96.65923024256045L138,88.12686706806734L139,79.94869279736355L140,72.20808919616411L141,64.98604894359478L142,58.35928027163762L143,52.3983773294035L144,47.166098165122705L145,42.71587789711919L146,39.0905911637196L147,36.321649887215514L148,34.42845384966701L149,33.418210518088166L150,33.286118037017765L151,34.01588720471162L152,35.58056288017292L153,37.94359357362806L154,41.06009046599287L155,44.878213865726565L156,49.34062584614194L157,54.38595192159978L158,59.9502013392429L159,65.96810402715447L160,72.3743316091426L161,79.10457941917454L162,86.0964955102655L163,93.29045079887258L164,100.63015142360227L165,108.06309998075095L166,115.54091650646788L167,123.01953297787473L168,130.4592768399323L169,137.82485980585386L170,145.08528811681686L171,152.21370977051188L172,159.1872131129045L173,165.98658978759528L174,172.59607348151516L175,179.00306429780858L176,185.19784700550903L177,191.17330991769447L178,196.9246697730451L179,202.44920676228978L180,207.74601276089444L181,212.81575490322052L182,217.6604558553419L183,222.28329150345996L184,226.68840625935448L185,230.8807457792895L186,234.86590658362286L187,238.65000183685999L188,242.2395423887557L189,245.64133207415492L190,248.86237621179203L191,251.9098022207866L192,254.79079127997423L193,257.5125199826596L194,260.0821109821442L195,262.50659167680976L196,264.79286004383846L197,266.9476567948092L198,268.97754309210654L199,270.8888831304906L200,272.6878309519895L200.99999999999997,274.38032092352415L202,275.97206136468736L202.99999999999997,277.4685308674708L204,278.87497690022167L204.99999999999997,280.1964163346279L206,281.43763757710855L206.99999999999997,282.6032040247102L208,283.6974586006569L209,284.7245291562559L210,285.6883345541508L211,286.5925912731742L212,287.4408203975172L213,288.23635487284304L214,288.98234692955816L215,289.6817755889305L216,290.3374541813235L217,290.95203781769015L218.00000000000003,291.52803076581847L219,292.06779369180924L220.00000000000003,292.5735507350495L221,293.04739639165314L222.00000000000003,293.49130218710775L223,293.9071231237959L224.00000000000003,294.2966038932599L225,294.6613848466373L225.99999999999997,295.00300771968983L227,295.3229211113576L227.99999999999997,295.6224857168532L229,295.9029793180245L229.99999999999997,296.16560153510983L231,296.4114783451309L231.99999999999997,296.6416663730533L233,296.857156962528L234,297.0588800335355L235,297.2477077346217L236,297.42445789765213L237,297.58989730314954L238,297.74474476432937L239,297.8896740379239L240,298.0253165698071L241,298.15226408329977L242,298.2710710178681L243.00000000000003,298.38225682572966L244,298.48630813365827L245.00000000000003,298.5836807770385L246,298.67480171297007L247.00000000000003,298.76007081895744L248,298.8398625834594L249.00000000000003,298.9145276942985L250,298.98439453066993L250.99999999999997,299.0497705642189L252,299.1109436743978L252.99999999999997,299.1681833830586L254,299.22174201298657L254.99999999999997,299.27185577484016L256,299.3187457867293L257,299.3626190304376L258,299.4036692480784L259,299.4420777827669L260,299.4780143666909L261,299.51163785977405L262,299.543096941942L263,299.5725307618318L264,299.6000695446194L265,299.625835161483L266,299.64994166307554L267,299.6724957792348L268,299.6935973870318L269,299.7133399491278L270,299.73181092429627L271,299.74909215184925L272,299.7652602116071L273,299.7803867609452L274,299.79453885036247L275,299.8077792189239L276,299.82016657084796L277,299.8317558344311L278,299.84259840442627L279,299.8527423689254L280,299.8622327217273L281,299.8711115611137L282,299.8794182758978L283,299.8871897195538L284,299.8944603731877L285,299.90126249805996L286,299.9076262783264L287,299.9135799546217L288,299.9191499490707L289,299.9243609822744L290,299.9292361827847L291,299.9337971895482L292,299.93806424776835L293,299.94205629860875L294,299.94579106313046L295,299.9492851208348L296,299.9525539831555L297,299.95561216222563L298,299.95847323522185L299,299.9611499045697L300,299.9636540542758L301,299.96599680263586L302,299.96818855155084L303,299.97023903266927L304,299.9721573505603L305,299.97395202310696L306,299.9756310193001L307,299.97720179459833L308,299.9786713240117L309,299.9800461330553L310,299.98133232670915L311,299.98253561651364L312,299.9836613459197L313,299.9847145140061L314,299.9856997976695L315,299.9866215723848L316,299.9874839316287L317,299.98829070505127L318,299.98904547547767L319,299.98975159481404L320,299.99041219892877L321,299.9910302215751L322,299.99160840741644L323,299.99214932421273L324,299.9926553742215L325,299.99312880486383L326,299.99357171870406L327,299.9939860827852L328,299.9943737373637L329,299.9947364040808L330,299.9950756936077L331,299.9953931127975L332,299.9956900713768L333,299.99596788820594L334,299.99622779713525L335,299.99647095248463L336,299.99669843416956L337,299.9969112524968L338,299.99711035265096L339,299.9972966188922L340,299.9974708784829L341,299.9976339053617L342,299.99778642358046L343,299.9979291105198L344,299.9980625998975L345,299.99818748458256L346,299.9983043192287L347,299.9984136227371L348,299.9985158805612L349,299.99861154686266L350,299.9987010465283L351,299.9987847770572L352,299.99886311032583L353,299.9989363942398L354,299.9990049542792L355,299.9990690949436L356,299.9991291011048L357,299.9991852392721L358,299.9992377587755L359,299.9992868928735L360,299.99933285978875L361,299.99937586367736L362,299.9994160955357L363,299.9994537340485L364,299.9994889463825" style="fill: none; stroke: orange; stroke-width: 2;"></path></g></g><path class="foreground" d="" style="display: none; fill: none;"></path></g></g></g></svg>