<?xml version="1.0" encoding="UTF-8"?>
<svg width="420px" height="347px" viewBox="0 0 420 347" version="1.1" xmlns="http://www.w3.org/2000/svg" xmlns:xlink="http://www.w3.org/1999/xlink">
    <!-- Generator: Sketch 60.1 (88133) - https://sketch.com -->
    <title>4Mod</title>
    <desc>Created with Sketch.</desc>
    <g id="4Mod" stroke="none" stroke-width="1" fill="none" fill-rule="evenodd">
        <rect id="Rectangle" fill="#FFFFFF" fill-rule="nonzero" x="0" y="0" width="454" height="347"></rect>
        <g id="Group" transform="translate(2.000000, 4.000000)">
            <g>
                <g>
                    <polygon id="Path" stroke="#DDDDDD" points="46.5 6.5 412.5 6.5 412.5 306.5 46.5 306.5"></polygon>
                    <g>
                        <g transform="translate(45.500000, 6.500000)">
                            <g transform="translate(1.000000, 300.000000)"></g>
                            <g id="Path" stroke="#DDDDDD">
                                <g>
                                    <line x1="1" y1="0" x2="1" y2="300"></line>
                                    <line x1="51" y1="0" x2="51" y2="300"></line>
                                    <line x1="101" y1="0" x2="101" y2="300"></line>
                                    <line x1="151" y1="0" x2="151" y2="300"></line>
                                    <line x1="201" y1="0" x2="201" y2="300"></line>
                                    <line x1="251" y1="0" x2="251" y2="300"></line>
                                    <line x1="301" y1="0" x2="301" y2="300"></line>
                                    <line x1="351" y1="0" x2="351" y2="300"></line>
                                    <line x1="368" y1="0" x2="368" y2="300"></line>
                                </g>
                            </g>
                        </g>
                        <g transform="translate(46.500000, 5.500000)">
                            <g transform="translate(0.000000, 1.000000)"></g>
                            <g id="Path" stroke="#DDDDDD">
                                <g>
                                    <line x1="0" y1="301" x2="365" y2="301"></line>
                                    <line x1="0" y1="271" x2="365" y2="271"></line>
                                    <line x1="0" y1="241" x2="365" y2="241"></line>
                                    <line x1="0" y1="211" x2="365" y2="211"></line>
                                    <line x1="0" y1="181" x2="365" y2="181"></line>
                                    <line x1="0" y1="151" x2="365" y2="151"></line>
                                    <line x1="0" y1="121" x2="365" y2="121"></line>
                                    <line x1="0" y1="91" x2="365" y2="91"></line>
                                    <line x1="0" y1="61" x2="365" y2="61"></line>
                                    <line x1="0" y1="31" x2="365" y2="31"></line>
                                    <line x1="0" y1="1" x2="365" y2="1"></line>
                                </g>
                            </g>
                        </g>
                        <g transform="translate(45.500000, 305.500000)">
                            <g transform="translate(1.000000, 1.000000)"></g>
                            <g>
                                <g id="Path" stroke="#888888">
                                    <line x1="1" y1="1" x2="1" y2="6"></line>
                                    <line x1="51" y1="1" x2="51" y2="6"></line>
                                    <line x1="101" y1="1" x2="101" y2="6"></line>
                                    <line x1="151" y1="1" x2="151" y2="6"></line>
                                    <line x1="201" y1="1" x2="201" y2="6"></line>
                                    <line x1="251" y1="1" x2="251" y2="6"></line>
                                    <line x1="301" y1="1" x2="301" y2="6"></line>
                                    <line x1="351" y1="1" x2="351" y2="6"></line>
                                    <line x1="366" y1="1" x2="362" y2="1"></line>
                                </g>
                                <g transform="translate(1.000000, 7.000000)" fill="#000000" font-family="Interstate-Light, Interstate" font-size="10" font-weight="300">
                                    <text id="0">
                                        <tspan x="7.10542736e-15" y="9">0</tspan>
                                    </text>
                                    <text id="50">
                                        <tspan x="44" y="9">50</tspan>
                                    </text>
                                    <text id="100">
                                        <tspan x="91.5" y="9">100</tspan>
                                    </text>
                                    <text id="150">
                                        <tspan x="141.5" y="9">150</tspan>
                                    </text>
                                    <text id="200">
                                        <tspan x="191.5" y="9">200</tspan>
                                    </text>
                                    <text id="250">
                                        <tspan x="241.5" y="9">250</tspan>
                                    </text>
                                    <text id="300">
                                        <tspan x="291.5" y="9">300</tspan>
                                    </text>
                                    <text id="350">
                                        <tspan x="341.5" y="9">350</tspan>
                                    </text>
                                </g>
                                <line x1="1" y1="1" x2="369" y2="1" id="Path" stroke="#888888"></line>
                                <text id="Tage" fill="#000000" font-family="Helvetica" font-size="11" font-weight="normal">
                                    <tspan x="189" y="31">Tage</tspan>
                                </text>
                            </g>
                        </g>
                        <g transform="translate(0.500000, 0.500000)">
                            <g transform="translate(46.000000, 6.000000)"></g>
                            <g>
                                <g transform="translate(41.000000, 5.000000)" id="Path" stroke="#888888">
                                    <line x1="5" y1="301" x2="0" y2="301"></line>
                                    <line x1="5" y1="271" x2="0" y2="271"></line>
                                    <line x1="5" y1="241" x2="0" y2="241"></line>
                                    <line x1="5" y1="211" x2="0" y2="211"></line>
                                    <line x1="5" y1="181" x2="0" y2="181"></line>
                                    <line x1="5" y1="151" x2="0" y2="151"></line>
                                    <line x1="5" y1="121" x2="0" y2="121"></line>
                                    <line x1="5" y1="91" x2="0" y2="91"></line>
                                    <line x1="5" y1="61" x2="0" y2="61"></line>
                                    <line x1="5" y1="31" x2="0" y2="31"></line>
                                    <line x1="5" y1="1" x2="0" y2="1"></line>
                                </g>
                                <g transform="translate(14.000000, 0.000000)" fill="#000000" font-family="Interstate-Light, Interstate" font-size="10" font-weight="300">
                                    <text id="0%">
                                        <tspan x="8.95" y="309">0%</tspan>
                                    </text>
                                    <text id="2%">
                                        <tspan x="9.68" y="279">2%</tspan>
                                    </text>
                                    <text id="4%">
                                        <tspan x="9.37" y="249">4%</tspan>
                                    </text>
                                    <text id="6%">
                                        <tspan x="9.38" y="219">6%</tspan>
                                    </text>
                                    <text id="8%">
                                        <tspan x="9.11" y="189">8%</tspan>
                                    </text>
                                    <text id="10%">
                                        <tspan x="5.83" y="159">10%</tspan>
                                    </text>
                                    <text id="12%">
                                        <tspan x="6.56" y="129">12%</tspan>
                                    </text>
                                    <text id="14%">
                                        <tspan x="6.25" y="99">14%</tspan>
                                    </text>
                                    <text id="16%">
                                        <tspan x="6.26" y="69">16%</tspan>
                                    </text>
                                    <text id="18%">
                                        <tspan x="5.99" y="39">18%</tspan>
                                    </text>
                                    <text id="20%">
                                        <tspan x="3.44" y="9">20%</tspan>
                                    </text>
                                </g>
                                <line x1="46" y1="306" x2="46" y2="6" id="Path" stroke="#888888"></line>
                                <text id="Anteil-der-Bevölkerung" fill="#000000" transform="translate(6.985352, 139.000000) rotate(-90.000000) translate(-6.985352, -139.000000) " font-family="Interstate-Light, Interstate" font-size="11" font-weight="300">
                                    <tspan x="-59.5146484" y="143">Anteil der Bevölkerung</tspan>
                                </text>
                            </g>
                        </g>
                    </g>
                </g>
            </g>
        </g>
        <polygon id="Path" fill="#82B7D7" fill-rule="nonzero" opacity="0.5" points="48 309 48 309 49 309 49 309 50 309 50 309 51 309 51 309 52 309 52 309 53 309 53 309 54 309 54 309 55 309 55 309 56 309 56 309 57 309 57 309 58 309 58 309 59 309 59 309 60 309 60 309 61 309 61 309 62 309 62 309 63 309 63 309 64 309 64 309 65 309 65 309 66 309 66 309 67 309 67 309 68 309 68 309 69 309 69 309 70 309 70 309 71 309 71 309 72 309 72 309 73 309 73 309 74 309 74 309 75 309 75 309 76 309 76 309 77 309 77 9 78 9 78 9 79 9 79 9 80 9 80 9 81 9 81 9 82 9 82 9 83 9 83 9 84 9 84 9 85 9 85 9 86 9 86 9 87 9 87 9 88 9 88 9 89 9 89 9 90 9 90 9 91 9 91 9 92 9 92 9 93 9 93 9 94 9 94 9 95 9 95 9 96 9 96 9 97 9 97 9 98 9 98 9 99 9 99 9 100 9 100 9 101 9 101 9 102 9 102 9 103 9 103 9 104 9 104 9 105 9 105 9 106 9 106 309 107 309 107 309 108 309 108 309 109 309 109 309 110 309 110 309 111 309 111 309 112 309 112 309 113 309 113 309 114 309 114 309 115 309 115 309 116 309 116 309 117 309 117 309 118 309 118 309 119 309 119 309 120 309 120 309 121 309 121 309 122 309 122 309 123 309 123 309 124 309 124 309 125 309 125 309 126 309 126 309 127 309 127 309 128 309 128 309 129 309 129 309 130 309 130 309 131 309 131 309 132 309 132 309 133 309 133 309 134 309 134 309 135 309 135 309 136 309 136 309 137 309 137 309 138 309 138 309 139 309 139 309 140 309 140 309 141 309 141 309 142 309 142 309 143 309 143 309 144 309 144 309 145 309 145 309 146 309 146 309 147 309 147 309 148 309 148 309 149 309 149 309 150 309 150 309 151 309 151 309 152 309 152 309 153 309 153 309 154 309 154 309 155 309 155 309 156 309 156 309 157 309 157 309 158 309 158 309 159 309 159 309 160 309 160 309 161 309 161 309 162 309 162 309 163 309 163 309 164 309 164 309 165 309 165 309 166 309 166 309 167 309 167 309 168 309 168 309 169 309 169 309 170 309 170 309 171 309 171 309 172 309 172 309 173 309 173 309 174 309 174 309 175 309 175 309 176 309 176 309 177 309 177 309 178 309 178 309 179 309 179 309 180 309 180 309 181 309 181 309 182 309 182 309 183 309 183 309 184 309 184 309 185 309 185 309 186 309 186 309 187 309 187 309 188 309 188 309 189 309 189 309 190 309 190 309 191 309 191 309 192 309 192 309 193 309 193 309 194 309 194 309 195 309 195 309 196 309 196 309 197 309 197 309 198 309 198 309 199 309 199 309 200 309 200 309 201 309 201 309 202 309 202 309 203 309 203 309 204 309 204 309 205 309 205 309 206 309 206 309 207 309 207 309 208 309 208 309 209 309 209 309 210 309 210 309 211 309 211 309 212 309 212 309 213 309 213 309 214 309 214 309 215 309 215 309 216 309 216 309 217 309 217 309 218 309 218 309 219 309 219 309 220 309 220 309 221 309 221 309 222 309 222 309 223 309 223 309 224 309 224 309 225 309 225 309 226 309 226 309 227 309 227 309 228 309 228 309 229 309 229 309 230 309 230 309 231 309 231 309 232 309 232 309 233 309 233 309 234 309 234 309 235 309 235 309 236 309 236 309 237 309 237 309 238 309 238 309 239 309 239 309 240 309 240 309 241 309 241 309 242 309 242 309 243 309 243 309 244 309 244 309 245 309 245 309 246 309 246 309 247 309 247 309 248 309 248 309 249 309 249 309 250 309 250 309 251 309 251 309 252 309 252 309 253 309 253 309 254 309 254 309 255 309 255 309 256 309 256 309 257 309 257 309 258 309 258 309 259 309 259 309 260 309 260 309 261 309 261 309 262 309 262 309 263 309 263 309 264 309 264 309 265 309 265 309 266 309 266 309 267 309 267 309 268 309 268 309 269 309 269 309 270 309 270 309 271 309 271 309 272 309 272 309 273 309 273 309 274 309 274 309 275 309 275 309 276 309 276 309 277 309 277 309 278 309 278 309 279 309 279 309 280 309 280 309 281 309 281 309 282 309 282 309 283 309 283 309 284 309 284 309 285 309 285 309 286 309 286 309 287 309 287 309 288 309 288 309 289 309 289 309 290 309 290 309 291 309 291 309 292 309 292 309 293 309 293 309 294 309 294 309 295 309 295 309 296 309 296 309 297 309 297 309 298 309 298 309 299 309 299 309 300 309 300 309 301 309 301 309 302 309 302 309 303 309 303 309 304 309 304 309 305 309 305 309 306 309 306 309 307 309 307 309 308 309 308 309 309 309 309 309 310 309 310 309 311 309 311 309 312 309 312 309 313 309 313 309 314 309 314 309 315 309 315 309 316 309 316 309 317 309 317 309 318 309 318 309 319 309 319 309 320 309 320 309 321 309 321 309 322 309 322 309 323 309 323 309 324 309 324 309 325 309 325 309 326 309 326 309 327 309 327 309 328 309 328 309 329 309 329 309 330 309 330 309 331 309 331 309 332 309 332 309 333 309 333 309 334 309 334 309 335 309 335 309 336 309 336 309 337 309 337 309 338 309 338 309 339 309 339 309 340 309 340 309 341 309 341 309 342 309 342 309 343 309 343 309 344 309 344 309 345 309 345 309 346 309 346 309 347 309 347 309 348 309 348 309 349 309 349 309 350 309 350 309 351 309 351 309 352 309 352 309 353 309 353 309 354 309 354 309 355 309 355 309 356 309 356 309 357 309 357 309 358 309 358 309 359 309 359 309 360 309 360 309 361 309 361 309 362 309 362 309 363 309 363 309 364 309 364 309 365 309 365 309 366 309 366 309 367 309 367 309 368 309 368 309 369 309 369 309 370 309 370 309 371 309 371 309 372 309 372 309 373 309 373 309 374 309 374 309 375 309 375 309 376 309 376 309 377 309 377 309 378 309 378 309 379 309 379 309 380 309 380 309 381 309 381 309 382 309 382 309 383 309 383 309 384 309 384 309 385 309 385 309 386 309 386 309 387 309 387 309 388 309 388 309 389 309 389 309 390 309 390 309 391 309 391 309 392 309 392 309 393 309 393 309 394 309 394 309 395 309 395 309 396 309 396 309 397 309 397 309 398 309 398 309 399 309 399 309 400 309 400 309 401 309 401 309 402 309 402 309 403 309 403 309 404 309 404 309 405 309 405 309 406 309 406 309 407 309 407 309 408 309 408 309 409 309 409 309 410 309 410 309 411 309 411 309 412 309 412 309 411 309 411 309 410 309 410 309 409 309 409 309 408 309 408 309 407 309 407 309 406 309 406 309 405 309 405 309 404 309 404 309 403 309 403 309 402 309 402 309 401 309 401 309 400 309 400 309 399 309 399 309 398 309 398 309 397 309 397 309 396 309 396 309 395 309 395 309 394 309 394 309 393 309 393 309 392 309 392 309 391 309 391 309 390 309 390 309 389 309 389 309 388 309 388 309 387 309 387 309 386 309 386 309 385 309 385 309 384 309 384 309 383 309 383 309 382 309 382 309 381 309 381 309 380 309 380 309 379 309 379 309 378 309 378 309 377 309 377 309 376 309 376 309 375 309 375 309 374 309 374 309 373 309 373 309 372 309 372 309 371 309 371 309 370 309 370 309 369 309 369 309 368 309 368 309 367 309 367 309 366 309 366 309 365 309 365 309 364 309 364 309 363 309 363 309 362 309 362 309 361 309 361 309 360 309 360 309 359 309 359 309 358 309 358 309 357 309 357 309 356 309 356 309 355 309 355 309 354 309 354 309 353 309 353 309 352 309 352 309 351 309 351 309 350 309 350 309 349 309 349 309 348 309 348 309 347 309 347 309 346 309 346 309 345 309 345 309 344 309 344 309 343 309 343 309 342 309 342 309 341 309 341 309 340 309 340 309 339 309 339 309 338 309 338 309 337 309 337 309 336 309 336 309 335 309 335 309 334 309 334 309 333 309 333 309 332 309 332 309 331 309 331 309 330 309 330 309 329 309 329 309 328 309 328 309 327 309 327 309 326 309 326 309 325 309 325 309 324 309 324 309 323 309 323 309 322 309 322 309 321 309 321 309 320 309 320 309 319 309 319 309 318 309 318 309 317 309 317 309 316 309 316 309 315 309 315 309 314 309 314 309 313 309 313 309 312 309 312 309 311 309 311 309 310 309 310 309 309 309 309 309 308 309 308 309 307 309 307 309 306 309 306 309 305 309 305 309 304 309 304 309 303 309 303 309 302 309 302 309 301 309 301 309 300 309 300 309 299 309 299 309 298 309 298 309 297 309 297 309 296 309 296 309 295 309 295 309 294 309 294 309 293 309 293 309 292 309 292 309 291 309 291 309 290 309 290 309 289 309 289 309 288 309 288 309 287 309 287 309 286 309 286 309 285 309 285 309 284 309 284 309 283 309 283 309 282 309 282 309 281 309 281 309 280 309 280 309 279 309 279 309 278 309 278 309 277 309 277 309 276 309 276 309 275 309 275 309 274 309 274 309 273 309 273 309 272 309 272 309 271 309 271 309 270 309 270 309 269 309 269 309 268 309 268 309 267 309 267 309 266 309 266 309 265 309 265 309 264 309 264 309 263 309 263 309 262 309 262 309 261 309 261 309 260 309 260 309 259 309 259 309 258 309 258 309 257 309 257 309 256 309 256 309 255 309 255 309 254 309 254 309 253 309 253 309 252 309 252 309 251 309 251 309 250 309 250 309 249 309 249 309 248 309 248 309 247 309 247 309 246 309 246 309 245 309 245 309 244 309 244 309 243 309 243 309 242 309 242 309 241 309 241 309 240 309 240 309 239 309 239 309 238 309 238 309 237 309 237 309 236 309 236 309 235 309 235 309 234 309 234 309 233 309 233 309 232 309 232 309 231 309 231 309 230 309 230 309 229 309 229 309 228 309 228 309 227 309 227 309 226 309 226 309 225 309 225 309 224 309 224 309 223 309 223 309 222 309 222 309 221 309 221 309 220 309 220 309 219 309 219 309 218 309 218 309 217 309 217 309 216 309 216 309 215 309 215 309 214 309 214 309 213 309 213 309 212 309 212 309 211 309 211 309 210 309 210 309 209 309 209 309 208 309 208 309 207 309 207 309 206 309 206 309 205 309 205 309 204 309 204 309 203 309 203 309 202 309 202 309 201 309 201 309 200 309 200 309 199 309 199 309 198 309 198 309 197 309 197 309 196 309 196 309 195 309 195 309 194 309 194 309 193 309 193 309 192 309 192 309 191 309 191 309 190 309 190 309 189 309 189 309 188 309 188 309 187 309 187 309 186 309 186 309 185 309 185 309 184 309 184 309 183 309 183 309 182 309 182 309 181 309 181 309 180 309 180 309 179 309 179 309 178 309 178 309 177 309 177 309 176 309 176 309 175 309 175 309 174 309 174 309 173 309 173 309 172 309 172 309 171 309 171 309 170 309 170 309 169 309 169 309 168 309 168 309 167 309 167 309 166 309 166 309 165 309 165 309 164 309 164 309 163 309 163 309 162 309 162 309 161 309 161 309 160 309 160 309 159 309 159 309 158 309 158 309 157 309 157 309 156 309 156 309 155 309 155 309 154 309 154 309 153 309 153 309 152 309 152 309 151 309 151 309 150 309 150 309 149 309 149 309 148 309 148 309 147 309 147 309 146 309 146 309 145 309 145 309 144 309 144 309 143 309 143 309 142 309 142 309 141 309 141 309 140 309 140 309 139 309 139 309 138 309 138 309 137 309 137 309 136 309 136 309 135 309 135 309 134 309 134 309 133 309 133 309 132 309 132 309 131 309 131 309 130 309 130 309 129 309 129 309 128 309 128 309 127 309 127 309 126 309 126 309 125 309 125 309 124 309 124 309 123 309 123 309 122 309 122 309 121 309 121 309 120 309 120 309 119 309 119 309 118 309 118 309 117 309 117 309 116 309 116 309 115 309 115 309 114 309 114 309 113 309 113 309 112 309 112 309 111 309 111 309 110 309 110 309 109 309 109 309 108 309 108 309 107 309 107 309 106 309 106 309 105 309 105 309 104 309 104 309 103 309 103 309 102 309 102 309 101 309 101 309 100 309 100 309 99 309 99 309 98 309 98 309 97 309 97 309 96 309 96 309 95 309 95 309 94 309 94 309 93 309 93 309 92 309 92 309 91 309 91 309 90 309 90 309 89 309 89 309 88 309 88 309 87 309 87 309 86 309 86 309 85 309 85 309 84 309 84 309 83 309 83 309 82 309 82 309 81 309 81 309 80 309 80 309 79 309 79 309 78 309 78 309 77 309 77 309 76 309 76 309 75 309 75 309 74 309 74 309 73 309 73 309 72 309 72 309 71 309 71 309 70 309 70 309 69 309 69 309 68 309 68 309 67 309 67 309 66 309 66 309 65 309 65 309 64 309 64 309 63 309 63 309 62 309 62 309 61 309 61 309 60 309 60 309 59 309 59 309 58 309 58 309 57 309 57 309 56 309 56 309 55 309 55 309 54 309 54 309 53 309 53 309 52 309 52 309 51 309 51 309 50 309 50 309 49 309 49 309"></polygon>
        <polygon id="Path" fill="#FFFFFF" fill-rule="nonzero" opacity="0.5" points="48 309 49 309 49 309 50 309 50 309 51 309 51 309 52 309 52 309 53 309 53 309 54 309 54 309 55 309 55 309 56 309 56 309 57 309 57 309 58 309 58 309 59 309 59 309 60 309 60 309 61 309 61 309 62 309 62 309 63 309 63 309 64 309 64 309 65 309 65 309 66 309 66 309 67 309 67 309 68 309 68 309 69 309 69 309 70 309 70 309 71 309 71 309 72 309 72 309 73 309 73 309 74 309 74 309 75 309 75 309 76 309 76 309 77 309 77 309 78 309 78 309 79 309 79 309 80 309 80 309 81 309 81 309 82 309 82 309 83 309 83 309 84 309 84 309 85 309 85 309 86 309 86 309 87 309 87 309 88 309 88 309 89 309 89 309 90 309 90 309 91 309 91 309 92 309 92 309 93 309 93 309 94 309 94 309 95 309 95 309 96 309 96 309 97 309 97 309 98 309 98 309 99 309 99 309 100 309 100 309 101 309 101 309 102 309 102 309 103 309 103 309 104 309 104 309 105 309 105 309 106 309 106 9 107 9 107 9 108 9 108 9 109 9 109 9 110 9 110 9 111 9 111 9 112 9 112 9 113 9 113 9 114 9 114 9 115 9 115 9 116 9 116 9 117 9 117 9 118 9 118 9 119 9 119 9 120 9 120 9 121 9 121 9 122 9 122 9 123 9 123 9 124 9 124 9 125 9 125 9 126 9 126 9 127 9 127 9 128 9 128 9 129 9 129 9 130 9 130 9 131 9 131 9 132 9 132 9 133 9 133 9 134 9 134 9 135 9 135 9 136 9 136 9 137 9 137 9 138 9 138 9 139 9 139 9 140 9 140 9 141 9 141 9 142 9 142 9 143 9 143 9 144 9 144 9 145 9 145 9 146 9 146 9 147 9 147 9 148 9 148 9 149 9 149 9 150 9 150 9 151 9 151 9 152 9 152 9 153 9 153 9 154 9 154 9 155 9 155 9 156 9 156 9 157 9 157 9 158 9 158 9 159 9 159 9 160 9 160 9 161 9 161 9 162 9 162 9 163 9 163 9 164 9 164 9 165 9 165 9 166 9 166 9 167 9 167 9 168 9 168 9 169 9 169 9 170 9 170 9 171 9 171 9 172 9 172 9 173 9 173 9 174 9 174 9 175 9 175 9 176 9 176 9 177 9 177 9 178 9 178 9 179 9 179 9 180 9 180 9 181 9 181 9 182 9 182 9 183 9 183 9 184 9 184 9 185 9 185 9 186 9 186 9 187 9 187 9 188 9 188 9 189 9 189 9 190 9 190 9 191 9 191 9 192 9 192 9 193 9 193 9 194 9 194 9 195 9 195 9 196 9 196 9 197 9 197 9 198 9 198 9 199 9 199 9 200 9 200 9 201 9 201 9 202 9 202 9 203 9 203 9 204 9 204 9 205 9 205 9 206 9 206 9 207 9 207 9 208 9 208 9 209 9 209 9 210 9 210 9 211 9 211 9 212 9 212 9 213 9 213 9 214 9 214 9 215 9 215 9 216 9 216 9 217 9 217 9 218 9 218 9 219 9 219 9 220 9 220 9 221 9 221 9 222 9 222 9 223 9 223 9 224 9 224 9 225 9 225 9 226 9 226 9 227 9 227 9 228 9 228 9 229 9 229 9 230 9 230 9 231 9 231 9 232 9 232 9 233 9 233 9 234 9 234 9 235 9 235 9 236 9 236 9 237 9 237 9 238 9 238 9 239 9 239 9 240 9 240 9 241 9 241 9 242 9 242 9 243 9 243 9 244 9 244 9 245 9 245 9 246 9 246 9 247 9 247 9 248 9 248 9 249 9 249 9 250 9 250 9 251 9 251 9 252 9 252 9 253 9 253 9 254 9 254 9 255 9 255 9 256 9 256 9 257 9 257 9 258 9 258 9 259 9 259 9 260 9 260 9 261 9 261 9 262 9 262 9 263 9 263 9 264 9 264 9 265 9 265 9 266 9 266 9 267 9 267 9 268 9 268 9 269 9 269 9 270 9 270 9 271 9 271 9 272 9 272 9 273 9 273 9 274 9 274 9 275 9 275 9 276 9 276 9 277 9 277 9 278 9 278 9 279 9 279 9 280 9 280 9 281 9 281 9 282 9 282 9 283 9 283 9 284 9 284 9 285 9 285 9 286 9 286 9 287 9 287 9 288 9 288 9 289 9 289 9 290 9 290 9 291 9 291 9 292 9 292 9 293 9 293 9 294 9 294 9 295 9 295 9 296 9 296 9 297 9 297 9 298 9 298 9 299 9 299 9 300 9 300 9 301 9 301 9 302 9 302 9 303 9 303 9 304 9 304 9 305 9 305 9 306 9 306 9 307 9 307 9 308 9 308 9 309 9 309 9 310 9 310 9 311 9 311 9 312 9 312 9 313 9 313 9 314 9 314 9 315 9 315 9 316 9 316 9 317 9 317 9 318 9 318 9 319 9 319 9 320 9 320 9 321 9 321 9 322 9 322 9 323 9 323 9 324 9 324 9 325 9 325 9 326 9 326 9 327 9 327 9 328 9 328 9 329 9 329 9 330 9 330 9 331 9 331 9 332 9 332 9 333 9 333 9 334 9 334 9 335 9 335 9 336 9 336 9 337 9 337 9 338 9 338 9 339 9 339 9 340 9 340 9 341 9 341 9 342 9 342 9 343 9 343 9 344 9 344 9 345 9 345 9 346 9 346 9 347 9 347 9 348 9 348 9 349 9 349 9 350 9 350 9 351 9 351 9 352 9 352 9 353 9 353 9 354 9 354 9 355 9 355 9 356 9 356 9 357 9 357 9 358 9 358 9 359 9 359 9 360 9 360 9 361 9 361 9 362 9 362 9 363 9 363 9 364 9 364 9 365 9 365 9 366 9 366 9 367 9 367 9 368 9 368 9 369 9 369 9 370 9 370 9 371 9 371 9 372 9 372 9 373 9 373 9 374 9 374 9 375 9 375 9 376 9 376 9 377 9 377 9 378 9 378 9 379 9 379 9 380 9 380 9 381 9 381 9 382 9 382 9 383 9 383 9 384 9 384 9 385 9 385 9 386 9 386 9 387 9 387 9 388 9 388 9 389 9 389 9 390 9 390 9 391 9 391 9 392 9 392 9 393 9 393 9 394 9 394 9 395 9 395 9 396 9 396 9 397 9 397 9 398 9 398 9 399 9 399 9 400 9 400 9 401 9 401 9 402 9 402 9 403 9 403 9 404 9 404 9 405 9 405 9 406 9 406 9 407 9 407 9 408 9 408 9 409 9 409 9 410 9 410 9 411 9 411 9 412 9 412 9 412 309 412 309 411 309 411 309 410 309 410 309 409 309 409 309 408 309 408 309 407 309 407 309 406 309 406 309 405 309 405 309 404 309 404 309 403 309 403 309 402 309 402 309 401 309 401 309 400 309 400 309 399 309 399 309 398 309 398 309 397 309 397 309 396 309 396 309 395 309 395 309 394 309 394 309 393 309 393 309 392 309 392 309 391 309 391 309 390 309 390 309 389 309 389 309 388 309 388 309 387 309 387 309 386 309 386 309 385 309 385 309 384 309 384 309 383 309 383 309 382 309 382 309 381 309 381 309 380 309 380 309 379 309 379 309 378 309 378 309 377 309 377 309 376 309 376 309 375 309 375 309 374 309 374 309 373 309 373 309 372 309 372 309 371 309 371 309 370 309 370 309 369 309 369 309 368 309 368 309 367 309 367 309 366 309 366 309 365 309 365 309 364 309 364 309 363 309 363 309 362 309 362 309 361 309 361 309 360 309 360 309 359 309 359 309 358 309 358 309 357 309 357 309 356 309 356 309 355 309 355 309 354 309 354 309 353 309 353 309 352 309 352 309 351 309 351 309 350 309 350 309 349 309 349 309 348 309 348 309 347 309 347 309 346 309 346 309 345 309 345 309 344 309 344 309 343 309 343 309 342 309 342 309 341 309 341 309 340 309 340 309 339 309 339 309 338 309 338 309 337 309 337 309 336 309 336 309 335 309 335 309 334 309 334 309 333 309 333 309 332 309 332 309 331 309 331 309 330 309 330 309 329 309 329 309 328 309 328 309 327 309 327 309 326 309 326 309 325 309 325 309 324 309 324 309 323 309 323 309 322 309 322 309 321 309 321 309 320 309 320 309 319 309 319 309 318 309 318 309 317 309 317 309 316 309 316 309 315 309 315 309 314 309 314 309 313 309 313 309 312 309 312 309 311 309 311 309 310 309 310 309 309 309 309 309 308 309 308 309 307 309 307 309 306 309 306 309 305 309 305 309 304 309 304 309 303 309 303 309 302 309 302 309 301 309 301 309 300 309 300 309 299 309 299 309 298 309 298 309 297 309 297 309 296 309 296 309 295 309 295 309 294 309 294 309 293 309 293 309 292 309 292 309 291 309 291 309 290 309 290 309 289 309 289 309 288 309 288 309 287 309 287 309 286 309 286 309 285 309 285 309 284 309 284 309 283 309 283 309 282 309 282 309 281 309 281 309 280 309 280 309 279 309 279 309 278 309 278 309 277 309 277 309 276 309 276 309 275 309 275 309 274 309 274 309 273 309 273 309 272 309 272 309 271 309 271 309 270 309 270 309 269 309 269 309 268 309 268 309 267 309 267 309 266 309 266 309 265 309 265 309 264 309 264 309 263 309 263 309 262 309 262 309 261 309 261 309 260 309 260 309 259 309 259 309 258 309 258 309 257 309 257 309 256 309 256 309 255 309 255 309 254 309 254 309 253 309 253 309 252 309 252 309 251 309 251 309 250 309 250 309 249 309 249 309 248 309 248 309 247 309 247 309 246 309 246 309 245 309 245 309 244 309 244 309 243 309 243 309 242 309 242 309 241 309 241 309 240 309 240 309 239 309 239 309 238 309 238 309 237 309 237 309 236 309 236 309 235 309 235 309 234 309 234 309 233 309 233 309 232 309 232 309 231 309 231 309 230 309 230 309 229 309 229 309 228 309 228 309 227 309 227 309 226 309 226 309 225 309 225 309 224 309 224 309 223 309 223 309 222 309 222 309 221 309 221 309 220 309 220 309 219 309 219 309 218 309 218 309 217 309 217 309 216 309 216 309 215 309 215 309 214 309 214 309 213 309 213 309 212 309 212 309 211 309 211 309 210 309 210 309 209 309 209 309 208 309 208 309 207 309 207 309 206 309 206 309 205 309 205 309 204 309 204 309 203 309 203 309 202 309 202 309 201 309 201 309 200 309 200 309 199 309 199 309 198 309 198 309 197 309 197 309 196 309 196 309 195 309 195 309 194 309 194 309 193 309 193 309 192 309 192 309 191 309 191 309 190 309 190 309 189 309 189 309 188 309 188 309 187 309 187 309 186 309 186 309 185 309 185 309 184 309 184 309 183 309 183 309 182 309 182 309 181 309 181 309 180 309 180 309 179 309 179 309 178 309 178 309 177 309 177 309 176 309 176 309 175 309 175 309 174 309 174 309 173 309 173 309 172 309 172 309 171 309 171 309 170 309 170 309 169 309 169 309 168 309 168 309 167 309 167 309 166 309 166 309 165 309 165 309 164 309 164 309 163 309 163 309 162 309 162 309 161 309 161 309 160 309 160 309 159 309 159 309 158 309 158 309 157 309 157 309 156 309 156 309 155 309 155 309 154 309 154 309 153 309 153 309 152 309 152 309 151 309 151 309 150 309 150 309 149 309 149 309 148 309 148 309 147 309 147 309 146 309 146 309 145 309 145 309 144 309 144 309 143 309 143 309 142 309 142 309 141 309 141 309 140 309 140 309 139 309 139 309 138 309 138 309 137 309 137 309 136 309 136 309 135 309 135 309 134 309 134 309 133 309 133 309 132 309 132 309 131 309 131 309 130 309 130 309 129 309 129 309 128 309 128 309 127 309 127 309 126 309 126 309 125 309 125 309 124 309 124 309 123 309 123 309 122 309 122 309 121 309 121 309 120 309 120 309 119 309 119 309 118 309 118 309 117 309 117 309 116 309 116 309 115 309 115 309 114 309 114 309 113 309 113 309 112 309 112 309 111 309 111 309 110 309 110 309 109 309 109 309 108 309 108 309 107 309 107 309 106 309 106 309 105 309 105 309 104 309 104 309 103 309 103 309 102 309 102 309 101 309 101 309 100 309 100 309 99 309 99 309 98 309 98 309 97 309 97 309 96 309 96 309 95 309 95 309 94 309 94 309 93 309 93 309 92 309 92 309 91 309 91 309 90 309 90 309 89 309 89 309 88 309 88 309 87 309 87 309 86 309 86 309 85 309 85 309 84 309 84 309 83 309 83 309 82 309 82 309 81 309 81 309 80 309 80 309 79 309 79 309 78 309 78 309 77 309 77 309 76 309 76 309 75 309 75 309 74 309 74 309 73 309 73 309 72 309 72 309 71 309 71 309 70 309 70 309 69 309 69 309 68 309 68 309 67 309 67 309 66 309 66 309 65 309 65 309 64 309 64 309 63 309 63 309 62 309 62 309 61 309 61 309 60 309 60 309 59 309 59 309 58 309 58 309 57 309 57 309 56 309 56 309 55 309 55 309 54 309 54 309 53 309 53 309 52 309 52 309 51 309 51 309 50 309 50 309 49 309 49 309"></polygon>
        <polyline id="Path" stroke="#FFA500" stroke-width="2" points="48 308.981707 49 308.982806 50 308.982813 51 308.982115 52 308.98093 53 308.979382 54 308.977535 55 308.975419 56 308.973042 57 308.9704 58 308.967476 59 308.964252 60 308.9607 61 308.956791 62 308.95249 63 308.94776 64 308.942558 65 308.936838 66 308.930548 67 308.923631 68 308.916026 69 308.907663 70 308.898467 71 308.888357 72 308.877239 73 308.865015 74 308.851573 75 308.836794 76 308.820544 77 308.802676 78 308.786747 79 308.774983 80 308.765839 81 308.758327 82 308.751823 83 308.745927 84 308.740385 85 308.735034 86 308.729772 87 308.724531 88 308.719269 89 308.713958 90 308.708579 91 308.70312 92 308.697572 93 308.69193 94 308.686188 95 308.680343 96 308.674393 97 308.668333 98 308.662163 99 308.655879 100 308.649479 101 308.642962 102 308.636324 103 308.629564 104 308.62268 105 308.615668 106 308.601461 107 308.575972 108 308.542137 109 308.501517 110 308.454847 111 308.402356 112 308.343953 113 308.279343 114 308.20808 115 308.129606 116 308.043268 117 307.948323 118 307.843944 119 307.729212 120 307.603115 121 307.464541 122 307.312265 123 307.144947 124 306.961113 125 306.759149 126 306.537286 127 306.293586 128 306.025927 129 305.731985 130 305.40922 131 305.054852 132 304.665844 133 304.238879 134 303.770335 135 303.256265 136 302.692365 137 302.07395 138 301.395923 139 300.65275 140 299.838424 141 298.946436 142 297.969744 143 296.900745 144 295.731239 145 294.45241 146 293.054793 147 291.528261 148 289.862005 149 288.044531 150 286.063661 151 283.906545 152 281.559695 153 279.009028 154 276.239937 155 273.237384 156 269.986017 157 266.470335 158 262.674875 159 258.584448 160 254.184424 161 249.46106 162 244.401883 163 238.996129 164 233.235225 165 227.113329 166 220.627907 167 213.780344 168 206.576572 169 199.0277 170 191.150616 171 182.968548 172 174.511531 173 165.816769 174 156.928832 175 147.899688 176 138.788489 177 129.66114 178 120.589585 179 111.650832 180 102.925732 181 94.4974957 182 86.4500457 183 78.8661969 184 71.8257714 185 65.403725 186 59.6683252 187 54.6795168 188 50.487491 189 47.1315593 190 44.639358 191 43.0264161 192 42.2960918 193 42.4398662 194 43.4379656 195 45.2602671 196 47.867435 197 51.2122265 198 55.2409055 199 59.8947039 200 65.1112746 201 70.8260896 202 76.9737429 203 83.4891291 204 90.3084778 205 97.3702328 206 104.615771 207 111.989967 208 119.441605 209 126.923665 210 134.393472 211 141.812753 212 149.147599 213 156.368352 214 163.449435 215 170.36914 216 177.10938 217 183.655425 218 189.99562 219 196.121107 220 202.025541 221 207.704822 222 213.156831 223 218.381182 224 223.378996 225 228.15268 226 232.705737 227 237.04258 228 241.168377 229 245.088901 230 248.810403 231 252.339495 232 255.683053 233 258.84813 234 261.841875 235 264.671474 236 267.344089 237 269.866817 238 272.246646 239 274.490427 240 276.604845 241 278.5964 242 280.471389 243 282.235899 244 283.89579 245 285.4567 246 286.924032 247 288.30296 248 289.598429 249 290.815154 250 291.957628 251 293.030125 252 294.036705 253 294.981223 254 295.867331 255 296.69849 256 297.477976 257 298.208883 258 298.894138 259 299.536502 260 300.138583 261 300.702838 262 301.231583 263 301.727001 264 302.191146 265 302.625953 266 303.03324 267 303.414718 268 303.771996 269 304.106586 270 304.419907 271 304.713293 272 304.987997 273 305.245195 274 305.48599 275 305.711417 276 305.922448 277 306.119994 278 306.30491 279 306.477997 280 306.640006 281 306.791642 282 306.933564 283 307.066391 284 307.190702 285 307.307042 286 307.415917 287 307.517806 288 307.613155 289 307.702382 290 307.785878 291 307.86401 292 307.937122 293 308.005535 294 308.069551 295 308.129451 296 308.1855 297 308.237944 298 308.287014 299 308.332928 300 308.375888 301 308.416084 302 308.453693 303 308.488881 304 308.521804 305 308.552608 306 308.581429 307 308.608395 308 308.633624 309 308.657228 310 308.679313 311 308.699975 312 308.719306 313 308.737393 314 308.754314 315 308.770145 316 308.784957 317 308.798814 318 308.811779 319 308.823908 320 308.835256 321 308.845873 322 308.855806 323 308.865099 324 308.873793 325 308.881927 326 308.889536 327 308.896656 328 308.903316 329 308.909547 330 308.915377 331 308.920831 332 308.925934 333 308.930708 334 308.935174 335 308.939352 336 308.943261 337 308.946918 338 308.950339 339 308.95354 340 308.956535 341 308.959336 342 308.961957 343 308.964409 344 308.966703 345 308.96885 346 308.970857 347 308.972736 348 308.974493 349 308.976137 350 308.977675 351 308.979114 352 308.980461 353 308.98172 354 308.982898 355 308.984001 356 308.985032 357 308.985997 358 308.986899 359 308.987744 360 308.988534 361 308.989273 362 308.989964 363 308.990611 364 308.991216 365 308.991783 366 308.992312 367 308.992808 368 308.993271 369 308.993705 370 308.994111 371 308.99449 372 308.994846 373 308.995178 374 308.995489 375 308.995779 376 308.996052 377 308.996306 378 308.996544 379 308.996767 380 308.996975 381 308.99717 382 308.997353 383 308.997523 384 308.997683 385 308.997832 386 308.997972 387 308.998103 388 308.998225 389 308.998339 390 308.998446 391 308.998547 392 308.99864 393 308.998728 394 308.99881 395 308.998887 396 308.998958 397 308.999026 398 308.999088 399 308.999147 400 308.999202 401 308.999254 402 308.999302 403 308.999347 404 308.999389 405 308.999428 406 308.999465 407 308.9995 408 308.999532 409 308.999562 410 308.99959 411 308.999617 412 308.999641"></polyline>
    </g>
</svg>