<svg class="marks" width="454" height="347" viewBox="0 0 454 347" version="1.1" xmlns="http://www.w3.org/2000/svg" xmlns:xlink="http://www.w3.org/1999/xlink"><rect width="454" height="347" style="fill: white;"></rect><g transform="translate(48,10)"><g class="mark-group role-frame root"><g transform="translate(0,0)"><path class="background" d="M0.5,0.5h400v300h-400Z" style="fill: none; stroke: #ddd;"></path><g><g class="mark-group role-axis"><g transform="translate(0.5,300.5)"><path class="background" d="M0,0h0v0h0Z" style="pointer-events: none; fill: none;"></path><g><g class="mark-rule role-axis-grid" style="pointer-events: none;"><line transform="translate(0,-300)" x2="0" y2="300" style="fill: none; stroke: #ddd; stroke-width: 1; opacity: 1;"></line><line transform="translate(50,-300)" x2="0" y2="300" style="fill: none; stroke: #ddd; stroke-width: 1; opacity: 1;"></line><line transform="translate(100,-300)" x2="0" y2="300" style="fill: none; stroke: #ddd; stroke-width: 1; opacity: 1;"></line><line transform="translate(150,-300)" x2="0" y2="300" style="fill: none; stroke: #ddd; stroke-width: 1; opacity: 1;"></line><line transform="translate(200,-300)" x2="0" y2="300" style="fill: none; stroke: #ddd; stroke-width: 1; opacity: 1;"></line><line transform="translate(250,-300)" x2="0" y2="300" style="fill: none; stroke: #ddd; stroke-width: 1; opacity: 1;"></line><line transform="translate(300,-300)" x2="0" y2="300" style="fill: none; stroke: #ddd; stroke-width: 1; opacity: 1;"></line><line transform="translate(350,-300)" x2="0" y2="300" style="fill: none; stroke: #ddd; stroke-width: 1; opacity: 1;"></line><line transform="translate(400,-300)" x2="0" y2="300" style="fill: none; stroke: #ddd; stroke-width: 1; opacity: 1;"></line></g></g><path class="foreground" d="" style="pointer-events: none; display: none; fill: none;"></path></g></g><g class="mark-group role-axis"><g transform="translate(0.5,0.5)"><path class="background" d="M0,0h0v0h0Z" style="pointer-events: none; fill: none;"></path><g><g class="mark-rule role-axis-grid" style="pointer-events: none;"><line transform="translate(0,300)" x2="400" y2="0" style="fill: none; stroke: #ddd; stroke-width: 1; opacity: 1;"></line><line transform="translate(0,270)" x2="400" y2="0" style="fill: none; stroke: #ddd; stroke-width: 1; opacity: 1;"></line><line transform="translate(0,240)" x2="400" y2="0" style="fill: none; stroke: #ddd; stroke-width: 1; opacity: 1;"></line><line transform="translate(0,210)" x2="400" y2="0" style="fill: none; stroke: #ddd; stroke-width: 1; opacity: 1;"></line><line transform="translate(0,180)" x2="400" y2="0" style="fill: none; stroke: #ddd; stroke-width: 1; opacity: 1;"></line><line transform="translate(0,150)" x2="400" y2="0" style="fill: none; stroke: #ddd; stroke-width: 1; opacity: 1;"></line><line transform="translate(0,120)" x2="400" y2="0" style="fill: none; stroke: #ddd; stroke-width: 1; opacity: 1;"></line><line transform="translate(0,90)" x2="400" y2="0" style="fill: none; stroke: #ddd; stroke-width: 1; opacity: 1;"></line><line transform="translate(0,60)" x2="400" y2="0" style="fill: none; stroke: #ddd; stroke-width: 1; opacity: 1;"></line><line transform="translate(0,30)" x2="400" y2="0" style="fill: none; stroke: #ddd; stroke-width: 1; opacity: 1;"></line><line transform="translate(0,0)" x2="400" y2="0" style="fill: none; stroke: #ddd; stroke-width: 1; opacity: 1;"></line></g></g><path class="foreground" d="" style="pointer-events: none; display: none; fill: none;"></path></g></g><g class="mark-group role-axis"><g transform="translate(0.5,300.5)"><path class="background" d="M0,0h0v0h0Z" style="pointer-events: none; fill: none;"></path><g><g class="mark-rule role-axis-tick" style="pointer-events: none;"><line transform="translate(0,0)" x2="0" y2="5" style="fill: none; stroke: #888; stroke-width: 1; opacity: 1;"></line><line transform="translate(50,0)" x2="0" y2="5" style="fill: none; stroke: #888; stroke-width: 1; opacity: 1;"></line><line transform="translate(100,0)" x2="0" y2="5" style="fill: none; stroke: #888; stroke-width: 1; opacity: 1;"></line><line transform="translate(150,0)" x2="0" y2="5" style="fill: none; stroke: #888; stroke-width: 1; opacity: 1;"></line><line transform="translate(200,0)" x2="0" y2="5" style="fill: none; stroke: #888; stroke-width: 1; opacity: 1;"></line><line transform="translate(250,0)" x2="0" y2="5" style="fill: none; stroke: #888; stroke-width: 1; opacity: 1;"></line><line transform="translate(300,0)" x2="0" y2="5" style="fill: none; stroke: #888; stroke-width: 1; opacity: 1;"></line><line transform="translate(350,0)" x2="0" y2="5" style="fill: none; stroke: #888; stroke-width: 1; opacity: 1;"></line><line transform="translate(400,0)" x2="0" y2="5" style="fill: none; stroke: #888; stroke-width: 1; opacity: 1;"></line></g><g class="mark-text role-axis-label" style="pointer-events: none;"><text text-anchor="start" transform="translate(0,15)" style="font-family: sans-serif; font-size: 10px; fill: #000; opacity: 1;">0</text><text text-anchor="middle" transform="translate(50,15)" style="font-family: sans-serif; font-size: 10px; fill: #000; opacity: 1;">50</text><text text-anchor="middle" transform="translate(100,15)" style="font-family: sans-serif; font-size: 10px; fill: #000; opacity: 1;">100</text><text text-anchor="middle" transform="translate(150,15)" style="font-family: sans-serif; font-size: 10px; fill: #000; opacity: 1;">150</text><text text-anchor="middle" transform="translate(200,15)" style="font-family: sans-serif; font-size: 10px; fill: #000; opacity: 1;">200</text><text text-anchor="middle" transform="translate(250,15)" style="font-family: sans-serif; font-size: 10px; fill: #000; opacity: 1;">250</text><text text-anchor="middle" transform="translate(300,15)" style="font-family: sans-serif; font-size: 10px; fill: #000; opacity: 1;">300</text><text text-anchor="middle" transform="translate(350,15)" style="font-family: sans-serif; font-size: 10px; fill: #000; opacity: 1;">350</text><text text-anchor="end" transform="translate(400,15)" style="font-family: sans-serif; font-size: 10px; fill: #000; opacity: 1;">400</text></g><g class="mark-rule role-axis-domain" style="pointer-events: none;"><line transform="translate(0,0)" x2="400" y2="0" style="fill: none; stroke: #888; stroke-width: 1; opacity: 1;"></line></g><g class="mark-text role-axis-title" style="pointer-events: none;"><text text-anchor="middle" transform="translate(200,30)" style="font-family: sans-serif; font-size: 11px; font-weight: bold; fill: #000; opacity: 1;">Tage</text></g></g><path class="foreground" d="" style="pointer-events: none; display: none; fill: none;"></path></g></g><g class="mark-group role-axis"><g transform="translate(0.5,0.5)"><path class="background" d="M0,0h0v0h0Z" style="pointer-events: none; fill: none;"></path><g><g class="mark-rule role-axis-tick" style="pointer-events: none;"><line transform="translate(0,300)" x2="-5" y2="0" style="fill: none; stroke: #888; stroke-width: 1; opacity: 1;"></line><line transform="translate(0,270)" x2="-5" y2="0" style="fill: none; stroke: #888; stroke-width: 1; opacity: 1;"></line><line transform="translate(0,240)" x2="-5" y2="0" style="fill: none; stroke: #888; stroke-width: 1; opacity: 1;"></line><line transform="translate(0,210)" x2="-5" y2="0" style="fill: none; stroke: #888; stroke-width: 1; opacity: 1;"></line><line transform="translate(0,180)" x2="-5" y2="0" style="fill: none; stroke: #888; stroke-width: 1; opacity: 1;"></line><line transform="translate(0,150)" x2="-5" y2="0" style="fill: none; stroke: #888; stroke-width: 1; opacity: 1;"></line><line transform="translate(0,120)" x2="-5" y2="0" style="fill: none; stroke: #888; stroke-width: 1; opacity: 1;"></line><line transform="translate(0,90)" x2="-5" y2="0" style="fill: none; stroke: #888; stroke-width: 1; opacity: 1;"></line><line transform="translate(0,60)" x2="-5" y2="0" style="fill: none; stroke: #888; stroke-width: 1; opacity: 1;"></line><line transform="translate(0,30)" x2="-5" y2="0" style="fill: none; stroke: #888; stroke-width: 1; opacity: 1;"></line><line transform="translate(0,0)" x2="-5" y2="0" style="fill: none; stroke: #888; stroke-width: 1; opacity: 1;"></line></g><g class="mark-text role-axis-label" style="pointer-events: none;"><text text-anchor="end" transform="translate(-7,303)" style="font-family: sans-serif; font-size: 10px; fill: #000; opacity: 1;">0%</text><text text-anchor="end" transform="translate(-7,273)" style="font-family: sans-serif; font-size: 10px; fill: #000; opacity: 1;">2%</text><text text-anchor="end" transform="translate(-7,243)" style="font-family: sans-serif; font-size: 10px; fill: #000; opacity: 1;">4%</text><text text-anchor="end" transform="translate(-7,213)" style="font-family: sans-serif; font-size: 10px; fill: #000; opacity: 1;">6%</text><text text-anchor="end" transform="translate(-7,183.00000000000003)" style="font-family: sans-serif; font-size: 10px; fill: #000; opacity: 1;">8%</text><text text-anchor="end" transform="translate(-7,153)" style="font-family: sans-serif; font-size: 10px; fill: #000; opacity: 1;">10%</text><text text-anchor="end" transform="translate(-7,123)" style="font-family: sans-serif; font-size: 10px; fill: #000; opacity: 1;">12%</text><text text-anchor="end" transform="translate(-7,92.99999999999999)" style="font-family: sans-serif; font-size: 10px; fill: #000; opacity: 1;">14%</text><text text-anchor="end" transform="translate(-7,63.00000000000002)" style="font-family: sans-serif; font-size: 10px; fill: #000; opacity: 1;">16%</text><text text-anchor="end" transform="translate(-7,33.00000000000003)" style="font-family: sans-serif; font-size: 10px; fill: #000; opacity: 1;">18%</text><text text-anchor="end" transform="translate(-7,3)" style="font-family: sans-serif; font-size: 10px; fill: #000; opacity: 1;">20%</text></g><g class="mark-rule role-axis-domain" style="pointer-events: none;"><line transform="translate(0,300)" x2="0" y2="-300" style="fill: none; stroke: #888; stroke-width: 1; opacity: 1;"></line></g><g class="mark-text role-axis-title" style="pointer-events: none;"><text text-anchor="middle" transform="translate(-31.0146484375,150) rotate(-90) translate(0,-2)" style="font-family: sans-serif; font-size: 11px; font-weight: bold; fill: #000; opacity: 1;">Anteil der Bevölkerung</text></g></g><path class="foreground" d="" style="pointer-events: none; display: none; fill: none;"></path></g></g><g class="mark-area role-mark layer_0_marks"><path d="M0,300L0,300L1,300L1,300L2,300L2,300L3,300L3,300L4,300L4,300L5,300L5,300L6,300L6,300L7.000000000000001,300L7.000000000000001,300L8,300L8,300L9,300L9,300L10,300L10,300L11,300L11,300L12,300L12,300L13,300L13,300L14.000000000000002,300L14.000000000000002,300L15,300L15,300L16,300L16,300L17,300L17,300L18,300L18,300L19,300L19,300L20,300L20,300L21,300L21,300L22,300L22,300L23,300L23,300L24,300L24,300L25,300L25,300L26,300L26,300L27,300L27,300L28.000000000000004,300L28.000000000000004,300L28.999999999999996,300L28.999999999999996,0L30,0L30,0L31,0L31,0L32,0L32,0L33,0L33,0L34,0L34,0L35,0L35,0L36,0L36,0L37,0L37,0L38,0L38,0L39,0L39,0L40,0L40,0L41,0L41,0L42,0L42,0L43,0L43,0L44,0L44,0L45,0L45,0L46,0L46,0L47,0L47,0L48,0L48,0L49,0L49,0L50,0L50,0L51,0L51,0L52,0L52,0L53,0L53,0L54,0L54,0L55.00000000000001,0L55.00000000000001,0L56.00000000000001,0L56.00000000000001,0L56.99999999999999,0L56.99999999999999,0L57.99999999999999,0L57.99999999999999,0L59,0L59,0L60,0L60,0L61,0L61,0L62,0L62,0L63,0L63,0L64,0L64,0L65,0L65,0L66,0L66,0L67,0L67,0L68,0L68,0L69,0L69,0L70,0L70,0L71,0L71,0L72,0L72,0L73,0L73,0L74,0L74,0L75,0L75,0L76,0L76,0L77,0L77,0L78,0L78,0L79,0L79,300L80,300L80,300L81,300L81,300L82,300L82,300L83,300L83,300L84,300L84,300L85,300L85,300L86,300L86,300L87,300L87,300L88,300L88,300L89,300L89,300L90,300L90,300L91,300L91,300L92,300L92,300L93,300L93,300L94,300L94,300L95,300L95,300L96,300L96,300L97,300L97,300L98,300L98,300L99,300L99,300L100,300L100,300L101,300L101,300L102,300L102,300L103,300L103,300L104,300L104,300L105,300L105,300L106,300L106,300L107,300L107,300L108,300L108,300L109.00000000000001,300L109.00000000000001,300L110.00000000000001,300L110.00000000000001,300L111.00000000000001,300L111.00000000000001,300L112.00000000000001,300L112.00000000000001,300L112.99999999999999,300L112.99999999999999,300L113.99999999999999,300L113.99999999999999,300L114.99999999999999,300L114.99999999999999,300L115.99999999999999,300L115.99999999999999,300L117,300L117,300L118,300L118,300L119,300L119,300L120,300L120,300L121,300L121,300L122,300L122,300L123,300L123,300L124,300L124,300L125,300L125,300L126,300L126,300L127,300L127,300L128,300L128,300L129,300L129,300L130,300L130,300L131,300L131,300L132,300L132,300L133,300L133,300L134,300L134,300L135,300L135,300L136,300L136,300L137,300L137,300L138,300L138,300L139,300L139,300L140,300L140,300L141,300L141,300L142,300L142,300L143,300L143,300L144,300L144,300L145,300L145,300L146,300L146,300L147,300L147,300L148,300L148,300L149,300L149,300L150,300L150,300L151,300L151,300L152,300L152,300L153,300L153,300L154,300L154,300L155,300L155,300L156,300L156,300L157,300L157,300L158,300L158,300L159,300L159,300L160,300L160,300L161,300L161,300L162,300L162,300L163,300L163,300L164,300L164,300L165,300L165,300L166,300L166,300L167,300L167,300L168,300L168,300L169,300L169,300L170,300L170,300L171,300L171,300L172,300L172,300L173,300L173,300L174,300L174,300L175,300L175,300L176,300L176,300L177,300L177,300L178,300L178,300L179,300L179,300L180,300L180,300L181,300L181,300L182,300L182,300L183,300L183,300L184,300L184,300L185,300L185,300L186,300L186,300L187,300L187,300L188,300L188,300L189,300L189,300L190,300L190,300L191,300L191,300L192,300L192,300L193,300L193,300L194,300L194,300L195,300L195,300L196,300L196,300L197,300L197,300L198,300L198,300L199,300L199,300L200,300L200,300L200.99999999999997,300L200.99999999999997,300L202,300L202,300L202.99999999999997,300L202.99999999999997,300L204,300L204,300L204.99999999999997,300L204.99999999999997,300L206,300L206,300L206.99999999999997,300L206.99999999999997,300L208,300L208,300L209,300L209,300L210,300L210,300L211,300L211,300L212,300L212,300L213,300L213,300L214,300L214,300L215,300L215,300L216,300L216,300L217,300L217,300L218.00000000000003,300L218.00000000000003,300L219,300L219,300L220.00000000000003,300L220.00000000000003,300L221,300L221,300L222.00000000000003,300L222.00000000000003,300L223,300L223,300L224.00000000000003,300L224.00000000000003,300L225,300L225,300L225.99999999999997,300L225.99999999999997,300L227,300L227,300L227.99999999999997,300L227.99999999999997,300L229,300L229,300L229.99999999999997,300L229.99999999999997,300L231,300L231,300L231.99999999999997,300L231.99999999999997,300L233,300L233,300L234,300L234,300L235,300L235,300L236,300L236,300L237,300L237,300L238,300L238,300L239,300L239,300L240,300L240,300L241,300L241,300L242,300L242,300L243.00000000000003,300L243.00000000000003,300L244,300L244,300L245.00000000000003,300L245.00000000000003,300L246,300L246,300L247.00000000000003,300L247.00000000000003,300L248,300L248,300L249.00000000000003,300L249.00000000000003,300L250,300L250,300L250.99999999999997,300L250.99999999999997,300L252,300L252,300L252.99999999999997,300L252.99999999999997,300L254,300L254,300L254.99999999999997,300L254.99999999999997,300L256,300L256,300L257,300L257,300L258,300L258,300L259,300L259,300L260,300L260,300L261,300L261,300L262,300L262,300L263,300L263,300L264,300L264,300L265,300L265,300L266,300L266,300L267,300L267,300L268,300L268,300L269,300L269,300L270,300L270,300L271,300L271,300L272,300L272,300L273,300L273,300L274,300L274,300L275,300L275,300L276,300L276,300L277,300L277,300L278,300L278,300L279,300L279,300L280,300L280,300L281,300L281,300L282,300L282,300L283,300L283,300L284,300L284,300L285,300L285,300L286,300L286,300L287,300L287,300L288,300L288,300L289,300L289,300L290,300L290,300L291,300L291,300L292,300L292,300L293,300L293,300L294,300L294,300L295,300L295,300L296,300L296,300L297,300L297,300L298,300L298,300L299,300L299,300L300,300L300,300L301,300L301,300L302,300L302,300L303,300L303,300L304,300L304,300L305,300L305,300L306,300L306,300L307,300L307,300L308,300L308,300L309,300L309,300L310,300L310,300L311,300L311,300L312,300L312,300L313,300L313,300L314,300L314,300L315,300L315,300L316,300L316,300L317,300L317,300L318,300L318,300L319,300L319,300L320,300L320,300L321,300L321,300L322,300L322,300L323,300L323,300L324,300L324,300L325,300L325,300L326,300L326,300L327,300L327,300L328,300L328,300L329,300L329,300L330,300L330,300L331,300L331,300L332,300L332,300L333,300L333,300L334,300L334,300L335,300L335,300L336,300L336,300L337,300L337,300L338,300L338,300L339,300L339,300L340,300L340,300L341,300L341,300L342,300L342,300L343,300L343,300L344,300L344,300L345,300L345,300L346,300L346,300L347,300L347,300L348,300L348,300L349,300L349,300L350,300L350,300L351,300L351,300L352,300L352,300L353,300L353,300L354,300L354,300L355,300L355,300L356,300L356,300L357,300L357,300L358,300L358,300L359,300L359,300L360,300L360,300L361,300L361,300L362,300L362,300L363,300L363,300L364,300L364,300L363,300L363,300L362,300L362,300L361,300L361,300L360,300L360,300L359,300L359,300L358,300L358,300L357,300L357,300L356,300L356,300L355,300L355,300L354,300L354,300L353,300L353,300L352,300L352,300L351,300L351,300L350,300L350,300L349,300L349,300L348,300L348,300L347,300L347,300L346,300L346,300L345,300L345,300L344,300L344,300L343,300L343,300L342,300L342,300L341,300L341,300L340,300L340,300L339,300L339,300L338,300L338,300L337,300L337,300L336,300L336,300L335,300L335,300L334,300L334,300L333,300L333,300L332,300L332,300L331,300L331,300L330,300L330,300L329,300L329,300L328,300L328,300L327,300L327,300L326,300L326,300L325,300L325,300L324,300L324,300L323,300L323,300L322,300L322,300L321,300L321,300L320,300L320,300L319,300L319,300L318,300L318,300L317,300L317,300L316,300L316,300L315,300L315,300L314,300L314,300L313,300L313,300L312,300L312,300L311,300L311,300L310,300L310,300L309,300L309,300L308,300L308,300L307,300L307,300L306,300L306,300L305,300L305,300L304,300L304,300L303,300L303,300L302,300L302,300L301,300L301,300L300,300L300,300L299,300L299,300L298,300L298,300L297,300L297,300L296,300L296,300L295,300L295,300L294,300L294,300L293,300L293,300L292,300L292,300L291,300L291,300L290,300L290,300L289,300L289,300L288,300L288,300L287,300L287,300L286,300L286,300L285,300L285,300L284,300L284,300L283,300L283,300L282,300L282,300L281,300L281,300L280,300L280,300L279,300L279,300L278,300L278,300L277,300L277,300L276,300L276,300L275,300L275,300L274,300L274,300L273,300L273,300L272,300L272,300L271,300L271,300L270,300L270,300L269,300L269,300L268,300L268,300L267,300L267,300L266,300L266,300L265,300L265,300L264,300L264,300L263,300L263,300L262,300L262,300L261,300L261,300L260,300L260,300L259,300L259,300L258,300L258,300L257,300L257,300L256,300L256,300L254.99999999999997,300L254.99999999999997,300L254,300L254,300L252.99999999999997,300L252.99999999999997,300L252,300L252,300L250.99999999999997,300L250.99999999999997,300L250,300L250,300L249.00000000000003,300L249.00000000000003,300L248,300L248,300L247.00000000000003,300L247.00000000000003,300L246,300L246,300L245.00000000000003,300L245.00000000000003,300L244,300L244,300L243.00000000000003,300L243.00000000000003,300L242,300L242,300L241,300L241,300L240,300L240,300L239,300L239,300L238,300L238,300L237,300L237,300L236,300L236,300L235,300L235,300L234,300L234,300L233,300L233,300L231.99999999999997,300L231.99999999999997,300L231,300L231,300L229.99999999999997,300L229.99999999999997,300L229,300L229,300L227.99999999999997,300L227.99999999999997,300L227,300L227,300L225.99999999999997,300L225.99999999999997,300L225,300L225,300L224.00000000000003,300L224.00000000000003,300L223,300L223,300L222.00000000000003,300L222.00000000000003,300L221,300L221,300L220.00000000000003,300L220.00000000000003,300L219,300L219,300L218.00000000000003,300L218.00000000000003,300L217,300L217,300L216,300L216,300L215,300L215,300L214,300L214,300L213,300L213,300L212,300L212,300L211,300L211,300L210,300L210,300L209,300L209,300L208,300L208,300L206.99999999999997,300L206.99999999999997,300L206,300L206,300L204.99999999999997,300L204.99999999999997,300L204,300L204,300L202.99999999999997,300L202.99999999999997,300L202,300L202,300L200.99999999999997,300L200.99999999999997,300L200,300L200,300L199,300L199,300L198,300L198,300L197,300L197,300L196,300L196,300L195,300L195,300L194,300L194,300L193,300L193,300L192,300L192,300L191,300L191,300L190,300L190,300L189,300L189,300L188,300L188,300L187,300L187,300L186,300L186,300L185,300L185,300L184,300L184,300L183,300L183,300L182,300L182,300L181,300L181,300L180,300L180,300L179,300L179,300L178,300L178,300L177,300L177,300L176,300L176,300L175,300L175,300L174,300L174,300L173,300L173,300L172,300L172,300L171,300L171,300L170,300L170,300L169,300L169,300L168,300L168,300L167,300L167,300L166,300L166,300L165,300L165,300L164,300L164,300L163,300L163,300L162,300L162,300L161,300L161,300L160,300L160,300L159,300L159,300L158,300L158,300L157,300L157,300L156,300L156,300L155,300L155,300L154,300L154,300L153,300L153,300L152,300L152,300L151,300L151,300L150,300L150,300L149,300L149,300L148,300L148,300L147,300L147,300L146,300L146,300L145,300L145,300L144,300L144,300L143,300L143,300L142,300L142,300L141,300L141,300L140,300L140,300L139,300L139,300L138,300L138,300L137,300L137,300L136,300L136,300L135,300L135,300L134,300L134,300L133,300L133,300L132,300L132,300L131,300L131,300L130,300L130,300L129,300L129,300L128,300L128,300L127,300L127,300L126,300L126,300L125,300L125,300L124,300L124,300L123,300L123,300L122,300L122,300L121,300L121,300L120,300L120,300L119,300L119,300L118,300L118,300L117,300L117,300L115.99999999999999,300L115.99999999999999,300L114.99999999999999,300L114.99999999999999,300L113.99999999999999,300L113.99999999999999,300L112.99999999999999,300L112.99999999999999,300L112.00000000000001,300L112.00000000000001,300L111.00000000000001,300L111.00000000000001,300L110.00000000000001,300L110.00000000000001,300L109.00000000000001,300L109.00000000000001,300L108,300L108,300L107,300L107,300L106,300L106,300L105,300L105,300L104,300L104,300L103,300L103,300L102,300L102,300L101,300L101,300L100,300L100,300L99,300L99,300L98,300L98,300L97,300L97,300L96,300L96,300L95,300L95,300L94,300L94,300L93,300L93,300L92,300L92,300L91,300L91,300L90,300L90,300L89,300L89,300L88,300L88,300L87,300L87,300L86,300L86,300L85,300L85,300L84,300L84,300L83,300L83,300L82,300L82,300L81,300L81,300L80,300L80,300L79,300L79,300L78,300L78,300L77,300L77,300L76,300L76,300L75,300L75,300L74,300L74,300L73,300L73,300L72,300L72,300L71,300L71,300L70,300L70,300L69,300L69,300L68,300L68,300L67,300L67,300L66,300L66,300L65,300L65,300L64,300L64,300L63,300L63,300L62,300L62,300L61,300L61,300L60,300L60,300L59,300L59,300L57.99999999999999,300L57.99999999999999,300L56.99999999999999,300L56.99999999999999,300L56.00000000000001,300L56.00000000000001,300L55.00000000000001,300L55.00000000000001,300L54,300L54,300L53,300L53,300L52,300L52,300L51,300L51,300L50,300L50,300L49,300L49,300L48,300L48,300L47,300L47,300L46,300L46,300L45,300L45,300L44,300L44,300L43,300L43,300L42,300L42,300L41,300L41,300L40,300L40,300L39,300L39,300L38,300L38,300L37,300L37,300L36,300L36,300L35,300L35,300L34,300L34,300L33,300L33,300L32,300L32,300L31,300L31,300L30,300L30,300L28.999999999999996,300L28.999999999999996,300L28.000000000000004,300L28.000000000000004,300L27,300L27,300L26,300L26,300L25,300L25,300L24,300L24,300L23,300L23,300L22,300L22,300L21,300L21,300L20,300L20,300L19,300L19,300L18,300L18,300L17,300L17,300L16,300L16,300L15,300L15,300L14.000000000000002,300L14.000000000000002,300L13,300L13,300L12,300L12,300L11,300L11,300L10,300L10,300L9,300L9,300L8,300L8,300L7.000000000000001,300L7.000000000000001,300L6,300L6,300L5,300L5,300L4,300L4,300L3,300L3,300L2,300L2,300L1,300L1,300L0,300L0,300Z" style="fill: #82b7d7; opacity: 0.5;"></path></g><g class="mark-area role-mark layer_1_marks"><path d="M0,300L1,300L1,300L2,300L2,300L3,300L3,300L4,300L4,300L5,300L5,300L6,300L6,300L7.000000000000001,300L7.000000000000001,300L8,300L8,300L9,300L9,300L10,300L10,300L11,300L11,300L12,300L12,300L13,300L13,300L14.000000000000002,300L14.000000000000002,300L15,300L15,300L16,300L16,300L17,300L17,300L18,300L18,300L19,300L19,300L20,300L20,300L21,300L21,300L22,300L22,300L23,300L23,300L24,300L24,300L25,300L25,300L26,300L26,300L27,300L27,300L28.000000000000004,300L28.000000000000004,300L28.999999999999996,300L28.999999999999996,300L30,300L30,300L31,300L31,300L32,300L32,300L33,300L33,300L34,300L34,300L35,300L35,300L36,300L36,300L37,300L37,300L38,300L38,300L39,300L39,300L40,300L40,300L41,300L41,300L42,300L42,300L43,300L43,300L44,300L44,300L45,300L45,300L46,300L46,300L47,300L47,300L48,300L48,300L49,300L49,300L50,300L50,300L51,300L51,300L52,300L52,300L53,300L53,300L54,300L54,300L55.00000000000001,300L55.00000000000001,300L56.00000000000001,300L56.00000000000001,300L56.99999999999999,300L56.99999999999999,300L57.99999999999999,300L57.99999999999999,300L59,300L59,300L60,300L60,300L61,300L61,300L62,300L62,300L63,300L63,300L64,300L64,300L65,300L65,300L66,300L66,300L67,300L67,300L68,300L68,300L69,300L69,300L70,300L70,300L71,300L71,300L72,300L72,300L73,300L73,300L74,300L74,300L75,300L75,300L76,300L76,300L77,300L77,300L78,300L78,300L79,300L79,0L80,0L80,0L81,0L81,0L82,0L82,0L83,0L83,0L84,0L84,0L85,0L85,0L86,0L86,0L87,0L87,0L88,0L88,0L89,0L89,0L90,0L90,0L91,0L91,0L92,0L92,0L93,0L93,0L94,0L94,0L95,0L95,0L96,0L96,0L97,0L97,0L98,0L98,0L99,0L99,0L100,0L100,0L101,0L101,0L102,0L102,0L103,0L103,0L104,0L104,0L105,0L105,0L106,0L106,0L107,0L107,0L108,0L108,0L109.00000000000001,0L109.00000000000001,0L110.00000000000001,0L110.00000000000001,0L111.00000000000001,0L111.00000000000001,0L112.00000000000001,0L112.00000000000001,0L112.99999999999999,0L112.99999999999999,0L113.99999999999999,0L113.99999999999999,0L114.99999999999999,0L114.99999999999999,0L115.99999999999999,0L115.99999999999999,0L117,0L117,0L118,0L118,0L119,0L119,0L120,0L120,0L121,0L121,0L122,0L122,0L123,0L123,0L124,0L124,0L125,0L125,0L126,0L126,0L127,0L127,0L128,0L128,0L129,0L129,0L130,0L130,0L131,0L131,0L132,0L132,0L133,0L133,0L134,0L134,0L135,0L135,0L136,0L136,0L137,0L137,0L138,0L138,0L139,0L139,0L140,0L140,0L141,0L141,0L142,0L142,0L143,0L143,0L144,0L144,0L145,0L145,0L146,0L146,0L147,0L147,0L148,0L148,0L149,0L149,0L150,0L150,0L151,0L151,0L152,0L152,0L153,0L153,0L154,0L154,0L155,0L155,0L156,0L156,0L157,0L157,0L158,0L158,0L159,0L159,0L160,0L160,0L161,0L161,0L162,0L162,0L163,0L163,0L164,0L164,0L165,0L165,0L166,0L166,0L167,0L167,0L168,0L168,0L169,0L169,0L170,0L170,0L171,0L171,0L172,0L172,0L173,0L173,0L174,0L174,0L175,0L175,0L176,0L176,0L177,0L177,0L178,0L178,0L179,0L179,0L180,0L180,0L181,0L181,0L182,0L182,0L183,0L183,0L184,0L184,0L185,0L185,0L186,0L186,0L187,0L187,0L188,0L188,0L189,0L189,0L190,0L190,0L191,0L191,0L192,0L192,0L193,0L193,0L194,0L194,0L195,0L195,0L196,0L196,0L197,0L197,0L198,0L198,0L199,0L199,0L200,0L200,0L200.99999999999997,0L200.99999999999997,0L202,0L202,0L202.99999999999997,0L202.99999999999997,0L204,0L204,0L204.99999999999997,0L204.99999999999997,0L206,0L206,0L206.99999999999997,0L206.99999999999997,0L208,0L208,0L209,0L209,0L210,0L210,0L211,0L211,0L212,0L212,0L213,0L213,0L214,0L214,0L215,0L215,0L216,0L216,0L217,0L217,0L218.00000000000003,0L218.00000000000003,0L219,0L219,0L220.00000000000003,0L220.00000000000003,0L221,0L221,0L222.00000000000003,0L222.00000000000003,0L223,0L223,0L224.00000000000003,0L224.00000000000003,0L225,0L225,0L225.99999999999997,0L225.99999999999997,0L227,0L227,0L227.99999999999997,0L227.99999999999997,0L229,0L229,0L229.99999999999997,0L229.99999999999997,0L231,0L231,0L231.99999999999997,0L231.99999999999997,0L233,0L233,0L234,0L234,0L235,0L235,0L236,0L236,0L237,0L237,0L238,0L238,0L239,0L239,0L240,0L240,0L241,0L241,0L242,0L242,0L243.00000000000003,0L243.00000000000003,0L244,0L244,0L245.00000000000003,0L245.00000000000003,0L246,0L246,0L247.00000000000003,0L247.00000000000003,0L248,0L248,0L249.00000000000003,0L249.00000000000003,0L250,0L250,0L250.99999999999997,0L250.99999999999997,0L252,0L252,0L252.99999999999997,0L252.99999999999997,0L254,0L254,0L254.99999999999997,0L254.99999999999997,0L256,0L256,0L257,0L257,0L258,0L258,0L259,0L259,0L260,0L260,0L261,0L261,0L262,0L262,0L263,0L263,0L264,0L264,0L265,0L265,0L266,0L266,0L267,0L267,0L268,0L268,0L269,0L269,0L270,0L270,0L271,0L271,0L272,0L272,0L273,0L273,0L274,0L274,0L275,0L275,0L276,0L276,0L277,0L277,0L278,0L278,0L279,0L279,0L280,0L280,0L281,0L281,0L282,0L282,0L283,0L283,0L284,0L284,0L285,0L285,0L286,0L286,0L287,0L287,0L288,0L288,0L289,0L289,0L290,0L290,0L291,0L291,0L292,0L292,0L293,0L293,0L294,0L294,0L295,0L295,0L296,0L296,0L297,0L297,0L298,0L298,0L299,0L299,0L300,0L300,0L301,0L301,0L302,0L302,0L303,0L303,0L304,0L304,0L305,0L305,0L306,0L306,0L307,0L307,0L308,0L308,0L309,0L309,0L310,0L310,0L311,0L311,0L312,0L312,0L313,0L313,0L314,0L314,0L315,0L315,0L316,0L316,0L317,0L317,0L318,0L318,0L319,0L319,0L320,0L320,0L321,0L321,0L322,0L322,0L323,0L323,0L324,0L324,0L325,0L325,0L326,0L326,0L327,0L327,0L328,0L328,0L329,0L329,0L330,0L330,0L331,0L331,0L332,0L332,0L333,0L333,0L334,0L334,0L335,0L335,0L336,0L336,0L337,0L337,0L338,0L338,0L339,0L339,0L340,0L340,0L341,0L341,0L342,0L342,0L343,0L343,0L344,0L344,0L345,0L345,0L346,0L346,0L347,0L347,0L348,0L348,0L349,0L349,0L350,0L350,0L351,0L351,0L352,0L352,0L353,0L353,0L354,0L354,0L355,0L355,0L356,0L356,0L357,0L357,0L358,0L358,0L359,0L359,0L360,0L360,0L361,0L361,0L362,0L362,0L363,0L363,0L364,0L364,0L364,300L364,300L363,300L363,300L362,300L362,300L361,300L361,300L360,300L360,300L359,300L359,300L358,300L358,300L357,300L357,300L356,300L356,300L355,300L355,300L354,300L354,300L353,300L353,300L352,300L352,300L351,300L351,300L350,300L350,300L349,300L349,300L348,300L348,300L347,300L347,300L346,300L346,300L345,300L345,300L344,300L344,300L343,300L343,300L342,300L342,300L341,300L341,300L340,300L340,300L339,300L339,300L338,300L338,300L337,300L337,300L336,300L336,300L335,300L335,300L334,300L334,300L333,300L333,300L332,300L332,300L331,300L331,300L330,300L330,300L329,300L329,300L328,300L328,300L327,300L327,300L326,300L326,300L325,300L325,300L324,300L324,300L323,300L323,300L322,300L322,300L321,300L321,300L320,300L320,300L319,300L319,300L318,300L318,300L317,300L317,300L316,300L316,300L315,300L315,300L314,300L314,300L313,300L313,300L312,300L312,300L311,300L311,300L310,300L310,300L309,300L309,300L308,300L308,300L307,300L307,300L306,300L306,300L305,300L305,300L304,300L304,300L303,300L303,300L302,300L302,300L301,300L301,300L300,300L300,300L299,300L299,300L298,300L298,300L297,300L297,300L296,300L296,300L295,300L295,300L294,300L294,300L293,300L293,300L292,300L292,300L291,300L291,300L290,300L290,300L289,300L289,300L288,300L288,300L287,300L287,300L286,300L286,300L285,300L285,300L284,300L284,300L283,300L283,300L282,300L282,300L281,300L281,300L280,300L280,300L279,300L279,300L278,300L278,300L277,300L277,300L276,300L276,300L275,300L275,300L274,300L274,300L273,300L273,300L272,300L272,300L271,300L271,300L270,300L270,300L269,300L269,300L268,300L268,300L267,300L267,300L266,300L266,300L265,300L265,300L264,300L264,300L263,300L263,300L262,300L262,300L261,300L261,300L260,300L260,300L259,300L259,300L258,300L258,300L257,300L257,300L256,300L256,300L254.99999999999997,300L254.99999999999997,300L254,300L254,300L252.99999999999997,300L252.99999999999997,300L252,300L252,300L250.99999999999997,300L250.99999999999997,300L250,300L250,300L249.00000000000003,300L249.00000000000003,300L248,300L248,300L247.00000000000003,300L247.00000000000003,300L246,300L246,300L245.00000000000003,300L245.00000000000003,300L244,300L244,300L243.00000000000003,300L243.00000000000003,300L242,300L242,300L241,300L241,300L240,300L240,300L239,300L239,300L238,300L238,300L237,300L237,300L236,300L236,300L235,300L235,300L234,300L234,300L233,300L233,300L231.99999999999997,300L231.99999999999997,300L231,300L231,300L229.99999999999997,300L229.99999999999997,300L229,300L229,300L227.99999999999997,300L227.99999999999997,300L227,300L227,300L225.99999999999997,300L225.99999999999997,300L225,300L225,300L224.00000000000003,300L224.00000000000003,300L223,300L223,300L222.00000000000003,300L222.00000000000003,300L221,300L221,300L220.00000000000003,300L220.00000000000003,300L219,300L219,300L218.00000000000003,300L218.00000000000003,300L217,300L217,300L216,300L216,300L215,300L215,300L214,300L214,300L213,300L213,300L212,300L212,300L211,300L211,300L210,300L210,300L209,300L209,300L208,300L208,300L206.99999999999997,300L206.99999999999997,300L206,300L206,300L204.99999999999997,300L204.99999999999997,300L204,300L204,300L202.99999999999997,300L202.99999999999997,300L202,300L202,300L200.99999999999997,300L200.99999999999997,300L200,300L200,300L199,300L199,300L198,300L198,300L197,300L197,300L196,300L196,300L195,300L195,300L194,300L194,300L193,300L193,300L192,300L192,300L191,300L191,300L190,300L190,300L189,300L189,300L188,300L188,300L187,300L187,300L186,300L186,300L185,300L185,300L184,300L184,300L183,300L183,300L182,300L182,300L181,300L181,300L180,300L180,300L179,300L179,300L178,300L178,300L177,300L177,300L176,300L176,300L175,300L175,300L174,300L174,300L173,300L173,300L172,300L172,300L171,300L171,300L170,300L170,300L169,300L169,300L168,300L168,300L167,300L167,300L166,300L166,300L165,300L165,300L164,300L164,300L163,300L163,300L162,300L162,300L161,300L161,300L160,300L160,300L159,300L159,300L158,300L158,300L157,300L157,300L156,300L156,300L155,300L155,300L154,300L154,300L153,300L153,300L152,300L152,300L151,300L151,300L150,300L150,300L149,300L149,300L148,300L148,300L147,300L147,300L146,300L146,300L145,300L145,300L144,300L144,300L143,300L143,300L142,300L142,300L141,300L141,300L140,300L140,300L139,300L139,300L138,300L138,300L137,300L137,300L136,300L136,300L135,300L135,300L134,300L134,300L133,300L133,300L132,300L132,300L131,300L131,300L130,300L130,300L129,300L129,300L128,300L128,300L127,300L127,300L126,300L126,300L125,300L125,300L124,300L124,300L123,300L123,300L122,300L122,300L121,300L121,300L120,300L120,300L119,300L119,300L118,300L118,300L117,300L117,300L115.99999999999999,300L115.99999999999999,300L114.99999999999999,300L114.99999999999999,300L113.99999999999999,300L113.99999999999999,300L112.99999999999999,300L112.99999999999999,300L112.00000000000001,300L112.00000000000001,300L111.00000000000001,300L111.00000000000001,300L110.00000000000001,300L110.00000000000001,300L109.00000000000001,300L109.00000000000001,300L108,300L108,300L107,300L107,300L106,300L106,300L105,300L105,300L104,300L104,300L103,300L103,300L102,300L102,300L101,300L101,300L100,300L100,300L99,300L99,300L98,300L98,300L97,300L97,300L96,300L96,300L95,300L95,300L94,300L94,300L93,300L93,300L92,300L92,300L91,300L91,300L90,300L90,300L89,300L89,300L88,300L88,300L87,300L87,300L86,300L86,300L85,300L85,300L84,300L84,300L83,300L83,300L82,300L82,300L81,300L81,300L80,300L80,300L79,300L79,300L78,300L78,300L77,300L77,300L76,300L76,300L75,300L75,300L74,300L74,300L73,300L73,300L72,300L72,300L71,300L71,300L70,300L70,300L69,300L69,300L68,300L68,300L67,300L67,300L66,300L66,300L65,300L65,300L64,300L64,300L63,300L63,300L62,300L62,300L61,300L61,300L60,300L60,300L59,300L59,300L57.99999999999999,300L57.99999999999999,300L56.99999999999999,300L56.99999999999999,300L56.00000000000001,300L56.00000000000001,300L55.00000000000001,300L55.00000000000001,300L54,300L54,300L53,300L53,300L52,300L52,300L51,300L51,300L50,300L50,300L49,300L49,300L48,300L48,300L47,300L47,300L46,300L46,300L45,300L45,300L44,300L44,300L43,300L43,300L42,300L42,300L41,300L41,300L40,300L40,300L39,300L39,300L38,300L38,300L37,300L37,300L36,300L36,300L35,300L35,300L34,300L34,300L33,300L33,300L32,300L32,300L31,300L31,300L30,300L30,300L28.999999999999996,300L28.999999999999996,300L28.000000000000004,300L28.000000000000004,300L27,300L27,300L26,300L26,300L25,300L25,300L24,300L24,300L23,300L23,300L22,300L22,300L21,300L21,300L20,300L20,300L19,300L19,300L18,300L18,300L17,300L17,300L16,300L16,300L15,300L15,300L14.000000000000002,300L14.000000000000002,300L13,300L13,300L12,300L12,300L11,300L11,300L10,300L10,300L9,300L9,300L8,300L8,300L7.000000000000001,300L7.000000000000001,300L6,300L6,300L5,300L5,300L4,300L4,300L3,300L3,300L2,300L2,300L1,300L1,300L0,300Z" style="fill: #ffffff; opacity: 0.5;"></path></g><g class="mark-line role-mark layer_2_marks"><path d="M0,299.9817073170732L1,299.98280600763405L2,299.9828134660762L3,299.98211458094653L4,299.98092967413373L5,299.97938152026904L6,299.9775347522981L7.000000000000001,299.97541899958725L8,299.9730424372456L9,299.97039968235345L10,299.96747635236716L11,299.96425164865093L12,299.9606997662924L13,299.9567906036526L14.000000000000002,299.95249004457105L15,299.94775997783705L16,299.94255814629935L17,299.9368378797482L18,299.9305477416677L19,299.92363110583767L20,299.91602567028025L21,299.90766291086163L22,299.89846747360224L23,299.88835650260586L24,299.87723889901105L25,299.8650145052126L26,299.85157320762744L27,299.83679395038365L28.000000000000004,299.8205436514393L28.999999999999996,299.8026760117356L30,299.7867465858244L31,299.77498342154865L32,299.765838500261L33,299.75832715753126L34,299.75182285729073L35,299.745926720752L36,299.74038458489844L37,299.7350342750188L38,299.729772084687L39,299.7245314662258L40,299.7192694829148L41,299.71395819978676L42,299.70857920277575L43,299.7031201222864L44,299.69757241858304L45,299.691929974698L46,299.6861882017005L47,299.6803434696858L48,299.67439274583063L49,299.6683333640842L50,299.6621628785418L51,299.65587897001393L52,299.6494793864121L53,299.6429619046297L54,299.6363243060841L55.00000000000001,299.62956436094225L56.00000000000001,299.6226798178631L56.99999999999999,299.61566839724367L57.99999999999999,299.6085277866906L59,299.60125563790297L60,299.59384956444893L61,299.58630714010866L62,299.5786258975731L63,299.5708033273665L64,299.56283687690853L65,299.55472394966097L66,299.5464619043267L67,299.53804805407725L68,299.52947966579717L69,299.5207539593346L70,299.5118681067541L71,299.5028192315866L72,299.49360440807635L73,299.4842206604209L74,299.4746649620056L75,299.46493423463113L76,299.455025347733L77,299.44493511759435L78,299.43466030655117L79,299.4138113915479L80,299.3763861960945L81,299.32670357128075L82,299.26706103177395L83,299.1985413213857L84,299.12148512221796L85,299.0357669288729L86,298.94095477078247L87,298.83640124034014L88,298.7212937692194L89,298.59468064531694L90,298.45548234663005L91,298.3024939324961L92,298.1343817648031L93,297.94967649139227L94,297.7467633970052L95,297.5238707452757L96,297.27905645171126L97,297.0101932614654L98,296.7149525095023L99,296.390786486725L100,296.03490940767597L101,295.6442769643049L102,295.2155644509552L103,294.7451434555453L104,294.2290571298397L105,293.66299407762494L106,293.042260934082L107,292.3617537536911L108,291.6159283790138L109.00000000000001,290.79877003032635L110.00000000000001,289.9037624382681L111.00000000000001,288.9238569405338L112.00000000000001,287.8514420814779L112.99999999999999,286.67831439266314L113.99999999999999,285.3956511952529L114.99999999999999,283.99398645387686L115.99999999999999,282.46319092806L117,280.79245811268487L118,278.9702977335098L119,276.9845388663078L120,274.8223450755738L121,272.4702443151603L122,269.9141766893773L123,267.1395635254101L124,264.1314015373548L125,260.87438614336656L126,257.3530681975995L127,253.55204847692227L128,249.45621416942606L129,245.0510212898797L130,240.32282633185406L131,235.25926948805244L132,229.84971035995585L133,224.0857151717357L134,217.96159205255898L135,211.47496793256414L136,204.6273970260939L137,197.42498681938528L138,189.87902307412068L139,182.0065708174802L140,173.83102391427394L141,165.38257208673343L142,156.69855210587082L143,147.82364123721027L144,138.80987747018386L145,129.7164420673933L146,120.6092211622674L147,111.56008649741966L148,102.64591674272279L149,93.94737453617643L150,85.54742461421984L151,77.52968768884791L152,69.97662801355575L153,62.967675899498374L154,56.577364426246625L155,50.873520126192794L156,45.91564094256203L157,41.75347997550056L158,38.4259317947816L159,35.9602500189238L160,34.371625395087904L161,33.663131068026374L162,33.826022658207854L163,34.84036358959472L164,36.67593200009126L165,39.29335532607988L166,42.64541263872116L167,46.678442970750424L168,51.33379980434771L169,56.54929693314943L170,62.260598255852095L171,68.40251285145524L172,74.91016611597561L173,81.72002710349928L174,88.770780952686L175,96.00404299636968L176,103.36491760669377L177,110.80240992010889L178,118.26970232729491L179,125.7243100979445L180,133.1281318899154L181,140.44741134695784L182,147.6526257089556L183,154.71831652736844L184,161.62287636386822L185,168.34830389711024L186,174.87993829097184L187,181.20618208192215L188,187.31822029430708L189,193.20974204006495L190,198.87666953592608L191,204.31689829426017L192,209.53005122006337L193,214.51724847448727L194,219.28089423731797L195,223.82448090568343L196,228.15241079056423L197,232.26983500201882L198,236.18250893401765L199,239.89666355653603L200,243.41889158326302L200.99999999999997,246.75604749629886L202,249.91516036424798L202.99999999999997,252.9033583782313L204,255.72780404388783L204.99999999999997,258.39563899998706L206,260.9139374805042L206.99999999999997,263.2896674925557L208,265.5296588439726L209,267.6405772187163L210,269.62890356368416L211,271.5009181150756L212,273.2626884551847L213,274.9200610504091L214,276.4786557778279L215,277.9438630005594L216,279.32084280107136L217,280.6145260266365L218.00000000000003,281.8296168422524L219,282.9705965236944L220.00000000000003,284.04172825711817L221,285.0470627419796L222.00000000000003,285.9904444212134L223,286.87551818685245L224.00000000000003,287.7057364308022L225,288.4843663295537L225.99999999999997,289.214497268443L227,289.89904832585614L227.99999999999997,290.5407757507516L229,291.1422803781976L229.99999999999997,291.70601493748967L231,292.234291215973L231.99999999999997,292.72928704909975L233,293.1930531136272L234,293.6275195063366L235,294.0345020953302L236,294.4157086349372L237,294.7727446386277L238,295.1071190071585L239,295.420249411539L240,295.71346743236296L241,295.98802345865704L242,296.24509135069997L243.00000000000003,296.48577287231046L244,296.7111018989158L245.00000000000003,296.9220484083431L246,297.11952226173435L247.00000000000003,297.3043767823142L248,297.4774121399424L249.00000000000003,297.6393785494963L250,297.79097929115386L250.99999999999997,297.93287356060614L252,298.065679157137L252.99999999999997,298.18997501736106L254,298.3063036022394L254.99999999999997,298.4151731447841L256,298.51705976563835L257,298.6124094634745L258,298.7016399868994L259,298.785142594295L260,298.8632837077569L261,298.9364064670263L262,299.00483218904685L263,299.06886173851433L264,299.12877681453017L265,299.18484115821707L266,299.23730168590976L267,299.28638955229735L268,299.3323211476611L269,299.37529903313305L270,299.4155128176858L271,299.45313998036073L272,299.48834664104663L273,299.521288282933L274,299.55211042958706L275,299.58094927943097L276,299.60793230023774L277,299.63317878610957L278,299.65680037925836L279,299.6789015587705L280,299.6995800984087L281,299.718927495379L282,299.73702937187767L283,299.7539658511206L284,299.76981190945514L285,299.78463770605714L286,299.79850889162395L287,299.8114868973858L288,299.8236292056795L289,299.83498960324795L290,299.84561841836023L291,299.85556274277593L292,299.86486663951587L293,299.87357133734014L294,299.8817154127777L295,299.88933496050066L296,299.8964637527835L297,299.9031333887446L298,299.90937343401936L299,299.91521155147774L300,299.9206736235559L301,299.9257838667389L302,299.930564938696L303,299.93503803853747L304,299.9392230006345L305,299.9431383824129L306,299.94680154650723L307,299.9502287376364L308,299.9534351545393L309,299.95643501728625L310,299.9592416302643L311,299.9618674411122L312,299.9643240958667L313,299.9666224905615L314,299.96877281950844L315,299.97078462047205L316,299.97266681693884L317,299.97442775766683L318,299.97607525369017L319,299.97761661294265L320,299.9790586726535L321,299.98040782965734L322,299.9816700687545L323,299.9828509892448L324,299.98395582975394L325,299.9849894914614L326,299.9859565598334L327,299.98686132495624L328,299.9877078005605L329,299.9884997418208L330,299.98924066200897L331,299.98993384807494L332,299.9905823752248L333,299.9911891205592L334,299.9917567758345L335,299.9922878594012L336,299.99278472737404L337,299.99324958408266L338,299.9936844918488L339,299.9940913801343L340,299.99447205409973L341,299.99482820261136L342,299.99516140573303L343,299.99547314173515L344,299.9957647936521L345,299.9960376554174L346,299.99629293760404L347,299.996531772794L348,299.9967552206034L349,299.9969642723824L350,299.9971598556135L351,299.997342838026L352,299.99751403144523L353,299.9976741953946L354,299.9978240404644L355,299.997964231465L356,299.9980953903755L357,299.9982180991036L358,299.9983329020669L359,299.9984403086085L360,299.9985407952562L361,299.99863480783694L362,299.99872276345474L363,299.9988050523412L364,299.9988820395864" style="fill: none; stroke: orange; stroke-width: 2;"></path></g></g><path class="foreground" d="" style="display: none; fill: none;"></path></g></g></g></svg>