<svg class="marks" width="454" height="347" viewBox="0 0 454 347" version="1.1" xmlns="http://www.w3.org/2000/svg" xmlns:xlink="http://www.w3.org/1999/xlink"><rect width="454" height="347" style="fill: white;"></rect><g transform="translate(48,10)"><g class="mark-group role-frame root"><g transform="translate(0,0)"><path class="background" d="M0.5,0.5h400v300h-400Z" style="fill: none; stroke: #ddd;"></path><g><g class="mark-group role-axis"><g transform="translate(0.5,300.5)"><path class="background" d="M0,0h0v0h0Z" style="pointer-events: none; fill: none;"></path><g><g class="mark-rule role-axis-grid" style="pointer-events: none;"><line transform="translate(0,-300)" x2="0" y2="300" style="fill: none; stroke: #ddd; stroke-width: 1; opacity: 1;"></line><line transform="translate(50,-300)" x2="0" y2="300" style="fill: none; stroke: #ddd; stroke-width: 1; opacity: 1;"></line><line transform="translate(100,-300)" x2="0" y2="300" style="fill: none; stroke: #ddd; stroke-width: 1; opacity: 1;"></line><line transform="translate(150,-300)" x2="0" y2="300" style="fill: none; stroke: #ddd; stroke-width: 1; opacity: 1;"></line><line transform="translate(200,-300)" x2="0" y2="300" style="fill: none; stroke: #ddd; stroke-width: 1; opacity: 1;"></line><line transform="translate(250,-300)" x2="0" y2="300" style="fill: none; stroke: #ddd; stroke-width: 1; opacity: 1;"></line><line transform="translate(300,-300)" x2="0" y2="300" style="fill: none; stroke: #ddd; stroke-width: 1; opacity: 1;"></line><line transform="translate(350,-300)" x2="0" y2="300" style="fill: none; stroke: #ddd; stroke-width: 1; opacity: 1;"></line><line transform="translate(400,-300)" x2="0" y2="300" style="fill: none; stroke: #ddd; stroke-width: 1; opacity: 1;"></line></g></g><path class="foreground" d="" style="pointer-events: none; display: none; fill: none;"></path></g></g><g class="mark-group role-axis"><g transform="translate(0.5,0.5)"><path class="background" d="M0,0h0v0h0Z" style="pointer-events: none; fill: none;"></path><g><g class="mark-rule role-axis-grid" style="pointer-events: none;"><line transform="translate(0,300)" x2="400" y2="0" style="fill: none; stroke: #ddd; stroke-width: 1; opacity: 1;"></line><line transform="translate(0,270)" x2="400" y2="0" style="fill: none; stroke: #ddd; stroke-width: 1; opacity: 1;"></line><line transform="translate(0,240)" x2="400" y2="0" style="fill: none; stroke: #ddd; stroke-width: 1; opacity: 1;"></line><line transform="translate(0,210)" x2="400" y2="0" style="fill: none; stroke: #ddd; stroke-width: 1; opacity: 1;"></line><line transform="translate(0,180)" x2="400" y2="0" style="fill: none; stroke: #ddd; stroke-width: 1; opacity: 1;"></line><line transform="translate(0,150)" x2="400" y2="0" style="fill: none; stroke: #ddd; stroke-width: 1; opacity: 1;"></line><line transform="translate(0,120)" x2="400" y2="0" style="fill: none; stroke: #ddd; stroke-width: 1; opacity: 1;"></line><line transform="translate(0,90)" x2="400" y2="0" style="fill: none; stroke: #ddd; stroke-width: 1; opacity: 1;"></line><line transform="translate(0,60)" x2="400" y2="0" style="fill: none; stroke: #ddd; stroke-width: 1; opacity: 1;"></line><line transform="translate(0,30)" x2="400" y2="0" style="fill: none; stroke: #ddd; stroke-width: 1; opacity: 1;"></line><line transform="translate(0,0)" x2="400" y2="0" style="fill: none; stroke: #ddd; stroke-width: 1; opacity: 1;"></line></g></g><path class="foreground" d="" style="pointer-events: none; display: none; fill: none;"></path></g></g><g class="mark-group role-axis"><g transform="translate(0.5,300.5)"><path class="background" d="M0,0h0v0h0Z" style="pointer-events: none; fill: none;"></path><g><g class="mark-rule role-axis-tick" style="pointer-events: none;"><line transform="translate(0,0)" x2="0" y2="5" style="fill: none; stroke: #888; stroke-width: 1; opacity: 1;"></line><line transform="translate(50,0)" x2="0" y2="5" style="fill: none; stroke: #888; stroke-width: 1; opacity: 1;"></line><line transform="translate(100,0)" x2="0" y2="5" style="fill: none; stroke: #888; stroke-width: 1; opacity: 1;"></line><line transform="translate(150,0)" x2="0" y2="5" style="fill: none; stroke: #888; stroke-width: 1; opacity: 1;"></line><line transform="translate(200,0)" x2="0" y2="5" style="fill: none; stroke: #888; stroke-width: 1; opacity: 1;"></line><line transform="translate(250,0)" x2="0" y2="5" style="fill: none; stroke: #888; stroke-width: 1; opacity: 1;"></line><line transform="translate(300,0)" x2="0" y2="5" style="fill: none; stroke: #888; stroke-width: 1; opacity: 1;"></line><line transform="translate(350,0)" x2="0" y2="5" style="fill: none; stroke: #888; stroke-width: 1; opacity: 1;"></line><line transform="translate(400,0)" x2="0" y2="5" style="fill: none; stroke: #888; stroke-width: 1; opacity: 1;"></line></g><g class="mark-text role-axis-label" style="pointer-events: none;"><text text-anchor="start" transform="translate(0,15)" style="font-family: sans-serif; font-size: 10px; fill: #000; opacity: 1;">0</text><text text-anchor="middle" transform="translate(50,15)" style="font-family: sans-serif; font-size: 10px; fill: #000; opacity: 1;">50</text><text text-anchor="middle" transform="translate(100,15)" style="font-family: sans-serif; font-size: 10px; fill: #000; opacity: 1;">100</text><text text-anchor="middle" transform="translate(150,15)" style="font-family: sans-serif; font-size: 10px; fill: #000; opacity: 1;">150</text><text text-anchor="middle" transform="translate(200,15)" style="font-family: sans-serif; font-size: 10px; fill: #000; opacity: 1;">200</text><text text-anchor="middle" transform="translate(250,15)" style="font-family: sans-serif; font-size: 10px; fill: #000; opacity: 1;">250</text><text text-anchor="middle" transform="translate(300,15)" style="font-family: sans-serif; font-size: 10px; fill: #000; opacity: 1;">300</text><text text-anchor="middle" transform="translate(350,15)" style="font-family: sans-serif; font-size: 10px; fill: #000; opacity: 1;">350</text><text text-anchor="end" transform="translate(400,15)" style="font-family: sans-serif; font-size: 10px; fill: #000; opacity: 1;">400</text></g><g class="mark-rule role-axis-domain" style="pointer-events: none;"><line transform="translate(0,0)" x2="400" y2="0" style="fill: none; stroke: #888; stroke-width: 1; opacity: 1;"></line></g><g class="mark-text role-axis-title" style="pointer-events: none;"><text text-anchor="middle" transform="translate(200,30)" style="font-family: sans-serif; font-size: 11px; font-weight: bold; fill: #000; opacity: 1;">days</text></g></g><path class="foreground" d="" style="pointer-events: none; display: none; fill: none;"></path></g></g><g class="mark-group role-axis"><g transform="translate(0.5,0.5)"><path class="background" d="M0,0h0v0h0Z" style="pointer-events: none; fill: none;"></path><g><g class="mark-rule role-axis-tick" style="pointer-events: none;"><line transform="translate(0,300)" x2="-5" y2="0" style="fill: none; stroke: #888; stroke-width: 1; opacity: 1;"></line><line transform="translate(0,270)" x2="-5" y2="0" style="fill: none; stroke: #888; stroke-width: 1; opacity: 1;"></line><line transform="translate(0,240)" x2="-5" y2="0" style="fill: none; stroke: #888; stroke-width: 1; opacity: 1;"></line><line transform="translate(0,210)" x2="-5" y2="0" style="fill: none; stroke: #888; stroke-width: 1; opacity: 1;"></line><line transform="translate(0,180)" x2="-5" y2="0" style="fill: none; stroke: #888; stroke-width: 1; opacity: 1;"></line><line transform="translate(0,150)" x2="-5" y2="0" style="fill: none; stroke: #888; stroke-width: 1; opacity: 1;"></line><line transform="translate(0,120)" x2="-5" y2="0" style="fill: none; stroke: #888; stroke-width: 1; opacity: 1;"></line><line transform="translate(0,90)" x2="-5" y2="0" style="fill: none; stroke: #888; stroke-width: 1; opacity: 1;"></line><line transform="translate(0,60)" x2="-5" y2="0" style="fill: none; stroke: #888; stroke-width: 1; opacity: 1;"></line><line transform="translate(0,30)" x2="-5" y2="0" style="fill: none; stroke: #888; stroke-width: 1; opacity: 1;"></line><line transform="translate(0,0)" x2="-5" y2="0" style="fill: none; stroke: #888; stroke-width: 1; opacity: 1;"></line></g><g class="mark-text role-axis-label" style="pointer-events: none;"><text text-anchor="end" transform="translate(-7,303)" style="font-family: sans-serif; font-size: 10px; fill: #000; opacity: 1;">0%</text><text text-anchor="end" transform="translate(-7,273)" style="font-family: sans-serif; font-size: 10px; fill: #000; opacity: 1;">2%</text><text text-anchor="end" transform="translate(-7,243)" style="font-family: sans-serif; font-size: 10px; fill: #000; opacity: 1;">4%</text><text text-anchor="end" transform="translate(-7,213)" style="font-family: sans-serif; font-size: 10px; fill: #000; opacity: 1;">6%</text><text text-anchor="end" transform="translate(-7,183.00000000000003)" style="font-family: sans-serif; font-size: 10px; fill: #000; opacity: 1;">8%</text><text text-anchor="end" transform="translate(-7,153)" style="font-family: sans-serif; font-size: 10px; fill: #000; opacity: 1;">10%</text><text text-anchor="end" transform="translate(-7,123)" style="font-family: sans-serif; font-size: 10px; fill: #000; opacity: 1;">12%</text><text text-anchor="end" transform="translate(-7,92.99999999999999)" style="font-family: sans-serif; font-size: 10px; fill: #000; opacity: 1;">14%</text><text text-anchor="end" transform="translate(-7,63.00000000000002)" style="font-family: sans-serif; font-size: 10px; fill: #000; opacity: 1;">16%</text><text text-anchor="end" transform="translate(-7,33.00000000000003)" style="font-family: sans-serif; font-size: 10px; fill: #000; opacity: 1;">18%</text><text text-anchor="end" transform="translate(-7,3)" style="font-family: sans-serif; font-size: 10px; fill: #000; opacity: 1;">20%</text></g><g class="mark-rule role-axis-domain" style="pointer-events: none;"><line transform="translate(0,300)" x2="0" y2="-300" style="fill: none; stroke: #888; stroke-width: 1; opacity: 1;"></line></g><g class="mark-text role-axis-title" style="pointer-events: none;"><text text-anchor="middle" transform="translate(-31.0146484375,150) rotate(-90) translate(0,-2)" style="font-family: sans-serif; font-size: 11px; font-weight: bold; fill: #000; opacity: 1;">share_of_pop</text></g></g><path class="foreground" d="" style="pointer-events: none; display: none; fill: none;"></path></g></g><g class="mark-area role-mark layer_0_marks"><path d="M0,300L1,300L2,300L3,300L4,300L5,300L6,300L7.000000000000001,300L8,300L9,300L10,300L11,300L12,300L13,300L14.000000000000002,300L15,300L16,300L17,300L18,300L19,300L20,300L21,300L22,300L23,300L24,300L25,300L26,300L27,300L28.000000000000004,300L28.999999999999996,300L30,6.501052341935676L31,6.501052341935676L32,6.501052341935676L33,6.501052341935676L34,6.501052341935676L35,6.501052341935676L36,6.501052341935676L37,6.501052341935676L38,6.501052341935676L39,6.501052341935676L40,6.501052341935676L41,6.501052341935676L42,6.501052341935676L43,6.501052341935676L44,6.501052341935676L45,6.501052341935676L46,6.501052341935676L47,6.501052341935676L48,6.501052341935676L49,6.501052341935676L50,6.501052341935676L51,6.501052341935676L52,6.501052341935676L53,6.501052341935676L54,6.501052341935676L55.00000000000001,6.501052341935676L56.00000000000001,6.501052341935676L56.99999999999999,6.501052341935676L57.99999999999999,6.501052341935676L59,300L60,300L61,300L62,300L63,300L64,300L65,300L66,300L67,300L68,300L69,300L70,300L71,300L72,300L73,300L74,300L75,300L76,300L77,300L78,300L79,300L80,300L81,300L82,300L83,300L84,300L85,300L86,300L87,300L88,300L89,300L90,300L91,300L92,300L93,300L94,300L95,300L96,300L97,300L98,300L99,300L100,300L101,300L102,300L103,300L104,300L105,300L106,300L107,300L108,300L109.00000000000001,300L110.00000000000001,300L111.00000000000001,300L112.00000000000001,300L112.99999999999999,300L113.99999999999999,300L114.99999999999999,300L115.99999999999999,300L117,300L118,300L119,300L120,300L121,300L122,300L123,300L124,300L125,300L126,300L127,300L128,300L129,300L130,300L131,300L132,300L133,300L134,300L135,300L136,300L137,300L138,300L139,300L140,300L141,300L142,300L143,300L144,300L145,300L146,300L147,300L148,300L149,300L150,300L151,300L152,300L153,300L154,300L155,300L156,300L157,300L158,300L159,300L160,300L161,300L162,300L163,300L164,300L165,300L166,300L167,300L168,300L169,300L170,300L171,300L172,300L173,300L174,300L175,300L176,300L177,300L178,300L179,300L180,300L181,300L182,300L183,300L184,300L185,300L186,300L187,300L188,300L189,300L190,300L191,300L192,300L193,300L194,300L195,300L196,300L197,300L198,300L199,300L200,300L200.99999999999997,300L202,300L202.99999999999997,300L204,300L204.99999999999997,300L206,300L206.99999999999997,300L208,300L209,300L210,300L211,300L212,300L213,300L214,300L215,300L216,300L217,300L218.00000000000003,300L219,300L220.00000000000003,300L221,300L222.00000000000003,300L223,300L224.00000000000003,300L225,300L225.99999999999997,300L227,300L227.99999999999997,300L229,300L229.99999999999997,300L231,300L231.99999999999997,300L233,300L234,300L235,300L236,300L237,300L238,300L239,300L240,300L241,300L242,300L243.00000000000003,300L244,300L245.00000000000003,300L246,300L247.00000000000003,300L248,300L249.00000000000003,300L250,300L250.99999999999997,300L252,300L252.99999999999997,300L254,300L254.99999999999997,300L256,300L257,300L258,300L259,300L260,300L261,300L262,300L263,300L264,300L265,300L266,300L267,300L268,300L269,300L270,300L271,300L272,300L273,300L274,300L275,300L276,300L277,300L278,300L279,300L280,300L281,300L282,300L283,300L284,300L285,300L286,300L287,300L288,300L289,300L290,300L291,300L292,300L293,300L294,300L295,300L296,300L297,300L298,300L299,300L300,300L301,300L302,300L303,300L304,300L305,300L306,300L307,300L308,300L309,300L310,300L311,300L312,300L313,300L314,300L315,300L316,300L317,300L318,300L319,300L320,300L321,300L322,300L323,300L324,300L325,300L326,300L327,300L328,300L329,300L330,300L331,300L332,300L333,300L334,300L335,300L336,300L337,300L338,300L339,300L340,300L341,300L342,300L343,300L344,300L345,300L346,300L347,300L348,300L349,300L350,300L351,300L352,300L353,300L354,300L355,300L356,300L357,300L358,300L359,300L360,300L361,300L362,300L363,300L364,300L364,300L363,300L362,300L361,300L360,300L359,300L358,300L357,300L356,300L355,300L354,300L353,300L352,300L351,300L350,300L349,300L348,300L347,300L346,300L345,300L344,300L343,300L342,300L341,300L340,300L339,300L338,300L337,300L336,300L335,300L334,300L333,300L332,300L331,300L330,300L329,300L328,300L327,300L326,300L325,300L324,300L323,300L322,300L321,300L320,300L319,300L318,300L317,300L316,300L315,300L314,300L313,300L312,300L311,300L310,300L309,300L308,300L307,300L306,300L305,300L304,300L303,300L302,300L301,300L300,300L299,300L298,300L297,300L296,300L295,300L294,300L293,300L292,300L291,300L290,300L289,300L288,300L287,300L286,300L285,300L284,300L283,300L282,300L281,300L280,300L279,300L278,300L277,300L276,300L275,300L274,300L273,300L272,300L271,300L270,300L269,300L268,300L267,300L266,300L265,300L264,300L263,300L262,300L261,300L260,300L259,300L258,300L257,300L256,300L254.99999999999997,300L254,300L252.99999999999997,300L252,300L250.99999999999997,300L250,300L249.00000000000003,300L248,300L247.00000000000003,300L246,300L245.00000000000003,300L244,300L243.00000000000003,300L242,300L241,300L240,300L239,300L238,300L237,300L236,300L235,300L234,300L233,300L231.99999999999997,300L231,300L229.99999999999997,300L229,300L227.99999999999997,300L227,300L225.99999999999997,300L225,300L224.00000000000003,300L223,300L222.00000000000003,300L221,300L220.00000000000003,300L219,300L218.00000000000003,300L217,300L216,300L215,300L214,300L213,300L212,300L211,300L210,300L209,300L208,300L206.99999999999997,300L206,300L204.99999999999997,300L204,300L202.99999999999997,300L202,300L200.99999999999997,300L200,300L199,300L198,300L197,300L196,300L195,300L194,300L193,300L192,300L191,300L190,300L189,300L188,300L187,300L186,300L185,300L184,300L183,300L182,300L181,300L180,300L179,300L178,300L177,300L176,300L175,300L174,300L173,300L172,300L171,300L170,300L169,300L168,300L167,300L166,300L165,300L164,300L163,300L162,300L161,300L160,300L159,300L158,300L157,300L156,300L155,300L154,300L153,300L152,300L151,300L150,300L149,300L148,300L147,300L146,300L145,300L144,300L143,300L142,300L141,300L140,300L139,300L138,300L137,300L136,300L135,300L134,300L133,300L132,300L131,300L130,300L129,300L128,300L127,300L126,300L125,300L124,300L123,300L122,300L121,300L120,300L119,300L118,300L117,300L115.99999999999999,300L114.99999999999999,300L113.99999999999999,300L112.99999999999999,300L112.00000000000001,300L111.00000000000001,300L110.00000000000001,300L109.00000000000001,300L108,300L107,300L106,300L105,300L104,300L103,300L102,300L101,300L100,300L99,300L98,300L97,300L96,300L95,300L94,300L93,300L92,300L91,300L90,300L89,300L88,300L87,300L86,300L85,300L84,300L83,300L82,300L81,300L80,300L79,300L78,300L77,300L76,300L75,300L74,300L73,300L72,300L71,300L70,300L69,300L68,300L67,300L66,300L65,300L64,300L63,300L62,300L61,300L60,300L59,300L57.99999999999999,300L56.99999999999999,300L56.00000000000001,300L55.00000000000001,300L54,300L53,300L52,300L51,300L50,300L49,300L48,300L47,300L46,300L45,300L44,300L43,300L42,300L41,300L40,300L39,300L38,300L37,300L36,300L35,300L34,300L33,300L32,300L31,300L30,300L28.999999999999996,300L28.000000000000004,300L27,300L26,300L25,300L24,300L23,300L22,300L21,300L20,300L19,300L18,300L17,300L16,300L15,300L14.000000000000002,300L13,300L12,300L11,300L10,300L9,300L8,300L7.000000000000001,300L6,300L5,300L4,300L3,300L2,300L1,300L0,300Z" style="fill: #2a8cf0; opacity: 0.5;"></path></g><g class="mark-area role-mark layer_1_marks"><path d="M0,300L1,300L2,300L3,300L4,300L5,300L6,300L7.000000000000001,300L8,300L9,300L10,300L11,300L12,300L13,300L14.000000000000002,300L15,300L16,300L17,300L18,300L19,300L20,300L21,300L22,300L23,300L24,300L25,300L26,300L27,300L28.000000000000004,300L28.999999999999996,300L30,300L31,300L32,300L33,300L34,300L35,300L36,300L37,300L38,300L39,300L40,300L41,300L42,300L43,300L44,300L45,300L46,300L47,300L48,300L49,300L50,300L51,300L52,300L53,300L54,300L55.00000000000001,300L56.00000000000001,300L56.99999999999999,300L57.99999999999999,6.501052341935676L59,6.501052341935676L60,6.501052341935676L61,6.501052341935676L62,6.501052341935676L63,6.501052341935676L64,6.501052341935676L65,6.501052341935676L66,6.501052341935676L67,6.501052341935676L68,6.501052341935676L69,6.501052341935676L70,6.501052341935676L71,6.501052341935676L72,6.501052341935676L73,6.501052341935676L74,6.501052341935676L75,6.501052341935676L76,6.501052341935676L77,6.501052341935676L78,6.501052341935676L79,6.501052341935676L80,6.501052341935676L81,6.501052341935676L82,6.501052341935676L83,6.501052341935676L84,6.501052341935676L85,6.501052341935676L86,6.501052341935676L87,6.501052341935676L88,6.501052341935676L89,6.501052341935676L90,6.501052341935676L91,6.501052341935676L92,6.501052341935676L93,6.501052341935676L94,6.501052341935676L95,6.501052341935676L96,6.501052341935676L97,6.501052341935676L98,6.501052341935676L99,6.501052341935676L100,6.501052341935676L101,6.501052341935676L102,6.501052341935676L103,6.501052341935676L104,6.501052341935676L105,6.501052341935676L106,6.501052341935676L107,6.501052341935676L108,6.501052341935676L109.00000000000001,6.501052341935676L110.00000000000001,6.501052341935676L111.00000000000001,6.501052341935676L112.00000000000001,6.501052341935676L112.99999999999999,6.501052341935676L113.99999999999999,6.501052341935676L114.99999999999999,6.501052341935676L115.99999999999999,6.501052341935676L117,6.501052341935676L118,6.501052341935676L119,6.501052341935676L120,6.501052341935676L121,6.501052341935676L122,6.501052341935676L123,6.501052341935676L124,6.501052341935676L125,6.501052341935676L126,6.501052341935676L127,6.501052341935676L128,6.501052341935676L129,6.501052341935676L130,6.501052341935676L131,6.501052341935676L132,6.501052341935676L133,6.501052341935676L134,6.501052341935676L135,6.501052341935676L136,6.501052341935676L137,6.501052341935676L138,6.501052341935676L139,6.501052341935676L140,6.501052341935676L141,6.501052341935676L142,6.501052341935676L143,6.501052341935676L144,6.501052341935676L145,6.501052341935676L146,6.501052341935676L147,6.501052341935676L148,6.501052341935676L149,6.501052341935676L150,6.501052341935676L151,6.501052341935676L152,6.501052341935676L153,6.501052341935676L154,6.501052341935676L155,6.501052341935676L156,6.501052341935676L157,6.501052341935676L158,6.501052341935676L159,6.501052341935676L160,6.501052341935676L161,6.501052341935676L162,6.501052341935676L163,6.501052341935676L164,6.501052341935676L165,6.501052341935676L166,6.501052341935676L167,6.501052341935676L168,6.501052341935676L169,6.501052341935676L170,6.501052341935676L171,6.501052341935676L172,6.501052341935676L173,6.501052341935676L174,6.501052341935676L175,6.501052341935676L176,6.501052341935676L177,6.501052341935676L178,6.501052341935676L179,6.501052341935676L180,6.501052341935676L181,6.501052341935676L182,6.501052341935676L183,6.501052341935676L184,6.501052341935676L185,6.501052341935676L186,6.501052341935676L187,6.501052341935676L188,6.501052341935676L189,6.501052341935676L190,6.501052341935676L191,6.501052341935676L192,6.501052341935676L193,6.501052341935676L194,6.501052341935676L195,6.501052341935676L196,6.501052341935676L197,6.501052341935676L198,6.501052341935676L199,6.501052341935676L200,6.501052341935676L200.99999999999997,6.501052341935676L202,6.501052341935676L202.99999999999997,6.501052341935676L204,6.501052341935676L204.99999999999997,6.501052341935676L206,6.501052341935676L206.99999999999997,6.501052341935676L208,6.501052341935676L209,6.501052341935676L210,6.501052341935676L211,6.501052341935676L212,6.501052341935676L213,6.501052341935676L214,6.501052341935676L215,6.501052341935676L216,6.501052341935676L217,6.501052341935676L218.00000000000003,6.501052341935676L219,6.501052341935676L220.00000000000003,6.501052341935676L221,6.501052341935676L222.00000000000003,6.501052341935676L223,6.501052341935676L224.00000000000003,6.501052341935676L225,6.501052341935676L225.99999999999997,6.501052341935676L227,6.501052341935676L227.99999999999997,6.501052341935676L229,6.501052341935676L229.99999999999997,6.501052341935676L231,6.501052341935676L231.99999999999997,6.501052341935676L233,6.501052341935676L234,6.501052341935676L235,6.501052341935676L236,6.501052341935676L237,6.501052341935676L238,6.501052341935676L239,6.501052341935676L240,6.501052341935676L241,6.501052341935676L242,6.501052341935676L243.00000000000003,6.501052341935676L244,6.501052341935676L245.00000000000003,6.501052341935676L246,6.501052341935676L247.00000000000003,6.501052341935676L248,6.501052341935676L249.00000000000003,6.501052341935676L250,6.501052341935676L250.99999999999997,6.501052341935676L252,6.501052341935676L252.99999999999997,6.501052341935676L254,6.501052341935676L254.99999999999997,6.501052341935676L256,6.501052341935676L257,6.501052341935676L258,6.501052341935676L259,6.501052341935676L260,6.501052341935676L261,6.501052341935676L262,6.501052341935676L263,6.501052341935676L264,6.501052341935676L265,6.501052341935676L266,6.501052341935676L267,6.501052341935676L268,6.501052341935676L269,6.501052341935676L270,6.501052341935676L271,6.501052341935676L272,6.501052341935676L273,6.501052341935676L274,6.501052341935676L275,6.501052341935676L276,6.501052341935676L277,6.501052341935676L278,6.501052341935676L279,6.501052341935676L280,6.501052341935676L281,6.501052341935676L282,6.501052341935676L283,6.501052341935676L284,6.501052341935676L285,6.501052341935676L286,6.501052341935676L287,6.501052341935676L288,6.501052341935676L289,6.501052341935676L290,6.501052341935676L291,6.501052341935676L292,6.501052341935676L293,6.501052341935676L294,6.501052341935676L295,6.501052341935676L296,6.501052341935676L297,6.501052341935676L298,6.501052341935676L299,6.501052341935676L300,6.501052341935676L301,6.501052341935676L302,6.501052341935676L303,6.501052341935676L304,6.501052341935676L305,6.501052341935676L306,6.501052341935676L307,6.501052341935676L308,6.501052341935676L309,6.501052341935676L310,6.501052341935676L311,6.501052341935676L312,6.501052341935676L313,6.501052341935676L314,6.501052341935676L315,6.501052341935676L316,6.501052341935676L317,6.501052341935676L318,6.501052341935676L319,6.501052341935676L320,6.501052341935676L321,6.501052341935676L322,6.501052341935676L323,6.501052341935676L324,6.501052341935676L325,6.501052341935676L326,6.501052341935676L327,6.501052341935676L328,6.501052341935676L329,6.501052341935676L330,6.501052341935676L331,6.501052341935676L332,6.501052341935676L333,6.501052341935676L334,6.501052341935676L335,6.501052341935676L336,6.501052341935676L337,6.501052341935676L338,6.501052341935676L339,6.501052341935676L340,6.501052341935676L341,6.501052341935676L342,6.501052341935676L343,6.501052341935676L344,6.501052341935676L345,6.501052341935676L346,6.501052341935676L347,6.501052341935676L348,6.501052341935676L349,6.501052341935676L350,6.501052341935676L351,6.501052341935676L352,6.501052341935676L353,6.501052341935676L354,6.501052341935676L355,6.501052341935676L356,6.501052341935676L357,6.501052341935676L358,6.501052341935676L359,6.501052341935676L360,6.501052341935676L361,6.501052341935676L362,6.501052341935676L363,6.501052341935676L364,6.501052341935676L364,300L363,300L362,300L361,300L360,300L359,300L358,300L357,300L356,300L355,300L354,300L353,300L352,300L351,300L350,300L349,300L348,300L347,300L346,300L345,300L344,300L343,300L342,300L341,300L340,300L339,300L338,300L337,300L336,300L335,300L334,300L333,300L332,300L331,300L330,300L329,300L328,300L327,300L326,300L325,300L324,300L323,300L322,300L321,300L320,300L319,300L318,300L317,300L316,300L315,300L314,300L313,300L312,300L311,300L310,300L309,300L308,300L307,300L306,300L305,300L304,300L303,300L302,300L301,300L300,300L299,300L298,300L297,300L296,300L295,300L294,300L293,300L292,300L291,300L290,300L289,300L288,300L287,300L286,300L285,300L284,300L283,300L282,300L281,300L280,300L279,300L278,300L277,300L276,300L275,300L274,300L273,300L272,300L271,300L270,300L269,300L268,300L267,300L266,300L265,300L264,300L263,300L262,300L261,300L260,300L259,300L258,300L257,300L256,300L254.99999999999997,300L254,300L252.99999999999997,300L252,300L250.99999999999997,300L250,300L249.00000000000003,300L248,300L247.00000000000003,300L246,300L245.00000000000003,300L244,300L243.00000000000003,300L242,300L241,300L240,300L239,300L238,300L237,300L236,300L235,300L234,300L233,300L231.99999999999997,300L231,300L229.99999999999997,300L229,300L227.99999999999997,300L227,300L225.99999999999997,300L225,300L224.00000000000003,300L223,300L222.00000000000003,300L221,300L220.00000000000003,300L219,300L218.00000000000003,300L217,300L216,300L215,300L214,300L213,300L212,300L211,300L210,300L209,300L208,300L206.99999999999997,300L206,300L204.99999999999997,300L204,300L202.99999999999997,300L202,300L200.99999999999997,300L200,300L199,300L198,300L197,300L196,300L195,300L194,300L193,300L192,300L191,300L190,300L189,300L188,300L187,300L186,300L185,300L184,300L183,300L182,300L181,300L180,300L179,300L178,300L177,300L176,300L175,300L174,300L173,300L172,300L171,300L170,300L169,300L168,300L167,300L166,300L165,300L164,300L163,300L162,300L161,300L160,300L159,300L158,300L157,300L156,300L155,300L154,300L153,300L152,300L151,300L150,300L149,300L148,300L147,300L146,300L145,300L144,300L143,300L142,300L141,300L140,300L139,300L138,300L137,300L136,300L135,300L134,300L133,300L132,300L131,300L130,300L129,300L128,300L127,300L126,300L125,300L124,300L123,300L122,300L121,300L120,300L119,300L118,300L117,300L115.99999999999999,300L114.99999999999999,300L113.99999999999999,300L112.99999999999999,300L112.00000000000001,300L111.00000000000001,300L110.00000000000001,300L109.00000000000001,300L108,300L107,300L106,300L105,300L104,300L103,300L102,300L101,300L100,300L99,300L98,300L97,300L96,300L95,300L94,300L93,300L92,300L91,300L90,300L89,300L88,300L87,300L86,300L85,300L84,300L83,300L82,300L81,300L80,300L79,300L78,300L77,300L76,300L75,300L74,300L73,300L72,300L71,300L70,300L69,300L68,300L67,300L66,300L65,300L64,300L63,300L62,300L61,300L60,300L59,300L57.99999999999999,300L56.99999999999999,300L56.00000000000001,300L55.00000000000001,300L54,300L53,300L52,300L51,300L50,300L49,300L48,300L47,300L46,300L45,300L44,300L43,300L42,300L41,300L40,300L39,300L38,300L37,300L36,300L35,300L34,300L33,300L32,300L31,300L30,300L28.999999999999996,300L28.000000000000004,300L27,300L26,300L25,300L24,300L23,300L22,300L21,300L20,300L19,300L18,300L17,300L16,300L15,300L14.000000000000002,300L13,300L12,300L11,300L10,300L9,300L8,300L7.000000000000001,300L6,300L5,300L4,300L3,300L2,300L1,300L0,300Z" style="fill: #3fbaed; opacity: 0.5;"></path></g><g class="mark-line role-mark layer_2_marks"><path d="M0,299.9817073170732L1,299.98280600763405L2,299.9828134660762L3,299.98211458094653L4,299.98092967413373L5,299.97938152026904L6,299.9775347522981L7.000000000000001,299.97541899958725L8,299.9730424372456L9,299.97039968235345L10,299.96747635236716L11,299.96425164865093L12,299.9606997662924L13,299.9567906036526L14.000000000000002,299.95249004457105L15,299.94775997783705L16,299.94255814629935L17,299.9368378797482L18,299.9305477416677L19,299.92363110583767L20,299.91602567028025L21,299.90766291086163L22,299.89846747360224L23,299.88835650260586L24,299.87723889901105L25,299.8650145052126L26,299.85157320762744L27,299.83679395038365L28.000000000000004,299.8205436514393L28.999999999999996,299.8026760117356L30,299.7897018631011L31,299.7855792960124L32,299.78727266477244L33,299.792697823253L34,299.8004292016282L35,299.8094967119275L36,299.8192449631267L37,299.8292356893232L38,299.83918014684497L39,299.8488922939928L40,299.8582563817354L41,299.8672045360063L42,299.8757012664408L43,299.8837327757035L44,299.89129959508097L45,299.8984115239246L46,299.9050841639777L47,299.91133655698286L48,299.9171895851103L49,299.92266489707293L50,299.9277841978055L51,299.93256878691335L52,299.9370392681323L53,299.94121537533965L54,299.9451158775811L55.00000000000001,299.94875853719884L56.00000000000001,299.95216010319973L56.99999999999999,299.9553363275783L57.99999999999999,299.95686628686974L59,299.95609205060816L60,299.9537940205347L61,299.9504152146202L62,299.9461983003836L63,299.94126613555926L64,299.93566902178344L65,299.9294123378251L66,299.92247259245715L67,299.9148066421816L68,299.9063568563331L69,299.89705386836425L70,299.8868178820789L71,299.87555908812743L72,299.86317752777705L73,299.84956259087835L74,299.83459225732514L75,299.8181321418728L76,299.80003437314406L77,299.7801363201287L78,299.7582591687095L79,299.73420634390527L80,299.7077617689529L81,299.67868794907747L82,299.6467238652377L83,299.61158266094213L84,299.5729491032061L85,299.5304767967265L86,299.4837851283347L87,299.4324559166797L88,299.3760297398849L89,299.3140019115861L90,299.2458180732884L91,299.1708693683781L92,299.08848716038966L93,298.9979372552735L94,298.898413584449L95,298.7890313023862L96,298.6688192493726L97,298.53671172703383L98,298.391539531149L99,298.23202018341317L100,298.05674730114646L101,297.86417904166217L102,297.652625556236L103,297.4202353875641L104,297.16498074449316L105,296.88464158894595L106,296.5767884727045L107,296.238764066472L108,295.86766333093647L109.00000000000001,295.4603122900034L110.00000000000001,295.0132453806894L111.00000000000001,294.52268137321204L112.00000000000001,293.98449787959373L112.99999999999999,293.39420450075625L113.99999999999999,292.7469147019756L114.99999999999999,292.03731655620925L115.99999999999999,291.2596425559208L117,290.4076387685399L118,289.4745337007028L119,288.45300734419317L120,287.33516100442716L121,286.11248866280704L122,284.7758507996494L123,283.3154518067678L124,281.7208223497744L125,279.98080830061474L126,278.08356815044175L127,276.01658112968875L128,273.76666860183883L129,271.3200316526247L130,268.6623081560331L131,265.7786529464993L132,262.6538450411245L133,259.27242610779217L134,255.61887452802574L135,251.67781941221278L136,247.43429873569232L137,242.87406531553555L138,237.98394357182823L139,232.75223884317094L140,227.1691993855384L141,221.22752901779737L142,214.92294564677147L143,208.25477760202904L144,201.22658587329025L145,193.8467960694864L146,186.12931937985877L147,178.09413727005074L148,169.76782043369744L149,161.18394919600388L150,152.38340078277366L151,143.41446222943705L152,134.33275046927562L153,125.20089013725197L154,116.08794057651673L155,107.06855727642272L156,98.22188587370081L157,89.63020857113875L158,81.37736946493402L159,73.54703080951592L160,66.22081484851506L161,59.47640966635722L162,53.38570696401018L163,48.013070068105975L164,43.41377792703496L165,39.63275330224909L166,36.70358306761503L167,34.6479115120035L168,33.475185623366386L169,33.18277485630517L170,33.75643389915246L171,35.171073399182696L172,37.391789182193115L173,40.37509220183705L174,44.07027744390669L175,48.42087005677682L176,53.366090535504654L177,58.84228710064602L178,64.78429163248518L179,71.12666479588654L180,77.80480554710381L181,84.75590940884831L182,91.91976824872353L183,99.2394114767052L184,106.66159441866428L185,114.1371440822531L186,121.62117566574545L187,129.07319509673746L188,136.4571037958052L189,143.74112192946845L190,150.897645837619L191,157.90305427154928L192,164.7374767183734L193,171.38453555000024L194,177.8310721280444L195,184.0668654034284L196,190.0843500314966L197,195.8783396212374L198,201.44575947551252L199,206.78539206993176L200,211.89763756339397L200.99999999999997,216.78429082841456L202,221.44833582449917L202.99999999999997,225.89375760036353L204,230.12537178654236L204.99999999999997,234.14867111427202L206,237.96968825512405L206.99999999999997,241.59487410520632L208,245.03099052548487L209,248.28501648482316L210,251.36406652501972L211,254.27532046908019L212,257.0259633181146L213,259.62313432270065L214,262.07388426642837L215,264.3851400587227L216,266.5636757977668L217,268.6160895299856L218.00000000000003,270.54878499819324L219,272.3679577347522L220.00000000000003,274.0795849179191L221,275.68941846823685L222.00000000000003,277.20298091693576L223,278.62556362954234L224.00000000000003,279.96222701517434L225,281.2178023953118L225.99999999999997,282.3968952452773L227,283.5038895573777L227.99999999999997,284.54295310685603L229,285.51804343067727L229.99999999999997,286.4329143549838L231,287.29112293001884L231.99999999999997,288.09603665168515L233,288.85084086690375L234,289.5585462757876L235,290.2219964575621L236,290.8438753593347L237,291.42671469743595L238,291.97290123027983L239,292.4846838696825L240,292.96418060447775L241,293.4133852161938L242,293.83417377163414L243.00000000000003,294.22831088153015L244,294.5974557181008L245.00000000000003,294.94316778744997L246,295.2669124553223L247.00000000000003,295.5700662268932L248,295.85392178304846L249.00000000000003,296.1196927770555L250,296.3685183966972L250.99999999999997,296.601467697864L252,296.81954371631537L252.99999999999997,297.0236873648626L254,297.21478112361245L254.99999999999997,297.3936525311717L256,297.56107748486755L257,297.71778335810177L258,297.8644519429461L259,298.00172222601384L260,298.13019300552196L261,298.2504253572945L262,298.362944957264L263,298.46824426780967L264,298.56678459503183L265,298.6589980238137L266,298.745289237258L267,298.8260372268239L268,298.9015968992177L269,298.97230058582704L270,299.0384594602193L271,299.10036486896445L272,299.1582895807858L273,299.212488958792L274,299.2632020603014L275,299.3106526685322L276,299.3550502602079L277,299.39659091290804L278,299.435458155784L279,299.47182376706L280,299.5058485215477L281,299.53768289121916L282,299.56746770170884L283,299.5953347474506L284,299.62140736799626L285,299.6458009879146L286,299.66862362252704L287,299.6899763516027L288,299.70995376300806L289,299.7286443681871L290,299.746130991234L291,299.7624911332144L292,299.7777973132887L293,299.79211738809835L294,299.8055148507828L295,299.8180491109152L296,299.82977575656065L297,299.8407467995895L298,299.85101090530617L299,299.86061360738887L300,299.86959750907215L301,299.878002471448L302,299.88586578970353L303,299.89322235806486L304,299.90010482416574L305,299.9065437335161L306,299.91256766470235L307,299.91820335591063L308,299.9234758233284L309,299.9284084719432L310,299.93302319922464L311,299.93734049214606L312,299.94137951797126L313,299.94515820920645L314,299.94869334309135L315,299.9520006159791L316,299.955094712933L317,299.9579893728473L318,299.96069744937876L319,299.96323096795845L320,299.96560117913464L321,299.9678186084835L322,299.96989310330775L323,299.97183387632856L324,299.97364954656604L325,299.9753481775873L326,299.976937313292L327,299.9784240113937L328,299.9798148747455L329,299.981116080648L330,299.9823334082698L331,299.9834722643021L332,299.98453770696074L333,299.9855344684422L334,299.98646697593296L335,299.9873393712655L336,299.98815552930813L337,299.98891907516975L338,299.9896334002962L339,299.99030167752977L340,299.990926875198L341,299.9915117702949L342,299.9920589608128L343,299.9925708772793L344,299.9930497935513L345,299.9934978369126L346,299.99391699752175L347,299.9943091372503L348,299.9946759979518L349,299.9950192091976L350,299.99534029551455L351,299.9956406831557L352,299.9959217064351L353,299.99618461365384L354,299.9964305726445L355,299.9966606759582L356,299.9968759457172L357,299.99707733815455L358,299.99726574786183L359,299.9974420117621L360,299.9976069128276L361,299.99776118355754L362,299.9979055092314L363,299.998040530953L364,299.9981668484982" style="fill: none; stroke: orange; stroke-width: 2;"></path></g></g><path class="foreground" d="" style="display: none; fill: none;"></path></g></g></g></svg>