<svg class="marks" width="454" height="347" viewBox="0 0 454 347" version="1.1" xmlns="http://www.w3.org/2000/svg" xmlns:xlink="http://www.w3.org/1999/xlink"><rect width="454" height="347" style="fill: white;"></rect><g transform="translate(48,10)"><g class="mark-group role-frame root"><g transform="translate(0,0)"><path class="background" d="M0.5,0.5h400v300h-400Z" style="fill: none; stroke: #ddd;"></path><g><g class="mark-group role-axis"><g transform="translate(0.5,300.5)"><path class="background" d="M0,0h0v0h0Z" style="pointer-events: none; fill: none;"></path><g><g class="mark-rule role-axis-grid" style="pointer-events: none;"><line transform="translate(0,-300)" x2="0" y2="300" style="fill: none; stroke: #ddd; stroke-width: 1; opacity: 1;"></line><line transform="translate(50,-300)" x2="0" y2="300" style="fill: none; stroke: #ddd; stroke-width: 1; opacity: 1;"></line><line transform="translate(100,-300)" x2="0" y2="300" style="fill: none; stroke: #ddd; stroke-width: 1; opacity: 1;"></line><line transform="translate(150,-300)" x2="0" y2="300" style="fill: none; stroke: #ddd; stroke-width: 1; opacity: 1;"></line><line transform="translate(200,-300)" x2="0" y2="300" style="fill: none; stroke: #ddd; stroke-width: 1; opacity: 1;"></line><line transform="translate(250,-300)" x2="0" y2="300" style="fill: none; stroke: #ddd; stroke-width: 1; opacity: 1;"></line><line transform="translate(300,-300)" x2="0" y2="300" style="fill: none; stroke: #ddd; stroke-width: 1; opacity: 1;"></line><line transform="translate(350,-300)" x2="0" y2="300" style="fill: none; stroke: #ddd; stroke-width: 1; opacity: 1;"></line><line transform="translate(400,-300)" x2="0" y2="300" style="fill: none; stroke: #ddd; stroke-width: 1; opacity: 1;"></line></g></g><path class="foreground" d="" style="pointer-events: none; display: none; fill: none;"></path></g></g><g class="mark-group role-axis"><g transform="translate(0.5,0.5)"><path class="background" d="M0,0h0v0h0Z" style="pointer-events: none; fill: none;"></path><g><g class="mark-rule role-axis-grid" style="pointer-events: none;"><line transform="translate(0,300)" x2="400" y2="0" style="fill: none; stroke: #ddd; stroke-width: 1; opacity: 1;"></line><line transform="translate(0,270)" x2="400" y2="0" style="fill: none; stroke: #ddd; stroke-width: 1; opacity: 1;"></line><line transform="translate(0,240)" x2="400" y2="0" style="fill: none; stroke: #ddd; stroke-width: 1; opacity: 1;"></line><line transform="translate(0,210)" x2="400" y2="0" style="fill: none; stroke: #ddd; stroke-width: 1; opacity: 1;"></line><line transform="translate(0,180)" x2="400" y2="0" style="fill: none; stroke: #ddd; stroke-width: 1; opacity: 1;"></line><line transform="translate(0,150)" x2="400" y2="0" style="fill: none; stroke: #ddd; stroke-width: 1; opacity: 1;"></line><line transform="translate(0,120)" x2="400" y2="0" style="fill: none; stroke: #ddd; stroke-width: 1; opacity: 1;"></line><line transform="translate(0,90)" x2="400" y2="0" style="fill: none; stroke: #ddd; stroke-width: 1; opacity: 1;"></line><line transform="translate(0,60)" x2="400" y2="0" style="fill: none; stroke: #ddd; stroke-width: 1; opacity: 1;"></line><line transform="translate(0,30)" x2="400" y2="0" style="fill: none; stroke: #ddd; stroke-width: 1; opacity: 1;"></line><line transform="translate(0,0)" x2="400" y2="0" style="fill: none; stroke: #ddd; stroke-width: 1; opacity: 1;"></line></g></g><path class="foreground" d="" style="pointer-events: none; display: none; fill: none;"></path></g></g><g class="mark-group role-axis"><g transform="translate(0.5,300.5)"><path class="background" d="M0,0h0v0h0Z" style="pointer-events: none; fill: none;"></path><g><g class="mark-rule role-axis-tick" style="pointer-events: none;"><line transform="translate(0,0)" x2="0" y2="5" style="fill: none; stroke: #888; stroke-width: 1; opacity: 1;"></line><line transform="translate(50,0)" x2="0" y2="5" style="fill: none; stroke: #888; stroke-width: 1; opacity: 1;"></line><line transform="translate(100,0)" x2="0" y2="5" style="fill: none; stroke: #888; stroke-width: 1; opacity: 1;"></line><line transform="translate(150,0)" x2="0" y2="5" style="fill: none; stroke: #888; stroke-width: 1; opacity: 1;"></line><line transform="translate(200,0)" x2="0" y2="5" style="fill: none; stroke: #888; stroke-width: 1; opacity: 1;"></line><line transform="translate(250,0)" x2="0" y2="5" style="fill: none; stroke: #888; stroke-width: 1; opacity: 1;"></line><line transform="translate(300,0)" x2="0" y2="5" style="fill: none; stroke: #888; stroke-width: 1; opacity: 1;"></line><line transform="translate(350,0)" x2="0" y2="5" style="fill: none; stroke: #888; stroke-width: 1; opacity: 1;"></line><line transform="translate(400,0)" x2="0" y2="5" style="fill: none; stroke: #888; stroke-width: 1; opacity: 1;"></line></g><g class="mark-text role-axis-label" style="pointer-events: none;"><text text-anchor="start" transform="translate(0,15)" style="font-family: sans-serif; font-size: 10px; fill: #000; opacity: 1;">0</text><text text-anchor="middle" transform="translate(50,15)" style="font-family: sans-serif; font-size: 10px; fill: #000; opacity: 1;">50</text><text text-anchor="middle" transform="translate(100,15)" style="font-family: sans-serif; font-size: 10px; fill: #000; opacity: 1;">100</text><text text-anchor="middle" transform="translate(150,15)" style="font-family: sans-serif; font-size: 10px; fill: #000; opacity: 1;">150</text><text text-anchor="middle" transform="translate(200,15)" style="font-family: sans-serif; font-size: 10px; fill: #000; opacity: 1;">200</text><text text-anchor="middle" transform="translate(250,15)" style="font-family: sans-serif; font-size: 10px; fill: #000; opacity: 1;">250</text><text text-anchor="middle" transform="translate(300,15)" style="font-family: sans-serif; font-size: 10px; fill: #000; opacity: 1;">300</text><text text-anchor="middle" transform="translate(350,15)" style="font-family: sans-serif; font-size: 10px; fill: #000; opacity: 1;">350</text><text text-anchor="end" transform="translate(400,15)" style="font-family: sans-serif; font-size: 10px; fill: #000; opacity: 1;">400</text></g><g class="mark-rule role-axis-domain" style="pointer-events: none;"><line transform="translate(0,0)" x2="400" y2="0" style="fill: none; stroke: #888; stroke-width: 1; opacity: 1;"></line></g><g class="mark-text role-axis-title" style="pointer-events: none;"><text text-anchor="middle" transform="translate(200,30)" style="font-family: sans-serif; font-size: 11px; font-weight: bold; fill: #000; opacity: 1;">days</text></g></g><path class="foreground" d="" style="pointer-events: none; display: none; fill: none;"></path></g></g><g class="mark-group role-axis"><g transform="translate(0.5,0.5)"><path class="background" d="M0,0h0v0h0Z" style="pointer-events: none; fill: none;"></path><g><g class="mark-rule role-axis-tick" style="pointer-events: none;"><line transform="translate(0,300)" x2="-5" y2="0" style="fill: none; stroke: #888; stroke-width: 1; opacity: 1;"></line><line transform="translate(0,270)" x2="-5" y2="0" style="fill: none; stroke: #888; stroke-width: 1; opacity: 1;"></line><line transform="translate(0,240)" x2="-5" y2="0" style="fill: none; stroke: #888; stroke-width: 1; opacity: 1;"></line><line transform="translate(0,210)" x2="-5" y2="0" style="fill: none; stroke: #888; stroke-width: 1; opacity: 1;"></line><line transform="translate(0,180)" x2="-5" y2="0" style="fill: none; stroke: #888; stroke-width: 1; opacity: 1;"></line><line transform="translate(0,150)" x2="-5" y2="0" style="fill: none; stroke: #888; stroke-width: 1; opacity: 1;"></line><line transform="translate(0,120)" x2="-5" y2="0" style="fill: none; stroke: #888; stroke-width: 1; opacity: 1;"></line><line transform="translate(0,90)" x2="-5" y2="0" style="fill: none; stroke: #888; stroke-width: 1; opacity: 1;"></line><line transform="translate(0,60)" x2="-5" y2="0" style="fill: none; stroke: #888; stroke-width: 1; opacity: 1;"></line><line transform="translate(0,30)" x2="-5" y2="0" style="fill: none; stroke: #888; stroke-width: 1; opacity: 1;"></line><line transform="translate(0,0)" x2="-5" y2="0" style="fill: none; stroke: #888; stroke-width: 1; opacity: 1;"></line></g><g class="mark-text role-axis-label" style="pointer-events: none;"><text text-anchor="end" transform="translate(-7,303)" style="font-family: sans-serif; font-size: 10px; fill: #000; opacity: 1;">0%</text><text text-anchor="end" transform="translate(-7,273)" style="font-family: sans-serif; font-size: 10px; fill: #000; opacity: 1;">2%</text><text text-anchor="end" transform="translate(-7,243)" style="font-family: sans-serif; font-size: 10px; fill: #000; opacity: 1;">4%</text><text text-anchor="end" transform="translate(-7,213)" style="font-family: sans-serif; font-size: 10px; fill: #000; opacity: 1;">6%</text><text text-anchor="end" transform="translate(-7,183.00000000000003)" style="font-family: sans-serif; font-size: 10px; fill: #000; opacity: 1;">8%</text><text text-anchor="end" transform="translate(-7,153)" style="font-family: sans-serif; font-size: 10px; fill: #000; opacity: 1;">10%</text><text text-anchor="end" transform="translate(-7,123)" style="font-family: sans-serif; font-size: 10px; fill: #000; opacity: 1;">12%</text><text text-anchor="end" transform="translate(-7,92.99999999999999)" style="font-family: sans-serif; font-size: 10px; fill: #000; opacity: 1;">14%</text><text text-anchor="end" transform="translate(-7,63.00000000000002)" style="font-family: sans-serif; font-size: 10px; fill: #000; opacity: 1;">16%</text><text text-anchor="end" transform="translate(-7,33.00000000000003)" style="font-family: sans-serif; font-size: 10px; fill: #000; opacity: 1;">18%</text><text text-anchor="end" transform="translate(-7,3)" style="font-family: sans-serif; font-size: 10px; fill: #000; opacity: 1;">20%</text></g><g class="mark-rule role-axis-domain" style="pointer-events: none;"><line transform="translate(0,300)" x2="0" y2="-300" style="fill: none; stroke: #888; stroke-width: 1; opacity: 1;"></line></g><g class="mark-text role-axis-title" style="pointer-events: none;"><text text-anchor="middle" transform="translate(-31.0146484375,150) rotate(-90) translate(0,-2)" style="font-family: sans-serif; font-size: 11px; font-weight: bold; fill: #000; opacity: 1;">share_of_pop</text></g></g><path class="foreground" d="" style="pointer-events: none; display: none; fill: none;"></path></g></g><g class="mark-area role-mark layer_0_marks"><path d="M0,300L1,300L2,300L3,300L4,300L5,300L6,300L7.000000000000001,300L8,300L9,300L10,300L11,300L12,300L13,300L14.000000000000002,300L15,300L16,300L17,300L18,300L19,300L20,300L21,300L22,300L23,300L24,300L25,300L26,300L27,300L28.000000000000004,300L28.999999999999996,300L30,6.546388098731071L31,6.546388098731071L32,6.546388098731071L33,6.546388098731071L34,6.546388098731071L35,6.546388098731071L36,6.546388098731071L37,6.546388098731071L38,6.546388098731071L39,6.546388098731071L40,6.546388098731071L41,6.546388098731071L42,6.546388098731071L43,6.546388098731071L44,6.546388098731071L45,6.546388098731071L46,6.546388098731071L47,6.546388098731071L48,6.546388098731071L49,6.546388098731071L50,6.546388098731071L51,6.546388098731071L52,6.546388098731071L53,6.546388098731071L54,6.546388098731071L55.00000000000001,6.546388098731071L56.00000000000001,6.546388098731071L56.99999999999999,6.546388098731071L57.99999999999999,6.546388098731071L59,300L60,300L61,300L62,300L63,300L64,300L65,300L66,300L67,300L68,300L69,300L70,300L71,300L72,300L73,300L74,300L75,300L76,300L77,300L78,300L79,300L80,300L81,300L82,300L83,300L84,300L85,300L86,300L87,300L88,300L89,300L90,300L91,300L92,300L93,300L94,300L95,300L96,300L97,300L98,300L99,300L100,300L101,300L102,300L103,300L104,300L105,300L106,300L107,300L108,300L109.00000000000001,300L110.00000000000001,300L111.00000000000001,300L112.00000000000001,300L112.99999999999999,300L113.99999999999999,300L114.99999999999999,300L115.99999999999999,300L117,300L118,300L119,300L120,300L121,300L122,300L123,300L124,300L125,300L126,300L127,300L128,300L129,300L130,300L131,300L132,300L133,300L134,300L135,300L136,300L137,300L138,300L139,300L140,300L141,300L142,300L143,300L144,300L145,300L146,300L147,300L148,300L149,300L150,300L151,300L152,300L153,300L154,300L155,300L156,300L157,300L158,300L159,300L160,300L161,300L162,300L163,300L164,300L165,300L166,300L167,300L168,300L169,300L170,300L171,300L172,300L173,300L174,300L175,300L176,300L177,300L178,300L179,300L180,300L181,300L182,300L183,300L184,300L185,300L186,300L187,300L188,300L189,300L190,300L191,300L192,300L193,300L194,300L195,300L196,300L197,300L198,300L199,300L200,300L200.99999999999997,300L202,300L202.99999999999997,300L204,300L204.99999999999997,300L206,300L206.99999999999997,300L208,300L209,300L210,300L211,300L212,300L213,300L214,300L215,300L216,300L217,300L218.00000000000003,300L219,300L220.00000000000003,300L221,300L222.00000000000003,300L223,300L224.00000000000003,300L225,300L225.99999999999997,300L227,300L227.99999999999997,300L229,300L229.99999999999997,300L231,300L231.99999999999997,300L233,300L234,300L235,300L236,300L237,300L238,300L239,300L240,300L241,300L242,300L243.00000000000003,300L244,300L245.00000000000003,300L246,300L247.00000000000003,300L248,300L249.00000000000003,300L250,300L250.99999999999997,300L252,300L252.99999999999997,300L254,300L254.99999999999997,300L256,300L257,300L258,300L259,300L260,300L261,300L262,300L263,300L264,300L265,300L266,300L267,300L268,300L269,300L270,300L271,300L272,300L273,300L274,300L275,300L276,300L277,300L278,300L279,300L280,300L281,300L282,300L283,300L284,300L285,300L286,300L287,300L288,300L289,300L290,300L291,300L292,300L293,300L294,300L295,300L296,300L297,300L298,300L299,300L300,300L301,300L302,300L303,300L304,300L305,300L306,300L307,300L308,300L309,300L310,300L311,300L312,300L313,300L314,300L315,300L316,300L317,300L318,300L319,300L320,300L321,300L322,300L323,300L324,300L325,300L326,300L327,300L328,300L329,300L330,300L331,300L332,300L333,300L334,300L335,300L336,300L337,300L338,300L339,300L340,300L341,300L342,300L343,300L344,300L345,300L346,300L347,300L348,300L349,300L350,300L351,300L352,300L353,300L354,300L355,300L356,300L357,300L358,300L359,300L360,300L361,300L362,300L363,300L364,300L364,300L363,300L362,300L361,300L360,300L359,300L358,300L357,300L356,300L355,300L354,300L353,300L352,300L351,300L350,300L349,300L348,300L347,300L346,300L345,300L344,300L343,300L342,300L341,300L340,300L339,300L338,300L337,300L336,300L335,300L334,300L333,300L332,300L331,300L330,300L329,300L328,300L327,300L326,300L325,300L324,300L323,300L322,300L321,300L320,300L319,300L318,300L317,300L316,300L315,300L314,300L313,300L312,300L311,300L310,300L309,300L308,300L307,300L306,300L305,300L304,300L303,300L302,300L301,300L300,300L299,300L298,300L297,300L296,300L295,300L294,300L293,300L292,300L291,300L290,300L289,300L288,300L287,300L286,300L285,300L284,300L283,300L282,300L281,300L280,300L279,300L278,300L277,300L276,300L275,300L274,300L273,300L272,300L271,300L270,300L269,300L268,300L267,300L266,300L265,300L264,300L263,300L262,300L261,300L260,300L259,300L258,300L257,300L256,300L254.99999999999997,300L254,300L252.99999999999997,300L252,300L250.99999999999997,300L250,300L249.00000000000003,300L248,300L247.00000000000003,300L246,300L245.00000000000003,300L244,300L243.00000000000003,300L242,300L241,300L240,300L239,300L238,300L237,300L236,300L235,300L234,300L233,300L231.99999999999997,300L231,300L229.99999999999997,300L229,300L227.99999999999997,300L227,300L225.99999999999997,300L225,300L224.00000000000003,300L223,300L222.00000000000003,300L221,300L220.00000000000003,300L219,300L218.00000000000003,300L217,300L216,300L215,300L214,300L213,300L212,300L211,300L210,300L209,300L208,300L206.99999999999997,300L206,300L204.99999999999997,300L204,300L202.99999999999997,300L202,300L200.99999999999997,300L200,300L199,300L198,300L197,300L196,300L195,300L194,300L193,300L192,300L191,300L190,300L189,300L188,300L187,300L186,300L185,300L184,300L183,300L182,300L181,300L180,300L179,300L178,300L177,300L176,300L175,300L174,300L173,300L172,300L171,300L170,300L169,300L168,300L167,300L166,300L165,300L164,300L163,300L162,300L161,300L160,300L159,300L158,300L157,300L156,300L155,300L154,300L153,300L152,300L151,300L150,300L149,300L148,300L147,300L146,300L145,300L144,300L143,300L142,300L141,300L140,300L139,300L138,300L137,300L136,300L135,300L134,300L133,300L132,300L131,300L130,300L129,300L128,300L127,300L126,300L125,300L124,300L123,300L122,300L121,300L120,300L119,300L118,300L117,300L115.99999999999999,300L114.99999999999999,300L113.99999999999999,300L112.99999999999999,300L112.00000000000001,300L111.00000000000001,300L110.00000000000001,300L109.00000000000001,300L108,300L107,300L106,300L105,300L104,300L103,300L102,300L101,300L100,300L99,300L98,300L97,300L96,300L95,300L94,300L93,300L92,300L91,300L90,300L89,300L88,300L87,300L86,300L85,300L84,300L83,300L82,300L81,300L80,300L79,300L78,300L77,300L76,300L75,300L74,300L73,300L72,300L71,300L70,300L69,300L68,300L67,300L66,300L65,300L64,300L63,300L62,300L61,300L60,300L59,300L57.99999999999999,300L56.99999999999999,300L56.00000000000001,300L55.00000000000001,300L54,300L53,300L52,300L51,300L50,300L49,300L48,300L47,300L46,300L45,300L44,300L43,300L42,300L41,300L40,300L39,300L38,300L37,300L36,300L35,300L34,300L33,300L32,300L31,300L30,300L28.999999999999996,300L28.000000000000004,300L27,300L26,300L25,300L24,300L23,300L22,300L21,300L20,300L19,300L18,300L17,300L16,300L15,300L14.000000000000002,300L13,300L12,300L11,300L10,300L9,300L8,300L7.000000000000001,300L6,300L5,300L4,300L3,300L2,300L1,300L0,300Z" style="fill: #2d91ef; opacity: 0.5;"></path></g><g class="mark-area role-mark layer_1_marks"><path d="M0,300L1,300L2,300L3,300L4,300L5,300L6,300L7.000000000000001,300L8,300L9,300L10,300L11,300L12,300L13,300L14.000000000000002,300L15,300L16,300L17,300L18,300L19,300L20,300L21,300L22,300L23,300L24,300L25,300L26,300L27,300L28.000000000000004,300L28.999999999999996,300L30,300L31,300L32,300L33,300L34,300L35,300L36,300L37,300L38,300L39,300L40,300L41,300L42,300L43,300L44,300L45,300L46,300L47,300L48,300L49,300L50,300L51,300L52,300L53,300L54,300L55.00000000000001,300L56.00000000000001,300L56.99999999999999,300L57.99999999999999,6.546388098731071L59,6.546388098731071L60,6.546388098731071L61,6.546388098731071L62,6.546388098731071L63,6.546388098731071L64,6.546388098731071L65,6.546388098731071L66,6.546388098731071L67,6.546388098731071L68,6.546388098731071L69,6.546388098731071L70,6.546388098731071L71,6.546388098731071L72,6.546388098731071L73,6.546388098731071L74,6.546388098731071L75,6.546388098731071L76,6.546388098731071L77,6.546388098731071L78,6.546388098731071L79,6.546388098731071L80,6.546388098731071L81,6.546388098731071L82,6.546388098731071L83,6.546388098731071L84,6.546388098731071L85,6.546388098731071L86,6.546388098731071L87,6.546388098731071L88,6.546388098731071L89,6.546388098731071L90,6.546388098731071L91,6.546388098731071L92,6.546388098731071L93,6.546388098731071L94,6.546388098731071L95,6.546388098731071L96,6.546388098731071L97,6.546388098731071L98,6.546388098731071L99,6.546388098731071L100,6.546388098731071L101,6.546388098731071L102,6.546388098731071L103,6.546388098731071L104,6.546388098731071L105,6.546388098731071L106,6.546388098731071L107,6.546388098731071L108,6.546388098731071L109.00000000000001,6.546388098731071L110.00000000000001,6.546388098731071L111.00000000000001,6.546388098731071L112.00000000000001,6.546388098731071L112.99999999999999,6.546388098731071L113.99999999999999,6.546388098731071L114.99999999999999,6.546388098731071L115.99999999999999,6.546388098731071L117,6.546388098731071L118,6.546388098731071L119,6.546388098731071L120,6.546388098731071L121,6.546388098731071L122,6.546388098731071L123,6.546388098731071L124,6.546388098731071L125,6.546388098731071L126,6.546388098731071L127,6.546388098731071L128,6.546388098731071L129,6.546388098731071L130,6.546388098731071L131,6.546388098731071L132,6.546388098731071L133,6.546388098731071L134,6.546388098731071L135,6.546388098731071L136,6.546388098731071L137,6.546388098731071L138,6.546388098731071L139,6.546388098731071L140,6.546388098731071L141,6.546388098731071L142,6.546388098731071L143,6.546388098731071L144,6.546388098731071L145,6.546388098731071L146,6.546388098731071L147,6.546388098731071L148,6.546388098731071L149,6.546388098731071L150,6.546388098731071L151,6.546388098731071L152,6.546388098731071L153,6.546388098731071L154,6.546388098731071L155,6.546388098731071L156,6.546388098731071L157,6.546388098731071L158,6.546388098731071L159,6.546388098731071L160,6.546388098731071L161,6.546388098731071L162,6.546388098731071L163,6.546388098731071L164,6.546388098731071L165,6.546388098731071L166,6.546388098731071L167,6.546388098731071L168,6.546388098731071L169,6.546388098731071L170,6.546388098731071L171,6.546388098731071L172,6.546388098731071L173,6.546388098731071L174,6.546388098731071L175,6.546388098731071L176,6.546388098731071L177,6.546388098731071L178,6.546388098731071L179,6.546388098731071L180,6.546388098731071L181,6.546388098731071L182,6.546388098731071L183,6.546388098731071L184,6.546388098731071L185,6.546388098731071L186,6.546388098731071L187,6.546388098731071L188,6.546388098731071L189,6.546388098731071L190,6.546388098731071L191,6.546388098731071L192,6.546388098731071L193,6.546388098731071L194,6.546388098731071L195,6.546388098731071L196,6.546388098731071L197,6.546388098731071L198,6.546388098731071L199,6.546388098731071L200,6.546388098731071L200.99999999999997,6.546388098731071L202,6.546388098731071L202.99999999999997,6.546388098731071L204,6.546388098731071L204.99999999999997,6.546388098731071L206,6.546388098731071L206.99999999999997,6.546388098731071L208,6.546388098731071L209,6.546388098731071L210,6.546388098731071L211,6.546388098731071L212,6.546388098731071L213,6.546388098731071L214,6.546388098731071L215,6.546388098731071L216,6.546388098731071L217,6.546388098731071L218.00000000000003,6.546388098731071L219,6.546388098731071L220.00000000000003,6.546388098731071L221,6.546388098731071L222.00000000000003,6.546388098731071L223,6.546388098731071L224.00000000000003,6.546388098731071L225,6.546388098731071L225.99999999999997,6.546388098731071L227,6.546388098731071L227.99999999999997,6.546388098731071L229,6.546388098731071L229.99999999999997,6.546388098731071L231,6.546388098731071L231.99999999999997,6.546388098731071L233,6.546388098731071L234,6.546388098731071L235,6.546388098731071L236,6.546388098731071L237,6.546388098731071L238,6.546388098731071L239,6.546388098731071L240,6.546388098731071L241,6.546388098731071L242,6.546388098731071L243.00000000000003,6.546388098731071L244,6.546388098731071L245.00000000000003,6.546388098731071L246,6.546388098731071L247.00000000000003,6.546388098731071L248,6.546388098731071L249.00000000000003,6.546388098731071L250,6.546388098731071L250.99999999999997,6.546388098731071L252,6.546388098731071L252.99999999999997,6.546388098731071L254,6.546388098731071L254.99999999999997,6.546388098731071L256,6.546388098731071L257,6.546388098731071L258,6.546388098731071L259,6.546388098731071L260,6.546388098731071L261,6.546388098731071L262,6.546388098731071L263,6.546388098731071L264,6.546388098731071L265,6.546388098731071L266,6.546388098731071L267,6.546388098731071L268,6.546388098731071L269,6.546388098731071L270,6.546388098731071L271,6.546388098731071L272,6.546388098731071L273,6.546388098731071L274,6.546388098731071L275,6.546388098731071L276,6.546388098731071L277,6.546388098731071L278,6.546388098731071L279,6.546388098731071L280,6.546388098731071L281,6.546388098731071L282,6.546388098731071L283,6.546388098731071L284,6.546388098731071L285,6.546388098731071L286,6.546388098731071L287,6.546388098731071L288,6.546388098731071L289,6.546388098731071L290,6.546388098731071L291,6.546388098731071L292,6.546388098731071L293,6.546388098731071L294,6.546388098731071L295,6.546388098731071L296,6.546388098731071L297,6.546388098731071L298,6.546388098731071L299,6.546388098731071L300,6.546388098731071L301,6.546388098731071L302,6.546388098731071L303,6.546388098731071L304,6.546388098731071L305,6.546388098731071L306,6.546388098731071L307,6.546388098731071L308,6.546388098731071L309,6.546388098731071L310,6.546388098731071L311,6.546388098731071L312,6.546388098731071L313,6.546388098731071L314,6.546388098731071L315,6.546388098731071L316,6.546388098731071L317,6.546388098731071L318,6.546388098731071L319,6.546388098731071L320,6.546388098731071L321,6.546388098731071L322,6.546388098731071L323,6.546388098731071L324,6.546388098731071L325,6.546388098731071L326,6.546388098731071L327,6.546388098731071L328,6.546388098731071L329,6.546388098731071L330,6.546388098731071L331,6.546388098731071L332,6.546388098731071L333,6.546388098731071L334,6.546388098731071L335,6.546388098731071L336,6.546388098731071L337,6.546388098731071L338,6.546388098731071L339,6.546388098731071L340,6.546388098731071L341,6.546388098731071L342,6.546388098731071L343,6.546388098731071L344,6.546388098731071L345,6.546388098731071L346,6.546388098731071L347,6.546388098731071L348,6.546388098731071L349,6.546388098731071L350,6.546388098731071L351,6.546388098731071L352,6.546388098731071L353,6.546388098731071L354,6.546388098731071L355,6.546388098731071L356,6.546388098731071L357,6.546388098731071L358,6.546388098731071L359,6.546388098731071L360,6.546388098731071L361,6.546388098731071L362,6.546388098731071L363,6.546388098731071L364,6.546388098731071L364,300L363,300L362,300L361,300L360,300L359,300L358,300L357,300L356,300L355,300L354,300L353,300L352,300L351,300L350,300L349,300L348,300L347,300L346,300L345,300L344,300L343,300L342,300L341,300L340,300L339,300L338,300L337,300L336,300L335,300L334,300L333,300L332,300L331,300L330,300L329,300L328,300L327,300L326,300L325,300L324,300L323,300L322,300L321,300L320,300L319,300L318,300L317,300L316,300L315,300L314,300L313,300L312,300L311,300L310,300L309,300L308,300L307,300L306,300L305,300L304,300L303,300L302,300L301,300L300,300L299,300L298,300L297,300L296,300L295,300L294,300L293,300L292,300L291,300L290,300L289,300L288,300L287,300L286,300L285,300L284,300L283,300L282,300L281,300L280,300L279,300L278,300L277,300L276,300L275,300L274,300L273,300L272,300L271,300L270,300L269,300L268,300L267,300L266,300L265,300L264,300L263,300L262,300L261,300L260,300L259,300L258,300L257,300L256,300L254.99999999999997,300L254,300L252.99999999999997,300L252,300L250.99999999999997,300L250,300L249.00000000000003,300L248,300L247.00000000000003,300L246,300L245.00000000000003,300L244,300L243.00000000000003,300L242,300L241,300L240,300L239,300L238,300L237,300L236,300L235,300L234,300L233,300L231.99999999999997,300L231,300L229.99999999999997,300L229,300L227.99999999999997,300L227,300L225.99999999999997,300L225,300L224.00000000000003,300L223,300L222.00000000000003,300L221,300L220.00000000000003,300L219,300L218.00000000000003,300L217,300L216,300L215,300L214,300L213,300L212,300L211,300L210,300L209,300L208,300L206.99999999999997,300L206,300L204.99999999999997,300L204,300L202.99999999999997,300L202,300L200.99999999999997,300L200,300L199,300L198,300L197,300L196,300L195,300L194,300L193,300L192,300L191,300L190,300L189,300L188,300L187,300L186,300L185,300L184,300L183,300L182,300L181,300L180,300L179,300L178,300L177,300L176,300L175,300L174,300L173,300L172,300L171,300L170,300L169,300L168,300L167,300L166,300L165,300L164,300L163,300L162,300L161,300L160,300L159,300L158,300L157,300L156,300L155,300L154,300L153,300L152,300L151,300L150,300L149,300L148,300L147,300L146,300L145,300L144,300L143,300L142,300L141,300L140,300L139,300L138,300L137,300L136,300L135,300L134,300L133,300L132,300L131,300L130,300L129,300L128,300L127,300L126,300L125,300L124,300L123,300L122,300L121,300L120,300L119,300L118,300L117,300L115.99999999999999,300L114.99999999999999,300L113.99999999999999,300L112.99999999999999,300L112.00000000000001,300L111.00000000000001,300L110.00000000000001,300L109.00000000000001,300L108,300L107,300L106,300L105,300L104,300L103,300L102,300L101,300L100,300L99,300L98,300L97,300L96,300L95,300L94,300L93,300L92,300L91,300L90,300L89,300L88,300L87,300L86,300L85,300L84,300L83,300L82,300L81,300L80,300L79,300L78,300L77,300L76,300L75,300L74,300L73,300L72,300L71,300L70,300L69,300L68,300L67,300L66,300L65,300L64,300L63,300L62,300L61,300L60,300L59,300L57.99999999999999,300L56.99999999999999,300L56.00000000000001,300L55.00000000000001,300L54,300L53,300L52,300L51,300L50,300L49,300L48,300L47,300L46,300L45,300L44,300L43,300L42,300L41,300L40,300L39,300L38,300L37,300L36,300L35,300L34,300L33,300L32,300L31,300L30,300L28.999999999999996,300L28.000000000000004,300L27,300L26,300L25,300L24,300L23,300L22,300L21,300L20,300L19,300L18,300L17,300L16,300L15,300L14.000000000000002,300L13,300L12,300L11,300L10,300L9,300L8,300L7.000000000000001,300L6,300L5,300L4,300L3,300L2,300L1,300L0,300Z" style="fill: #3fbaed; opacity: 0.5;"></path></g><g class="mark-line role-mark layer_2_marks"><path d="M0,299.9817073170732L1,299.98280600763405L2,299.9828134660762L3,299.98211458094653L4,299.98092967413373L5,299.97938152026904L6,299.9775347522981L7.000000000000001,299.97541899958725L8,299.9730424372456L9,299.97039968235345L10,299.96747635236716L11,299.96425164865093L12,299.9606997662924L13,299.9567906036526L14.000000000000002,299.95249004457105L15,299.94775997783705L16,299.94255814629935L17,299.9368378797482L18,299.9305477416677L19,299.92363110583767L20,299.91602567028025L21,299.90766291086163L22,299.89846747360224L23,299.88835650260586L24,299.87723889901105L25,299.8650145052126L26,299.85157320762744L27,299.83679395038365L28.000000000000004,299.8205436514393L28.999999999999996,299.8026760117356L30,299.78896452599764L31,299.7829507599918L32,299.78200350443836L33,299.78435006577513L34,299.7887977731881L35,299.7945457545749L36,299.80105772983126L37,299.8079760429335L38,299.815063566239L39,299.822164442836L40,299.82917756089995L41,299.8360386330936L42,299.84270809167094L43,299.8491629140257L44,299.8553911043077L45,299.8613879710589L46,299.86715361549534L47,299.8726912421503L48,299.8780060214706L49,299.88310432686205L50,299.8879932242775L51,299.89268013227587L52,299.8971725970904L53,299.9014781452286L54,299.90560418828176L55.00000000000001,299.9095579628373L56.00000000000001,299.91334649393866L56.99999999999999,299.91697657429114L57.99999999999999,299.9180616456856L59,299.91541197177463L60,299.9102354527345L61,299.9032109264368L62,299.8947024043749L63,299.88488492636327L64,299.87381832822473L65,299.86149030423576L66,299.84784133486215L67,299.8327789070144L68,299.81618537140434L69,299.79792201080744L70,299.77783081162744L71,299.75573482996L72,299.7314376596256L73,299.7047222990752L74,299.67534958426666L75,299.6430562783036L76,299.60755286299246L77,299.56852104985774L78,299.52561101108876L79,299.4784383199813L80,299.42658058309655L81,299.36957374105396L82,299.3069080107123L83,299.23802343794307L84,299.16230502695277L85,299.07907740899475L86,298.9875990102241L87,298.8870556753527L88,298.77655370063917L89,298.65511222661274L90,298.521654937825L91,298.37500101389014L92,298.2138552731965L93,298.0367974480535L94,297.84227052779175L95,297.62856810463296L96,297.39382065618213L97,297.1359806984093L98,296.8528067442832L99,296.541846006153L100,296.2004157849829L101,295.82558349715214L102,295.41414530035496L103,294.96260329492526L104,294.46714129651673L105,293.9235992015242L106,293.3274459991088L107,292.6737515245391L108,291.95715709934075L109.00000000000001,291.17184526618814L110.00000000000001,290.3115089025263L111.00000000000001,289.3693200886889L112.00000000000001,288.33789921607286L112.99999999999999,287.2092849511211L113.99999999999999,285.9749058238624L114.99999999999999,284.62555438788803L115.99999999999999,283.15136510395405L117,281.54179733344245L118,279.78562509143825L119,277.8709355017121L120,275.785138215234L121,273.51498839543575L122,271.04662622961604L123,268.3656362849853L124,265.4571303732718L125,262.3058578969272L126,258.89634789316386L127,255.21308713177916L128,251.2407386129635L129,246.9644045974525L130,242.3699378211002L131,237.44430373093388L132,232.1759953592908L133,226.55550075899026L134,220.5758206984751L135,214.23303152496564L136,207.5268847423285L137,200.46143096206595L138,193.04565157577537L139,185.29407694593482L140,177.22736538418678L141,168.87281303519055L142,160.2647615774221L143,151.44486898440803L144,142.46220239132907L145,133.3731342994068L146,124.24099525003746L147,115.13547088794867L148,106.13173908748672L149,97.30932876718468L150,88.75075337011887L151,80.53990748267162L152,72.76030517184398L153,65.49322852803697L154,58.81581661283797L155,52.79923211266676L156,47.50692471607682L157,42.99312425109656L158,39.30157620613948L159,36.46462146303744L160,34.502610225409214L161,33.423695596078474L162,33.22398918066464L163,33.88805834962555L164,35.3897266435028L165,37.693126795243174L166,40.75394799953184L167,44.520815496655295L168,48.93674098577272L169,53.94058626688886L170,59.468489064207965L171,65.4552083507517L172,71.83535582930833L173,78.54448976679932L174,85.52005650130451L175,92.70217317578131L176,100.03425229475896L177,107.46347439376109L178,114.94111942511005L179,122.42277046373829L180,129.8684051554931L181,137.2423911409186L182,144.51340167967675L183,151.65426706429196L184,158.64177632349416L185,165.45644233113586L186,172.0822418876976L187,178.50634073321908L188,184.71881186382865L189,190.71235401719392L190,196.48201580435725L191,202.0249297198041L192,207.34005916901936L193,212.42796071454728L194,217.29056295215256L195,221.93096277804537L196,226.35323928339767L197,230.56228509928386L198,234.56365469911935L199,238.36342893235852L200,241.96809489928697L200.99999999999997,245.38444016995473L202,248.61946028972739L202.99999999999997,251.68027849005608L204,254.57407652764385L204.99999999999997,257.30803560129584L206,259.88928633757456L206.99999999999997,262.32486688919187L208,264.6216882500156L209,266.786505954576L210,268.82589739564827L211,270.74624405902455L212,272.55371803859634L213,274.2542722563764L214,275.8536338703982L215,277.3573004081198L216,278.7705382137688L217,280.09838284491497L218.00000000000003,281.3456410964425L219,282.5168943691308L220.00000000000003,283.6165031353845L221,284.6486122864768L222.00000000000003,285.61715717421555L223,286.52587018542937L224.00000000000003,287.37828771034884L225,288.1777573860635L225.99999999999997,288.92744551399153L227,289.6303445659356L227.99999999999997,290.28928070701903L229,290.9069212757948L229.99999999999997,291.4857821722835L231,292.02823511378347L231.99999999999997,292.536514726167L233,293.0127254451653L234,293.45884820797676L235,293.87674692052735L236,294.26817468996273L237,294.6347798155553L238,294.9781115342487L239,295.2996255196018L240,295.60068913501095L241,295.88258644382614L242,296.14652298039766L243.00000000000003,296.3936302872277L244,296.62497022430375L245.00000000000003,296.84153905738725L246,297.0442713325536L247.00000000000003,297.2340435446526L248,297.4116776076089L249.00000000000003,297.57794413462426L250,297.7335655364001L250.99999999999997,297.8792189454799L252,298.015538974735L252.99999999999997,298.1431203178885L254,298.26252019980933L254.99999999999997,298.3742606841084L256,298.47883084534953L257,298.57668881294813L258,298.6682636935795L259,298.7539573786554L260,298.8341462431649L261,298.9091827419047L262,298.9793969088571L263,299.0450977652101L264,299.10657464125006L265,299.16409841710407L266,299.2179226870576L267,299.26828485193306L268,299.31540714377854L269,299.35949758689117L270,299.40075089898266L271,299.4393493360844L272,299.4754634845918L273,299.50925300365566L274,299.5408673209458L275,299.57044628464087L276,299.5981207743312L277,299.624013273366L278,299.64823840502817L279,299.67090343477764L280,299.69210874067244L281,299.71194825394974L282,299.7305098716298L283,299.7478758428936L284,299.7641231308786L285,299.77932375143655L286,299.79354509030327L287,299.80685020004023L288,299.8192980780257L289,299.8309439266929L290,299.84183939713785L291,299.8520328171525L292,299.8615694046695L293,299.87049146754606L294,299.87883859055455L295,299.8866478103948L296,299.8939537794897L297,299.9007889192802L298,299.90718356368825L299,299.9131660933759L300,299.91876306138846L301,299.923999310732L302,299.9288980844005L303,299.933481128337L304,299.9377687877794L305,299.94178009741586L306,299.9455328657455L307,299.9490437540163L308,299.95232835008784L309,299.9554012375435L310,299.95827606035874L311,299.9609655834086L312,299.96348174908303L313,299.96583573025924L314,299.9680379798652L315,299.9700982772535L316,299.9720257715901L317,299.97382902245056L318,299.9755160378023L319,299.97709430954166L320,299.9785708467429L321,299.97995220676626L322,299.9812445243621L323,299.9824535389019L324,299.98358461985424L325,299.9846427906205L326,299.9856327508351L327,299.98655889722926L328,299.98742534315085L329,299.98823593682636L330,299.98899427844674L331,299.98970373615236L332,299.99036746098795L333,299.9909884008939L334,299.9915693137965L335,299.99211277985387L336,299.99262121291383L337,299.99309687123264L338,299.9935418675031L339,299.993958178237L340,299.9943476525422L341,299.99471202033453L342,299.99505290002026L343,299.9953718056836L344,299.9956701538109L345,299.9959492695815L346,299.9962103927528L347,299.99645468316703L348,299.9966832259017L349,299.99689703608914L350,299.99709706342514L351,299.99728419638683L352,299.9974592661787L353,299.9976230504245L354,299.997776276621L355,299.9979196253691L356,299.99805373339683L357,299.9981791963875L358,299.99829657162536L359,299.99840638047067L360,299.99850911067585L361,299.9986052185514L362,299.99869513099304L363,299.9987792473775L364,299.99885794133695" style="fill: none; stroke: orange; stroke-width: 2;"></path></g></g><path class="foreground" d="" style="display: none; fill: none;"></path></g></g></g></svg>