<svg class="marks" width="454" height="347" viewBox="0 0 454 347" version="1.1" xmlns="http://www.w3.org/2000/svg" xmlns:xlink="http://www.w3.org/1999/xlink"><rect width="454" height="347" style="fill: white;"></rect><g transform="translate(48,10)"><g class="mark-group role-frame root"><g transform="translate(0,0)"><path class="background" d="M0.5,0.5h400v300h-400Z" style="fill: none; stroke: #ddd;"></path><g><g class="mark-group role-axis"><g transform="translate(0.5,300.5)"><path class="background" d="M0,0h0v0h0Z" style="pointer-events: none; fill: none;"></path><g><g class="mark-rule role-axis-grid" style="pointer-events: none;"><line transform="translate(0,-300)" x2="0" y2="300" style="fill: none; stroke: #ddd; stroke-width: 1; opacity: 1;"></line><line transform="translate(50,-300)" x2="0" y2="300" style="fill: none; stroke: #ddd; stroke-width: 1; opacity: 1;"></line><line transform="translate(100,-300)" x2="0" y2="300" style="fill: none; stroke: #ddd; stroke-width: 1; opacity: 1;"></line><line transform="translate(150,-300)" x2="0" y2="300" style="fill: none; stroke: #ddd; stroke-width: 1; opacity: 1;"></line><line transform="translate(200,-300)" x2="0" y2="300" style="fill: none; stroke: #ddd; stroke-width: 1; opacity: 1;"></line><line transform="translate(250,-300)" x2="0" y2="300" style="fill: none; stroke: #ddd; stroke-width: 1; opacity: 1;"></line><line transform="translate(300,-300)" x2="0" y2="300" style="fill: none; stroke: #ddd; stroke-width: 1; opacity: 1;"></line><line transform="translate(350,-300)" x2="0" y2="300" style="fill: none; stroke: #ddd; stroke-width: 1; opacity: 1;"></line><line transform="translate(400,-300)" x2="0" y2="300" style="fill: none; stroke: #ddd; stroke-width: 1; opacity: 1;"></line></g></g><path class="foreground" d="" style="pointer-events: none; display: none; fill: none;"></path></g></g><g class="mark-group role-axis"><g transform="translate(0.5,0.5)"><path class="background" d="M0,0h0v0h0Z" style="pointer-events: none; fill: none;"></path><g><g class="mark-rule role-axis-grid" style="pointer-events: none;"><line transform="translate(0,300)" x2="400" y2="0" style="fill: none; stroke: #ddd; stroke-width: 1; opacity: 1;"></line><line transform="translate(0,270)" x2="400" y2="0" style="fill: none; stroke: #ddd; stroke-width: 1; opacity: 1;"></line><line transform="translate(0,240)" x2="400" y2="0" style="fill: none; stroke: #ddd; stroke-width: 1; opacity: 1;"></line><line transform="translate(0,210)" x2="400" y2="0" style="fill: none; stroke: #ddd; stroke-width: 1; opacity: 1;"></line><line transform="translate(0,180)" x2="400" y2="0" style="fill: none; stroke: #ddd; stroke-width: 1; opacity: 1;"></line><line transform="translate(0,150)" x2="400" y2="0" style="fill: none; stroke: #ddd; stroke-width: 1; opacity: 1;"></line><line transform="translate(0,120)" x2="400" y2="0" style="fill: none; stroke: #ddd; stroke-width: 1; opacity: 1;"></line><line transform="translate(0,90)" x2="400" y2="0" style="fill: none; stroke: #ddd; stroke-width: 1; opacity: 1;"></line><line transform="translate(0,60)" x2="400" y2="0" style="fill: none; stroke: #ddd; stroke-width: 1; opacity: 1;"></line><line transform="translate(0,30)" x2="400" y2="0" style="fill: none; stroke: #ddd; stroke-width: 1; opacity: 1;"></line><line transform="translate(0,0)" x2="400" y2="0" style="fill: none; stroke: #ddd; stroke-width: 1; opacity: 1;"></line></g></g><path class="foreground" d="" style="pointer-events: none; display: none; fill: none;"></path></g></g><g class="mark-group role-axis"><g transform="translate(0.5,300.5)"><path class="background" d="M0,0h0v0h0Z" style="pointer-events: none; fill: none;"></path><g><g class="mark-rule role-axis-tick" style="pointer-events: none;"><line transform="translate(0,0)" x2="0" y2="5" style="fill: none; stroke: #888; stroke-width: 1; opacity: 1;"></line><line transform="translate(50,0)" x2="0" y2="5" style="fill: none; stroke: #888; stroke-width: 1; opacity: 1;"></line><line transform="translate(100,0)" x2="0" y2="5" style="fill: none; stroke: #888; stroke-width: 1; opacity: 1;"></line><line transform="translate(150,0)" x2="0" y2="5" style="fill: none; stroke: #888; stroke-width: 1; opacity: 1;"></line><line transform="translate(200,0)" x2="0" y2="5" style="fill: none; stroke: #888; stroke-width: 1; opacity: 1;"></line><line transform="translate(250,0)" x2="0" y2="5" style="fill: none; stroke: #888; stroke-width: 1; opacity: 1;"></line><line transform="translate(300,0)" x2="0" y2="5" style="fill: none; stroke: #888; stroke-width: 1; opacity: 1;"></line><line transform="translate(350,0)" x2="0" y2="5" style="fill: none; stroke: #888; stroke-width: 1; opacity: 1;"></line><line transform="translate(400,0)" x2="0" y2="5" style="fill: none; stroke: #888; stroke-width: 1; opacity: 1;"></line></g><g class="mark-text role-axis-label" style="pointer-events: none;"><text text-anchor="start" transform="translate(0,15)" style="font-family: sans-serif; font-size: 10px; fill: #000; opacity: 1;">0</text><text text-anchor="middle" transform="translate(50,15)" style="font-family: sans-serif; font-size: 10px; fill: #000; opacity: 1;">50</text><text text-anchor="middle" transform="translate(100,15)" style="font-family: sans-serif; font-size: 10px; fill: #000; opacity: 1;">100</text><text text-anchor="middle" transform="translate(150,15)" style="font-family: sans-serif; font-size: 10px; fill: #000; opacity: 1;">150</text><text text-anchor="middle" transform="translate(200,15)" style="font-family: sans-serif; font-size: 10px; fill: #000; opacity: 1;">200</text><text text-anchor="middle" transform="translate(250,15)" style="font-family: sans-serif; font-size: 10px; fill: #000; opacity: 1;">250</text><text text-anchor="middle" transform="translate(300,15)" style="font-family: sans-serif; font-size: 10px; fill: #000; opacity: 1;">300</text><text text-anchor="middle" transform="translate(350,15)" style="font-family: sans-serif; font-size: 10px; fill: #000; opacity: 1;">350</text><text text-anchor="end" transform="translate(400,15)" style="font-family: sans-serif; font-size: 10px; fill: #000; opacity: 1;">400</text></g><g class="mark-rule role-axis-domain" style="pointer-events: none;"><line transform="translate(0,0)" x2="400" y2="0" style="fill: none; stroke: #888; stroke-width: 1; opacity: 1;"></line></g><g class="mark-text role-axis-title" style="pointer-events: none;"><text text-anchor="middle" transform="translate(200,30)" style="font-family: sans-serif; font-size: 11px; font-weight: bold; fill: #000; opacity: 1;">days</text></g></g><path class="foreground" d="" style="pointer-events: none; display: none; fill: none;"></path></g></g><g class="mark-group role-axis"><g transform="translate(0.5,0.5)"><path class="background" d="M0,0h0v0h0Z" style="pointer-events: none; fill: none;"></path><g><g class="mark-rule role-axis-tick" style="pointer-events: none;"><line transform="translate(0,300)" x2="-5" y2="0" style="fill: none; stroke: #888; stroke-width: 1; opacity: 1;"></line><line transform="translate(0,270)" x2="-5" y2="0" style="fill: none; stroke: #888; stroke-width: 1; opacity: 1;"></line><line transform="translate(0,240)" x2="-5" y2="0" style="fill: none; stroke: #888; stroke-width: 1; opacity: 1;"></line><line transform="translate(0,210)" x2="-5" y2="0" style="fill: none; stroke: #888; stroke-width: 1; opacity: 1;"></line><line transform="translate(0,180)" x2="-5" y2="0" style="fill: none; stroke: #888; stroke-width: 1; opacity: 1;"></line><line transform="translate(0,150)" x2="-5" y2="0" style="fill: none; stroke: #888; stroke-width: 1; opacity: 1;"></line><line transform="translate(0,120)" x2="-5" y2="0" style="fill: none; stroke: #888; stroke-width: 1; opacity: 1;"></line><line transform="translate(0,90)" x2="-5" y2="0" style="fill: none; stroke: #888; stroke-width: 1; opacity: 1;"></line><line transform="translate(0,60)" x2="-5" y2="0" style="fill: none; stroke: #888; stroke-width: 1; opacity: 1;"></line><line transform="translate(0,30)" x2="-5" y2="0" style="fill: none; stroke: #888; stroke-width: 1; opacity: 1;"></line><line transform="translate(0,0)" x2="-5" y2="0" style="fill: none; stroke: #888; stroke-width: 1; opacity: 1;"></line></g><g class="mark-text role-axis-label" style="pointer-events: none;"><text text-anchor="end" transform="translate(-7,303)" style="font-family: sans-serif; font-size: 10px; fill: #000; opacity: 1;">0%</text><text text-anchor="end" transform="translate(-7,273)" style="font-family: sans-serif; font-size: 10px; fill: #000; opacity: 1;">2%</text><text text-anchor="end" transform="translate(-7,243)" style="font-family: sans-serif; font-size: 10px; fill: #000; opacity: 1;">4%</text><text text-anchor="end" transform="translate(-7,213)" style="font-family: sans-serif; font-size: 10px; fill: #000; opacity: 1;">6%</text><text text-anchor="end" transform="translate(-7,183.00000000000003)" style="font-family: sans-serif; font-size: 10px; fill: #000; opacity: 1;">8%</text><text text-anchor="end" transform="translate(-7,153)" style="font-family: sans-serif; font-size: 10px; fill: #000; opacity: 1;">10%</text><text text-anchor="end" transform="translate(-7,123)" style="font-family: sans-serif; font-size: 10px; fill: #000; opacity: 1;">12%</text><text text-anchor="end" transform="translate(-7,92.99999999999999)" style="font-family: sans-serif; font-size: 10px; fill: #000; opacity: 1;">14%</text><text text-anchor="end" transform="translate(-7,63.00000000000002)" style="font-family: sans-serif; font-size: 10px; fill: #000; opacity: 1;">16%</text><text text-anchor="end" transform="translate(-7,33.00000000000003)" style="font-family: sans-serif; font-size: 10px; fill: #000; opacity: 1;">18%</text><text text-anchor="end" transform="translate(-7,3)" style="font-family: sans-serif; font-size: 10px; fill: #000; opacity: 1;">20%</text></g><g class="mark-rule role-axis-domain" style="pointer-events: none;"><line transform="translate(0,300)" x2="0" y2="-300" style="fill: none; stroke: #888; stroke-width: 1; opacity: 1;"></line></g><g class="mark-text role-axis-title" style="pointer-events: none;"><text text-anchor="middle" transform="translate(-31.0146484375,150) rotate(-90) translate(0,-2)" style="font-family: sans-serif; font-size: 11px; font-weight: bold; fill: #000; opacity: 1;">share_of_pop</text></g></g><path class="foreground" d="" style="pointer-events: none; display: none; fill: none;"></path></g></g><g class="mark-area role-mark layer_0_marks"><path d="M0,300L1,300L2,300L3,300L4,300L5,300L6,300L7.000000000000001,300L8,300L9,300L10,300L11,300L12,300L13,300L14.000000000000002,300L15,300L16,300L17,300L18,300L19,300L20,300L21,300L22,300L23,300L24,300L25,300L26,300L27,300L28.000000000000004,300L28.999999999999996,300L30,6.6257009490964025L31,6.6257009490964025L32,6.6257009490964025L33,6.6257009490964025L34,6.6257009490964025L35,6.6257009490964025L36,6.6257009490964025L37,6.6257009490964025L38,6.6257009490964025L39,6.6257009490964025L40,6.6257009490964025L41,6.6257009490964025L42,6.6257009490964025L43,6.6257009490964025L44,6.6257009490964025L45,6.6257009490964025L46,6.6257009490964025L47,6.6257009490964025L48,6.6257009490964025L49,6.6257009490964025L50,6.6257009490964025L51,6.6257009490964025L52,6.6257009490964025L53,6.6257009490964025L54,6.6257009490964025L55.00000000000001,6.6257009490964025L56.00000000000001,6.6257009490964025L56.99999999999999,6.6257009490964025L57.99999999999999,6.6257009490964025L59,300L60,300L61,300L62,300L63,300L64,300L65,300L66,300L67,300L68,300L69,300L70,300L71,300L72,300L73,300L74,300L75,300L76,300L77,300L78,300L79,300L80,300L81,300L82,300L83,300L84,300L85,300L86,300L87,300L88,300L89,300L90,300L91,300L92,300L93,300L94,300L95,300L96,300L97,300L98,300L99,300L100,300L101,300L102,300L103,300L104,300L105,300L106,300L107,300L108,300L109.00000000000001,300L110.00000000000001,300L111.00000000000001,300L112.00000000000001,300L112.99999999999999,300L113.99999999999999,300L114.99999999999999,300L115.99999999999999,300L117,300L118,300L119,300L120,300L121,300L122,300L123,300L124,300L125,300L126,300L127,300L128,300L129,300L130,300L131,300L132,300L133,300L134,300L135,300L136,300L137,300L138,300L139,300L140,300L141,300L142,300L143,300L144,300L145,300L146,300L147,300L148,300L149,300L150,300L151,300L152,300L153,300L154,300L155,300L156,300L157,300L158,300L159,300L160,300L161,300L162,300L163,300L164,300L165,300L166,300L167,300L168,300L169,300L170,300L171,300L172,300L173,300L174,300L175,300L176,300L177,300L178,300L179,300L180,300L181,300L182,300L183,300L184,300L185,300L186,300L187,300L188,300L189,300L190,300L191,300L192,300L193,300L194,300L195,300L196,300L197,300L198,300L199,300L200,300L200.99999999999997,300L202,300L202.99999999999997,300L204,300L204.99999999999997,300L206,300L206.99999999999997,300L208,300L209,300L210,300L211,300L212,300L213,300L214,300L215,300L216,300L217,300L218.00000000000003,300L219,300L220.00000000000003,300L221,300L222.00000000000003,300L223,300L224.00000000000003,300L225,300L225.99999999999997,300L227,300L227.99999999999997,300L229,300L229.99999999999997,300L231,300L231.99999999999997,300L233,300L234,300L235,300L236,300L237,300L238,300L239,300L240,300L241,300L242,300L243.00000000000003,300L244,300L245.00000000000003,300L246,300L247.00000000000003,300L248,300L249.00000000000003,300L250,300L250.99999999999997,300L252,300L252.99999999999997,300L254,300L254.99999999999997,300L256,300L257,300L258,300L259,300L260,300L261,300L262,300L263,300L264,300L265,300L266,300L267,300L268,300L269,300L270,300L271,300L272,300L273,300L274,300L275,300L276,300L277,300L278,300L279,300L280,300L281,300L282,300L283,300L284,300L285,300L286,300L287,300L288,300L289,300L290,300L291,300L292,300L293,300L294,300L295,300L296,300L297,300L298,300L299,300L300,300L301,300L302,300L303,300L304,300L305,300L306,300L307,300L308,300L309,300L310,300L311,300L312,300L313,300L314,300L315,300L316,300L317,300L318,300L319,300L320,300L321,300L322,300L323,300L324,300L325,300L326,300L327,300L328,300L329,300L330,300L331,300L332,300L333,300L334,300L335,300L336,300L337,300L338,300L339,300L340,300L341,300L342,300L343,300L344,300L345,300L346,300L347,300L348,300L349,300L350,300L351,300L352,300L353,300L354,300L355,300L356,300L357,300L358,300L359,300L360,300L361,300L362,300L363,300L364,300L364,300L363,300L362,300L361,300L360,300L359,300L358,300L357,300L356,300L355,300L354,300L353,300L352,300L351,300L350,300L349,300L348,300L347,300L346,300L345,300L344,300L343,300L342,300L341,300L340,300L339,300L338,300L337,300L336,300L335,300L334,300L333,300L332,300L331,300L330,300L329,300L328,300L327,300L326,300L325,300L324,300L323,300L322,300L321,300L320,300L319,300L318,300L317,300L316,300L315,300L314,300L313,300L312,300L311,300L310,300L309,300L308,300L307,300L306,300L305,300L304,300L303,300L302,300L301,300L300,300L299,300L298,300L297,300L296,300L295,300L294,300L293,300L292,300L291,300L290,300L289,300L288,300L287,300L286,300L285,300L284,300L283,300L282,300L281,300L280,300L279,300L278,300L277,300L276,300L275,300L274,300L273,300L272,300L271,300L270,300L269,300L268,300L267,300L266,300L265,300L264,300L263,300L262,300L261,300L260,300L259,300L258,300L257,300L256,300L254.99999999999997,300L254,300L252.99999999999997,300L252,300L250.99999999999997,300L250,300L249.00000000000003,300L248,300L247.00000000000003,300L246,300L245.00000000000003,300L244,300L243.00000000000003,300L242,300L241,300L240,300L239,300L238,300L237,300L236,300L235,300L234,300L233,300L231.99999999999997,300L231,300L229.99999999999997,300L229,300L227.99999999999997,300L227,300L225.99999999999997,300L225,300L224.00000000000003,300L223,300L222.00000000000003,300L221,300L220.00000000000003,300L219,300L218.00000000000003,300L217,300L216,300L215,300L214,300L213,300L212,300L211,300L210,300L209,300L208,300L206.99999999999997,300L206,300L204.99999999999997,300L204,300L202.99999999999997,300L202,300L200.99999999999997,300L200,300L199,300L198,300L197,300L196,300L195,300L194,300L193,300L192,300L191,300L190,300L189,300L188,300L187,300L186,300L185,300L184,300L183,300L182,300L181,300L180,300L179,300L178,300L177,300L176,300L175,300L174,300L173,300L172,300L171,300L170,300L169,300L168,300L167,300L166,300L165,300L164,300L163,300L162,300L161,300L160,300L159,300L158,300L157,300L156,300L155,300L154,300L153,300L152,300L151,300L150,300L149,300L148,300L147,300L146,300L145,300L144,300L143,300L142,300L141,300L140,300L139,300L138,300L137,300L136,300L135,300L134,300L133,300L132,300L131,300L130,300L129,300L128,300L127,300L126,300L125,300L124,300L123,300L122,300L121,300L120,300L119,300L118,300L117,300L115.99999999999999,300L114.99999999999999,300L113.99999999999999,300L112.99999999999999,300L112.00000000000001,300L111.00000000000001,300L110.00000000000001,300L109.00000000000001,300L108,300L107,300L106,300L105,300L104,300L103,300L102,300L101,300L100,300L99,300L98,300L97,300L96,300L95,300L94,300L93,300L92,300L91,300L90,300L89,300L88,300L87,300L86,300L85,300L84,300L83,300L82,300L81,300L80,300L79,300L78,300L77,300L76,300L75,300L74,300L73,300L72,300L71,300L70,300L69,300L68,300L67,300L66,300L65,300L64,300L63,300L62,300L61,300L60,300L59,300L57.99999999999999,300L56.99999999999999,300L56.00000000000001,300L55.00000000000001,300L54,300L53,300L52,300L51,300L50,300L49,300L48,300L47,300L46,300L45,300L44,300L43,300L42,300L41,300L40,300L39,300L38,300L37,300L36,300L35,300L34,300L33,300L32,300L31,300L30,300L28.999999999999996,300L28.000000000000004,300L27,300L26,300L25,300L24,300L23,300L22,300L21,300L20,300L19,300L18,300L17,300L16,300L15,300L14.000000000000002,300L13,300L12,300L11,300L10,300L9,300L8,300L7.000000000000001,300L6,300L5,300L4,300L3,300L2,300L1,300L0,300Z" style="fill: #33a0ef; opacity: 0.5;"></path></g><g class="mark-area role-mark layer_1_marks"><path d="M0,300L1,300L2,300L3,300L4,300L5,300L6,300L7.000000000000001,300L8,300L9,300L10,300L11,300L12,300L13,300L14.000000000000002,300L15,300L16,300L17,300L18,300L19,300L20,300L21,300L22,300L23,300L24,300L25,300L26,300L27,300L28.000000000000004,300L28.999999999999996,300L30,300L31,300L32,300L33,300L34,300L35,300L36,300L37,300L38,300L39,300L40,300L41,300L42,300L43,300L44,300L45,300L46,300L47,300L48,300L49,300L50,300L51,300L52,300L53,300L54,300L55.00000000000001,300L56.00000000000001,300L56.99999999999999,300L57.99999999999999,6.6257009490964025L59,6.6257009490964025L60,6.6257009490964025L61,6.6257009490964025L62,6.6257009490964025L63,6.6257009490964025L64,6.6257009490964025L65,6.6257009490964025L66,6.6257009490964025L67,6.6257009490964025L68,6.6257009490964025L69,6.6257009490964025L70,6.6257009490964025L71,6.6257009490964025L72,6.6257009490964025L73,6.6257009490964025L74,6.6257009490964025L75,6.6257009490964025L76,6.6257009490964025L77,6.6257009490964025L78,6.6257009490964025L79,6.6257009490964025L80,6.6257009490964025L81,6.6257009490964025L82,6.6257009490964025L83,6.6257009490964025L84,6.6257009490964025L85,6.6257009490964025L86,6.6257009490964025L87,6.6257009490964025L88,6.6257009490964025L89,6.6257009490964025L90,6.6257009490964025L91,6.6257009490964025L92,6.6257009490964025L93,6.6257009490964025L94,6.6257009490964025L95,6.6257009490964025L96,6.6257009490964025L97,6.6257009490964025L98,6.6257009490964025L99,6.6257009490964025L100,6.6257009490964025L101,6.6257009490964025L102,6.6257009490964025L103,6.6257009490964025L104,6.6257009490964025L105,6.6257009490964025L106,6.6257009490964025L107,6.6257009490964025L108,6.6257009490964025L109.00000000000001,6.6257009490964025L110.00000000000001,6.6257009490964025L111.00000000000001,6.6257009490964025L112.00000000000001,6.6257009490964025L112.99999999999999,6.6257009490964025L113.99999999999999,6.6257009490964025L114.99999999999999,6.6257009490964025L115.99999999999999,6.6257009490964025L117,6.6257009490964025L118,6.6257009490964025L119,6.6257009490964025L120,6.6257009490964025L121,6.6257009490964025L122,6.6257009490964025L123,6.6257009490964025L124,6.6257009490964025L125,6.6257009490964025L126,6.6257009490964025L127,6.6257009490964025L128,6.6257009490964025L129,6.6257009490964025L130,6.6257009490964025L131,6.6257009490964025L132,6.6257009490964025L133,6.6257009490964025L134,6.6257009490964025L135,6.6257009490964025L136,6.6257009490964025L137,6.6257009490964025L138,6.6257009490964025L139,6.6257009490964025L140,6.6257009490964025L141,6.6257009490964025L142,6.6257009490964025L143,6.6257009490964025L144,6.6257009490964025L145,6.6257009490964025L146,6.6257009490964025L147,6.6257009490964025L148,6.6257009490964025L149,6.6257009490964025L150,6.6257009490964025L151,6.6257009490964025L152,6.6257009490964025L153,6.6257009490964025L154,6.6257009490964025L155,6.6257009490964025L156,6.6257009490964025L157,6.6257009490964025L158,6.6257009490964025L159,6.6257009490964025L160,6.6257009490964025L161,6.6257009490964025L162,6.6257009490964025L163,6.6257009490964025L164,6.6257009490964025L165,6.6257009490964025L166,6.6257009490964025L167,6.6257009490964025L168,6.6257009490964025L169,6.6257009490964025L170,6.6257009490964025L171,6.6257009490964025L172,6.6257009490964025L173,6.6257009490964025L174,6.6257009490964025L175,6.6257009490964025L176,6.6257009490964025L177,6.6257009490964025L178,6.6257009490964025L179,6.6257009490964025L180,6.6257009490964025L181,6.6257009490964025L182,6.6257009490964025L183,6.6257009490964025L184,6.6257009490964025L185,6.6257009490964025L186,6.6257009490964025L187,6.6257009490964025L188,6.6257009490964025L189,6.6257009490964025L190,6.6257009490964025L191,6.6257009490964025L192,6.6257009490964025L193,6.6257009490964025L194,6.6257009490964025L195,6.6257009490964025L196,6.6257009490964025L197,6.6257009490964025L198,6.6257009490964025L199,6.6257009490964025L200,6.6257009490964025L200.99999999999997,6.6257009490964025L202,6.6257009490964025L202.99999999999997,6.6257009490964025L204,6.6257009490964025L204.99999999999997,6.6257009490964025L206,6.6257009490964025L206.99999999999997,6.6257009490964025L208,6.6257009490964025L209,6.6257009490964025L210,6.6257009490964025L211,6.6257009490964025L212,6.6257009490964025L213,6.6257009490964025L214,6.6257009490964025L215,6.6257009490964025L216,6.6257009490964025L217,6.6257009490964025L218.00000000000003,6.6257009490964025L219,6.6257009490964025L220.00000000000003,6.6257009490964025L221,6.6257009490964025L222.00000000000003,6.6257009490964025L223,6.6257009490964025L224.00000000000003,6.6257009490964025L225,6.6257009490964025L225.99999999999997,6.6257009490964025L227,6.6257009490964025L227.99999999999997,6.6257009490964025L229,6.6257009490964025L229.99999999999997,6.6257009490964025L231,6.6257009490964025L231.99999999999997,6.6257009490964025L233,6.6257009490964025L234,6.6257009490964025L235,6.6257009490964025L236,6.6257009490964025L237,6.6257009490964025L238,6.6257009490964025L239,6.6257009490964025L240,6.6257009490964025L241,6.6257009490964025L242,6.6257009490964025L243.00000000000003,6.6257009490964025L244,6.6257009490964025L245.00000000000003,6.6257009490964025L246,6.6257009490964025L247.00000000000003,6.6257009490964025L248,6.6257009490964025L249.00000000000003,6.6257009490964025L250,6.6257009490964025L250.99999999999997,6.6257009490964025L252,6.6257009490964025L252.99999999999997,6.6257009490964025L254,6.6257009490964025L254.99999999999997,6.6257009490964025L256,6.6257009490964025L257,6.6257009490964025L258,6.6257009490964025L259,6.6257009490964025L260,6.6257009490964025L261,6.6257009490964025L262,6.6257009490964025L263,6.6257009490964025L264,6.6257009490964025L265,6.6257009490964025L266,6.6257009490964025L267,6.6257009490964025L268,6.6257009490964025L269,6.6257009490964025L270,6.6257009490964025L271,6.6257009490964025L272,6.6257009490964025L273,6.6257009490964025L274,6.6257009490964025L275,6.6257009490964025L276,6.6257009490964025L277,6.6257009490964025L278,6.6257009490964025L279,6.6257009490964025L280,6.6257009490964025L281,6.6257009490964025L282,6.6257009490964025L283,6.6257009490964025L284,6.6257009490964025L285,6.6257009490964025L286,6.6257009490964025L287,6.6257009490964025L288,6.6257009490964025L289,6.6257009490964025L290,6.6257009490964025L291,6.6257009490964025L292,6.6257009490964025L293,6.6257009490964025L294,6.6257009490964025L295,6.6257009490964025L296,6.6257009490964025L297,6.6257009490964025L298,6.6257009490964025L299,6.6257009490964025L300,6.6257009490964025L301,6.6257009490964025L302,6.6257009490964025L303,6.6257009490964025L304,6.6257009490964025L305,6.6257009490964025L306,6.6257009490964025L307,6.6257009490964025L308,6.6257009490964025L309,6.6257009490964025L310,6.6257009490964025L311,6.6257009490964025L312,6.6257009490964025L313,6.6257009490964025L314,6.6257009490964025L315,6.6257009490964025L316,6.6257009490964025L317,6.6257009490964025L318,6.6257009490964025L319,6.6257009490964025L320,6.6257009490964025L321,6.6257009490964025L322,6.6257009490964025L323,6.6257009490964025L324,6.6257009490964025L325,6.6257009490964025L326,6.6257009490964025L327,6.6257009490964025L328,6.6257009490964025L329,6.6257009490964025L330,6.6257009490964025L331,6.6257009490964025L332,6.6257009490964025L333,6.6257009490964025L334,6.6257009490964025L335,6.6257009490964025L336,6.6257009490964025L337,6.6257009490964025L338,6.6257009490964025L339,6.6257009490964025L340,6.6257009490964025L341,6.6257009490964025L342,6.6257009490964025L343,6.6257009490964025L344,6.6257009490964025L345,6.6257009490964025L346,6.6257009490964025L347,6.6257009490964025L348,6.6257009490964025L349,6.6257009490964025L350,6.6257009490964025L351,6.6257009490964025L352,6.6257009490964025L353,6.6257009490964025L354,6.6257009490964025L355,6.6257009490964025L356,6.6257009490964025L357,6.6257009490964025L358,6.6257009490964025L359,6.6257009490964025L360,6.6257009490964025L361,6.6257009490964025L362,6.6257009490964025L363,6.6257009490964025L364,6.6257009490964025L364,300L363,300L362,300L361,300L360,300L359,300L358,300L357,300L356,300L355,300L354,300L353,300L352,300L351,300L350,300L349,300L348,300L347,300L346,300L345,300L344,300L343,300L342,300L341,300L340,300L339,300L338,300L337,300L336,300L335,300L334,300L333,300L332,300L331,300L330,300L329,300L328,300L327,300L326,300L325,300L324,300L323,300L322,300L321,300L320,300L319,300L318,300L317,300L316,300L315,300L314,300L313,300L312,300L311,300L310,300L309,300L308,300L307,300L306,300L305,300L304,300L303,300L302,300L301,300L300,300L299,300L298,300L297,300L296,300L295,300L294,300L293,300L292,300L291,300L290,300L289,300L288,300L287,300L286,300L285,300L284,300L283,300L282,300L281,300L280,300L279,300L278,300L277,300L276,300L275,300L274,300L273,300L272,300L271,300L270,300L269,300L268,300L267,300L266,300L265,300L264,300L263,300L262,300L261,300L260,300L259,300L258,300L257,300L256,300L254.99999999999997,300L254,300L252.99999999999997,300L252,300L250.99999999999997,300L250,300L249.00000000000003,300L248,300L247.00000000000003,300L246,300L245.00000000000003,300L244,300L243.00000000000003,300L242,300L241,300L240,300L239,300L238,300L237,300L236,300L235,300L234,300L233,300L231.99999999999997,300L231,300L229.99999999999997,300L229,300L227.99999999999997,300L227,300L225.99999999999997,300L225,300L224.00000000000003,300L223,300L222.00000000000003,300L221,300L220.00000000000003,300L219,300L218.00000000000003,300L217,300L216,300L215,300L214,300L213,300L212,300L211,300L210,300L209,300L208,300L206.99999999999997,300L206,300L204.99999999999997,300L204,300L202.99999999999997,300L202,300L200.99999999999997,300L200,300L199,300L198,300L197,300L196,300L195,300L194,300L193,300L192,300L191,300L190,300L189,300L188,300L187,300L186,300L185,300L184,300L183,300L182,300L181,300L180,300L179,300L178,300L177,300L176,300L175,300L174,300L173,300L172,300L171,300L170,300L169,300L168,300L167,300L166,300L165,300L164,300L163,300L162,300L161,300L160,300L159,300L158,300L157,300L156,300L155,300L154,300L153,300L152,300L151,300L150,300L149,300L148,300L147,300L146,300L145,300L144,300L143,300L142,300L141,300L140,300L139,300L138,300L137,300L136,300L135,300L134,300L133,300L132,300L131,300L130,300L129,300L128,300L127,300L126,300L125,300L124,300L123,300L122,300L121,300L120,300L119,300L118,300L117,300L115.99999999999999,300L114.99999999999999,300L113.99999999999999,300L112.99999999999999,300L112.00000000000001,300L111.00000000000001,300L110.00000000000001,300L109.00000000000001,300L108,300L107,300L106,300L105,300L104,300L103,300L102,300L101,300L100,300L99,300L98,300L97,300L96,300L95,300L94,300L93,300L92,300L91,300L90,300L89,300L88,300L87,300L86,300L85,300L84,300L83,300L82,300L81,300L80,300L79,300L78,300L77,300L76,300L75,300L74,300L73,300L72,300L71,300L70,300L69,300L68,300L67,300L66,300L65,300L64,300L63,300L62,300L61,300L60,300L59,300L57.99999999999999,300L56.99999999999999,300L56.00000000000001,300L55.00000000000001,300L54,300L53,300L52,300L51,300L50,300L49,300L48,300L47,300L46,300L45,300L44,300L43,300L42,300L41,300L40,300L39,300L38,300L37,300L36,300L35,300L34,300L33,300L32,300L31,300L30,300L28.999999999999996,300L28.000000000000004,300L27,300L26,300L25,300L24,300L23,300L22,300L21,300L20,300L19,300L18,300L17,300L16,300L15,300L14.000000000000002,300L13,300L12,300L11,300L10,300L9,300L8,300L7.000000000000001,300L6,300L5,300L4,300L3,300L2,300L1,300L0,300Z" style="fill: #3fbaed; opacity: 0.5;"></path></g><g class="mark-line role-mark layer_2_marks"><path d="M0,299.9817073170732L1,299.98280600763405L2,299.9828134660762L3,299.98211458094653L4,299.98092967413373L5,299.97938152026904L6,299.9775347522981L7.000000000000001,299.97541899958725L8,299.9730424372456L9,299.97039968235345L10,299.96747635236716L11,299.96425164865093L12,299.9606997662924L13,299.9567906036526L14.000000000000002,299.95249004457105L15,299.94775997783705L16,299.94255814629935L17,299.9368378797482L18,299.9305477416677L19,299.92363110583767L20,299.91602567028025L21,299.90766291086163L22,299.89846747360224L23,299.88835650260586L24,299.87723889901105L25,299.8650145052126L26,299.85157320762744L27,299.83679395038365L28.000000000000004,299.8205436514393L28.999999999999996,299.8026760117356L30,299.7867465858244L31,299.77498342154865L32,299.765838500261L33,299.75832715753126L34,299.75182285729073L35,299.745926720752L36,299.74038458489844L37,299.7350342750188L38,299.729772084687L39,299.7245314662258L40,299.7192694829148L41,299.71395819978676L42,299.70857920277575L43,299.7031201222864L44,299.69757241858304L45,299.691929974698L46,299.6861882017005L47,299.6803434696858L48,299.67439274583063L49,299.6683333640842L50,299.6621628785418L51,299.65587897001393L52,299.6494793864121L53,299.6429619046297L54,299.6363243060841L55.00000000000001,299.62956436094225L56.00000000000001,299.6226798178631L56.99999999999999,299.61566839724367L57.99999999999999,299.60146083673317L59,299.5759715768679L60,299.542136828251L61,299.5015173706665L62,299.45484728718355L63,299.40235550234326L64,299.34395337546164L65,299.2793432521655L66,299.2080802644299L67,299.1296063872748L68,299.04326796906884L69,298.94832324388443L70,298.8439437252428L71,298.72921169948876L72,298.60311512414324L73,298.4645406724054L74,298.3122653352289L75,298.1449467971423L76,297.961112686143L77,297.75914872917474L78,297.5372858039482L79,297.2935858540911L80,297.0259266214675L81,296.73198514337076L82,296.40921996126843L83,296.0548519909682L84,295.665844011241L85,295.2388787392766L86,294.77033547736875L87,294.2562653366952L88,293.69236507194665L89,293.07394959606887L90,292.39592328890046L91,291.65275026862247L92,290.8384238624946L93,289.9464355953377L94,288.9697441128228L95,287.90074457416597L96,286.73123918770636L97,285.452409725459L98,284.054793041304L99,282.52826083389334L100,280.86200514088927L101,279.0445313261088L102,277.0636606244402L103,274.90654463796983L104,272.5596945249123L105,270.00902798153953L106,267.2399374728615L107,264.2373835014513L108,260.9860169902854L109.00000000000001,257.4703350621182L110.00000000000001,253.67487458392532L111.00000000000001,249.5844477609199L112.00000000000001,245.184423752814L112.99999999999999,240.46105968040476L113.99999999999999,235.40188342354782L114.99999999999999,229.9961292119318L115.99999999999999,224.23522511328233L117,218.11332907948963L118,211.6279071946958L119,204.7803441940008L120,197.57657225333864L121,190.02769962367714L122,182.15061610895705L123,173.96854796691292L124,165.51153102608527L125,156.81676859215966L126,147.9288320555794L127,138.89968828158928L128,129.7884893295318L129,120.66114024770805L130,111.58958511874894L131,102.65083201589773L132,93.92573183569843L133,85.4974956797911L134,77.4500457101899L135,69.86619692352004L136,62.82577143894993L137,56.403724972373304L138,50.66832523219015L139,45.679516755598705L140,41.48749098816826L141,38.131559251060466L142,35.63935798390302L143,34.026416119379974L144,33.29609177190584L145,33.43986619324397L146,34.43796559180993L147,36.26026713093731L148,38.86743502379488L149,42.212226502712284L150,46.24090551246791L151,50.89470385893122L152,56.11127457426588L153,61.82608962376903L154,67.9737429164229L155,74.48912907228707L156,81.30847783313735L157,88.37023281326626L158,95.6157710726633L159,102.98996651087877L160,110.44160522320465L161,117.92366474206058L162,125.39347160099712L163,132.81275305788824L164,140.1475992794319L165,147.368352012471L166,154.44943493449327L167,161.36913965502401L168,168.10937987795353L169,174.65542465306245L170,180.9956200385504L171,187.1211069367539L172,193.0255414027858L173,198.70482239304286L174,204.1568307353654L175,209.3811820718091L176,214.37899564687433L177,219.15268008107955L178,223.70573667065725L179,228.04258027532416L180,232.16837748306307L181,236.08890145910613L182,239.81040268187442L183,243.33949462857618L184,246.683053385755L185,249.8481301149648L186,252.8418752919091L187,255.6714736511195L188,258.3440888011031L189,260.8668165214747L190,263.2466458095471L191,265.4904268056524L192,267.60484479131776L193,269.5963995201821L194,271.4713892065574L195,273.23589855961006L196,274.89579031140977L197,276.4566997439746L198,277.92403177359023L199,279.30296019990624L200,280.5984287725657L200.99999999999997,281.81515376945987L202,282.95762781823504L202.99999999999997,284.0301247265879L204,285.0367051173794L204.99999999999997,285.9812226918947L206,286.8673309689244L206.99999999999997,287.698490368968L208,288.4779755320082L209,289.20888277419675L210,289.89413760364454L211,290.5365022285253L212,291.13858300207454L213,291.70283775896377L214,292.2315830061198L215,292.7270009384889L216,293.1911462566377L217,293.62595276857735L218.00000000000003,294.0332397628824L219,294.414718144164L220.00000000000003,294.77199632532864L221,295.1065858738884L222.00000000000003,295.41990691195434L223,295.71329327150676L224.00000000000003,295.9879974081418L225,296.2451950778008L225.99999999999997,296.4859897820284L227,296.71141698812386L227.99999999999997,296.922448131176L229,297.1199944054327L229.99999999999997,297.3049103527788L231,297.47799725630273L231.99999999999997,297.64000634703837L233,297.7916418319953L234,297.9335637515478L235,298.066390674155L236,298.19070223624277L237,298.3070415348981L238,298.4159173808206L239,298.5178064187478L240,298.6131551223244L241,298.7023816701324L242,298.78587770933467L243.00000000000003,298.8640100131174L244,298.9371220378504L245.00000000000003,299.00553538561456L246,299.06955117748697L247.00000000000003,299.1294513427084L248,299.1854998286114L249.00000000000003,299.2379437359355L250,299.2870143839206L250.99999999999997,299.3329283093364L252,299.375888203384L252.99999999999997,299.41608379019374L254,299.4536926504347L254.99999999999997,299.48888099335903L256,299.52180438041535L257,299.5526084033859L258,299.5814293198345L259,299.6083946484899L260,299.63362372703403L261,299.65722823462335L262,299.6793126813285L263,299.69997486655217L264,299.7193063083574L265,299.7373926455253L266,299.75431401404956L267,299.7701453996709L268,299.78495696795835L269,299.79881437335047L270,299.81177904848295L271,299.82390847504837L272,299.835256437355L273,299.8458732596805L274,299.85580602844806L275,299.8650988001871L276,299.8737927961831L277,299.88192658466136L278,299.88953625129926L279,299.89665555880975L280,299.9033160962933L281,299.9095474190102L282,299.9153771791856L283,299.92083124841963L284,299.9259338322389L285,299.9307075772929L286,299.9351736716644L287,299.93935193873637L288,299.94326092502615L289,299.94691798237585L290,299.95033934485764L291,299.95354020073574L292,299.9565347598005L293,299.9593363163714L294,299.961957308248L295,299.96440937186844L296,299.96670339391846L297,299.96884955962L298,299.97085739791146L299,299.972735823721L300,299.9744931775177L301,299.97613726231754L302,299.97767537830657L303,299.97911435523446L304,299.9804605827229L305,299.9817200386222L306,299.9828983155411L307,299.9840006456689L308,299.98503192399846L309,299.9859967300532L310,299.98689934821516L311,299.98774378674307L312,299.98853379556573L313,299.9892728829288L314,299.98996433096937L315,299.99061121028706L316,299.9912163935763L317,299.99178256838013L318,299.99231224902286L319,299.9928077877729L320,299.9932713852873L321,299.99370510038244L322,299.9941108591758L323,299.9944904636382L324,299.99484559959507L325,299.9951778442121L326,299.9954886729985L327,299.99577946635884L328,299.9960515157231L329,299.9963060292807L330,299.9965441373462L331,299.9967668973783L332,299.99697529867564L333,299.99717026677024L334,299.99735266753714L335,299.99752331104L336,299.99768295512825L337,299.9978323088023L338,299.9979720353626L339,299.99810275535486L340,299.9982250493262L341,299.9983394604029L342,299.99844649670285L343,299.99854663359156L344,299.99864031579375L345,299.9987279593681L346,299.998809953555L347,299.9988866625052L348,299.9989584268969L349,299.999025565449L350,299.9990883763363L351,299.9991471385139L352,299.9992021129557L353,299.9992535438139L354,299.9993016595029L355,299.9993466737141L356,299.9993887863645L357,299.99942818448477L358,299.99946504304995L359,299.9994995257565L360,299.9995317857492L361,299.9995619663012L362,299.99959020145076L363,299.9996166165959L364,299.999641329052" style="fill: none; stroke: orange; stroke-width: 2;"></path></g></g><path class="foreground" d="" style="display: none; fill: none;"></path></g></g></g></svg>