<svg class="marks" width="454" height="347" viewBox="0 0 454 347" version="1.1" xmlns="http://www.w3.org/2000/svg" xmlns:xlink="http://www.w3.org/1999/xlink"><rect width="454" height="347" style="fill: white;"></rect><g transform="translate(48,10)"><g class="mark-group role-frame root"><g transform="translate(0,0)"><path class="background" d="M0.5,0.5h400v300h-400Z" style="fill: none; stroke: #ddd;"></path><g><g class="mark-group role-axis"><g transform="translate(0.5,300.5)"><path class="background" d="M0,0h0v0h0Z" style="pointer-events: none; fill: none;"></path><g><g class="mark-rule role-axis-grid" style="pointer-events: none;"><line transform="translate(0,-300)" x2="0" y2="300" style="fill: none; stroke: #ddd; stroke-width: 1; opacity: 1;"></line><line transform="translate(50,-300)" x2="0" y2="300" style="fill: none; stroke: #ddd; stroke-width: 1; opacity: 1;"></line><line transform="translate(100,-300)" x2="0" y2="300" style="fill: none; stroke: #ddd; stroke-width: 1; opacity: 1;"></line><line transform="translate(150,-300)" x2="0" y2="300" style="fill: none; stroke: #ddd; stroke-width: 1; opacity: 1;"></line><line transform="translate(200,-300)" x2="0" y2="300" style="fill: none; stroke: #ddd; stroke-width: 1; opacity: 1;"></line><line transform="translate(250,-300)" x2="0" y2="300" style="fill: none; stroke: #ddd; stroke-width: 1; opacity: 1;"></line><line transform="translate(300,-300)" x2="0" y2="300" style="fill: none; stroke: #ddd; stroke-width: 1; opacity: 1;"></line><line transform="translate(350,-300)" x2="0" y2="300" style="fill: none; stroke: #ddd; stroke-width: 1; opacity: 1;"></line><line transform="translate(400,-300)" x2="0" y2="300" style="fill: none; stroke: #ddd; stroke-width: 1; opacity: 1;"></line></g></g><path class="foreground" d="" style="pointer-events: none; display: none; fill: none;"></path></g></g><g class="mark-group role-axis"><g transform="translate(0.5,0.5)"><path class="background" d="M0,0h0v0h0Z" style="pointer-events: none; fill: none;"></path><g><g class="mark-rule role-axis-grid" style="pointer-events: none;"><line transform="translate(0,300)" x2="400" y2="0" style="fill: none; stroke: #ddd; stroke-width: 1; opacity: 1;"></line><line transform="translate(0,270)" x2="400" y2="0" style="fill: none; stroke: #ddd; stroke-width: 1; opacity: 1;"></line><line transform="translate(0,240)" x2="400" y2="0" style="fill: none; stroke: #ddd; stroke-width: 1; opacity: 1;"></line><line transform="translate(0,210)" x2="400" y2="0" style="fill: none; stroke: #ddd; stroke-width: 1; opacity: 1;"></line><line transform="translate(0,180)" x2="400" y2="0" style="fill: none; stroke: #ddd; stroke-width: 1; opacity: 1;"></line><line transform="translate(0,150)" x2="400" y2="0" style="fill: none; stroke: #ddd; stroke-width: 1; opacity: 1;"></line><line transform="translate(0,120)" x2="400" y2="0" style="fill: none; stroke: #ddd; stroke-width: 1; opacity: 1;"></line><line transform="translate(0,90)" x2="400" y2="0" style="fill: none; stroke: #ddd; stroke-width: 1; opacity: 1;"></line><line transform="translate(0,60)" x2="400" y2="0" style="fill: none; stroke: #ddd; stroke-width: 1; opacity: 1;"></line><line transform="translate(0,30)" x2="400" y2="0" style="fill: none; stroke: #ddd; stroke-width: 1; opacity: 1;"></line><line transform="translate(0,0)" x2="400" y2="0" style="fill: none; stroke: #ddd; stroke-width: 1; opacity: 1;"></line></g></g><path class="foreground" d="" style="pointer-events: none; display: none; fill: none;"></path></g></g><g class="mark-group role-axis"><g transform="translate(0.5,300.5)"><path class="background" d="M0,0h0v0h0Z" style="pointer-events: none; fill: none;"></path><g><g class="mark-rule role-axis-tick" style="pointer-events: none;"><line transform="translate(0,0)" x2="0" y2="5" style="fill: none; stroke: #888; stroke-width: 1; opacity: 1;"></line><line transform="translate(50,0)" x2="0" y2="5" style="fill: none; stroke: #888; stroke-width: 1; opacity: 1;"></line><line transform="translate(100,0)" x2="0" y2="5" style="fill: none; stroke: #888; stroke-width: 1; opacity: 1;"></line><line transform="translate(150,0)" x2="0" y2="5" style="fill: none; stroke: #888; stroke-width: 1; opacity: 1;"></line><line transform="translate(200,0)" x2="0" y2="5" style="fill: none; stroke: #888; stroke-width: 1; opacity: 1;"></line><line transform="translate(250,0)" x2="0" y2="5" style="fill: none; stroke: #888; stroke-width: 1; opacity: 1;"></line><line transform="translate(300,0)" x2="0" y2="5" style="fill: none; stroke: #888; stroke-width: 1; opacity: 1;"></line><line transform="translate(350,0)" x2="0" y2="5" style="fill: none; stroke: #888; stroke-width: 1; opacity: 1;"></line><line transform="translate(400,0)" x2="0" y2="5" style="fill: none; stroke: #888; stroke-width: 1; opacity: 1;"></line></g><g class="mark-text role-axis-label" style="pointer-events: none;"><text text-anchor="start" transform="translate(0,15)" style="font-family: sans-serif; font-size: 10px; fill: #000; opacity: 1;">0</text><text text-anchor="middle" transform="translate(50,15)" style="font-family: sans-serif; font-size: 10px; fill: #000; opacity: 1;">50</text><text text-anchor="middle" transform="translate(100,15)" style="font-family: sans-serif; font-size: 10px; fill: #000; opacity: 1;">100</text><text text-anchor="middle" transform="translate(150,15)" style="font-family: sans-serif; font-size: 10px; fill: #000; opacity: 1;">150</text><text text-anchor="middle" transform="translate(200,15)" style="font-family: sans-serif; font-size: 10px; fill: #000; opacity: 1;">200</text><text text-anchor="middle" transform="translate(250,15)" style="font-family: sans-serif; font-size: 10px; fill: #000; opacity: 1;">250</text><text text-anchor="middle" transform="translate(300,15)" style="font-family: sans-serif; font-size: 10px; fill: #000; opacity: 1;">300</text><text text-anchor="middle" transform="translate(350,15)" style="font-family: sans-serif; font-size: 10px; fill: #000; opacity: 1;">350</text><text text-anchor="end" transform="translate(400,15)" style="font-family: sans-serif; font-size: 10px; fill: #000; opacity: 1;">400</text></g><g class="mark-rule role-axis-domain" style="pointer-events: none;"><line transform="translate(0,0)" x2="400" y2="0" style="fill: none; stroke: #888; stroke-width: 1; opacity: 1;"></line></g><g class="mark-text role-axis-title" style="pointer-events: none;"><text text-anchor="middle" transform="translate(200,30)" style="font-family: sans-serif; font-size: 11px; font-weight: bold; fill: #000; opacity: 1;">days</text></g></g><path class="foreground" d="" style="pointer-events: none; display: none; fill: none;"></path></g></g><g class="mark-group role-axis"><g transform="translate(0.5,0.5)"><path class="background" d="M0,0h0v0h0Z" style="pointer-events: none; fill: none;"></path><g><g class="mark-rule role-axis-tick" style="pointer-events: none;"><line transform="translate(0,300)" x2="-5" y2="0" style="fill: none; stroke: #888; stroke-width: 1; opacity: 1;"></line><line transform="translate(0,270)" x2="-5" y2="0" style="fill: none; stroke: #888; stroke-width: 1; opacity: 1;"></line><line transform="translate(0,240)" x2="-5" y2="0" style="fill: none; stroke: #888; stroke-width: 1; opacity: 1;"></line><line transform="translate(0,210)" x2="-5" y2="0" style="fill: none; stroke: #888; stroke-width: 1; opacity: 1;"></line><line transform="translate(0,180)" x2="-5" y2="0" style="fill: none; stroke: #888; stroke-width: 1; opacity: 1;"></line><line transform="translate(0,150)" x2="-5" y2="0" style="fill: none; stroke: #888; stroke-width: 1; opacity: 1;"></line><line transform="translate(0,120)" x2="-5" y2="0" style="fill: none; stroke: #888; stroke-width: 1; opacity: 1;"></line><line transform="translate(0,90)" x2="-5" y2="0" style="fill: none; stroke: #888; stroke-width: 1; opacity: 1;"></line><line transform="translate(0,60)" x2="-5" y2="0" style="fill: none; stroke: #888; stroke-width: 1; opacity: 1;"></line><line transform="translate(0,30)" x2="-5" y2="0" style="fill: none; stroke: #888; stroke-width: 1; opacity: 1;"></line><line transform="translate(0,0)" x2="-5" y2="0" style="fill: none; stroke: #888; stroke-width: 1; opacity: 1;"></line></g><g class="mark-text role-axis-label" style="pointer-events: none;"><text text-anchor="end" transform="translate(-7,303)" style="font-family: sans-serif; font-size: 10px; fill: #000; opacity: 1;">0%</text><text text-anchor="end" transform="translate(-7,273)" style="font-family: sans-serif; font-size: 10px; fill: #000; opacity: 1;">2%</text><text text-anchor="end" transform="translate(-7,243)" style="font-family: sans-serif; font-size: 10px; fill: #000; opacity: 1;">4%</text><text text-anchor="end" transform="translate(-7,213)" style="font-family: sans-serif; font-size: 10px; fill: #000; opacity: 1;">6%</text><text text-anchor="end" transform="translate(-7,183.00000000000003)" style="font-family: sans-serif; font-size: 10px; fill: #000; opacity: 1;">8%</text><text text-anchor="end" transform="translate(-7,153)" style="font-family: sans-serif; font-size: 10px; fill: #000; opacity: 1;">10%</text><text text-anchor="end" transform="translate(-7,123)" style="font-family: sans-serif; font-size: 10px; fill: #000; opacity: 1;">12%</text><text text-anchor="end" transform="translate(-7,92.99999999999999)" style="font-family: sans-serif; font-size: 10px; fill: #000; opacity: 1;">14%</text><text text-anchor="end" transform="translate(-7,63.00000000000002)" style="font-family: sans-serif; font-size: 10px; fill: #000; opacity: 1;">16%</text><text text-anchor="end" transform="translate(-7,33.00000000000003)" style="font-family: sans-serif; font-size: 10px; fill: #000; opacity: 1;">18%</text><text text-anchor="end" transform="translate(-7,3)" style="font-family: sans-serif; font-size: 10px; fill: #000; opacity: 1;">20%</text></g><g class="mark-rule role-axis-domain" style="pointer-events: none;"><line transform="translate(0,300)" x2="0" y2="-300" style="fill: none; stroke: #888; stroke-width: 1; opacity: 1;"></line></g><g class="mark-text role-axis-title" style="pointer-events: none;"><text text-anchor="middle" transform="translate(-31.0146484375,150) rotate(-90) translate(0,-2)" style="font-family: sans-serif; font-size: 11px; font-weight: bold; fill: #000; opacity: 1;">share_of_pop</text></g></g><path class="foreground" d="" style="pointer-events: none; display: none; fill: none;"></path></g></g><g class="mark-area role-mark layer_0_marks"><path d="M0,300L1,300L2,300L3,300L4,300L5,300L6,300L7.000000000000001,300L8,300L9,300L10,300L11,300L12,300L13,300L14.000000000000002,300L15,300L16,300L17,300L18,300L19,300L20,300L21,300L22,300L23,300L24,300L25,300L26,300L27,300L28.000000000000004,300L28.999999999999996,300L30,6.640136434809552L31,6.640136434809552L32,6.640136434809552L33,6.640136434809552L34,6.640136434809552L35,6.640136434809552L36,6.640136434809552L37,6.640136434809552L38,6.640136434809552L39,6.640136434809552L40,6.640136434809552L41,6.640136434809552L42,6.640136434809552L43,6.640136434809552L44,6.640136434809552L45,6.640136434809552L46,6.640136434809552L47,6.640136434809552L48,6.640136434809552L49,6.640136434809552L50,6.640136434809552L51,6.640136434809552L52,6.640136434809552L53,6.640136434809552L54,6.640136434809552L55.00000000000001,6.640136434809552L56.00000000000001,6.640136434809552L56.99999999999999,6.640136434809552L57.99999999999999,6.640136434809552L59,300L60,300L61,300L62,300L63,300L64,300L65,300L66,300L67,300L68,300L69,300L70,300L71,300L72,300L73,300L74,300L75,300L76,300L77,300L78,300L79,300L80,300L81,300L82,300L83,300L84,300L85,300L86,300L87,300L88,300L89,300L90,300L91,300L92,300L93,300L94,300L95,300L96,300L97,300L98,300L99,300L100,300L101,300L102,300L103,300L104,300L105,300L106,300L107,300L108,300L109.00000000000001,300L110.00000000000001,300L111.00000000000001,300L112.00000000000001,300L112.99999999999999,300L113.99999999999999,300L114.99999999999999,300L115.99999999999999,300L117,300L118,300L119,300L120,300L121,300L122,300L123,300L124,300L125,300L126,300L127,300L128,300L129,300L130,300L131,300L132,300L133,300L134,300L135,300L136,300L137,300L138,300L139,300L140,300L141,300L142,300L143,300L144,300L145,300L146,300L147,300L148,300L149,300L150,300L151,300L152,300L153,300L154,300L155,300L156,300L157,300L158,300L159,300L160,300L161,300L162,300L163,300L164,300L165,300L166,300L167,300L168,300L169,300L170,300L171,300L172,300L173,300L174,300L175,300L176,300L177,300L178,300L179,300L180,300L181,300L182,300L183,300L184,300L185,300L186,300L187,300L188,300L189,300L190,300L191,300L192,300L193,300L194,300L195,300L196,300L197,300L198,300L199,300L200,300L200.99999999999997,300L202,300L202.99999999999997,300L204,300L204.99999999999997,300L206,300L206.99999999999997,300L208,300L209,300L210,300L211,300L212,300L213,300L214,300L215,300L216,300L217,300L218.00000000000003,300L219,300L220.00000000000003,300L221,300L222.00000000000003,300L223,300L224.00000000000003,300L225,300L225.99999999999997,300L227,300L227.99999999999997,300L229,300L229.99999999999997,300L231,300L231.99999999999997,300L233,300L234,300L235,300L236,300L237,300L238,300L239,300L240,300L241,300L242,300L243.00000000000003,300L244,300L245.00000000000003,300L246,300L247.00000000000003,300L248,300L249.00000000000003,300L250,300L250.99999999999997,300L252,300L252.99999999999997,300L254,300L254.99999999999997,300L256,300L257,300L258,300L259,300L260,300L261,300L262,300L263,300L264,300L265,300L266,300L267,300L268,300L269,300L270,300L271,300L272,300L273,300L274,300L275,300L276,300L277,300L278,300L279,300L280,300L281,300L282,300L283,300L284,300L285,300L286,300L287,300L288,300L289,300L290,300L291,300L292,300L293,300L294,300L295,300L296,300L297,300L298,300L299,300L300,300L301,300L302,300L303,300L304,300L305,300L306,300L307,300L308,300L309,300L310,300L311,300L312,300L313,300L314,300L315,300L316,300L317,300L318,300L319,300L320,300L321,300L322,300L323,300L324,300L325,300L326,300L327,300L328,300L329,300L330,300L331,300L332,300L333,300L334,300L335,300L336,300L337,300L338,300L339,300L340,300L341,300L342,300L343,300L344,300L345,300L346,300L347,300L348,300L349,300L350,300L351,300L352,300L353,300L354,300L355,300L356,300L357,300L358,300L359,300L360,300L361,300L362,300L363,300L364,300L364,300L363,300L362,300L361,300L360,300L359,300L358,300L357,300L356,300L355,300L354,300L353,300L352,300L351,300L350,300L349,300L348,300L347,300L346,300L345,300L344,300L343,300L342,300L341,300L340,300L339,300L338,300L337,300L336,300L335,300L334,300L333,300L332,300L331,300L330,300L329,300L328,300L327,300L326,300L325,300L324,300L323,300L322,300L321,300L320,300L319,300L318,300L317,300L316,300L315,300L314,300L313,300L312,300L311,300L310,300L309,300L308,300L307,300L306,300L305,300L304,300L303,300L302,300L301,300L300,300L299,300L298,300L297,300L296,300L295,300L294,300L293,300L292,300L291,300L290,300L289,300L288,300L287,300L286,300L285,300L284,300L283,300L282,300L281,300L280,300L279,300L278,300L277,300L276,300L275,300L274,300L273,300L272,300L271,300L270,300L269,300L268,300L267,300L266,300L265,300L264,300L263,300L262,300L261,300L260,300L259,300L258,300L257,300L256,300L254.99999999999997,300L254,300L252.99999999999997,300L252,300L250.99999999999997,300L250,300L249.00000000000003,300L248,300L247.00000000000003,300L246,300L245.00000000000003,300L244,300L243.00000000000003,300L242,300L241,300L240,300L239,300L238,300L237,300L236,300L235,300L234,300L233,300L231.99999999999997,300L231,300L229.99999999999997,300L229,300L227.99999999999997,300L227,300L225.99999999999997,300L225,300L224.00000000000003,300L223,300L222.00000000000003,300L221,300L220.00000000000003,300L219,300L218.00000000000003,300L217,300L216,300L215,300L214,300L213,300L212,300L211,300L210,300L209,300L208,300L206.99999999999997,300L206,300L204.99999999999997,300L204,300L202.99999999999997,300L202,300L200.99999999999997,300L200,300L199,300L198,300L197,300L196,300L195,300L194,300L193,300L192,300L191,300L190,300L189,300L188,300L187,300L186,300L185,300L184,300L183,300L182,300L181,300L180,300L179,300L178,300L177,300L176,300L175,300L174,300L173,300L172,300L171,300L170,300L169,300L168,300L167,300L166,300L165,300L164,300L163,300L162,300L161,300L160,300L159,300L158,300L157,300L156,300L155,300L154,300L153,300L152,300L151,300L150,300L149,300L148,300L147,300L146,300L145,300L144,300L143,300L142,300L141,300L140,300L139,300L138,300L137,300L136,300L135,300L134,300L133,300L132,300L131,300L130,300L129,300L128,300L127,300L126,300L125,300L124,300L123,300L122,300L121,300L120,300L119,300L118,300L117,300L115.99999999999999,300L114.99999999999999,300L113.99999999999999,300L112.99999999999999,300L112.00000000000001,300L111.00000000000001,300L110.00000000000001,300L109.00000000000001,300L108,300L107,300L106,300L105,300L104,300L103,300L102,300L101,300L100,300L99,300L98,300L97,300L96,300L95,300L94,300L93,300L92,300L91,300L90,300L89,300L88,300L87,300L86,300L85,300L84,300L83,300L82,300L81,300L80,300L79,300L78,300L77,300L76,300L75,300L74,300L73,300L72,300L71,300L70,300L69,300L68,300L67,300L66,300L65,300L64,300L63,300L62,300L61,300L60,300L59,300L57.99999999999999,300L56.99999999999999,300L56.00000000000001,300L55.00000000000001,300L54,300L53,300L52,300L51,300L50,300L49,300L48,300L47,300L46,300L45,300L44,300L43,300L42,300L41,300L40,300L39,300L38,300L37,300L36,300L35,300L34,300L33,300L32,300L31,300L30,300L28.999999999999996,300L28.000000000000004,300L27,300L26,300L25,300L24,300L23,300L22,300L21,300L20,300L19,300L18,300L17,300L16,300L15,300L14.000000000000002,300L13,300L12,300L11,300L10,300L9,300L8,300L7.000000000000001,300L6,300L5,300L4,300L3,300L2,300L1,300L0,300Z" style="fill: #36a6ee; opacity: 0.5;"></path></g><g class="mark-area role-mark layer_1_marks"><path d="M0,300L1,300L2,300L3,300L4,300L5,300L6,300L7.000000000000001,300L8,300L9,300L10,300L11,300L12,300L13,300L14.000000000000002,300L15,300L16,300L17,300L18,300L19,300L20,300L21,300L22,300L23,300L24,300L25,300L26,300L27,300L28.000000000000004,300L28.999999999999996,300L30,300L31,300L32,300L33,300L34,300L35,300L36,300L37,300L38,300L39,300L40,300L41,300L42,300L43,300L44,300L45,300L46,300L47,300L48,300L49,300L50,300L51,300L52,300L53,300L54,300L55.00000000000001,300L56.00000000000001,300L56.99999999999999,300L57.99999999999999,6.640136434809552L59,6.640136434809552L60,6.640136434809552L61,6.640136434809552L62,6.640136434809552L63,6.640136434809552L64,6.640136434809552L65,6.640136434809552L66,6.640136434809552L67,6.640136434809552L68,6.640136434809552L69,6.640136434809552L70,6.640136434809552L71,6.640136434809552L72,6.640136434809552L73,6.640136434809552L74,6.640136434809552L75,6.640136434809552L76,6.640136434809552L77,6.640136434809552L78,6.640136434809552L79,6.640136434809552L80,6.640136434809552L81,6.640136434809552L82,6.640136434809552L83,6.640136434809552L84,6.640136434809552L85,6.640136434809552L86,6.640136434809552L87,6.640136434809552L88,6.640136434809552L89,6.640136434809552L90,6.640136434809552L91,6.640136434809552L92,6.640136434809552L93,6.640136434809552L94,6.640136434809552L95,6.640136434809552L96,6.640136434809552L97,6.640136434809552L98,6.640136434809552L99,6.640136434809552L100,6.640136434809552L101,6.640136434809552L102,6.640136434809552L103,6.640136434809552L104,6.640136434809552L105,6.640136434809552L106,6.640136434809552L107,6.640136434809552L108,6.640136434809552L109.00000000000001,6.640136434809552L110.00000000000001,6.640136434809552L111.00000000000001,6.640136434809552L112.00000000000001,6.640136434809552L112.99999999999999,6.640136434809552L113.99999999999999,6.640136434809552L114.99999999999999,6.640136434809552L115.99999999999999,6.640136434809552L117,6.640136434809552L118,6.640136434809552L119,6.640136434809552L120,6.640136434809552L121,6.640136434809552L122,6.640136434809552L123,6.640136434809552L124,6.640136434809552L125,6.640136434809552L126,6.640136434809552L127,6.640136434809552L128,6.640136434809552L129,6.640136434809552L130,6.640136434809552L131,6.640136434809552L132,6.640136434809552L133,6.640136434809552L134,6.640136434809552L135,6.640136434809552L136,6.640136434809552L137,6.640136434809552L138,6.640136434809552L139,6.640136434809552L140,6.640136434809552L141,6.640136434809552L142,6.640136434809552L143,6.640136434809552L144,6.640136434809552L145,6.640136434809552L146,6.640136434809552L147,6.640136434809552L148,6.640136434809552L149,6.640136434809552L150,6.640136434809552L151,6.640136434809552L152,6.640136434809552L153,6.640136434809552L154,6.640136434809552L155,6.640136434809552L156,6.640136434809552L157,6.640136434809552L158,6.640136434809552L159,6.640136434809552L160,6.640136434809552L161,6.640136434809552L162,6.640136434809552L163,6.640136434809552L164,6.640136434809552L165,6.640136434809552L166,6.640136434809552L167,6.640136434809552L168,6.640136434809552L169,6.640136434809552L170,6.640136434809552L171,6.640136434809552L172,6.640136434809552L173,6.640136434809552L174,6.640136434809552L175,6.640136434809552L176,6.640136434809552L177,6.640136434809552L178,6.640136434809552L179,6.640136434809552L180,6.640136434809552L181,6.640136434809552L182,6.640136434809552L183,6.640136434809552L184,6.640136434809552L185,6.640136434809552L186,6.640136434809552L187,6.640136434809552L188,6.640136434809552L189,6.640136434809552L190,6.640136434809552L191,6.640136434809552L192,6.640136434809552L193,6.640136434809552L194,6.640136434809552L195,6.640136434809552L196,6.640136434809552L197,6.640136434809552L198,6.640136434809552L199,6.640136434809552L200,6.640136434809552L200.99999999999997,6.640136434809552L202,6.640136434809552L202.99999999999997,6.640136434809552L204,6.640136434809552L204.99999999999997,6.640136434809552L206,6.640136434809552L206.99999999999997,6.640136434809552L208,6.640136434809552L209,6.640136434809552L210,6.640136434809552L211,6.640136434809552L212,6.640136434809552L213,6.640136434809552L214,6.640136434809552L215,6.640136434809552L216,6.640136434809552L217,6.640136434809552L218.00000000000003,6.640136434809552L219,6.640136434809552L220.00000000000003,6.640136434809552L221,6.640136434809552L222.00000000000003,6.640136434809552L223,6.640136434809552L224.00000000000003,6.640136434809552L225,6.640136434809552L225.99999999999997,6.640136434809552L227,6.640136434809552L227.99999999999997,6.640136434809552L229,6.640136434809552L229.99999999999997,6.640136434809552L231,6.640136434809552L231.99999999999997,6.640136434809552L233,6.640136434809552L234,6.640136434809552L235,6.640136434809552L236,6.640136434809552L237,6.640136434809552L238,6.640136434809552L239,6.640136434809552L240,6.640136434809552L241,6.640136434809552L242,6.640136434809552L243.00000000000003,6.640136434809552L244,6.640136434809552L245.00000000000003,6.640136434809552L246,6.640136434809552L247.00000000000003,6.640136434809552L248,6.640136434809552L249.00000000000003,6.640136434809552L250,6.640136434809552L250.99999999999997,6.640136434809552L252,6.640136434809552L252.99999999999997,6.640136434809552L254,6.640136434809552L254.99999999999997,6.640136434809552L256,6.640136434809552L257,6.640136434809552L258,6.640136434809552L259,6.640136434809552L260,6.640136434809552L261,6.640136434809552L262,6.640136434809552L263,6.640136434809552L264,6.640136434809552L265,6.640136434809552L266,6.640136434809552L267,6.640136434809552L268,6.640136434809552L269,6.640136434809552L270,6.640136434809552L271,6.640136434809552L272,6.640136434809552L273,6.640136434809552L274,6.640136434809552L275,6.640136434809552L276,6.640136434809552L277,6.640136434809552L278,6.640136434809552L279,6.640136434809552L280,6.640136434809552L281,6.640136434809552L282,6.640136434809552L283,6.640136434809552L284,6.640136434809552L285,6.640136434809552L286,6.640136434809552L287,6.640136434809552L288,6.640136434809552L289,6.640136434809552L290,6.640136434809552L291,6.640136434809552L292,6.640136434809552L293,6.640136434809552L294,6.640136434809552L295,6.640136434809552L296,6.640136434809552L297,6.640136434809552L298,6.640136434809552L299,6.640136434809552L300,6.640136434809552L301,6.640136434809552L302,6.640136434809552L303,6.640136434809552L304,6.640136434809552L305,6.640136434809552L306,6.640136434809552L307,6.640136434809552L308,6.640136434809552L309,6.640136434809552L310,6.640136434809552L311,6.640136434809552L312,6.640136434809552L313,6.640136434809552L314,6.640136434809552L315,6.640136434809552L316,6.640136434809552L317,6.640136434809552L318,6.640136434809552L319,6.640136434809552L320,6.640136434809552L321,6.640136434809552L322,6.640136434809552L323,6.640136434809552L324,6.640136434809552L325,6.640136434809552L326,6.640136434809552L327,6.640136434809552L328,6.640136434809552L329,6.640136434809552L330,6.640136434809552L331,6.640136434809552L332,6.640136434809552L333,6.640136434809552L334,6.640136434809552L335,6.640136434809552L336,6.640136434809552L337,6.640136434809552L338,6.640136434809552L339,6.640136434809552L340,6.640136434809552L341,6.640136434809552L342,6.640136434809552L343,6.640136434809552L344,6.640136434809552L345,6.640136434809552L346,6.640136434809552L347,6.640136434809552L348,6.640136434809552L349,6.640136434809552L350,6.640136434809552L351,6.640136434809552L352,6.640136434809552L353,6.640136434809552L354,6.640136434809552L355,6.640136434809552L356,6.640136434809552L357,6.640136434809552L358,6.640136434809552L359,6.640136434809552L360,6.640136434809552L361,6.640136434809552L362,6.640136434809552L363,6.640136434809552L364,6.640136434809552L364,300L363,300L362,300L361,300L360,300L359,300L358,300L357,300L356,300L355,300L354,300L353,300L352,300L351,300L350,300L349,300L348,300L347,300L346,300L345,300L344,300L343,300L342,300L341,300L340,300L339,300L338,300L337,300L336,300L335,300L334,300L333,300L332,300L331,300L330,300L329,300L328,300L327,300L326,300L325,300L324,300L323,300L322,300L321,300L320,300L319,300L318,300L317,300L316,300L315,300L314,300L313,300L312,300L311,300L310,300L309,300L308,300L307,300L306,300L305,300L304,300L303,300L302,300L301,300L300,300L299,300L298,300L297,300L296,300L295,300L294,300L293,300L292,300L291,300L290,300L289,300L288,300L287,300L286,300L285,300L284,300L283,300L282,300L281,300L280,300L279,300L278,300L277,300L276,300L275,300L274,300L273,300L272,300L271,300L270,300L269,300L268,300L267,300L266,300L265,300L264,300L263,300L262,300L261,300L260,300L259,300L258,300L257,300L256,300L254.99999999999997,300L254,300L252.99999999999997,300L252,300L250.99999999999997,300L250,300L249.00000000000003,300L248,300L247.00000000000003,300L246,300L245.00000000000003,300L244,300L243.00000000000003,300L242,300L241,300L240,300L239,300L238,300L237,300L236,300L235,300L234,300L233,300L231.99999999999997,300L231,300L229.99999999999997,300L229,300L227.99999999999997,300L227,300L225.99999999999997,300L225,300L224.00000000000003,300L223,300L222.00000000000003,300L221,300L220.00000000000003,300L219,300L218.00000000000003,300L217,300L216,300L215,300L214,300L213,300L212,300L211,300L210,300L209,300L208,300L206.99999999999997,300L206,300L204.99999999999997,300L204,300L202.99999999999997,300L202,300L200.99999999999997,300L200,300L199,300L198,300L197,300L196,300L195,300L194,300L193,300L192,300L191,300L190,300L189,300L188,300L187,300L186,300L185,300L184,300L183,300L182,300L181,300L180,300L179,300L178,300L177,300L176,300L175,300L174,300L173,300L172,300L171,300L170,300L169,300L168,300L167,300L166,300L165,300L164,300L163,300L162,300L161,300L160,300L159,300L158,300L157,300L156,300L155,300L154,300L153,300L152,300L151,300L150,300L149,300L148,300L147,300L146,300L145,300L144,300L143,300L142,300L141,300L140,300L139,300L138,300L137,300L136,300L135,300L134,300L133,300L132,300L131,300L130,300L129,300L128,300L127,300L126,300L125,300L124,300L123,300L122,300L121,300L120,300L119,300L118,300L117,300L115.99999999999999,300L114.99999999999999,300L113.99999999999999,300L112.99999999999999,300L112.00000000000001,300L111.00000000000001,300L110.00000000000001,300L109.00000000000001,300L108,300L107,300L106,300L105,300L104,300L103,300L102,300L101,300L100,300L99,300L98,300L97,300L96,300L95,300L94,300L93,300L92,300L91,300L90,300L89,300L88,300L87,300L86,300L85,300L84,300L83,300L82,300L81,300L80,300L79,300L78,300L77,300L76,300L75,300L74,300L73,300L72,300L71,300L70,300L69,300L68,300L67,300L66,300L65,300L64,300L63,300L62,300L61,300L60,300L59,300L57.99999999999999,300L56.99999999999999,300L56.00000000000001,300L55.00000000000001,300L54,300L53,300L52,300L51,300L50,300L49,300L48,300L47,300L46,300L45,300L44,300L43,300L42,300L41,300L40,300L39,300L38,300L37,300L36,300L35,300L34,300L33,300L32,300L31,300L30,300L28.999999999999996,300L28.000000000000004,300L27,300L26,300L25,300L24,300L23,300L22,300L21,300L20,300L19,300L18,300L17,300L16,300L15,300L14.000000000000002,300L13,300L12,300L11,300L10,300L9,300L8,300L7.000000000000001,300L6,300L5,300L4,300L3,300L2,300L1,300L0,300Z" style="fill: #3fbaed; opacity: 0.5;"></path></g><g class="mark-line role-mark layer_2_marks"><path d="M0,299.9817073170732L1,299.98280600763405L2,299.9828134660762L3,299.98211458094653L4,299.98092967413373L5,299.97938152026904L6,299.9775347522981L7.000000000000001,299.97541899958725L8,299.9730424372456L9,299.97039968235345L10,299.96747635236716L11,299.96425164865093L12,299.9606997662924L13,299.9567906036526L14.000000000000002,299.95249004457105L15,299.94775997783705L16,299.94255814629935L17,299.9368378797482L18,299.9305477416677L19,299.92363110583767L20,299.91602567028025L21,299.90766291086163L22,299.89846747360224L23,299.88835650260586L24,299.87723889901105L25,299.8650145052126L26,299.85157320762744L27,299.83679395038365L28.000000000000004,299.8205436514393L28.999999999999996,299.8026760117356L30,299.78600529347466L31,299.77230025242056L32,299.7603295728499L33,299.74931950064064L34,299.7387820681556L35,299.7284077389046L36,299.71799831600885L37,299.70742501033345L38,299.69660223079114L39,299.68547119853093L40,299.67398970532736L41,299.66212569745875L42,299.64985326932674L43,299.6371501474213L44,299.62399611197156L45,299.6103720031099L46,299.59625909206625L47,299.58163868022604L48,299.5664918403255L49,299.55079924620634L50,299.53454105763825L51,299.5176968392747L52,299.50024550064927L53,299.48216524902443L54,299.4634335499683L55.00000000000001,299.4440270924476L56.00000000000001,299.4239217564242L56.99999999999999,299.40309258168736L57.99999999999999,299.3726844397283L59,299.327370848925L60,299.2705591322045L61,299.20398742758147L62,299.12838437408107L63,299.04385511674116L64,298.95010587610375L65,298.8465731799466L66,298.73249666983224L67,298.6069583460348L68,298.4689017916402L69,298.31713915499694L70,298.1503506245773L71,297.96707904534065L72,297.7657212493619L73,297.5445169929377L74,297.3015359981225L75,297.03466336524514L76,296.7415834882485L77,296.4197625278987L78,296.06642945642835L79,295.6785556679819L80,295.25283314497636L81,294.7856511772515L82,294.27307164680434L83,293.710802915412L84,293.09417238583967L85,292.41809785044137L86,291.67705779509294L87,290.86506089314975L88,289.97561500539837L89,289.0016960998783L90,287.9357176222776L91,286.76950098572786L92,285.49424801062275L93,284.1005163327859L94,282.5781990138173L95,280.91650983203846L96,279.10397600648145L97,277.1284404087897L98,274.9770756457233L99,272.6364127426005L100,270.0923875164369L101,267.3304080834228L102,264.3354472800345L103,261.09216406545215L104,257.58505818267025L105,253.79866244616753L106,249.7177769461347L107,245.3277491555291L108,240.6148033318769L109.00000000000001,235.56642165122065L110.00000000000001,230.1717781266279L111.00000000000001,224.42222448346328L112.00000000000001,218.31182473734717L112.99999999999999,211.83793222244554L113.99999999999999,205.00179925943283L114.99999999999999,197.8092055984495L115.99999999999999,190.27108735375606L117,182.40414357386098L118,174.23139316067721L119,165.78265104007482L120,157.09489024235148L121,148.21244776769316L122,139.18705845590205L123,130.07765180359104L124,120.94992797819361L125,111.87565217415366L126,102.93168800139425L127,94.19878422195471L128,85.76009914553802L129,77.69955697855092L130,70.10003323066157L131,63.04147037839949L132,56.5990032804938L133,50.841133935470985L134,45.82809031938574L135,41.610388296041435L136,38.227694716588154L137,35.708021620477794L138,34.06728200135576L139,33.309214940736L140,33.42566864805604L141,34.39721251145389L142,36.194034871492896L143,38.777072702591084L144,42.09931311163304L145,46.10720450671213L146,50.74211705939693L147,55.94179702592813L148,61.64176679557934L149,67.77663133725315L150,74.28126119673206L151,81.09183164098029L152,88.14670638253818L153,95.38716213880168L154,102.75795683904579L155,110.2077494788325L156,117.68938344445758L157,125.16004768244093L158,132.5813315207537L159,139.91918944061607L160,147.143831841702L161,154.22955702540858L162,161.15453841018223L163,167.90057953695373L164,174.4528478432693L165,180.79959657791005L166,186.9318826659121L167,192.84328686787225L168,198.52964124026536L169,203.9887677135764L170,209.2202305693805L171,214.22510471469099L172,219.00576091453368L173,223.56566854058576L174,227.90921591132584L175,232.04154792301077L176,235.96842038638928L177,239.69607027738846L178,243.23110096810655L179,246.5803814155337L180,249.7509582391149L181,252.74997960549368L182,255.58462985180964L183,258.26207381125164L184,260.78940985079015L185,263.1736306867269L186,265.4215911053526L187,267.539981780796L188,269.53530844789924L189,271.41387575301485L190,273.18177516876545L191,274.8448764191728L192,276.4088219185566L193,277.8790237808728L194,279.2606630055063L195,280.5586904909142L196,281.7778295689699L197,282.92257979050726L198,283.99722172659125L199,285.00582258063076L200,285.9522424338485L200.99999999999997,286.8401409710583L202,287.6729845554064L202.99999999999997,288.4540535399583L204,289.18644972096877L204.99999999999997,289.87310385258814L206,290.51678315583007L206.99999999999997,291.1200987660431L208,291.6855130730767L209,292.21534691695683L210,292.7117866093499L211,293.1768907575224L212,293.6125968730184L213,294.02072775198894L214,294.4029976181175L215,294.76101802247274L216,295.0963034974715L217,295.4102769645164L218.00000000000003,295.7042748968422L219,295.9795522407265L220.00000000000003,296.237287099531L221,296.47858518609155L222.00000000000003,296.7044840497966L223,296.91595708532805L224.00000000000003,297.11391733050124L225,297.2992210609702L225.99999999999997,297.4726711897727L227,297.6350204797995L227.99999999999997,297.78697457729976L229,297.9291948744967L229.99999999999997,298.0623012092874L231,298.1868744098636L231.99999999999997,298.3034586919093L233,298.4125639158271L234,298.51466771121557L235,298.6102174755783L236,298.6996322539866L237,298.78330450615863L238,298.86160176714776L239,298.9348682075672L240,299.0034260990103L241,299.06757719006157L242,299.12760399803534L243.00000000000003,299.1837710213246L244,299.23632587699643L245.00000000000003,299.2855003680307L246,299.3315114843681L247.00000000000003,299.37456234171094L248,299.41484306180445L249.00000000000003,299.4525315977246L250,299.48779450749805L250.99999999999997,299.52078767919534L252,299.5516570104583L252.99999999999997,299.5805390452531L254,299.60756157047746L254.99999999999997,299.6328441748994L256,299.6564987727557L257,299.6786300942039L258,299.6993361446884L259,299.7187086351583L260,299.7368333849594L261,299.75379069911077L262,299.7696557215717L263,299.78449876601053L264,299.798385625489L265,299.8113778623939L266,299.82353307986136L267,299.8349051758655L268,299.84554458106857L269,299.855498481461L270,299.864811026758L271,299.87352352545685L272,299.8816746274025L273,299.8893004946572L274,299.89643496141923L275,299.9031096836877L276,299.90935427932897L277,299.91519645915633L278,299.92066214959743L279,299.9257756074868L280,299.9305595274875L281,299.9350351426131L282,299.9392223182918L283,299.943139640386L284,299.9468044975556L285,299.9502331583256L286,299.95344084319976L287,299.9564417921365L288,299.9592493276852L289,299.96187591406147L290,299.96433321242176L291,299.9666321325819L292,299.968782881407L293,299.9707950080881L294,299.9726774465039L295,299.97443855485625L296,299.97608615275385L297,299.97762755590884L298,299.97906960859893L299,299.98041871404007L300,299.9816808628024L301,299.9828616593974L302,299.98396634715124L303,299.98499983147786L304,299.9859667016518L305,299.9868712511791L306,299.98771749685585L307,299.9885091965994L308,299.9892498661301L309,299.9899427945792L310,299.99059105909055L311,299.99119753848225L312,299.99176492602714L313,299.99229574141066L314,299.99279234191783L315,299.99325693289956L316,299.9936915775644L317,299.9940982061393L318,299.9944786244405L319,299.99483452189133L320,299.99516747902413L321,299.9954789744982L322,299.9957703916658L323,299.99604302471454L324,299.9962980844147L325,299.99653670349534L326,299.99675994167444L327,299.9969687903647L328,299.99716417707606L329,299.99734696953453L330,299.99751797953553L331,299.9976779665488L332,299.997827641091L333,299.99796766788126L334,299.99809866879275L335,299.99822122561454L336,299.9983358826352L337,299.9984431490599L338,299.9985435012717L339,299.99863738494736L340,299.99872521703634L341,299.99880738761254L342,299.9988842616065L343,299.99895618042643L344,299.9990234634738L345,299.9990864095624L346,299.99914529824497L347,299.9992003910549L348,299.99925193266773L349,299.99930015198754L350,299.99934526316395L351,299.9993874665426L352,299.9994269495555L353,299.9994638875529L354,299.99949844458257L355,299.9995307741178L356,299.9995610197393L357,299.999589315773L358,299.9996157878862L359,299.99964055364615L360,299.9996637230415L361,299.9996853989717L362,299.99970567770305L363,299.99972464929704L364,299.9997423980097" style="fill: none; stroke: orange; stroke-width: 2;"></path></g></g><path class="foreground" d="" style="display: none; fill: none;"></path></g></g></g></svg>