<svg class="marks" width="454" height="347" viewBox="0 0 454 347" version="1.1" xmlns="http://www.w3.org/2000/svg" xmlns:xlink="http://www.w3.org/1999/xlink"><rect width="454" height="347" style="fill: white;"></rect><g transform="translate(48,10)"><g class="mark-group role-frame root"><g transform="translate(0,0)"><path class="background" d="M0.5,0.5h400v300h-400Z" style="fill: none; stroke: #ddd;"></path><g><g class="mark-group role-axis"><g transform="translate(0.5,300.5)"><path class="background" d="M0,0h0v0h0Z" style="pointer-events: none; fill: none;"></path><g><g class="mark-rule role-axis-grid" style="pointer-events: none;"><line transform="translate(0,-300)" x2="0" y2="300" style="fill: none; stroke: #ddd; stroke-width: 1; opacity: 1;"></line><line transform="translate(50,-300)" x2="0" y2="300" style="fill: none; stroke: #ddd; stroke-width: 1; opacity: 1;"></line><line transform="translate(100,-300)" x2="0" y2="300" style="fill: none; stroke: #ddd; stroke-width: 1; opacity: 1;"></line><line transform="translate(150,-300)" x2="0" y2="300" style="fill: none; stroke: #ddd; stroke-width: 1; opacity: 1;"></line><line transform="translate(200,-300)" x2="0" y2="300" style="fill: none; stroke: #ddd; stroke-width: 1; opacity: 1;"></line><line transform="translate(250,-300)" x2="0" y2="300" style="fill: none; stroke: #ddd; stroke-width: 1; opacity: 1;"></line><line transform="translate(300,-300)" x2="0" y2="300" style="fill: none; stroke: #ddd; stroke-width: 1; opacity: 1;"></line><line transform="translate(350,-300)" x2="0" y2="300" style="fill: none; stroke: #ddd; stroke-width: 1; opacity: 1;"></line><line transform="translate(400,-300)" x2="0" y2="300" style="fill: none; stroke: #ddd; stroke-width: 1; opacity: 1;"></line></g></g><path class="foreground" d="" style="pointer-events: none; display: none; fill: none;"></path></g></g><g class="mark-group role-axis"><g transform="translate(0.5,0.5)"><path class="background" d="M0,0h0v0h0Z" style="pointer-events: none; fill: none;"></path><g><g class="mark-rule role-axis-grid" style="pointer-events: none;"><line transform="translate(0,300)" x2="400" y2="0" style="fill: none; stroke: #ddd; stroke-width: 1; opacity: 1;"></line><line transform="translate(0,270)" x2="400" y2="0" style="fill: none; stroke: #ddd; stroke-width: 1; opacity: 1;"></line><line transform="translate(0,240)" x2="400" y2="0" style="fill: none; stroke: #ddd; stroke-width: 1; opacity: 1;"></line><line transform="translate(0,210)" x2="400" y2="0" style="fill: none; stroke: #ddd; stroke-width: 1; opacity: 1;"></line><line transform="translate(0,180)" x2="400" y2="0" style="fill: none; stroke: #ddd; stroke-width: 1; opacity: 1;"></line><line transform="translate(0,150)" x2="400" y2="0" style="fill: none; stroke: #ddd; stroke-width: 1; opacity: 1;"></line><line transform="translate(0,120)" x2="400" y2="0" style="fill: none; stroke: #ddd; stroke-width: 1; opacity: 1;"></line><line transform="translate(0,90)" x2="400" y2="0" style="fill: none; stroke: #ddd; stroke-width: 1; opacity: 1;"></line><line transform="translate(0,60)" x2="400" y2="0" style="fill: none; stroke: #ddd; stroke-width: 1; opacity: 1;"></line><line transform="translate(0,30)" x2="400" y2="0" style="fill: none; stroke: #ddd; stroke-width: 1; opacity: 1;"></line><line transform="translate(0,0)" x2="400" y2="0" style="fill: none; stroke: #ddd; stroke-width: 1; opacity: 1;"></line></g></g><path class="foreground" d="" style="pointer-events: none; display: none; fill: none;"></path></g></g><g class="mark-group role-axis"><g transform="translate(0.5,300.5)"><path class="background" d="M0,0h0v0h0Z" style="pointer-events: none; fill: none;"></path><g><g class="mark-rule role-axis-tick" style="pointer-events: none;"><line transform="translate(0,0)" x2="0" y2="5" style="fill: none; stroke: #888; stroke-width: 1; opacity: 1;"></line><line transform="translate(50,0)" x2="0" y2="5" style="fill: none; stroke: #888; stroke-width: 1; opacity: 1;"></line><line transform="translate(100,0)" x2="0" y2="5" style="fill: none; stroke: #888; stroke-width: 1; opacity: 1;"></line><line transform="translate(150,0)" x2="0" y2="5" style="fill: none; stroke: #888; stroke-width: 1; opacity: 1;"></line><line transform="translate(200,0)" x2="0" y2="5" style="fill: none; stroke: #888; stroke-width: 1; opacity: 1;"></line><line transform="translate(250,0)" x2="0" y2="5" style="fill: none; stroke: #888; stroke-width: 1; opacity: 1;"></line><line transform="translate(300,0)" x2="0" y2="5" style="fill: none; stroke: #888; stroke-width: 1; opacity: 1;"></line><line transform="translate(350,0)" x2="0" y2="5" style="fill: none; stroke: #888; stroke-width: 1; opacity: 1;"></line><line transform="translate(400,0)" x2="0" y2="5" style="fill: none; stroke: #888; stroke-width: 1; opacity: 1;"></line></g><g class="mark-text role-axis-label" style="pointer-events: none;"><text text-anchor="start" transform="translate(0,15)" style="font-family: sans-serif; font-size: 10px; fill: #000; opacity: 1;">0</text><text text-anchor="middle" transform="translate(50,15)" style="font-family: sans-serif; font-size: 10px; fill: #000; opacity: 1;">50</text><text text-anchor="middle" transform="translate(100,15)" style="font-family: sans-serif; font-size: 10px; fill: #000; opacity: 1;">100</text><text text-anchor="middle" transform="translate(150,15)" style="font-family: sans-serif; font-size: 10px; fill: #000; opacity: 1;">150</text><text text-anchor="middle" transform="translate(200,15)" style="font-family: sans-serif; font-size: 10px; fill: #000; opacity: 1;">200</text><text text-anchor="middle" transform="translate(250,15)" style="font-family: sans-serif; font-size: 10px; fill: #000; opacity: 1;">250</text><text text-anchor="middle" transform="translate(300,15)" style="font-family: sans-serif; font-size: 10px; fill: #000; opacity: 1;">300</text><text text-anchor="middle" transform="translate(350,15)" style="font-family: sans-serif; font-size: 10px; fill: #000; opacity: 1;">350</text><text text-anchor="end" transform="translate(400,15)" style="font-family: sans-serif; font-size: 10px; fill: #000; opacity: 1;">400</text></g><g class="mark-rule role-axis-domain" style="pointer-events: none;"><line transform="translate(0,0)" x2="400" y2="0" style="fill: none; stroke: #888; stroke-width: 1; opacity: 1;"></line></g><g class="mark-text role-axis-title" style="pointer-events: none;"><text text-anchor="middle" transform="translate(200,30)" style="font-family: sans-serif; font-size: 11px; font-weight: bold; fill: #000; opacity: 1;">days</text></g></g><path class="foreground" d="" style="pointer-events: none; display: none; fill: none;"></path></g></g><g class="mark-group role-axis"><g transform="translate(0.5,0.5)"><path class="background" d="M0,0h0v0h0Z" style="pointer-events: none; fill: none;"></path><g><g class="mark-rule role-axis-tick" style="pointer-events: none;"><line transform="translate(0,300)" x2="-5" y2="0" style="fill: none; stroke: #888; stroke-width: 1; opacity: 1;"></line><line transform="translate(0,270)" x2="-5" y2="0" style="fill: none; stroke: #888; stroke-width: 1; opacity: 1;"></line><line transform="translate(0,240)" x2="-5" y2="0" style="fill: none; stroke: #888; stroke-width: 1; opacity: 1;"></line><line transform="translate(0,210)" x2="-5" y2="0" style="fill: none; stroke: #888; stroke-width: 1; opacity: 1;"></line><line transform="translate(0,180)" x2="-5" y2="0" style="fill: none; stroke: #888; stroke-width: 1; opacity: 1;"></line><line transform="translate(0,150)" x2="-5" y2="0" style="fill: none; stroke: #888; stroke-width: 1; opacity: 1;"></line><line transform="translate(0,120)" x2="-5" y2="0" style="fill: none; stroke: #888; stroke-width: 1; opacity: 1;"></line><line transform="translate(0,90)" x2="-5" y2="0" style="fill: none; stroke: #888; stroke-width: 1; opacity: 1;"></line><line transform="translate(0,60)" x2="-5" y2="0" style="fill: none; stroke: #888; stroke-width: 1; opacity: 1;"></line><line transform="translate(0,30)" x2="-5" y2="0" style="fill: none; stroke: #888; stroke-width: 1; opacity: 1;"></line><line transform="translate(0,0)" x2="-5" y2="0" style="fill: none; stroke: #888; stroke-width: 1; opacity: 1;"></line></g><g class="mark-text role-axis-label" style="pointer-events: none;"><text text-anchor="end" transform="translate(-7,303)" style="font-family: sans-serif; font-size: 10px; fill: #000; opacity: 1;">0%</text><text text-anchor="end" transform="translate(-7,273)" style="font-family: sans-serif; font-size: 10px; fill: #000; opacity: 1;">2%</text><text text-anchor="end" transform="translate(-7,243)" style="font-family: sans-serif; font-size: 10px; fill: #000; opacity: 1;">4%</text><text text-anchor="end" transform="translate(-7,213)" style="font-family: sans-serif; font-size: 10px; fill: #000; opacity: 1;">6%</text><text text-anchor="end" transform="translate(-7,183.00000000000003)" style="font-family: sans-serif; font-size: 10px; fill: #000; opacity: 1;">8%</text><text text-anchor="end" transform="translate(-7,153)" style="font-family: sans-serif; font-size: 10px; fill: #000; opacity: 1;">10%</text><text text-anchor="end" transform="translate(-7,123)" style="font-family: sans-serif; font-size: 10px; fill: #000; opacity: 1;">12%</text><text text-anchor="end" transform="translate(-7,92.99999999999999)" style="font-family: sans-serif; font-size: 10px; fill: #000; opacity: 1;">14%</text><text text-anchor="end" transform="translate(-7,63.00000000000002)" style="font-family: sans-serif; font-size: 10px; fill: #000; opacity: 1;">16%</text><text text-anchor="end" transform="translate(-7,33.00000000000003)" style="font-family: sans-serif; font-size: 10px; fill: #000; opacity: 1;">18%</text><text text-anchor="end" transform="translate(-7,3)" style="font-family: sans-serif; font-size: 10px; fill: #000; opacity: 1;">20%</text></g><g class="mark-rule role-axis-domain" style="pointer-events: none;"><line transform="translate(0,300)" x2="0" y2="-300" style="fill: none; stroke: #888; stroke-width: 1; opacity: 1;"></line></g><g class="mark-text role-axis-title" style="pointer-events: none;"><text text-anchor="middle" transform="translate(-31.0146484375,150) rotate(-90) translate(0,-2)" style="font-family: sans-serif; font-size: 11px; font-weight: bold; fill: #000; opacity: 1;">share_of_pop</text></g></g><path class="foreground" d="" style="pointer-events: none; display: none; fill: none;"></path></g></g><g class="mark-area role-mark layer_0_marks"><path d="M0,300L1,300L2,300L3,300L4,300L5,300L6,300L7.000000000000001,300L8,300L9,300L10,300L11,300L12,300L13,300L14.000000000000002,300L15,300L16,300L17,300L18,300L19,300L20,300L21,300L22,300L23,300L24,300L25,300L26,300L27,300L28.000000000000004,300L28.999999999999996,300L30,6.5359827388151714L31,6.5359827388151714L32,6.5359827388151714L33,6.5359827388151714L34,6.5359827388151714L35,6.5359827388151714L36,6.5359827388151714L37,6.5359827388151714L38,6.5359827388151714L39,6.5359827388151714L40,6.5359827388151714L41,6.5359827388151714L42,6.5359827388151714L43,6.5359827388151714L44,6.5359827388151714L45,6.5359827388151714L46,6.5359827388151714L47,6.5359827388151714L48,6.5359827388151714L49,6.5359827388151714L50,6.5359827388151714L51,6.5359827388151714L52,6.5359827388151714L53,6.5359827388151714L54,6.5359827388151714L55.00000000000001,6.5359827388151714L56.00000000000001,6.5359827388151714L56.99999999999999,6.5359827388151714L57.99999999999999,6.5359827388151714L59,300L60,300L61,300L62,300L63,300L64,300L65,300L66,300L67,300L68,300L69,300L70,300L71,300L72,300L73,300L74,300L75,300L76,300L77,300L78,300L79,300L80,300L81,300L82,300L83,300L84,300L85,300L86,300L87,300L88,300L89,300L90,300L91,300L92,300L93,300L94,300L95,300L96,300L97,300L98,300L99,300L100,300L101,300L102,300L103,300L104,300L105,300L106,300L107,300L108,300L109.00000000000001,300L110.00000000000001,300L111.00000000000001,300L112.00000000000001,300L112.99999999999999,300L113.99999999999999,300L114.99999999999999,300L115.99999999999999,300L117,300L118,300L119,300L120,300L121,300L122,300L123,300L124,300L125,300L126,300L127,300L128,300L129,300L130,300L131,300L132,300L133,300L134,300L135,300L136,300L137,300L138,300L139,300L140,300L141,300L142,300L143,300L144,300L145,300L146,300L147,300L148,300L149,300L150,300L151,300L152,300L153,300L154,300L155,300L156,300L157,300L158,300L159,300L160,300L161,300L162,300L163,300L164,300L165,300L166,300L167,300L168,300L169,300L170,300L171,300L172,300L173,300L174,300L175,300L176,300L177,300L178,300L179,300L180,300L181,300L182,300L183,300L184,300L185,300L186,300L187,300L188,300L189,300L190,300L191,300L192,300L193,300L194,300L195,300L196,300L197,300L198,300L199,300L200,300L200.99999999999997,300L202,300L202.99999999999997,300L204,300L204.99999999999997,300L206,300L206.99999999999997,300L208,300L209,300L210,300L211,300L212,300L213,300L214,300L215,300L216,300L217,300L218.00000000000003,300L219,300L220.00000000000003,300L221,300L222.00000000000003,300L223,300L224.00000000000003,300L225,300L225.99999999999997,300L227,300L227.99999999999997,300L229,300L229.99999999999997,300L231,300L231.99999999999997,300L233,300L234,300L235,300L236,300L237,300L238,300L239,300L240,300L241,300L242,300L243.00000000000003,300L244,300L245.00000000000003,300L246,300L247.00000000000003,300L248,300L249.00000000000003,300L250,300L250.99999999999997,300L252,300L252.99999999999997,300L254,300L254.99999999999997,300L256,300L257,300L258,300L259,300L260,300L261,300L262,300L263,300L264,300L265,300L266,300L267,300L268,300L269,300L270,300L271,300L272,300L273,300L274,300L275,300L276,300L277,300L278,300L279,300L280,300L281,300L282,300L283,300L284,300L285,300L286,300L287,300L288,300L289,300L290,300L291,300L292,300L293,300L294,300L295,300L296,300L297,300L298,300L299,300L300,300L301,300L302,300L303,300L304,300L305,300L306,300L307,300L308,300L309,300L310,300L311,300L312,300L313,300L314,300L315,300L316,300L317,300L318,300L319,300L320,300L321,300L322,300L323,300L324,300L325,300L326,300L327,300L328,300L329,300L330,300L331,300L332,300L333,300L334,300L335,300L336,300L337,300L338,300L339,300L340,300L341,300L342,300L343,300L344,300L345,300L346,300L347,300L348,300L349,300L350,300L351,300L352,300L353,300L354,300L355,300L356,300L357,300L358,300L359,300L360,300L361,300L362,300L363,300L364,300L364,300L363,300L362,300L361,300L360,300L359,300L358,300L357,300L356,300L355,300L354,300L353,300L352,300L351,300L350,300L349,300L348,300L347,300L346,300L345,300L344,300L343,300L342,300L341,300L340,300L339,300L338,300L337,300L336,300L335,300L334,300L333,300L332,300L331,300L330,300L329,300L328,300L327,300L326,300L325,300L324,300L323,300L322,300L321,300L320,300L319,300L318,300L317,300L316,300L315,300L314,300L313,300L312,300L311,300L310,300L309,300L308,300L307,300L306,300L305,300L304,300L303,300L302,300L301,300L300,300L299,300L298,300L297,300L296,300L295,300L294,300L293,300L292,300L291,300L290,300L289,300L288,300L287,300L286,300L285,300L284,300L283,300L282,300L281,300L280,300L279,300L278,300L277,300L276,300L275,300L274,300L273,300L272,300L271,300L270,300L269,300L268,300L267,300L266,300L265,300L264,300L263,300L262,300L261,300L260,300L259,300L258,300L257,300L256,300L254.99999999999997,300L254,300L252.99999999999997,300L252,300L250.99999999999997,300L250,300L249.00000000000003,300L248,300L247.00000000000003,300L246,300L245.00000000000003,300L244,300L243.00000000000003,300L242,300L241,300L240,300L239,300L238,300L237,300L236,300L235,300L234,300L233,300L231.99999999999997,300L231,300L229.99999999999997,300L229,300L227.99999999999997,300L227,300L225.99999999999997,300L225,300L224.00000000000003,300L223,300L222.00000000000003,300L221,300L220.00000000000003,300L219,300L218.00000000000003,300L217,300L216,300L215,300L214,300L213,300L212,300L211,300L210,300L209,300L208,300L206.99999999999997,300L206,300L204.99999999999997,300L204,300L202.99999999999997,300L202,300L200.99999999999997,300L200,300L199,300L198,300L197,300L196,300L195,300L194,300L193,300L192,300L191,300L190,300L189,300L188,300L187,300L186,300L185,300L184,300L183,300L182,300L181,300L180,300L179,300L178,300L177,300L176,300L175,300L174,300L173,300L172,300L171,300L170,300L169,300L168,300L167,300L166,300L165,300L164,300L163,300L162,300L161,300L160,300L159,300L158,300L157,300L156,300L155,300L154,300L153,300L152,300L151,300L150,300L149,300L148,300L147,300L146,300L145,300L144,300L143,300L142,300L141,300L140,300L139,300L138,300L137,300L136,300L135,300L134,300L133,300L132,300L131,300L130,300L129,300L128,300L127,300L126,300L125,300L124,300L123,300L122,300L121,300L120,300L119,300L118,300L117,300L115.99999999999999,300L114.99999999999999,300L113.99999999999999,300L112.99999999999999,300L112.00000000000001,300L111.00000000000001,300L110.00000000000001,300L109.00000000000001,300L108,300L107,300L106,300L105,300L104,300L103,300L102,300L101,300L100,300L99,300L98,300L97,300L96,300L95,300L94,300L93,300L92,300L91,300L90,300L89,300L88,300L87,300L86,300L85,300L84,300L83,300L82,300L81,300L80,300L79,300L78,300L77,300L76,300L75,300L74,300L73,300L72,300L71,300L70,300L69,300L68,300L67,300L66,300L65,300L64,300L63,300L62,300L61,300L60,300L59,300L57.99999999999999,300L56.99999999999999,300L56.00000000000001,300L55.00000000000001,300L54,300L53,300L52,300L51,300L50,300L49,300L48,300L47,300L46,300L45,300L44,300L43,300L42,300L41,300L40,300L39,300L38,300L37,300L36,300L35,300L34,300L33,300L32,300L31,300L30,300L28.999999999999996,300L28.000000000000004,300L27,300L26,300L25,300L24,300L23,300L22,300L21,300L20,300L19,300L18,300L17,300L16,300L15,300L14.000000000000002,300L13,300L12,300L11,300L10,300L9,300L8,300L7.000000000000001,300L6,300L5,300L4,300L3,300L2,300L1,300L0,300Z" style="fill: #3ab0ee; opacity: 0.5;"></path></g><g class="mark-area role-mark layer_1_marks"><path d="M0,300L1,300L2,300L3,300L4,300L5,300L6,300L7.000000000000001,300L8,300L9,300L10,300L11,300L12,300L13,300L14.000000000000002,300L15,300L16,300L17,300L18,300L19,300L20,300L21,300L22,300L23,300L24,300L25,300L26,300L27,300L28.000000000000004,300L28.999999999999996,300L30,300L31,300L32,300L33,300L34,300L35,300L36,300L37,300L38,300L39,300L40,300L41,300L42,300L43,300L44,300L45,300L46,300L47,300L48,300L49,300L50,300L51,300L52,300L53,300L54,300L55.00000000000001,300L56.00000000000001,300L56.99999999999999,300L57.99999999999999,6.5359827388151714L59,6.5359827388151714L60,6.5359827388151714L61,6.5359827388151714L62,6.5359827388151714L63,6.5359827388151714L64,6.5359827388151714L65,6.5359827388151714L66,6.5359827388151714L67,6.5359827388151714L68,6.5359827388151714L69,6.5359827388151714L70,6.5359827388151714L71,6.5359827388151714L72,6.5359827388151714L73,6.5359827388151714L74,6.5359827388151714L75,6.5359827388151714L76,6.5359827388151714L77,6.5359827388151714L78,6.5359827388151714L79,6.5359827388151714L80,6.5359827388151714L81,6.5359827388151714L82,6.5359827388151714L83,6.5359827388151714L84,6.5359827388151714L85,6.5359827388151714L86,6.5359827388151714L87,6.5359827388151714L88,6.5359827388151714L89,6.5359827388151714L90,6.5359827388151714L91,6.5359827388151714L92,6.5359827388151714L93,6.5359827388151714L94,6.5359827388151714L95,6.5359827388151714L96,6.5359827388151714L97,6.5359827388151714L98,6.5359827388151714L99,6.5359827388151714L100,6.5359827388151714L101,6.5359827388151714L102,6.5359827388151714L103,6.5359827388151714L104,6.5359827388151714L105,6.5359827388151714L106,6.5359827388151714L107,6.5359827388151714L108,6.5359827388151714L109.00000000000001,6.5359827388151714L110.00000000000001,6.5359827388151714L111.00000000000001,6.5359827388151714L112.00000000000001,6.5359827388151714L112.99999999999999,6.5359827388151714L113.99999999999999,6.5359827388151714L114.99999999999999,6.5359827388151714L115.99999999999999,6.5359827388151714L117,6.5359827388151714L118,6.5359827388151714L119,6.5359827388151714L120,6.5359827388151714L121,6.5359827388151714L122,6.5359827388151714L123,6.5359827388151714L124,6.5359827388151714L125,6.5359827388151714L126,6.5359827388151714L127,6.5359827388151714L128,6.5359827388151714L129,6.5359827388151714L130,6.5359827388151714L131,6.5359827388151714L132,6.5359827388151714L133,6.5359827388151714L134,6.5359827388151714L135,6.5359827388151714L136,6.5359827388151714L137,6.5359827388151714L138,6.5359827388151714L139,6.5359827388151714L140,6.5359827388151714L141,6.5359827388151714L142,6.5359827388151714L143,6.5359827388151714L144,6.5359827388151714L145,6.5359827388151714L146,6.5359827388151714L147,6.5359827388151714L148,6.5359827388151714L149,6.5359827388151714L150,6.5359827388151714L151,6.5359827388151714L152,6.5359827388151714L153,6.5359827388151714L154,6.5359827388151714L155,6.5359827388151714L156,6.5359827388151714L157,6.5359827388151714L158,6.5359827388151714L159,6.5359827388151714L160,6.5359827388151714L161,6.5359827388151714L162,6.5359827388151714L163,6.5359827388151714L164,6.5359827388151714L165,6.5359827388151714L166,6.5359827388151714L167,6.5359827388151714L168,6.5359827388151714L169,6.5359827388151714L170,6.5359827388151714L171,6.5359827388151714L172,6.5359827388151714L173,6.5359827388151714L174,6.5359827388151714L175,6.5359827388151714L176,6.5359827388151714L177,6.5359827388151714L178,6.5359827388151714L179,6.5359827388151714L180,6.5359827388151714L181,6.5359827388151714L182,6.5359827388151714L183,6.5359827388151714L184,6.5359827388151714L185,6.5359827388151714L186,6.5359827388151714L187,6.5359827388151714L188,6.5359827388151714L189,6.5359827388151714L190,6.5359827388151714L191,6.5359827388151714L192,6.5359827388151714L193,6.5359827388151714L194,6.5359827388151714L195,6.5359827388151714L196,6.5359827388151714L197,6.5359827388151714L198,6.5359827388151714L199,6.5359827388151714L200,6.5359827388151714L200.99999999999997,6.5359827388151714L202,6.5359827388151714L202.99999999999997,6.5359827388151714L204,6.5359827388151714L204.99999999999997,6.5359827388151714L206,6.5359827388151714L206.99999999999997,6.5359827388151714L208,6.5359827388151714L209,6.5359827388151714L210,6.5359827388151714L211,6.5359827388151714L212,6.5359827388151714L213,6.5359827388151714L214,6.5359827388151714L215,6.5359827388151714L216,6.5359827388151714L217,6.5359827388151714L218.00000000000003,6.5359827388151714L219,6.5359827388151714L220.00000000000003,6.5359827388151714L221,6.5359827388151714L222.00000000000003,6.5359827388151714L223,6.5359827388151714L224.00000000000003,6.5359827388151714L225,6.5359827388151714L225.99999999999997,6.5359827388151714L227,6.5359827388151714L227.99999999999997,6.5359827388151714L229,6.5359827388151714L229.99999999999997,6.5359827388151714L231,6.5359827388151714L231.99999999999997,6.5359827388151714L233,6.5359827388151714L234,6.5359827388151714L235,6.5359827388151714L236,6.5359827388151714L237,6.5359827388151714L238,6.5359827388151714L239,6.5359827388151714L240,6.5359827388151714L241,6.5359827388151714L242,6.5359827388151714L243.00000000000003,6.5359827388151714L244,6.5359827388151714L245.00000000000003,6.5359827388151714L246,6.5359827388151714L247.00000000000003,6.5359827388151714L248,6.5359827388151714L249.00000000000003,6.5359827388151714L250,6.5359827388151714L250.99999999999997,6.5359827388151714L252,6.5359827388151714L252.99999999999997,6.5359827388151714L254,6.5359827388151714L254.99999999999997,6.5359827388151714L256,6.5359827388151714L257,6.5359827388151714L258,6.5359827388151714L259,6.5359827388151714L260,6.5359827388151714L261,6.5359827388151714L262,6.5359827388151714L263,6.5359827388151714L264,6.5359827388151714L265,6.5359827388151714L266,6.5359827388151714L267,6.5359827388151714L268,6.5359827388151714L269,6.5359827388151714L270,6.5359827388151714L271,6.5359827388151714L272,6.5359827388151714L273,6.5359827388151714L274,6.5359827388151714L275,6.5359827388151714L276,6.5359827388151714L277,6.5359827388151714L278,6.5359827388151714L279,6.5359827388151714L280,6.5359827388151714L281,6.5359827388151714L282,6.5359827388151714L283,6.5359827388151714L284,6.5359827388151714L285,6.5359827388151714L286,6.5359827388151714L287,6.5359827388151714L288,6.5359827388151714L289,6.5359827388151714L290,6.5359827388151714L291,6.5359827388151714L292,6.5359827388151714L293,6.5359827388151714L294,6.5359827388151714L295,6.5359827388151714L296,6.5359827388151714L297,6.5359827388151714L298,6.5359827388151714L299,6.5359827388151714L300,6.5359827388151714L301,6.5359827388151714L302,6.5359827388151714L303,6.5359827388151714L304,6.5359827388151714L305,6.5359827388151714L306,6.5359827388151714L307,6.5359827388151714L308,6.5359827388151714L309,6.5359827388151714L310,6.5359827388151714L311,6.5359827388151714L312,6.5359827388151714L313,6.5359827388151714L314,6.5359827388151714L315,6.5359827388151714L316,6.5359827388151714L317,6.5359827388151714L318,6.5359827388151714L319,6.5359827388151714L320,6.5359827388151714L321,6.5359827388151714L322,6.5359827388151714L323,6.5359827388151714L324,6.5359827388151714L325,6.5359827388151714L326,6.5359827388151714L327,6.5359827388151714L328,6.5359827388151714L329,6.5359827388151714L330,6.5359827388151714L331,6.5359827388151714L332,6.5359827388151714L333,6.5359827388151714L334,6.5359827388151714L335,6.5359827388151714L336,6.5359827388151714L337,6.5359827388151714L338,6.5359827388151714L339,6.5359827388151714L340,6.5359827388151714L341,6.5359827388151714L342,6.5359827388151714L343,6.5359827388151714L344,6.5359827388151714L345,6.5359827388151714L346,6.5359827388151714L347,6.5359827388151714L348,6.5359827388151714L349,6.5359827388151714L350,6.5359827388151714L351,6.5359827388151714L352,6.5359827388151714L353,6.5359827388151714L354,6.5359827388151714L355,6.5359827388151714L356,6.5359827388151714L357,6.5359827388151714L358,6.5359827388151714L359,6.5359827388151714L360,6.5359827388151714L361,6.5359827388151714L362,6.5359827388151714L363,6.5359827388151714L364,6.5359827388151714L364,300L363,300L362,300L361,300L360,300L359,300L358,300L357,300L356,300L355,300L354,300L353,300L352,300L351,300L350,300L349,300L348,300L347,300L346,300L345,300L344,300L343,300L342,300L341,300L340,300L339,300L338,300L337,300L336,300L335,300L334,300L333,300L332,300L331,300L330,300L329,300L328,300L327,300L326,300L325,300L324,300L323,300L322,300L321,300L320,300L319,300L318,300L317,300L316,300L315,300L314,300L313,300L312,300L311,300L310,300L309,300L308,300L307,300L306,300L305,300L304,300L303,300L302,300L301,300L300,300L299,300L298,300L297,300L296,300L295,300L294,300L293,300L292,300L291,300L290,300L289,300L288,300L287,300L286,300L285,300L284,300L283,300L282,300L281,300L280,300L279,300L278,300L277,300L276,300L275,300L274,300L273,300L272,300L271,300L270,300L269,300L268,300L267,300L266,300L265,300L264,300L263,300L262,300L261,300L260,300L259,300L258,300L257,300L256,300L254.99999999999997,300L254,300L252.99999999999997,300L252,300L250.99999999999997,300L250,300L249.00000000000003,300L248,300L247.00000000000003,300L246,300L245.00000000000003,300L244,300L243.00000000000003,300L242,300L241,300L240,300L239,300L238,300L237,300L236,300L235,300L234,300L233,300L231.99999999999997,300L231,300L229.99999999999997,300L229,300L227.99999999999997,300L227,300L225.99999999999997,300L225,300L224.00000000000003,300L223,300L222.00000000000003,300L221,300L220.00000000000003,300L219,300L218.00000000000003,300L217,300L216,300L215,300L214,300L213,300L212,300L211,300L210,300L209,300L208,300L206.99999999999997,300L206,300L204.99999999999997,300L204,300L202.99999999999997,300L202,300L200.99999999999997,300L200,300L199,300L198,300L197,300L196,300L195,300L194,300L193,300L192,300L191,300L190,300L189,300L188,300L187,300L186,300L185,300L184,300L183,300L182,300L181,300L180,300L179,300L178,300L177,300L176,300L175,300L174,300L173,300L172,300L171,300L170,300L169,300L168,300L167,300L166,300L165,300L164,300L163,300L162,300L161,300L160,300L159,300L158,300L157,300L156,300L155,300L154,300L153,300L152,300L151,300L150,300L149,300L148,300L147,300L146,300L145,300L144,300L143,300L142,300L141,300L140,300L139,300L138,300L137,300L136,300L135,300L134,300L133,300L132,300L131,300L130,300L129,300L128,300L127,300L126,300L125,300L124,300L123,300L122,300L121,300L120,300L119,300L118,300L117,300L115.99999999999999,300L114.99999999999999,300L113.99999999999999,300L112.99999999999999,300L112.00000000000001,300L111.00000000000001,300L110.00000000000001,300L109.00000000000001,300L108,300L107,300L106,300L105,300L104,300L103,300L102,300L101,300L100,300L99,300L98,300L97,300L96,300L95,300L94,300L93,300L92,300L91,300L90,300L89,300L88,300L87,300L86,300L85,300L84,300L83,300L82,300L81,300L80,300L79,300L78,300L77,300L76,300L75,300L74,300L73,300L72,300L71,300L70,300L69,300L68,300L67,300L66,300L65,300L64,300L63,300L62,300L61,300L60,300L59,300L57.99999999999999,300L56.99999999999999,300L56.00000000000001,300L55.00000000000001,300L54,300L53,300L52,300L51,300L50,300L49,300L48,300L47,300L46,300L45,300L44,300L43,300L42,300L41,300L40,300L39,300L38,300L37,300L36,300L35,300L34,300L33,300L32,300L31,300L30,300L28.999999999999996,300L28.000000000000004,300L27,300L26,300L25,300L24,300L23,300L22,300L21,300L20,300L19,300L18,300L17,300L16,300L15,300L14.000000000000002,300L13,300L12,300L11,300L10,300L9,300L8,300L7.000000000000001,300L6,300L5,300L4,300L3,300L2,300L1,300L0,300Z" style="fill: #3fbaed; opacity: 0.5;"></path></g><g class="mark-line role-mark layer_2_marks"><path d="M0,299.9817073170732L1,299.98280600763405L2,299.9828134660762L3,299.98211458094653L4,299.98092967413373L5,299.97938152026904L6,299.9775347522981L7.000000000000001,299.97541899958725L8,299.9730424372456L9,299.97039968235345L10,299.96747635236716L11,299.96425164865093L12,299.9606997662924L13,299.9567906036526L14.000000000000002,299.95249004457105L15,299.94775997783705L16,299.94255814629935L17,299.9368378797482L18,299.9305477416677L19,299.92363110583767L20,299.91602567028025L21,299.90766291086163L22,299.89846747360224L23,299.88835650260586L24,299.87723889901105L25,299.8650145052126L26,299.85157320762744L27,299.83679395038365L28.000000000000004,299.8205436514393L28.999999999999996,299.8026760117356L30,299.7845197355306L31,299.7668925654129L32,299.7491282530693L33,299.7307917046989L34,299.71158568187167L35,299.69129413256655L36,299.6697477111296L37,299.64680272440586L38,299.62232820595517L39,299.59619788347175L40,299.56828512268953L41,299.5384596408745L42,299.5065852863725L43,299.4725184471158L44,299.4361068239831L45,299.39718840805546L46,299.3555905632374L47,299.3111291534765L48,299.263607676638L49,299.21281638086407L50,299.1585313475377L51,299.1005135299457L52,299.0385077396947L53,298.9722415746835L54,298.9014242834498L55.00000000000001,298.82574556128156L56.00000000000001,298.7448742737999L56.99999999999999,298.65845710387794L57.99999999999999,298.55610075714435L59,298.43097652410273L60,298.2860365496443L61,298.1223927225081L62,297.94001264335697L63,297.73812405969585L64,297.51544706208693L65,297.27032435978595L66,297.0007909518351L67,296.7046077052977L68,296.37927290516626L69,296.02202040750336L70,295.6298092383441L71,295.19930756599695L72,294.72687276264134L73,294.20852858227266L74,293.6399400918418L75,293.0163867820332L76,292.3327341842406L77,291.58340429089213L78,290.76234509464933L79,289.86299961572473L80,288.8782748693228L81,287.8005113343247L82,286.6214536192747L83,285.3322231831167L84,283.9232941571712L85,282.3844735327701L86,280.70488722662697L87,278.8729738134156L88,276.87648802078803L89,274.70251641285535L90,272.33750803796664L91,269.7673231759287L92,266.97730367465863L93,263.9523686972275L94,260.6771399814228L95,257.136100911936L96,253.31379377844567L97,249.19505949097532L98,244.76532368842268L99,240.01093254148654L100,234.9195405473589L101,229.48055117042009L102,223.68560923706545L103,217.52914149520663L104,211.00893867778817L105,204.1267687823938L106,196.88900716743717L107,189.30726460984562L108,181.39898989042763L109.00000000000001,173.1880190793936L110.00000000000001,164.70503998105934L111.00000000000001,155.9879380410991L112.00000000000001,147.08198173034873L112.99999999999999,138.03983098082637L113.99999999999999,128.9213063343716L114.99999999999999,119.79293221303108L115.99999999999999,110.72719863782812L117,101.80156106665463L118,93.09719562473953L119,84.69749535676918L120,76.68640434444252L121,69.14658811541233L122,62.15754314407008L123,55.79372568552311L124,50.122740090912245L125,45.20372056840838L126,41.085924637811054L127,37.80763457033213L128,35.39539468656683L129,33.86361259858365L130,33.21452976255929L131,33.43854757231233L132,34.51487808938316L133,36.412474541872996L134,39.09118670274786L135,42.50308051237667L136,46.59385975721631L137,51.30432982585027L138,56.57184885324587L139,62.33171911044369L140,68.5184804383459L141,75.067077048373L142,81.91387841924318L143,88.99754375724333L144,96.25972716950496L145,103.64562709580646L146,111.10438856264841L147,118.58937048372083L148,126.05829263539754L149,133.47327824001147L150,140.8008084770805L151,148.01160490515693L152,155.0804548991385L153,161.98599395712554L154,168.71045725144705L155,175.23941120896544L156,181.56147429938605L157,187.66803465644907L158,193.5529707041697L159,199.212379639675L160,204.6443174524409L161,209.8485531426886L162,214.82633893700077L163,219.58019757892393L164,224.11372718477512L165,228.43142368638337L166,232.53852051853016L167,236.44084493486454L168,240.14469013819982L169,243.65670227647666L170,246.98378127270357L171,250.13299441562395L172,253.1115016287979L173,255.926491351664L174,258.5851260005818L175,261.09449602557856L176,263.4615816352491L177,265.6932213245205L178,267.79608640509406L179,269.77666080418606L180,271.6412254621337L181,273.39584672232513L182,275.0463681669296L183,276.5984054084953L184,278.0573434002974L185,279.4283358772068L186,280.7163065837607L187,281.9259519871072L188,283.06174520970916L189,284.12794095028386L190,285.12858119165645L191,286.0675015212275L192,286.94833791384366L193,287.7745338482577L194,288.54934764729234L195,289.2758599485223L196,289.9569812269638L197,290.5954593041198L198,291.19388678895587L199,291.75470840615725L200,292.2802281754904L200.99999999999997,292.7726164134207L202,293.2339165344451L202.99999999999997,293.6660516350093L204,294.07083084749536L204.99999999999997,294.4499554556962L206,294.80502476650594L206.99999999999997,295.13754173534585L208,295.44891834517114L209,295.7404807408273L210,296.0134741221025L211,296.2690674001L212,296.50835762257367L213,296.7323741746661L214,296.9420827620991L215,297.1383891843112L216,297.3221429053485L217,297.49414043050996L218.00000000000003,297.6551284968471L219,297.8058070856358L220.00000000000003,297.94683226488957L221,298.07881886988076L222.00000000000003,298.2023430294911L223,298.31794454602664L224.00000000000003,298.4261291359283L225,298.5273705385741L225.99999999999997,298.62211250012484L227,298.7107706391091L227.99999999999997,298.79373420017833L229,298.87136770219473L229.99999999999997,298.94401248654935L231,299.01198817133815L231.99999999999997,299.0755940167612L233,299.1351102068521L234,299.19079905239096L235,299.2429061196084L236,299.2916612890502L237,299.33727974874193L238,299.37996292557006L239,299.419899358584L240,299.4572655177199L241,299.4922265712497L242,299.52493710507434L243.00000000000003,299.55554179680183L244,299.5841760473803L245.00000000000003,299.61096657289823L246,299.6360319590076L247.00000000000003,299.6594831802851L248,299.68142408670576L249.00000000000003,299.7019518592758L250,299.72115743674846L250.99999999999997,299.73912591522935L252,299.75593692237044L252.99999999999997,299.7716649677469L254,299.78637977091404L254.99999999999997,299.8001465685501L256,299.8130264020039L257,299.8250763864853L258,299.83634996305904L259,299.84689713453156L260,299.85676468625115L261,299.86599639278046L262,299.8746332113372L263,299.88271346284597L264,299.8902730013894L265,299.89734537279674L266,299.90396196306415L267,299.910152137254L268,299.9159433694815L269,299.9213613645586L270,299.92643017182746L271,299.9311722916834L272,299.9356087752562L273,299.9397593176855L274,299.9436423454031L275,299.9472750978039L276,299.9506737036676L277,299.9538532526649L278,299.9568278622663L279,299.95961074034676L280,299.9622142437628L281,299.9646499331611L282,299.96692862426073L283,299.9690604358338L284,299.9710548345996L285,299.9729206772281L286,299.97466624963954L287,299.9762993037741L288,299.9778270919942L289,299.9792563992713L290,299.98059357330055L291,299.9818445526753L292,299.98301489324774L293,299.9841097927916L294,299.98513411407606L295,299.98609240645317L296,299.9869889260555L297,299.9878276546918L298,299.9886123175254L299,299.9893463996145L300,299.9900331613855L301,299.99067565311054L302,299.9912767284515L303,299.9918390571316L304,299.99236513679017L305,299.9928573040741L306,299.99331774501394L307,299.99374850473146L308,299.9941514965223L309,299.99452851035215L310,299.99488122080635L311,299.99521119452663L312,299.9955198971689L313,299.99580869991235L314,299.99607888554914L315,299.99633165418163L316,299.9965681285524L317,299.99678935903086L318,299.9969963282781L319,299.9971899556114L320,299.9973711010874L321,299.9975405693219L322,299.9976991130637L323,299.9978474365377L324,299.9979861985733L325,299.9981160155299L326,299.9982374640351L327,299.9983510835457L328,299.99845737874364L329,299.99855682177787L330,299.9986498543612L331,299.9987368897325L332,299.99881831449215L333,299.998894490319L334,299.99896575557705L335,299.9990324268185L336,299.99909480018937L337,299.99915315274535L338,299.99920774368223L339,299.9992588154873L340,299.999306595016L341,299.99935129450034L342,299.9993931124909L343,299.99943223473906L344,299.99946883502207L345,299.999503075915L346,299.99953510951264L347,299.9995650781052L348,299.9995931148106L349,299.9996193441651L350,299.9996438826774L351,299.9996668393453L352,299.9996883161403L353,299.99970840846055L354,299.99972720555434L355,299.9997447909168L356,299.9997612426606L357,299.9997766338631L358,299.99979103289064L359,299.9998045037026L360,299.9998171061352L361,299.99982889616734L362,299.99983992616956L363,299.9998502451361L364,299.999859898903" style="fill: none; stroke: orange; stroke-width: 2;"></path></g></g><path class="foreground" d="" style="display: none; fill: none;"></path></g></g></g></svg>