<svg class="marks" width="454" height="347" viewBox="0 0 454 347" version="1.1" xmlns="http://www.w3.org/2000/svg" xmlns:xlink="http://www.w3.org/1999/xlink"><rect width="454" height="347" style="fill: white;"></rect><g transform="translate(48,10)"><g class="mark-group role-frame root"><g transform="translate(0,0)"><path class="background" d="M0.5,0.5h400v300h-400Z" style="fill: none; stroke: #ddd;"></path><g><g class="mark-group role-axis"><g transform="translate(0.5,300.5)"><path class="background" d="M0,0h0v0h0Z" style="pointer-events: none; fill: none;"></path><g><g class="mark-rule role-axis-grid" style="pointer-events: none;"><line transform="translate(0,-300)" x2="0" y2="300" style="fill: none; stroke: #ddd; stroke-width: 1; opacity: 1;"></line><line transform="translate(50,-300)" x2="0" y2="300" style="fill: none; stroke: #ddd; stroke-width: 1; opacity: 1;"></line><line transform="translate(100,-300)" x2="0" y2="300" style="fill: none; stroke: #ddd; stroke-width: 1; opacity: 1;"></line><line transform="translate(150,-300)" x2="0" y2="300" style="fill: none; stroke: #ddd; stroke-width: 1; opacity: 1;"></line><line transform="translate(200,-300)" x2="0" y2="300" style="fill: none; stroke: #ddd; stroke-width: 1; opacity: 1;"></line><line transform="translate(250,-300)" x2="0" y2="300" style="fill: none; stroke: #ddd; stroke-width: 1; opacity: 1;"></line><line transform="translate(300,-300)" x2="0" y2="300" style="fill: none; stroke: #ddd; stroke-width: 1; opacity: 1;"></line><line transform="translate(350,-300)" x2="0" y2="300" style="fill: none; stroke: #ddd; stroke-width: 1; opacity: 1;"></line><line transform="translate(400,-300)" x2="0" y2="300" style="fill: none; stroke: #ddd; stroke-width: 1; opacity: 1;"></line></g></g><path class="foreground" d="" style="pointer-events: none; display: none; fill: none;"></path></g></g><g class="mark-group role-axis"><g transform="translate(0.5,0.5)"><path class="background" d="M0,0h0v0h0Z" style="pointer-events: none; fill: none;"></path><g><g class="mark-rule role-axis-grid" style="pointer-events: none;"><line transform="translate(0,300)" x2="400" y2="0" style="fill: none; stroke: #ddd; stroke-width: 1; opacity: 1;"></line><line transform="translate(0,270)" x2="400" y2="0" style="fill: none; stroke: #ddd; stroke-width: 1; opacity: 1;"></line><line transform="translate(0,240)" x2="400" y2="0" style="fill: none; stroke: #ddd; stroke-width: 1; opacity: 1;"></line><line transform="translate(0,210)" x2="400" y2="0" style="fill: none; stroke: #ddd; stroke-width: 1; opacity: 1;"></line><line transform="translate(0,180)" x2="400" y2="0" style="fill: none; stroke: #ddd; stroke-width: 1; opacity: 1;"></line><line transform="translate(0,150)" x2="400" y2="0" style="fill: none; stroke: #ddd; stroke-width: 1; opacity: 1;"></line><line transform="translate(0,120)" x2="400" y2="0" style="fill: none; stroke: #ddd; stroke-width: 1; opacity: 1;"></line><line transform="translate(0,90)" x2="400" y2="0" style="fill: none; stroke: #ddd; stroke-width: 1; opacity: 1;"></line><line transform="translate(0,60)" x2="400" y2="0" style="fill: none; stroke: #ddd; stroke-width: 1; opacity: 1;"></line><line transform="translate(0,30)" x2="400" y2="0" style="fill: none; stroke: #ddd; stroke-width: 1; opacity: 1;"></line><line transform="translate(0,0)" x2="400" y2="0" style="fill: none; stroke: #ddd; stroke-width: 1; opacity: 1;"></line></g></g><path class="foreground" d="" style="pointer-events: none; display: none; fill: none;"></path></g></g><g class="mark-group role-axis"><g transform="translate(0.5,300.5)"><path class="background" d="M0,0h0v0h0Z" style="pointer-events: none; fill: none;"></path><g><g class="mark-rule role-axis-tick" style="pointer-events: none;"><line transform="translate(0,0)" x2="0" y2="5" style="fill: none; stroke: #888; stroke-width: 1; opacity: 1;"></line><line transform="translate(50,0)" x2="0" y2="5" style="fill: none; stroke: #888; stroke-width: 1; opacity: 1;"></line><line transform="translate(100,0)" x2="0" y2="5" style="fill: none; stroke: #888; stroke-width: 1; opacity: 1;"></line><line transform="translate(150,0)" x2="0" y2="5" style="fill: none; stroke: #888; stroke-width: 1; opacity: 1;"></line><line transform="translate(200,0)" x2="0" y2="5" style="fill: none; stroke: #888; stroke-width: 1; opacity: 1;"></line><line transform="translate(250,0)" x2="0" y2="5" style="fill: none; stroke: #888; stroke-width: 1; opacity: 1;"></line><line transform="translate(300,0)" x2="0" y2="5" style="fill: none; stroke: #888; stroke-width: 1; opacity: 1;"></line><line transform="translate(350,0)" x2="0" y2="5" style="fill: none; stroke: #888; stroke-width: 1; opacity: 1;"></line><line transform="translate(400,0)" x2="0" y2="5" style="fill: none; stroke: #888; stroke-width: 1; opacity: 1;"></line></g><g class="mark-text role-axis-label" style="pointer-events: none;"><text text-anchor="start" transform="translate(0,15)" style="font-family: sans-serif; font-size: 10px; fill: #000; opacity: 1;">0</text><text text-anchor="middle" transform="translate(50,15)" style="font-family: sans-serif; font-size: 10px; fill: #000; opacity: 1;">50</text><text text-anchor="middle" transform="translate(100,15)" style="font-family: sans-serif; font-size: 10px; fill: #000; opacity: 1;">100</text><text text-anchor="middle" transform="translate(150,15)" style="font-family: sans-serif; font-size: 10px; fill: #000; opacity: 1;">150</text><text text-anchor="middle" transform="translate(200,15)" style="font-family: sans-serif; font-size: 10px; fill: #000; opacity: 1;">200</text><text text-anchor="middle" transform="translate(250,15)" style="font-family: sans-serif; font-size: 10px; fill: #000; opacity: 1;">250</text><text text-anchor="middle" transform="translate(300,15)" style="font-family: sans-serif; font-size: 10px; fill: #000; opacity: 1;">300</text><text text-anchor="middle" transform="translate(350,15)" style="font-family: sans-serif; font-size: 10px; fill: #000; opacity: 1;">350</text><text text-anchor="end" transform="translate(400,15)" style="font-family: sans-serif; font-size: 10px; fill: #000; opacity: 1;">400</text></g><g class="mark-rule role-axis-domain" style="pointer-events: none;"><line transform="translate(0,0)" x2="400" y2="0" style="fill: none; stroke: #888; stroke-width: 1; opacity: 1;"></line></g><g class="mark-text role-axis-title" style="pointer-events: none;"><text text-anchor="middle" transform="translate(200,30)" style="font-family: sans-serif; font-size: 11px; font-weight: bold; fill: #000; opacity: 1;">days</text></g></g><path class="foreground" d="" style="pointer-events: none; display: none; fill: none;"></path></g></g><g class="mark-group role-axis"><g transform="translate(0.5,0.5)"><path class="background" d="M0,0h0v0h0Z" style="pointer-events: none; fill: none;"></path><g><g class="mark-rule role-axis-tick" style="pointer-events: none;"><line transform="translate(0,300)" x2="-5" y2="0" style="fill: none; stroke: #888; stroke-width: 1; opacity: 1;"></line><line transform="translate(0,270)" x2="-5" y2="0" style="fill: none; stroke: #888; stroke-width: 1; opacity: 1;"></line><line transform="translate(0,240)" x2="-5" y2="0" style="fill: none; stroke: #888; stroke-width: 1; opacity: 1;"></line><line transform="translate(0,210)" x2="-5" y2="0" style="fill: none; stroke: #888; stroke-width: 1; opacity: 1;"></line><line transform="translate(0,180)" x2="-5" y2="0" style="fill: none; stroke: #888; stroke-width: 1; opacity: 1;"></line><line transform="translate(0,150)" x2="-5" y2="0" style="fill: none; stroke: #888; stroke-width: 1; opacity: 1;"></line><line transform="translate(0,120)" x2="-5" y2="0" style="fill: none; stroke: #888; stroke-width: 1; opacity: 1;"></line><line transform="translate(0,90)" x2="-5" y2="0" style="fill: none; stroke: #888; stroke-width: 1; opacity: 1;"></line><line transform="translate(0,60)" x2="-5" y2="0" style="fill: none; stroke: #888; stroke-width: 1; opacity: 1;"></line><line transform="translate(0,30)" x2="-5" y2="0" style="fill: none; stroke: #888; stroke-width: 1; opacity: 1;"></line><line transform="translate(0,0)" x2="-5" y2="0" style="fill: none; stroke: #888; stroke-width: 1; opacity: 1;"></line></g><g class="mark-text role-axis-label" style="pointer-events: none;"><text text-anchor="end" transform="translate(-7,303)" style="font-family: sans-serif; font-size: 10px; fill: #000; opacity: 1;">0%</text><text text-anchor="end" transform="translate(-7,273)" style="font-family: sans-serif; font-size: 10px; fill: #000; opacity: 1;">2%</text><text text-anchor="end" transform="translate(-7,243)" style="font-family: sans-serif; font-size: 10px; fill: #000; opacity: 1;">4%</text><text text-anchor="end" transform="translate(-7,213)" style="font-family: sans-serif; font-size: 10px; fill: #000; opacity: 1;">6%</text><text text-anchor="end" transform="translate(-7,183.00000000000003)" style="font-family: sans-serif; font-size: 10px; fill: #000; opacity: 1;">8%</text><text text-anchor="end" transform="translate(-7,153)" style="font-family: sans-serif; font-size: 10px; fill: #000; opacity: 1;">10%</text><text text-anchor="end" transform="translate(-7,123)" style="font-family: sans-serif; font-size: 10px; fill: #000; opacity: 1;">12%</text><text text-anchor="end" transform="translate(-7,92.99999999999999)" style="font-family: sans-serif; font-size: 10px; fill: #000; opacity: 1;">14%</text><text text-anchor="end" transform="translate(-7,63.00000000000002)" style="font-family: sans-serif; font-size: 10px; fill: #000; opacity: 1;">16%</text><text text-anchor="end" transform="translate(-7,33.00000000000003)" style="font-family: sans-serif; font-size: 10px; fill: #000; opacity: 1;">18%</text><text text-anchor="end" transform="translate(-7,3)" style="font-family: sans-serif; font-size: 10px; fill: #000; opacity: 1;">20%</text></g><g class="mark-rule role-axis-domain" style="pointer-events: none;"><line transform="translate(0,300)" x2="0" y2="-300" style="fill: none; stroke: #888; stroke-width: 1; opacity: 1;"></line></g><g class="mark-text role-axis-title" style="pointer-events: none;"><text text-anchor="middle" transform="translate(-31.0146484375,150) rotate(-90) translate(0,-2)" style="font-family: sans-serif; font-size: 11px; font-weight: bold; fill: #000; opacity: 1;">share_of_pop</text></g></g><path class="foreground" d="" style="pointer-events: none; display: none; fill: none;"></path></g></g><g class="mark-area role-mark layer_0_marks"><path d="M0,300L1,300L2,300L3,300L4,300L5,300L6,300L7.000000000000001,300L8,300L9,300L10,300L11,300L12,300L13,300L14.000000000000002,300L15,300L16,300L17,300L18,300L19,300L20,300L21,300L22,300L23,300L24,300L25,300L26,300L27,300L28.000000000000004,300L28.999999999999996,300L30,6.405110000800962L31,6.405110000800962L32,6.405110000800962L33,6.405110000800962L34,6.405110000800962L35,6.405110000800962L36,6.405110000800962L37,6.405110000800962L38,6.405110000800962L39,6.405110000800962L40,6.405110000800962L41,6.405110000800962L42,6.405110000800962L43,6.405110000800962L44,6.405110000800962L45,6.405110000800962L46,6.405110000800962L47,6.405110000800962L48,6.405110000800962L49,6.405110000800962L50,6.405110000800962L51,6.405110000800962L52,6.405110000800962L53,6.405110000800962L54,6.405110000800962L55.00000000000001,6.405110000800962L56.00000000000001,6.405110000800962L56.99999999999999,6.405110000800962L57.99999999999999,6.405110000800962L59,300L60,300L61,300L62,300L63,300L64,300L65,300L66,300L67,300L68,300L69,300L70,300L71,300L72,300L73,300L74,300L75,300L76,300L77,300L78,300L79,300L80,300L81,300L82,300L83,300L84,300L85,300L86,300L87,300L88,300L89,300L90,300L91,300L92,300L93,300L94,300L95,300L96,300L97,300L98,300L99,300L100,300L101,300L102,300L103,300L104,300L105,300L106,300L107,300L108,300L109.00000000000001,300L110.00000000000001,300L111.00000000000001,300L112.00000000000001,300L112.99999999999999,300L113.99999999999999,300L114.99999999999999,300L115.99999999999999,300L117,300L118,300L119,300L120,300L121,300L122,300L123,300L124,300L125,300L126,300L127,300L128,300L129,300L130,300L131,300L132,300L133,300L134,300L135,300L136,300L137,300L138,300L139,300L140,300L141,300L142,300L143,300L144,300L145,300L146,300L147,300L148,300L149,300L150,300L151,300L152,300L153,300L154,300L155,300L156,300L157,300L158,300L159,300L160,300L161,300L162,300L163,300L164,300L165,300L166,300L167,300L168,300L169,300L170,300L171,300L172,300L173,300L174,300L175,300L176,300L177,300L178,300L179,300L180,300L181,300L182,300L183,300L184,300L185,300L186,300L187,300L188,300L189,300L190,300L191,300L192,300L193,300L194,300L195,300L196,300L197,300L198,300L199,300L200,300L200.99999999999997,300L202,300L202.99999999999997,300L204,300L204.99999999999997,300L206,300L206.99999999999997,300L208,300L209,300L210,300L211,300L212,300L213,300L214,300L215,300L216,300L217,300L218.00000000000003,300L219,300L220.00000000000003,300L221,300L222.00000000000003,300L223,300L224.00000000000003,300L225,300L225.99999999999997,300L227,300L227.99999999999997,300L229,300L229.99999999999997,300L231,300L231.99999999999997,300L233,300L234,300L235,300L236,300L237,300L238,300L239,300L240,300L241,300L242,300L243.00000000000003,300L244,300L245.00000000000003,300L246,300L247.00000000000003,300L248,300L249.00000000000003,300L250,300L250.99999999999997,300L252,300L252.99999999999997,300L254,300L254.99999999999997,300L256,300L257,300L258,300L259,300L260,300L261,300L262,300L263,300L264,300L265,300L266,300L267,300L268,300L269,300L270,300L271,300L272,300L273,300L274,300L275,300L276,300L277,300L278,300L279,300L280,300L281,300L282,300L283,300L284,300L285,300L286,300L287,300L288,300L289,300L290,300L291,300L292,300L293,300L294,300L295,300L296,300L297,300L298,300L299,300L300,300L301,300L302,300L303,300L304,300L305,300L306,300L307,300L308,300L309,300L310,300L311,300L312,300L313,300L314,300L315,300L316,300L317,300L318,300L319,300L320,300L321,300L322,300L323,300L324,300L325,300L326,300L327,300L328,300L329,300L330,300L331,300L332,300L333,300L334,300L335,300L336,300L337,300L338,300L339,300L340,300L341,300L342,300L343,300L344,300L345,300L346,300L347,300L348,300L349,300L350,300L351,300L352,300L353,300L354,300L355,300L356,300L357,300L358,300L359,300L360,300L361,300L362,300L363,300L364,300L364,300L363,300L362,300L361,300L360,300L359,300L358,300L357,300L356,300L355,300L354,300L353,300L352,300L351,300L350,300L349,300L348,300L347,300L346,300L345,300L344,300L343,300L342,300L341,300L340,300L339,300L338,300L337,300L336,300L335,300L334,300L333,300L332,300L331,300L330,300L329,300L328,300L327,300L326,300L325,300L324,300L323,300L322,300L321,300L320,300L319,300L318,300L317,300L316,300L315,300L314,300L313,300L312,300L311,300L310,300L309,300L308,300L307,300L306,300L305,300L304,300L303,300L302,300L301,300L300,300L299,300L298,300L297,300L296,300L295,300L294,300L293,300L292,300L291,300L290,300L289,300L288,300L287,300L286,300L285,300L284,300L283,300L282,300L281,300L280,300L279,300L278,300L277,300L276,300L275,300L274,300L273,300L272,300L271,300L270,300L269,300L268,300L267,300L266,300L265,300L264,300L263,300L262,300L261,300L260,300L259,300L258,300L257,300L256,300L254.99999999999997,300L254,300L252.99999999999997,300L252,300L250.99999999999997,300L250,300L249.00000000000003,300L248,300L247.00000000000003,300L246,300L245.00000000000003,300L244,300L243.00000000000003,300L242,300L241,300L240,300L239,300L238,300L237,300L236,300L235,300L234,300L233,300L231.99999999999997,300L231,300L229.99999999999997,300L229,300L227.99999999999997,300L227,300L225.99999999999997,300L225,300L224.00000000000003,300L223,300L222.00000000000003,300L221,300L220.00000000000003,300L219,300L218.00000000000003,300L217,300L216,300L215,300L214,300L213,300L212,300L211,300L210,300L209,300L208,300L206.99999999999997,300L206,300L204.99999999999997,300L204,300L202.99999999999997,300L202,300L200.99999999999997,300L200,300L199,300L198,300L197,300L196,300L195,300L194,300L193,300L192,300L191,300L190,300L189,300L188,300L187,300L186,300L185,300L184,300L183,300L182,300L181,300L180,300L179,300L178,300L177,300L176,300L175,300L174,300L173,300L172,300L171,300L170,300L169,300L168,300L167,300L166,300L165,300L164,300L163,300L162,300L161,300L160,300L159,300L158,300L157,300L156,300L155,300L154,300L153,300L152,300L151,300L150,300L149,300L148,300L147,300L146,300L145,300L144,300L143,300L142,300L141,300L140,300L139,300L138,300L137,300L136,300L135,300L134,300L133,300L132,300L131,300L130,300L129,300L128,300L127,300L126,300L125,300L124,300L123,300L122,300L121,300L120,300L119,300L118,300L117,300L115.99999999999999,300L114.99999999999999,300L113.99999999999999,300L112.99999999999999,300L112.00000000000001,300L111.00000000000001,300L110.00000000000001,300L109.00000000000001,300L108,300L107,300L106,300L105,300L104,300L103,300L102,300L101,300L100,300L99,300L98,300L97,300L96,300L95,300L94,300L93,300L92,300L91,300L90,300L89,300L88,300L87,300L86,300L85,300L84,300L83,300L82,300L81,300L80,300L79,300L78,300L77,300L76,300L75,300L74,300L73,300L72,300L71,300L70,300L69,300L68,300L67,300L66,300L65,300L64,300L63,300L62,300L61,300L60,300L59,300L57.99999999999999,300L56.99999999999999,300L56.00000000000001,300L55.00000000000001,300L54,300L53,300L52,300L51,300L50,300L49,300L48,300L47,300L46,300L45,300L44,300L43,300L42,300L41,300L40,300L39,300L38,300L37,300L36,300L35,300L34,300L33,300L32,300L31,300L30,300L28.999999999999996,300L28.000000000000004,300L27,300L26,300L25,300L24,300L23,300L22,300L21,300L20,300L19,300L18,300L17,300L16,300L15,300L14.000000000000002,300L13,300L12,300L11,300L10,300L9,300L8,300L7.000000000000001,300L6,300L5,300L4,300L3,300L2,300L1,300L0,300Z" style="fill: #3db5ed; opacity: 0.5;"></path></g><g class="mark-area role-mark layer_1_marks"><path d="M0,300L1,300L2,300L3,300L4,300L5,300L6,300L7.000000000000001,300L8,300L9,300L10,300L11,300L12,300L13,300L14.000000000000002,300L15,300L16,300L17,300L18,300L19,300L20,300L21,300L22,300L23,300L24,300L25,300L26,300L27,300L28.000000000000004,300L28.999999999999996,300L30,300L31,300L32,300L33,300L34,300L35,300L36,300L37,300L38,300L39,300L40,300L41,300L42,300L43,300L44,300L45,300L46,300L47,300L48,300L49,300L50,300L51,300L52,300L53,300L54,300L55.00000000000001,300L56.00000000000001,300L56.99999999999999,300L57.99999999999999,6.405110000800962L59,6.405110000800962L60,6.405110000800962L61,6.405110000800962L62,6.405110000800962L63,6.405110000800962L64,6.405110000800962L65,6.405110000800962L66,6.405110000800962L67,6.405110000800962L68,6.405110000800962L69,6.405110000800962L70,6.405110000800962L71,6.405110000800962L72,6.405110000800962L73,6.405110000800962L74,6.405110000800962L75,6.405110000800962L76,6.405110000800962L77,6.405110000800962L78,6.405110000800962L79,6.405110000800962L80,6.405110000800962L81,6.405110000800962L82,6.405110000800962L83,6.405110000800962L84,6.405110000800962L85,6.405110000800962L86,6.405110000800962L87,6.405110000800962L88,6.405110000800962L89,6.405110000800962L90,6.405110000800962L91,6.405110000800962L92,6.405110000800962L93,6.405110000800962L94,6.405110000800962L95,6.405110000800962L96,6.405110000800962L97,6.405110000800962L98,6.405110000800962L99,6.405110000800962L100,6.405110000800962L101,6.405110000800962L102,6.405110000800962L103,6.405110000800962L104,6.405110000800962L105,6.405110000800962L106,6.405110000800962L107,6.405110000800962L108,6.405110000800962L109.00000000000001,6.405110000800962L110.00000000000001,6.405110000800962L111.00000000000001,6.405110000800962L112.00000000000001,6.405110000800962L112.99999999999999,6.405110000800962L113.99999999999999,6.405110000800962L114.99999999999999,6.405110000800962L115.99999999999999,6.405110000800962L117,6.405110000800962L118,6.405110000800962L119,6.405110000800962L120,6.405110000800962L121,6.405110000800962L122,6.405110000800962L123,6.405110000800962L124,6.405110000800962L125,6.405110000800962L126,6.405110000800962L127,6.405110000800962L128,6.405110000800962L129,6.405110000800962L130,6.405110000800962L131,6.405110000800962L132,6.405110000800962L133,6.405110000800962L134,6.405110000800962L135,6.405110000800962L136,6.405110000800962L137,6.405110000800962L138,6.405110000800962L139,6.405110000800962L140,6.405110000800962L141,6.405110000800962L142,6.405110000800962L143,6.405110000800962L144,6.405110000800962L145,6.405110000800962L146,6.405110000800962L147,6.405110000800962L148,6.405110000800962L149,6.405110000800962L150,6.405110000800962L151,6.405110000800962L152,6.405110000800962L153,6.405110000800962L154,6.405110000800962L155,6.405110000800962L156,6.405110000800962L157,6.405110000800962L158,6.405110000800962L159,6.405110000800962L160,6.405110000800962L161,6.405110000800962L162,6.405110000800962L163,6.405110000800962L164,6.405110000800962L165,6.405110000800962L166,6.405110000800962L167,6.405110000800962L168,6.405110000800962L169,6.405110000800962L170,6.405110000800962L171,6.405110000800962L172,6.405110000800962L173,6.405110000800962L174,6.405110000800962L175,6.405110000800962L176,6.405110000800962L177,6.405110000800962L178,6.405110000800962L179,6.405110000800962L180,6.405110000800962L181,6.405110000800962L182,6.405110000800962L183,6.405110000800962L184,6.405110000800962L185,6.405110000800962L186,6.405110000800962L187,6.405110000800962L188,6.405110000800962L189,6.405110000800962L190,6.405110000800962L191,6.405110000800962L192,6.405110000800962L193,6.405110000800962L194,6.405110000800962L195,6.405110000800962L196,6.405110000800962L197,6.405110000800962L198,6.405110000800962L199,6.405110000800962L200,6.405110000800962L200.99999999999997,6.405110000800962L202,6.405110000800962L202.99999999999997,6.405110000800962L204,6.405110000800962L204.99999999999997,6.405110000800962L206,6.405110000800962L206.99999999999997,6.405110000800962L208,6.405110000800962L209,6.405110000800962L210,6.405110000800962L211,6.405110000800962L212,6.405110000800962L213,6.405110000800962L214,6.405110000800962L215,6.405110000800962L216,6.405110000800962L217,6.405110000800962L218.00000000000003,6.405110000800962L219,6.405110000800962L220.00000000000003,6.405110000800962L221,6.405110000800962L222.00000000000003,6.405110000800962L223,6.405110000800962L224.00000000000003,6.405110000800962L225,6.405110000800962L225.99999999999997,6.405110000800962L227,6.405110000800962L227.99999999999997,6.405110000800962L229,6.405110000800962L229.99999999999997,6.405110000800962L231,6.405110000800962L231.99999999999997,6.405110000800962L233,6.405110000800962L234,6.405110000800962L235,6.405110000800962L236,6.405110000800962L237,6.405110000800962L238,6.405110000800962L239,6.405110000800962L240,6.405110000800962L241,6.405110000800962L242,6.405110000800962L243.00000000000003,6.405110000800962L244,6.405110000800962L245.00000000000003,6.405110000800962L246,6.405110000800962L247.00000000000003,6.405110000800962L248,6.405110000800962L249.00000000000003,6.405110000800962L250,6.405110000800962L250.99999999999997,6.405110000800962L252,6.405110000800962L252.99999999999997,6.405110000800962L254,6.405110000800962L254.99999999999997,6.405110000800962L256,6.405110000800962L257,6.405110000800962L258,6.405110000800962L259,6.405110000800962L260,6.405110000800962L261,6.405110000800962L262,6.405110000800962L263,6.405110000800962L264,6.405110000800962L265,6.405110000800962L266,6.405110000800962L267,6.405110000800962L268,6.405110000800962L269,6.405110000800962L270,6.405110000800962L271,6.405110000800962L272,6.405110000800962L273,6.405110000800962L274,6.405110000800962L275,6.405110000800962L276,6.405110000800962L277,6.405110000800962L278,6.405110000800962L279,6.405110000800962L280,6.405110000800962L281,6.405110000800962L282,6.405110000800962L283,6.405110000800962L284,6.405110000800962L285,6.405110000800962L286,6.405110000800962L287,6.405110000800962L288,6.405110000800962L289,6.405110000800962L290,6.405110000800962L291,6.405110000800962L292,6.405110000800962L293,6.405110000800962L294,6.405110000800962L295,6.405110000800962L296,6.405110000800962L297,6.405110000800962L298,6.405110000800962L299,6.405110000800962L300,6.405110000800962L301,6.405110000800962L302,6.405110000800962L303,6.405110000800962L304,6.405110000800962L305,6.405110000800962L306,6.405110000800962L307,6.405110000800962L308,6.405110000800962L309,6.405110000800962L310,6.405110000800962L311,6.405110000800962L312,6.405110000800962L313,6.405110000800962L314,6.405110000800962L315,6.405110000800962L316,6.405110000800962L317,6.405110000800962L318,6.405110000800962L319,6.405110000800962L320,6.405110000800962L321,6.405110000800962L322,6.405110000800962L323,6.405110000800962L324,6.405110000800962L325,6.405110000800962L326,6.405110000800962L327,6.405110000800962L328,6.405110000800962L329,6.405110000800962L330,6.405110000800962L331,6.405110000800962L332,6.405110000800962L333,6.405110000800962L334,6.405110000800962L335,6.405110000800962L336,6.405110000800962L337,6.405110000800962L338,6.405110000800962L339,6.405110000800962L340,6.405110000800962L341,6.405110000800962L342,6.405110000800962L343,6.405110000800962L344,6.405110000800962L345,6.405110000800962L346,6.405110000800962L347,6.405110000800962L348,6.405110000800962L349,6.405110000800962L350,6.405110000800962L351,6.405110000800962L352,6.405110000800962L353,6.405110000800962L354,6.405110000800962L355,6.405110000800962L356,6.405110000800962L357,6.405110000800962L358,6.405110000800962L359,6.405110000800962L360,6.405110000800962L361,6.405110000800962L362,6.405110000800962L363,6.405110000800962L364,6.405110000800962L364,300L363,300L362,300L361,300L360,300L359,300L358,300L357,300L356,300L355,300L354,300L353,300L352,300L351,300L350,300L349,300L348,300L347,300L346,300L345,300L344,300L343,300L342,300L341,300L340,300L339,300L338,300L337,300L336,300L335,300L334,300L333,300L332,300L331,300L330,300L329,300L328,300L327,300L326,300L325,300L324,300L323,300L322,300L321,300L320,300L319,300L318,300L317,300L316,300L315,300L314,300L313,300L312,300L311,300L310,300L309,300L308,300L307,300L306,300L305,300L304,300L303,300L302,300L301,300L300,300L299,300L298,300L297,300L296,300L295,300L294,300L293,300L292,300L291,300L290,300L289,300L288,300L287,300L286,300L285,300L284,300L283,300L282,300L281,300L280,300L279,300L278,300L277,300L276,300L275,300L274,300L273,300L272,300L271,300L270,300L269,300L268,300L267,300L266,300L265,300L264,300L263,300L262,300L261,300L260,300L259,300L258,300L257,300L256,300L254.99999999999997,300L254,300L252.99999999999997,300L252,300L250.99999999999997,300L250,300L249.00000000000003,300L248,300L247.00000000000003,300L246,300L245.00000000000003,300L244,300L243.00000000000003,300L242,300L241,300L240,300L239,300L238,300L237,300L236,300L235,300L234,300L233,300L231.99999999999997,300L231,300L229.99999999999997,300L229,300L227.99999999999997,300L227,300L225.99999999999997,300L225,300L224.00000000000003,300L223,300L222.00000000000003,300L221,300L220.00000000000003,300L219,300L218.00000000000003,300L217,300L216,300L215,300L214,300L213,300L212,300L211,300L210,300L209,300L208,300L206.99999999999997,300L206,300L204.99999999999997,300L204,300L202.99999999999997,300L202,300L200.99999999999997,300L200,300L199,300L198,300L197,300L196,300L195,300L194,300L193,300L192,300L191,300L190,300L189,300L188,300L187,300L186,300L185,300L184,300L183,300L182,300L181,300L180,300L179,300L178,300L177,300L176,300L175,300L174,300L173,300L172,300L171,300L170,300L169,300L168,300L167,300L166,300L165,300L164,300L163,300L162,300L161,300L160,300L159,300L158,300L157,300L156,300L155,300L154,300L153,300L152,300L151,300L150,300L149,300L148,300L147,300L146,300L145,300L144,300L143,300L142,300L141,300L140,300L139,300L138,300L137,300L136,300L135,300L134,300L133,300L132,300L131,300L130,300L129,300L128,300L127,300L126,300L125,300L124,300L123,300L122,300L121,300L120,300L119,300L118,300L117,300L115.99999999999999,300L114.99999999999999,300L113.99999999999999,300L112.99999999999999,300L112.00000000000001,300L111.00000000000001,300L110.00000000000001,300L109.00000000000001,300L108,300L107,300L106,300L105,300L104,300L103,300L102,300L101,300L100,300L99,300L98,300L97,300L96,300L95,300L94,300L93,300L92,300L91,300L90,300L89,300L88,300L87,300L86,300L85,300L84,300L83,300L82,300L81,300L80,300L79,300L78,300L77,300L76,300L75,300L74,300L73,300L72,300L71,300L70,300L69,300L68,300L67,300L66,300L65,300L64,300L63,300L62,300L61,300L60,300L59,300L57.99999999999999,300L56.99999999999999,300L56.00000000000001,300L55.00000000000001,300L54,300L53,300L52,300L51,300L50,300L49,300L48,300L47,300L46,300L45,300L44,300L43,300L42,300L41,300L40,300L39,300L38,300L37,300L36,300L35,300L34,300L33,300L32,300L31,300L30,300L28.999999999999996,300L28.000000000000004,300L27,300L26,300L25,300L24,300L23,300L22,300L21,300L20,300L19,300L18,300L17,300L16,300L15,300L14.000000000000002,300L13,300L12,300L11,300L10,300L9,300L8,300L7.000000000000001,300L6,300L5,300L4,300L3,300L2,300L1,300L0,300Z" style="fill: #3fbaed; opacity: 0.5;"></path></g><g class="mark-line role-mark layer_2_marks"><path d="M0,299.9817073170732L1,299.98280600763405L2,299.9828134660762L3,299.98211458094653L4,299.98092967413373L5,299.97938152026904L6,299.9775347522981L7.000000000000001,299.97541899958725L8,299.9730424372456L9,299.97039968235345L10,299.96747635236716L11,299.96425164865093L12,299.9606997662924L13,299.9567906036526L14.000000000000002,299.95249004457105L15,299.94775997783705L16,299.94255814629935L17,299.9368378797482L18,299.9305477416677L19,299.92363110583767L20,299.91602567028025L21,299.90766291086163L22,299.89846747360224L23,299.88835650260586L24,299.87723889901105L25,299.8650145052126L26,299.85157320762744L27,299.83679395038365L28.000000000000004,299.8205436514393L28.999999999999996,299.8026760117356L30,299.78377546830376L31,299.7641679591629L32,299.7434349935085L33,299.72126734912433L34,299.6974160544799L35,299.6716627030527L36,299.64380127310943L37,299.6136267917555L38,299.58092802643955L39,299.54548256067045L40,299.5070532291635L41,299.46538532176055L42,299.4202041908376L43,299.37121304130847L44,299.3180907669039L45,299.26048974661376L46,299.19803354485805L47,299.1303144763707L48,299.0568910068685L49,298.977284966291L50,298.8909785544952L51,298.7974111208386L52,298.69597569971614L53,298.58601528422025L54,298.4668188199193L55.00000000000001,298.337616900434L56.00000000000001,298.19757714616L56.99999999999999,298.0457992472022L57.99999999999999,297.8739857821895L59,297.67624490348175L60,297.4537299355209L61,297.20619752071974L62,296.9324943362611L63,296.630836228833L64,296.29896430364124L65,295.93422810342537L66,295.5336250703669L67,295.09381379728427L68,294.61111117620635L69,294.08147950043696L70,293.50050710897426L71,292.8633847439144L72,292.1648789812698L73,291.3993036492012L74,290.5604899219862L75,289.6417556898666L76,288.635874806199L77,287.5350468768305L78,286.3308683673137L79,285.0143059535412L80,283.5756732267297L81,282.0046120825664L82,280.2900803756668L83,278.4203477029555L84,276.38300149078754L85,274.164965896322L86,271.752536386861L87,269.13143322097585L88,266.28687740701406L89,263.2036930371013L90,259.8664401603655L91,256.25958253248865L92,252.36769461610973L93,248.17571205573313L94,243.66922945115718L95,238.83484853798186L96,233.6605787818348L97,228.1362908351612L98,222.25422123058505L99,216.00952404941805L100,209.4008620937147L101,202.43102633429032L102,195.10756819204653L103,187.443424694368L104,179.45751197372118L105,171.17525827134628L106,162.6290441059818L107,153.858515306775L108,144.91072729300691L109.00000000000001,135.84010261588256L110.00000000000001,126.70814855190767L111.00000000000001,117.58293010947114L112.00000000000001,108.53827381859519L112.99999999999999,99.65270791813565L113.99999999999999,91.00814495670589L114.99999999999999,82.68834344498649L115.99999999999999,74.77718293243754L117,67.35682500377021L118,60.50580697163068L119,54.297182967661016L120,48.796747590532874L121,44.06145120306789L122,40.13806894857541L123,37.06217975852732L124,34.857481145980195L125,33.53548092839518L126,33.09555454618269L127,33.525352497027505L128,34.801523267358384L129,36.89070404441467L130,39.75072246358731L131,43.33194791690317L132,47.57873034591349L133,52.430867464195394L134,57.825047273907416L135,63.69622071380282L136,69.97886844412862L137,76.60813534495709L138,83.52081561053328L139,90.65617985020091L140,97.95664300702917L141,105.36827798338962L142,112.84118455612888L143,120.32972651521345L144,127.79265208646952L145,135.1931137660093L146,142.49860388889263L147,149.68082176909152L148,156.71548726348672L149,163.58211429195237L150,170.2637563269645L151,176.7467342622725L152,183.02035546830535L153,189.07663130641697L154,194.909998948837L155,200.51705206356746L156,205.89628378732158L157,211.0478444284874L158,215.97331551213864L159,220.6755010912255L160,225.158236689975L161,229.42621580319909L162,233.4848335339767L163,237.3400466976398L164,240.9982495384334L165,244.46616408406217L166,247.7507440912877L167,250.85909150285278L168,253.79838433371697L169,256.5758149255952L170,259.1985375469949L171,261.67362436633107L172,264.00802888416143L173,266.20855597387606L174,268.2818377457283L175,270.23431451492354L176,272.0722202191205L177,273.801571693045L178,275.42816126722784L179,276.9575522136454L180,278.3950766129828L181,279.7458352662184L182,281.01469931722806L183,282.20631329321816L184,283.3250993061468L185,284.37526219107934L186,285.36079538685993L187,286.28548739079594L188,287.15292864248795L189,287.9665187127317L190,288.72947369180304L191,289.44483368763906L192,290.11547035865453L193,290.7440944183894L194,291.33326306005074L195,291.88538725846104L196,292.4027389151159L197,292.8874578191239L198,293.34155840288577L199,293.7669362765801L200,294.16537452996687L200.99999999999997,294.53854979379366L202,294.8880380562699L202.99999999999997,295.2153202327484L204,295.5217874889733L204.99999999999997,295.80874632009215L206,296.0774233891281L206.99999999999997,296.32897012982045L208,296.564467119702L209,296.78492823003216L210,296.99130455976865L211,297.18448816117365L212,297.36531556492923L213,297.5345711128073L214,297.69299010601526L215,297.8412617773398L216,297.98003209514786L217,298.10990640718825L218.00000000000003,298.2314519319816L219,298.3452001053956L220.00000000000003,298.45164878978727L221,298.55126435285945L222.00000000000003,298.64448362312663L223,298.7317157286299L224.00000000000003,298.81334382527166L225,298.8897267208744L225.99999999999997,298.96120040080007L227,299.0280794606984L227.99999999999997,299.0906584516906L229,299.14921314303695L229.99999999999997,299.20400170708547L231,299.25526583105454L231.99999999999997,299.303231759964L233,299.3481112748038L234,299.3901026098065L235,299.42939131248056L236,299.466151049858L237,299.50054436421783L238,299.5327233813612L239,299.56283047433874L240,299.59099888536264L241,299.6173533084794L242,299.64201043542425L243.00000000000003,299.6650794669401L244,299.68666259170374L245.00000000000003,299.7068554348779L246,299.7257474781841L247.00000000000003,299.74342245327716L248,299.7599587100962L249.00000000000003,299.77542956176154L250,299.789903607494L250.99999999999997,299.8034450349415L252,299.8161139032114L252.99999999999997,299.8279664078291L254,299.8390551287654L254.99999999999997,299.8494292626061L256,299.8591348398696L257,299.86821492841466L258,299.8767098238237L259,299.8846572275899L260,299.89209241388363L261,299.8990483856273L262,299.9055560205604L263,299.9116442079327L264,299.9173399764244L265,299.922668613855L266,299.9276537792042L267,299.9323176074376L268,299.93668080759795L269,299.9407627545923L270,299.9445815750801L271,299.94815422783904L272,299.95149657896405L273,299.9546234722293L274,299.95754879492534L275,299.9602855394602L276,299.9628458609972L277,299.965241131384L278,299.96748198961075L279,299.96957838902057L280,299.97153964148123L281,299.97337445871284L282,299.9750909909552L283,299.9766968631446L284,299.97819920876185L285,299.9796047015001L286,299.98091958489306L287,299.982149700035L288,299.98330051151544L289,299.98437713168283L290,299.9853843433454L291,299.9863266210094L292,299.9872081507495L293,299.98803284879807L294,299.98880437893746L295,299.9895261687715L296,299.9902014249481L297,299.99083314740153L298,299.9914241426762L299,299.9919770363924L300,299.99249428490873L301,299.9929781862321L302,299.99343089022557L303,299.99385440815763L304,299.9942506216365L305,299.9946212909684L306,299.99496806297657L307,299.9952924783174L308,299.99559597832416L309,299.9958799114096L310,299.9961455390564L311,299.9963940414211L312,299.9966265225768L313,299.9968440154179L314,299.9970474862489L315,299.99723783907734L316,299.99741591962965L317,299.99758251910845L318,299.99773837770783L319,299.9978841879015L320,299.99802059751937L321,299.99814821262555L322,299.9982676002112L323,299.9983792907133L324,299.9984837803711L325,299.99858153343143L326,299.9986729842105L327,299.99875853902404L328,299.9988385779922L329,299.99891345672864L330,299.9989835079201L331,299.99904904280487L332,299.9991103525553L333,299.9991677095715L334,299.9992213686919L335,299.99927156832496L336,299.99931853150883L337,299.999362466902L338,299.99940356971075L339,299.9994420225558L340,299.9994779962843L341,299.9995116507287L342,299.9995431354168L343,299.99957259023597L344,299.9996001460551L345,299.9996259253057L346,299.9996500425258L347,299.9996726048692L348,299.9996937125813L349,299.99971345944437L350,299.9997319331946L351,299.9997492159116L352,299.9997653843832L353,299.9997805104466L354,299.99979466130753L355,299.9998078998389L356,299.9998202848601L357,299.99983187139827L358,299.99984271093297L359,299.99985285162467L360,299.99986233852906L361,299.9998712137968L362,299.9998795168611L363,299.9998872846129L364,299.99989455156464" style="fill: none; stroke: orange; stroke-width: 2;"></path></g></g><path class="foreground" d="" style="display: none; fill: none;"></path></g></g></g></svg>