<svg class="marks" width="454" height="347" viewBox="0 0 454 347" version="1.1" xmlns="http://www.w3.org/2000/svg" xmlns:xlink="http://www.w3.org/1999/xlink"><rect width="454" height="347" style="fill: white;"></rect><g transform="translate(48,10)"><g class="mark-group role-frame root"><g transform="translate(0,0)"><path class="background" d="M0.5,0.5h400v300h-400Z" style="fill: none; stroke: #ddd;"></path><g><g class="mark-group role-axis"><g transform="translate(0.5,300.5)"><path class="background" d="M0,0h0v0h0Z" style="pointer-events: none; fill: none;"></path><g><g class="mark-rule role-axis-grid" style="pointer-events: none;"><line transform="translate(0,-300)" x2="0" y2="300" style="fill: none; stroke: #ddd; stroke-width: 1; opacity: 1;"></line><line transform="translate(50,-300)" x2="0" y2="300" style="fill: none; stroke: #ddd; stroke-width: 1; opacity: 1;"></line><line transform="translate(100,-300)" x2="0" y2="300" style="fill: none; stroke: #ddd; stroke-width: 1; opacity: 1;"></line><line transform="translate(150,-300)" x2="0" y2="300" style="fill: none; stroke: #ddd; stroke-width: 1; opacity: 1;"></line><line transform="translate(200,-300)" x2="0" y2="300" style="fill: none; stroke: #ddd; stroke-width: 1; opacity: 1;"></line><line transform="translate(250,-300)" x2="0" y2="300" style="fill: none; stroke: #ddd; stroke-width: 1; opacity: 1;"></line><line transform="translate(300,-300)" x2="0" y2="300" style="fill: none; stroke: #ddd; stroke-width: 1; opacity: 1;"></line><line transform="translate(350,-300)" x2="0" y2="300" style="fill: none; stroke: #ddd; stroke-width: 1; opacity: 1;"></line><line transform="translate(400,-300)" x2="0" y2="300" style="fill: none; stroke: #ddd; stroke-width: 1; opacity: 1;"></line></g></g><path class="foreground" d="" style="pointer-events: none; display: none; fill: none;"></path></g></g><g class="mark-group role-axis"><g transform="translate(0.5,0.5)"><path class="background" d="M0,0h0v0h0Z" style="pointer-events: none; fill: none;"></path><g><g class="mark-rule role-axis-grid" style="pointer-events: none;"><line transform="translate(0,300)" x2="400" y2="0" style="fill: none; stroke: #ddd; stroke-width: 1; opacity: 1;"></line><line transform="translate(0,270)" x2="400" y2="0" style="fill: none; stroke: #ddd; stroke-width: 1; opacity: 1;"></line><line transform="translate(0,240)" x2="400" y2="0" style="fill: none; stroke: #ddd; stroke-width: 1; opacity: 1;"></line><line transform="translate(0,210)" x2="400" y2="0" style="fill: none; stroke: #ddd; stroke-width: 1; opacity: 1;"></line><line transform="translate(0,180)" x2="400" y2="0" style="fill: none; stroke: #ddd; stroke-width: 1; opacity: 1;"></line><line transform="translate(0,150)" x2="400" y2="0" style="fill: none; stroke: #ddd; stroke-width: 1; opacity: 1;"></line><line transform="translate(0,120)" x2="400" y2="0" style="fill: none; stroke: #ddd; stroke-width: 1; opacity: 1;"></line><line transform="translate(0,90)" x2="400" y2="0" style="fill: none; stroke: #ddd; stroke-width: 1; opacity: 1;"></line><line transform="translate(0,60)" x2="400" y2="0" style="fill: none; stroke: #ddd; stroke-width: 1; opacity: 1;"></line><line transform="translate(0,30)" x2="400" y2="0" style="fill: none; stroke: #ddd; stroke-width: 1; opacity: 1;"></line><line transform="translate(0,0)" x2="400" y2="0" style="fill: none; stroke: #ddd; stroke-width: 1; opacity: 1;"></line></g></g><path class="foreground" d="" style="pointer-events: none; display: none; fill: none;"></path></g></g><g class="mark-group role-axis"><g transform="translate(0.5,300.5)"><path class="background" d="M0,0h0v0h0Z" style="pointer-events: none; fill: none;"></path><g><g class="mark-rule role-axis-tick" style="pointer-events: none;"><line transform="translate(0,0)" x2="0" y2="5" style="fill: none; stroke: #888; stroke-width: 1; opacity: 1;"></line><line transform="translate(50,0)" x2="0" y2="5" style="fill: none; stroke: #888; stroke-width: 1; opacity: 1;"></line><line transform="translate(100,0)" x2="0" y2="5" style="fill: none; stroke: #888; stroke-width: 1; opacity: 1;"></line><line transform="translate(150,0)" x2="0" y2="5" style="fill: none; stroke: #888; stroke-width: 1; opacity: 1;"></line><line transform="translate(200,0)" x2="0" y2="5" style="fill: none; stroke: #888; stroke-width: 1; opacity: 1;"></line><line transform="translate(250,0)" x2="0" y2="5" style="fill: none; stroke: #888; stroke-width: 1; opacity: 1;"></line><line transform="translate(300,0)" x2="0" y2="5" style="fill: none; stroke: #888; stroke-width: 1; opacity: 1;"></line><line transform="translate(350,0)" x2="0" y2="5" style="fill: none; stroke: #888; stroke-width: 1; opacity: 1;"></line><line transform="translate(400,0)" x2="0" y2="5" style="fill: none; stroke: #888; stroke-width: 1; opacity: 1;"></line></g><g class="mark-text role-axis-label" style="pointer-events: none;"><text text-anchor="start" transform="translate(0,15)" style="font-family: sans-serif; font-size: 10px; fill: #000; opacity: 1;">0</text><text text-anchor="middle" transform="translate(50,15)" style="font-family: sans-serif; font-size: 10px; fill: #000; opacity: 1;">50</text><text text-anchor="middle" transform="translate(100,15)" style="font-family: sans-serif; font-size: 10px; fill: #000; opacity: 1;">100</text><text text-anchor="middle" transform="translate(150,15)" style="font-family: sans-serif; font-size: 10px; fill: #000; opacity: 1;">150</text><text text-anchor="middle" transform="translate(200,15)" style="font-family: sans-serif; font-size: 10px; fill: #000; opacity: 1;">200</text><text text-anchor="middle" transform="translate(250,15)" style="font-family: sans-serif; font-size: 10px; fill: #000; opacity: 1;">250</text><text text-anchor="middle" transform="translate(300,15)" style="font-family: sans-serif; font-size: 10px; fill: #000; opacity: 1;">300</text><text text-anchor="middle" transform="translate(350,15)" style="font-family: sans-serif; font-size: 10px; fill: #000; opacity: 1;">350</text><text text-anchor="end" transform="translate(400,15)" style="font-family: sans-serif; font-size: 10px; fill: #000; opacity: 1;">400</text></g><g class="mark-rule role-axis-domain" style="pointer-events: none;"><line transform="translate(0,0)" x2="400" y2="0" style="fill: none; stroke: #888; stroke-width: 1; opacity: 1;"></line></g><g class="mark-text role-axis-title" style="pointer-events: none;"><text text-anchor="middle" transform="translate(200,30)" style="font-family: sans-serif; font-size: 11px; font-weight: bold; fill: #000; opacity: 1;">Tage</text></g></g><path class="foreground" d="" style="pointer-events: none; display: none; fill: none;"></path></g></g><g class="mark-group role-axis"><g transform="translate(0.5,0.5)"><path class="background" d="M0,0h0v0h0Z" style="pointer-events: none; fill: none;"></path><g><g class="mark-rule role-axis-tick" style="pointer-events: none;"><line transform="translate(0,300)" x2="-5" y2="0" style="fill: none; stroke: #888; stroke-width: 1; opacity: 1;"></line><line transform="translate(0,270)" x2="-5" y2="0" style="fill: none; stroke: #888; stroke-width: 1; opacity: 1;"></line><line transform="translate(0,240)" x2="-5" y2="0" style="fill: none; stroke: #888; stroke-width: 1; opacity: 1;"></line><line transform="translate(0,210)" x2="-5" y2="0" style="fill: none; stroke: #888; stroke-width: 1; opacity: 1;"></line><line transform="translate(0,180)" x2="-5" y2="0" style="fill: none; stroke: #888; stroke-width: 1; opacity: 1;"></line><line transform="translate(0,150)" x2="-5" y2="0" style="fill: none; stroke: #888; stroke-width: 1; opacity: 1;"></line><line transform="translate(0,120)" x2="-5" y2="0" style="fill: none; stroke: #888; stroke-width: 1; opacity: 1;"></line><line transform="translate(0,90)" x2="-5" y2="0" style="fill: none; stroke: #888; stroke-width: 1; opacity: 1;"></line><line transform="translate(0,60)" x2="-5" y2="0" style="fill: none; stroke: #888; stroke-width: 1; opacity: 1;"></line><line transform="translate(0,30)" x2="-5" y2="0" style="fill: none; stroke: #888; stroke-width: 1; opacity: 1;"></line><line transform="translate(0,0)" x2="-5" y2="0" style="fill: none; stroke: #888; stroke-width: 1; opacity: 1;"></line></g><g class="mark-text role-axis-label" style="pointer-events: none;"><text text-anchor="end" transform="translate(-7,303)" style="font-family: sans-serif; font-size: 10px; fill: #000; opacity: 1;">0%</text><text text-anchor="end" transform="translate(-7,273)" style="font-family: sans-serif; font-size: 10px; fill: #000; opacity: 1;">2%</text><text text-anchor="end" transform="translate(-7,243)" style="font-family: sans-serif; font-size: 10px; fill: #000; opacity: 1;">4%</text><text text-anchor="end" transform="translate(-7,213)" style="font-family: sans-serif; font-size: 10px; fill: #000; opacity: 1;">6%</text><text text-anchor="end" transform="translate(-7,183.00000000000003)" style="font-family: sans-serif; font-size: 10px; fill: #000; opacity: 1;">8%</text><text text-anchor="end" transform="translate(-7,153)" style="font-family: sans-serif; font-size: 10px; fill: #000; opacity: 1;">10%</text><text text-anchor="end" transform="translate(-7,123)" style="font-family: sans-serif; font-size: 10px; fill: #000; opacity: 1;">12%</text><text text-anchor="end" transform="translate(-7,92.99999999999999)" style="font-family: sans-serif; font-size: 10px; fill: #000; opacity: 1;">14%</text><text text-anchor="end" transform="translate(-7,63.00000000000002)" style="font-family: sans-serif; font-size: 10px; fill: #000; opacity: 1;">16%</text><text text-anchor="end" transform="translate(-7,33.00000000000003)" style="font-family: sans-serif; font-size: 10px; fill: #000; opacity: 1;">18%</text><text text-anchor="end" transform="translate(-7,3)" style="font-family: sans-serif; font-size: 10px; fill: #000; opacity: 1;">20%</text></g><g class="mark-rule role-axis-domain" style="pointer-events: none;"><line transform="translate(0,300)" x2="0" y2="-300" style="fill: none; stroke: #888; stroke-width: 1; opacity: 1;"></line></g><g class="mark-text role-axis-title" style="pointer-events: none;"><text text-anchor="middle" transform="translate(-31.0146484375,150) rotate(-90) translate(0,-2)" style="font-family: sans-serif; font-size: 11px; font-weight: bold; fill: #000; opacity: 1;">Anteil der Bevölkerung</text></g></g><path class="foreground" d="" style="pointer-events: none; display: none; fill: none;"></path></g></g><g class="mark-area role-mark layer_0_marks"><path d="M0,300L0,300L1,300L1,300L2,300L2,300L3,300L3,300L4,300L4,300L5,300L5,300L6,300L6,300L7.000000000000001,300L7.000000000000001,300L8,300L8,300L9,300L9,300L10,300L10,300L11,300L11,300L12,300L12,300L13,300L13,300L14.000000000000002,300L14.000000000000002,300L15,300L15,300L16,300L16,300L17,300L17,300L18,300L18,300L19,300L19,300L20,300L20,300L21,300L21,300L22,300L22,300L23,300L23,300L24,300L24,300L25,300L25,300L26,300L26,300L27,300L27,300L28.000000000000004,300L28.000000000000004,300L28.999999999999996,300L28.999999999999996,0L30,0L30,0L31,0L31,0L32,0L32,0L33,0L33,0L34,0L34,0L35,0L35,0L36,0L36,0L37,0L37,0L38,0L38,0L39,0L39,0L40,0L40,0L41,0L41,0L42,0L42,0L43,0L43,0L44,0L44,0L45,0L45,0L46,0L46,0L47,0L47,0L48,0L48,0L49,0L49,0L50,0L50,0L51,0L51,0L52,0L52,0L53,0L53,0L54,0L54,0L55.00000000000001,0L55.00000000000001,0L56.00000000000001,0L56.00000000000001,0L56.99999999999999,0L56.99999999999999,0L57.99999999999999,0L57.99999999999999,300L59,300L59,300L60,300L60,300L61,300L61,300L62,300L62,300L63,300L63,300L64,300L64,300L65,300L65,300L66,300L66,300L67,300L67,300L68,300L68,300L69,300L69,300L70,300L70,300L71,300L71,300L72,300L72,300L73,300L73,300L74,300L74,300L75,300L75,300L76,300L76,300L77,300L77,300L78,300L78,300L79,300L79,300L80,300L80,300L81,300L81,300L82,300L82,300L83,300L83,300L84,300L84,300L85,300L85,300L86,300L86,300L87,300L87,300L88,300L88,300L89,300L89,300L90,300L90,300L91,300L91,300L92,300L92,300L93,300L93,300L94,300L94,300L95,300L95,300L96,300L96,300L97,300L97,300L98,300L98,300L99,300L99,300L100,300L100,300L101,300L101,300L102,300L102,300L103,300L103,300L104,300L104,300L105,300L105,300L106,300L106,300L107,300L107,300L108,300L108,300L109.00000000000001,300L109.00000000000001,300L110.00000000000001,300L110.00000000000001,300L111.00000000000001,300L111.00000000000001,300L112.00000000000001,300L112.00000000000001,300L112.99999999999999,300L112.99999999999999,300L113.99999999999999,300L113.99999999999999,300L114.99999999999999,300L114.99999999999999,300L115.99999999999999,300L115.99999999999999,300L117,300L117,300L118,300L118,300L119,300L119,300L120,300L120,300L121,300L121,300L122,300L122,300L123,300L123,300L124,300L124,300L125,300L125,300L126,300L126,300L127,300L127,300L128,300L128,300L129,300L129,300L130,300L130,300L131,300L131,300L132,300L132,300L133,300L133,300L134,300L134,300L135,300L135,300L136,300L136,300L137,300L137,300L138,300L138,300L139,300L139,300L140,300L140,300L141,300L141,300L142,300L142,300L143,300L143,300L144,300L144,300L145,300L145,300L146,300L146,300L147,300L147,300L148,300L148,300L149,300L149,300L150,300L150,300L151,300L151,300L152,300L152,300L153,300L153,300L154,300L154,300L155,300L155,300L156,300L156,300L157,300L157,300L158,300L158,300L159,300L159,300L160,300L160,300L161,300L161,300L162,300L162,300L163,300L163,300L164,300L164,300L165,300L165,300L166,300L166,300L167,300L167,300L168,300L168,300L169,300L169,300L170,300L170,300L171,300L171,300L172,300L172,300L173,300L173,300L174,300L174,300L175,300L175,300L176,300L176,300L177,300L177,300L178,300L178,300L179,300L179,300L180,300L180,300L181,300L181,300L182,300L182,300L183,300L183,300L184,300L184,300L185,300L185,300L186,300L186,300L187,300L187,300L188,300L188,300L189,300L189,300L190,300L190,300L191,300L191,300L192,300L192,300L193,300L193,300L194,300L194,300L195,300L195,300L196,300L196,300L197,300L197,300L198,300L198,300L199,300L199,300L200,300L200,300L200.99999999999997,300L200.99999999999997,300L202,300L202,300L202.99999999999997,300L202.99999999999997,300L204,300L204,300L204.99999999999997,300L204.99999999999997,300L206,300L206,300L206.99999999999997,300L206.99999999999997,300L208,300L208,300L209,300L209,300L210,300L210,300L211,300L211,300L212,300L212,300L213,300L213,300L214,300L214,300L215,300L215,300L216,300L216,300L217,300L217,300L218.00000000000003,300L218.00000000000003,300L219,300L219,300L220.00000000000003,300L220.00000000000003,300L221,300L221,300L222.00000000000003,300L222.00000000000003,300L223,300L223,300L224.00000000000003,300L224.00000000000003,300L225,300L225,300L225.99999999999997,300L225.99999999999997,300L227,300L227,300L227.99999999999997,300L227.99999999999997,300L229,300L229,300L229.99999999999997,300L229.99999999999997,300L231,300L231,300L231.99999999999997,300L231.99999999999997,300L233,300L233,300L234,300L234,300L235,300L235,300L236,300L236,300L237,300L237,300L238,300L238,300L239,300L239,300L240,300L240,300L241,300L241,300L242,300L242,300L243.00000000000003,300L243.00000000000003,300L244,300L244,300L245.00000000000003,300L245.00000000000003,300L246,300L246,300L247.00000000000003,300L247.00000000000003,300L248,300L248,300L249.00000000000003,300L249.00000000000003,300L250,300L250,300L250.99999999999997,300L250.99999999999997,300L252,300L252,300L252.99999999999997,300L252.99999999999997,300L254,300L254,300L254.99999999999997,300L254.99999999999997,300L256,300L256,300L257,300L257,300L258,300L258,300L259,300L259,300L260,300L260,300L261,300L261,300L262,300L262,300L263,300L263,300L264,300L264,300L265,300L265,300L266,300L266,300L267,300L267,300L268,300L268,300L269,300L269,300L270,300L270,300L271,300L271,300L272,300L272,300L273,300L273,300L274,300L274,300L275,300L275,300L276,300L276,300L277,300L277,300L278,300L278,300L279,300L279,300L280,300L280,300L281,300L281,300L282,300L282,300L283,300L283,300L284,300L284,300L285,300L285,300L286,300L286,300L287,300L287,300L288,300L288,300L289,300L289,300L290,300L290,300L291,300L291,300L292,300L292,300L293,300L293,300L294,300L294,300L295,300L295,300L296,300L296,300L297,300L297,300L298,300L298,300L299,300L299,300L300,300L300,300L301,300L301,300L302,300L302,300L303,300L303,300L304,300L304,300L305,300L305,300L306,300L306,300L307,300L307,300L308,300L308,300L309,300L309,300L310,300L310,300L311,300L311,300L312,300L312,300L313,300L313,300L314,300L314,300L315,300L315,300L316,300L316,300L317,300L317,300L318,300L318,300L319,300L319,300L320,300L320,300L321,300L321,300L322,300L322,300L323,300L323,300L324,300L324,300L325,300L325,300L326,300L326,300L327,300L327,300L328,300L328,300L329,300L329,300L330,300L330,300L331,300L331,300L332,300L332,300L333,300L333,300L334,300L334,300L335,300L335,300L336,300L336,300L337,300L337,300L338,300L338,300L339,300L339,300L340,300L340,300L341,300L341,300L342,300L342,300L343,300L343,300L344,300L344,300L345,300L345,300L346,300L346,300L347,300L347,300L348,300L348,300L349,300L349,300L350,300L350,300L351,300L351,300L352,300L352,300L353,300L353,300L354,300L354,300L355,300L355,300L356,300L356,300L357,300L357,300L358,300L358,300L359,300L359,300L360,300L360,300L361,300L361,300L362,300L362,300L363,300L363,300L364,300L364,300L363,300L363,300L362,300L362,300L361,300L361,300L360,300L360,300L359,300L359,300L358,300L358,300L357,300L357,300L356,300L356,300L355,300L355,300L354,300L354,300L353,300L353,300L352,300L352,300L351,300L351,300L350,300L350,300L349,300L349,300L348,300L348,300L347,300L347,300L346,300L346,300L345,300L345,300L344,300L344,300L343,300L343,300L342,300L342,300L341,300L341,300L340,300L340,300L339,300L339,300L338,300L338,300L337,300L337,300L336,300L336,300L335,300L335,300L334,300L334,300L333,300L333,300L332,300L332,300L331,300L331,300L330,300L330,300L329,300L329,300L328,300L328,300L327,300L327,300L326,300L326,300L325,300L325,300L324,300L324,300L323,300L323,300L322,300L322,300L321,300L321,300L320,300L320,300L319,300L319,300L318,300L318,300L317,300L317,300L316,300L316,300L315,300L315,300L314,300L314,300L313,300L313,300L312,300L312,300L311,300L311,300L310,300L310,300L309,300L309,300L308,300L308,300L307,300L307,300L306,300L306,300L305,300L305,300L304,300L304,300L303,300L303,300L302,300L302,300L301,300L301,300L300,300L300,300L299,300L299,300L298,300L298,300L297,300L297,300L296,300L296,300L295,300L295,300L294,300L294,300L293,300L293,300L292,300L292,300L291,300L291,300L290,300L290,300L289,300L289,300L288,300L288,300L287,300L287,300L286,300L286,300L285,300L285,300L284,300L284,300L283,300L283,300L282,300L282,300L281,300L281,300L280,300L280,300L279,300L279,300L278,300L278,300L277,300L277,300L276,300L276,300L275,300L275,300L274,300L274,300L273,300L273,300L272,300L272,300L271,300L271,300L270,300L270,300L269,300L269,300L268,300L268,300L267,300L267,300L266,300L266,300L265,300L265,300L264,300L264,300L263,300L263,300L262,300L262,300L261,300L261,300L260,300L260,300L259,300L259,300L258,300L258,300L257,300L257,300L256,300L256,300L254.99999999999997,300L254.99999999999997,300L254,300L254,300L252.99999999999997,300L252.99999999999997,300L252,300L252,300L250.99999999999997,300L250.99999999999997,300L250,300L250,300L249.00000000000003,300L249.00000000000003,300L248,300L248,300L247.00000000000003,300L247.00000000000003,300L246,300L246,300L245.00000000000003,300L245.00000000000003,300L244,300L244,300L243.00000000000003,300L243.00000000000003,300L242,300L242,300L241,300L241,300L240,300L240,300L239,300L239,300L238,300L238,300L237,300L237,300L236,300L236,300L235,300L235,300L234,300L234,300L233,300L233,300L231.99999999999997,300L231.99999999999997,300L231,300L231,300L229.99999999999997,300L229.99999999999997,300L229,300L229,300L227.99999999999997,300L227.99999999999997,300L227,300L227,300L225.99999999999997,300L225.99999999999997,300L225,300L225,300L224.00000000000003,300L224.00000000000003,300L223,300L223,300L222.00000000000003,300L222.00000000000003,300L221,300L221,300L220.00000000000003,300L220.00000000000003,300L219,300L219,300L218.00000000000003,300L218.00000000000003,300L217,300L217,300L216,300L216,300L215,300L215,300L214,300L214,300L213,300L213,300L212,300L212,300L211,300L211,300L210,300L210,300L209,300L209,300L208,300L208,300L206.99999999999997,300L206.99999999999997,300L206,300L206,300L204.99999999999997,300L204.99999999999997,300L204,300L204,300L202.99999999999997,300L202.99999999999997,300L202,300L202,300L200.99999999999997,300L200.99999999999997,300L200,300L200,300L199,300L199,300L198,300L198,300L197,300L197,300L196,300L196,300L195,300L195,300L194,300L194,300L193,300L193,300L192,300L192,300L191,300L191,300L190,300L190,300L189,300L189,300L188,300L188,300L187,300L187,300L186,300L186,300L185,300L185,300L184,300L184,300L183,300L183,300L182,300L182,300L181,300L181,300L180,300L180,300L179,300L179,300L178,300L178,300L177,300L177,300L176,300L176,300L175,300L175,300L174,300L174,300L173,300L173,300L172,300L172,300L171,300L171,300L170,300L170,300L169,300L169,300L168,300L168,300L167,300L167,300L166,300L166,300L165,300L165,300L164,300L164,300L163,300L163,300L162,300L162,300L161,300L161,300L160,300L160,300L159,300L159,300L158,300L158,300L157,300L157,300L156,300L156,300L155,300L155,300L154,300L154,300L153,300L153,300L152,300L152,300L151,300L151,300L150,300L150,300L149,300L149,300L148,300L148,300L147,300L147,300L146,300L146,300L145,300L145,300L144,300L144,300L143,300L143,300L142,300L142,300L141,300L141,300L140,300L140,300L139,300L139,300L138,300L138,300L137,300L137,300L136,300L136,300L135,300L135,300L134,300L134,300L133,300L133,300L132,300L132,300L131,300L131,300L130,300L130,300L129,300L129,300L128,300L128,300L127,300L127,300L126,300L126,300L125,300L125,300L124,300L124,300L123,300L123,300L122,300L122,300L121,300L121,300L120,300L120,300L119,300L119,300L118,300L118,300L117,300L117,300L115.99999999999999,300L115.99999999999999,300L114.99999999999999,300L114.99999999999999,300L113.99999999999999,300L113.99999999999999,300L112.99999999999999,300L112.99999999999999,300L112.00000000000001,300L112.00000000000001,300L111.00000000000001,300L111.00000000000001,300L110.00000000000001,300L110.00000000000001,300L109.00000000000001,300L109.00000000000001,300L108,300L108,300L107,300L107,300L106,300L106,300L105,300L105,300L104,300L104,300L103,300L103,300L102,300L102,300L101,300L101,300L100,300L100,300L99,300L99,300L98,300L98,300L97,300L97,300L96,300L96,300L95,300L95,300L94,300L94,300L93,300L93,300L92,300L92,300L91,300L91,300L90,300L90,300L89,300L89,300L88,300L88,300L87,300L87,300L86,300L86,300L85,300L85,300L84,300L84,300L83,300L83,300L82,300L82,300L81,300L81,300L80,300L80,300L79,300L79,300L78,300L78,300L77,300L77,300L76,300L76,300L75,300L75,300L74,300L74,300L73,300L73,300L72,300L72,300L71,300L71,300L70,300L70,300L69,300L69,300L68,300L68,300L67,300L67,300L66,300L66,300L65,300L65,300L64,300L64,300L63,300L63,300L62,300L62,300L61,300L61,300L60,300L60,300L59,300L59,300L57.99999999999999,300L57.99999999999999,300L56.99999999999999,300L56.99999999999999,300L56.00000000000001,300L56.00000000000001,300L55.00000000000001,300L55.00000000000001,300L54,300L54,300L53,300L53,300L52,300L52,300L51,300L51,300L50,300L50,300L49,300L49,300L48,300L48,300L47,300L47,300L46,300L46,300L45,300L45,300L44,300L44,300L43,300L43,300L42,300L42,300L41,300L41,300L40,300L40,300L39,300L39,300L38,300L38,300L37,300L37,300L36,300L36,300L35,300L35,300L34,300L34,300L33,300L33,300L32,300L32,300L31,300L31,300L30,300L30,300L28.999999999999996,300L28.999999999999996,300L28.000000000000004,300L28.000000000000004,300L27,300L27,300L26,300L26,300L25,300L25,300L24,300L24,300L23,300L23,300L22,300L22,300L21,300L21,300L20,300L20,300L19,300L19,300L18,300L18,300L17,300L17,300L16,300L16,300L15,300L15,300L14.000000000000002,300L14.000000000000002,300L13,300L13,300L12,300L12,300L11,300L11,300L10,300L10,300L9,300L9,300L8,300L8,300L7.000000000000001,300L7.000000000000001,300L6,300L6,300L5,300L5,300L4,300L4,300L3,300L3,300L2,300L2,300L1,300L1,300L0,300L0,300Z" style="fill: #82b7d7; opacity: 0.5;"></path></g><g class="mark-area role-mark layer_1_marks"><path d="M0,300L1,300L1,300L2,300L2,300L3,300L3,300L4,300L4,300L5,300L5,300L6,300L6,300L7.000000000000001,300L7.000000000000001,300L8,300L8,300L9,300L9,300L10,300L10,300L11,300L11,300L12,300L12,300L13,300L13,300L14.000000000000002,300L14.000000000000002,300L15,300L15,300L16,300L16,300L17,300L17,300L18,300L18,300L19,300L19,300L20,300L20,300L21,300L21,300L22,300L22,300L23,300L23,300L24,300L24,300L25,300L25,300L26,300L26,300L27,300L27,300L28.000000000000004,300L28.000000000000004,300L28.999999999999996,300L28.999999999999996,300L30,300L30,300L31,300L31,300L32,300L32,300L33,300L33,300L34,300L34,300L35,300L35,300L36,300L36,300L37,300L37,300L38,300L38,300L39,300L39,300L40,300L40,300L41,300L41,300L42,300L42,300L43,300L43,300L44,300L44,300L45,300L45,300L46,300L46,300L47,300L47,300L48,300L48,300L49,300L49,300L50,300L50,300L51,300L51,300L52,300L52,300L53,300L53,300L54,300L54,300L55.00000000000001,300L55.00000000000001,300L56.00000000000001,300L56.00000000000001,300L56.99999999999999,300L56.99999999999999,300L57.99999999999999,300L57.99999999999999,0L59,0L59,0L60,0L60,0L61,0L61,0L62,0L62,0L63,0L63,0L64,0L64,0L65,0L65,0L66,0L66,0L67,0L67,0L68,0L68,0L69,0L69,0L70,0L70,0L71,0L71,0L72,0L72,0L73,0L73,0L74,0L74,0L75,0L75,0L76,0L76,0L77,0L77,0L78,0L78,0L79,0L79,0L80,0L80,0L81,0L81,0L82,0L82,0L83,0L83,0L84,0L84,0L85,0L85,0L86,0L86,0L87,0L87,0L88,0L88,0L89,0L89,0L90,0L90,0L91,0L91,0L92,0L92,0L93,0L93,0L94,0L94,0L95,0L95,0L96,0L96,0L97,0L97,0L98,0L98,0L99,0L99,0L100,0L100,0L101,0L101,0L102,0L102,0L103,0L103,0L104,0L104,0L105,0L105,0L106,0L106,0L107,0L107,0L108,0L108,0L109.00000000000001,0L109.00000000000001,0L110.00000000000001,0L110.00000000000001,0L111.00000000000001,0L111.00000000000001,0L112.00000000000001,0L112.00000000000001,0L112.99999999999999,0L112.99999999999999,0L113.99999999999999,0L113.99999999999999,0L114.99999999999999,0L114.99999999999999,0L115.99999999999999,0L115.99999999999999,0L117,0L117,0L118,0L118,0L119,0L119,0L120,0L120,0L121,0L121,0L122,0L122,0L123,0L123,0L124,0L124,0L125,0L125,0L126,0L126,0L127,0L127,0L128,0L128,0L129,0L129,0L130,0L130,0L131,0L131,0L132,0L132,0L133,0L133,0L134,0L134,0L135,0L135,0L136,0L136,0L137,0L137,0L138,0L138,0L139,0L139,0L140,0L140,0L141,0L141,0L142,0L142,0L143,0L143,0L144,0L144,0L145,0L145,0L146,0L146,0L147,0L147,0L148,0L148,0L149,0L149,0L150,0L150,0L151,0L151,0L152,0L152,0L153,0L153,0L154,0L154,0L155,0L155,0L156,0L156,0L157,0L157,0L158,0L158,0L159,0L159,0L160,0L160,0L161,0L161,0L162,0L162,0L163,0L163,0L164,0L164,0L165,0L165,0L166,0L166,0L167,0L167,0L168,0L168,0L169,0L169,0L170,0L170,0L171,0L171,0L172,0L172,0L173,0L173,0L174,0L174,0L175,0L175,0L176,0L176,0L177,0L177,0L178,0L178,0L179,0L179,0L180,0L180,0L181,0L181,0L182,0L182,0L183,0L183,0L184,0L184,0L185,0L185,0L186,0L186,0L187,0L187,0L188,0L188,0L189,0L189,0L190,0L190,0L191,0L191,0L192,0L192,0L193,0L193,0L194,0L194,0L195,0L195,0L196,0L196,0L197,0L197,0L198,0L198,0L199,0L199,0L200,0L200,0L200.99999999999997,0L200.99999999999997,0L202,0L202,0L202.99999999999997,0L202.99999999999997,0L204,0L204,0L204.99999999999997,0L204.99999999999997,0L206,0L206,0L206.99999999999997,0L206.99999999999997,0L208,0L208,0L209,0L209,0L210,0L210,0L211,0L211,0L212,0L212,0L213,0L213,0L214,0L214,0L215,0L215,0L216,0L216,0L217,0L217,0L218.00000000000003,0L218.00000000000003,0L219,0L219,0L220.00000000000003,0L220.00000000000003,0L221,0L221,0L222.00000000000003,0L222.00000000000003,0L223,0L223,0L224.00000000000003,0L224.00000000000003,0L225,0L225,0L225.99999999999997,0L225.99999999999997,0L227,0L227,0L227.99999999999997,0L227.99999999999997,0L229,0L229,0L229.99999999999997,0L229.99999999999997,0L231,0L231,0L231.99999999999997,0L231.99999999999997,0L233,0L233,0L234,0L234,0L235,0L235,0L236,0L236,0L237,0L237,0L238,0L238,0L239,0L239,0L240,0L240,0L241,0L241,0L242,0L242,0L243.00000000000003,0L243.00000000000003,0L244,0L244,0L245.00000000000003,0L245.00000000000003,0L246,0L246,0L247.00000000000003,0L247.00000000000003,0L248,0L248,0L249.00000000000003,0L249.00000000000003,0L250,0L250,0L250.99999999999997,0L250.99999999999997,0L252,0L252,0L252.99999999999997,0L252.99999999999997,0L254,0L254,0L254.99999999999997,0L254.99999999999997,0L256,0L256,0L257,0L257,0L258,0L258,0L259,0L259,0L260,0L260,0L261,0L261,0L262,0L262,0L263,0L263,0L264,0L264,0L265,0L265,0L266,0L266,0L267,0L267,0L268,0L268,0L269,0L269,0L270,0L270,0L271,0L271,0L272,0L272,0L273,0L273,0L274,0L274,0L275,0L275,0L276,0L276,0L277,0L277,0L278,0L278,0L279,0L279,0L280,0L280,0L281,0L281,0L282,0L282,0L283,0L283,0L284,0L284,0L285,0L285,0L286,0L286,0L287,0L287,0L288,0L288,0L289,0L289,0L290,0L290,0L291,0L291,0L292,0L292,0L293,0L293,0L294,0L294,0L295,0L295,0L296,0L296,0L297,0L297,0L298,0L298,0L299,0L299,0L300,0L300,0L301,0L301,0L302,0L302,0L303,0L303,0L304,0L304,0L305,0L305,0L306,0L306,0L307,0L307,0L308,0L308,0L309,0L309,0L310,0L310,0L311,0L311,0L312,0L312,0L313,0L313,0L314,0L314,0L315,0L315,0L316,0L316,0L317,0L317,0L318,0L318,0L319,0L319,0L320,0L320,0L321,0L321,0L322,0L322,0L323,0L323,0L324,0L324,0L325,0L325,0L326,0L326,0L327,0L327,0L328,0L328,0L329,0L329,0L330,0L330,0L331,0L331,0L332,0L332,0L333,0L333,0L334,0L334,0L335,0L335,0L336,0L336,0L337,0L337,0L338,0L338,0L339,0L339,0L340,0L340,0L341,0L341,0L342,0L342,0L343,0L343,0L344,0L344,0L345,0L345,0L346,0L346,0L347,0L347,0L348,0L348,0L349,0L349,0L350,0L350,0L351,0L351,0L352,0L352,0L353,0L353,0L354,0L354,0L355,0L355,0L356,0L356,0L357,0L357,0L358,0L358,0L359,0L359,0L360,0L360,0L361,0L361,0L362,0L362,0L363,0L363,0L364,0L364,0L364,300L364,300L363,300L363,300L362,300L362,300L361,300L361,300L360,300L360,300L359,300L359,300L358,300L358,300L357,300L357,300L356,300L356,300L355,300L355,300L354,300L354,300L353,300L353,300L352,300L352,300L351,300L351,300L350,300L350,300L349,300L349,300L348,300L348,300L347,300L347,300L346,300L346,300L345,300L345,300L344,300L344,300L343,300L343,300L342,300L342,300L341,300L341,300L340,300L340,300L339,300L339,300L338,300L338,300L337,300L337,300L336,300L336,300L335,300L335,300L334,300L334,300L333,300L333,300L332,300L332,300L331,300L331,300L330,300L330,300L329,300L329,300L328,300L328,300L327,300L327,300L326,300L326,300L325,300L325,300L324,300L324,300L323,300L323,300L322,300L322,300L321,300L321,300L320,300L320,300L319,300L319,300L318,300L318,300L317,300L317,300L316,300L316,300L315,300L315,300L314,300L314,300L313,300L313,300L312,300L312,300L311,300L311,300L310,300L310,300L309,300L309,300L308,300L308,300L307,300L307,300L306,300L306,300L305,300L305,300L304,300L304,300L303,300L303,300L302,300L302,300L301,300L301,300L300,300L300,300L299,300L299,300L298,300L298,300L297,300L297,300L296,300L296,300L295,300L295,300L294,300L294,300L293,300L293,300L292,300L292,300L291,300L291,300L290,300L290,300L289,300L289,300L288,300L288,300L287,300L287,300L286,300L286,300L285,300L285,300L284,300L284,300L283,300L283,300L282,300L282,300L281,300L281,300L280,300L280,300L279,300L279,300L278,300L278,300L277,300L277,300L276,300L276,300L275,300L275,300L274,300L274,300L273,300L273,300L272,300L272,300L271,300L271,300L270,300L270,300L269,300L269,300L268,300L268,300L267,300L267,300L266,300L266,300L265,300L265,300L264,300L264,300L263,300L263,300L262,300L262,300L261,300L261,300L260,300L260,300L259,300L259,300L258,300L258,300L257,300L257,300L256,300L256,300L254.99999999999997,300L254.99999999999997,300L254,300L254,300L252.99999999999997,300L252.99999999999997,300L252,300L252,300L250.99999999999997,300L250.99999999999997,300L250,300L250,300L249.00000000000003,300L249.00000000000003,300L248,300L248,300L247.00000000000003,300L247.00000000000003,300L246,300L246,300L245.00000000000003,300L245.00000000000003,300L244,300L244,300L243.00000000000003,300L243.00000000000003,300L242,300L242,300L241,300L241,300L240,300L240,300L239,300L239,300L238,300L238,300L237,300L237,300L236,300L236,300L235,300L235,300L234,300L234,300L233,300L233,300L231.99999999999997,300L231.99999999999997,300L231,300L231,300L229.99999999999997,300L229.99999999999997,300L229,300L229,300L227.99999999999997,300L227.99999999999997,300L227,300L227,300L225.99999999999997,300L225.99999999999997,300L225,300L225,300L224.00000000000003,300L224.00000000000003,300L223,300L223,300L222.00000000000003,300L222.00000000000003,300L221,300L221,300L220.00000000000003,300L220.00000000000003,300L219,300L219,300L218.00000000000003,300L218.00000000000003,300L217,300L217,300L216,300L216,300L215,300L215,300L214,300L214,300L213,300L213,300L212,300L212,300L211,300L211,300L210,300L210,300L209,300L209,300L208,300L208,300L206.99999999999997,300L206.99999999999997,300L206,300L206,300L204.99999999999997,300L204.99999999999997,300L204,300L204,300L202.99999999999997,300L202.99999999999997,300L202,300L202,300L200.99999999999997,300L200.99999999999997,300L200,300L200,300L199,300L199,300L198,300L198,300L197,300L197,300L196,300L196,300L195,300L195,300L194,300L194,300L193,300L193,300L192,300L192,300L191,300L191,300L190,300L190,300L189,300L189,300L188,300L188,300L187,300L187,300L186,300L186,300L185,300L185,300L184,300L184,300L183,300L183,300L182,300L182,300L181,300L181,300L180,300L180,300L179,300L179,300L178,300L178,300L177,300L177,300L176,300L176,300L175,300L175,300L174,300L174,300L173,300L173,300L172,300L172,300L171,300L171,300L170,300L170,300L169,300L169,300L168,300L168,300L167,300L167,300L166,300L166,300L165,300L165,300L164,300L164,300L163,300L163,300L162,300L162,300L161,300L161,300L160,300L160,300L159,300L159,300L158,300L158,300L157,300L157,300L156,300L156,300L155,300L155,300L154,300L154,300L153,300L153,300L152,300L152,300L151,300L151,300L150,300L150,300L149,300L149,300L148,300L148,300L147,300L147,300L146,300L146,300L145,300L145,300L144,300L144,300L143,300L143,300L142,300L142,300L141,300L141,300L140,300L140,300L139,300L139,300L138,300L138,300L137,300L137,300L136,300L136,300L135,300L135,300L134,300L134,300L133,300L133,300L132,300L132,300L131,300L131,300L130,300L130,300L129,300L129,300L128,300L128,300L127,300L127,300L126,300L126,300L125,300L125,300L124,300L124,300L123,300L123,300L122,300L122,300L121,300L121,300L120,300L120,300L119,300L119,300L118,300L118,300L117,300L117,300L115.99999999999999,300L115.99999999999999,300L114.99999999999999,300L114.99999999999999,300L113.99999999999999,300L113.99999999999999,300L112.99999999999999,300L112.99999999999999,300L112.00000000000001,300L112.00000000000001,300L111.00000000000001,300L111.00000000000001,300L110.00000000000001,300L110.00000000000001,300L109.00000000000001,300L109.00000000000001,300L108,300L108,300L107,300L107,300L106,300L106,300L105,300L105,300L104,300L104,300L103,300L103,300L102,300L102,300L101,300L101,300L100,300L100,300L99,300L99,300L98,300L98,300L97,300L97,300L96,300L96,300L95,300L95,300L94,300L94,300L93,300L93,300L92,300L92,300L91,300L91,300L90,300L90,300L89,300L89,300L88,300L88,300L87,300L87,300L86,300L86,300L85,300L85,300L84,300L84,300L83,300L83,300L82,300L82,300L81,300L81,300L80,300L80,300L79,300L79,300L78,300L78,300L77,300L77,300L76,300L76,300L75,300L75,300L74,300L74,300L73,300L73,300L72,300L72,300L71,300L71,300L70,300L70,300L69,300L69,300L68,300L68,300L67,300L67,300L66,300L66,300L65,300L65,300L64,300L64,300L63,300L63,300L62,300L62,300L61,300L61,300L60,300L60,300L59,300L59,300L57.99999999999999,300L57.99999999999999,300L56.99999999999999,300L56.99999999999999,300L56.00000000000001,300L56.00000000000001,300L55.00000000000001,300L55.00000000000001,300L54,300L54,300L53,300L53,300L52,300L52,300L51,300L51,300L50,300L50,300L49,300L49,300L48,300L48,300L47,300L47,300L46,300L46,300L45,300L45,300L44,300L44,300L43,300L43,300L42,300L42,300L41,300L41,300L40,300L40,300L39,300L39,300L38,300L38,300L37,300L37,300L36,300L36,300L35,300L35,300L34,300L34,300L33,300L33,300L32,300L32,300L31,300L31,300L30,300L30,300L28.999999999999996,300L28.999999999999996,300L28.000000000000004,300L28.000000000000004,300L27,300L27,300L26,300L26,300L25,300L25,300L24,300L24,300L23,300L23,300L22,300L22,300L21,300L21,300L20,300L20,300L19,300L19,300L18,300L18,300L17,300L17,300L16,300L16,300L15,300L15,300L14.000000000000002,300L14.000000000000002,300L13,300L13,300L12,300L12,300L11,300L11,300L10,300L10,300L9,300L9,300L8,300L8,300L7.000000000000001,300L7.000000000000001,300L6,300L6,300L5,300L5,300L4,300L4,300L3,300L3,300L2,300L2,300L1,300L1,300L0,300Z" style="fill: #9bc6df; opacity: 0.5;"></path></g><g class="mark-line role-mark layer_2_marks"><path d="M0,299.9817073170732L1,299.98280600763405L2,299.9828134660762L3,299.98211458094653L4,299.98092967413373L5,299.97938152026904L6,299.9775347522981L7.000000000000001,299.97541899958725L8,299.9730424372456L9,299.97039968235345L10,299.96747635236716L11,299.96425164865093L12,299.9606997662924L13,299.9567906036526L14.000000000000002,299.95249004457105L15,299.94775997783705L16,299.94255814629935L17,299.9368378797482L18,299.9305477416677L19,299.92363110583767L20,299.91602567028025L21,299.90766291086163L22,299.89846747360224L23,299.88835650260586L24,299.87723889901105L25,299.8650145052126L26,299.85157320762744L27,299.83679395038365L28.000000000000004,299.8205436514393L28.999999999999996,299.8026760117356L30,299.7867465858244L31,299.77498342154865L32,299.765838500261L33,299.75832715753126L34,299.75182285729073L35,299.745926720752L36,299.74038458489844L37,299.7350342750188L38,299.729772084687L39,299.7245314662258L40,299.7192694829148L41,299.71395819978676L42,299.70857920277575L43,299.7031201222864L44,299.69757241858304L45,299.691929974698L46,299.6861882017005L47,299.6803434696858L48,299.67439274583063L49,299.6683333640842L50,299.6621628785418L51,299.65587897001393L52,299.6494793864121L53,299.6429619046297L54,299.6363243060841L55.00000000000001,299.62956436094225L56.00000000000001,299.6226798178631L56.99999999999999,299.61566839724367L57.99999999999999,299.60711819185553L59,299.5962510560906L60,299.5837367611844L61,299.56998675090125L62,299.55525077070286L63,299.53967725098994L64,299.5233510379898L65,299.506316958427L66,299.4885945455106L67,299.4701872224445L68,299.45108803757785L69,299.4312832365757L70,299.41075448414153L71,299.38948024143383L72,299.3674366154843L73,299.3445978782911L74,299.3209367791149L75,299.29642472717165L76,299.27103189295804L77,299.24472725834727L78,299.21747863428317L79,299.1892526578334L80,299.16001477594335L81,299.1297292204744L82,299.09835897738327L83,299.0658657518223L84,299.03220993026883L85,298.9973505403688L86,298.9612452089203L87,298.9238501182575L88,298.88511996119644L89,298.84500789463823L90,298.80346549188965L91,298.7604426937379L92,298.7158877583006L93,298.6697472096672L94,298.6219657853442L95,298.57248638251406L96,298.52125000312134L97,298.4681956977999L98,298.41326050865786L99,298.35637941094336L100,298.29748525361464L101,298.23650869884716L102,298.1733781605123L103,298.10801974167106L104,298.0403571711306L105,297.9703117391206L106,297.89780223215183L107,297.82274486713095L108,297.7450532248095L109.00000000000001,297.6646381826616L110.00000000000001,297.581407847288L111.00000000000001,297.4952674864608L112.00000000000001,297.4061194609325L112.99999999999999,297.31386315614606L113.99999999999999,297.21839491399743L114.99999999999999,297.11960796481475L115.99999999999999,297.0173923597365L117,296.9116349036847L118,296.80221908914996L119,296.6890250310202L120,296.5719294027094L121,296.4508053738593L122,296.3255225499133L123,296.19594691388147L124,296.0619407706449L125,295.92336269417063L126,295.7800674780367L127,295.63190608969813L128,295.47872562895196L129,295.3203692910941L130,295.15667633529307L131,294.9874820587405L132,294.81261777717566L133,294.6319108124175L134,294.4451844875789L135,294.2522581306767L136,294.0529470873938L137,293.84706274379306L138,293.6344125598251L139,293.4148001145203L140,293.1880251637986L141,292.9538837118785L142,292.71216809731396L143,292.462667094735L144,292.2051660334155L145,291.93944693383736L146,291.66528866346925L147,291.3824671130198L148,291.09075539447133L149,290.7899240622414L150,290.47974135885784L151,290.15997348656805L152,289.8303849063389L153,289.4907386657258L154,289.1407967571168L155,288.7803205078694L156,288.40907100387034L157,288.0268095480453L158,287.633298155342L159,287.2283000856866L160,286.8115804163868L161,286.3829066554117L162,285.94204939691997L163,285.48878302033864L164,285.02288643420343L165,284.5441438658672L166,284.05234569805435L167,283.5472893530923L168,283.0287802254825L169,282.4966326632753L170,281.9506709984987L171,281.39073062663914L172,280.8166591349034L173,280.2283174786823L174,279.6255812053076L175,279.0083417238258L176,278.3765076191191L177,277.7300060082739L178,277.0687839366409L179,276.39280981053713L180,275.70207486302144L181,274.99659464862435L182,274.27641056233415L183,273.54159137753913L184,272.79223479700033L185,272.02846901028437L186,271.2504542504266L187,270.45838434192797L188,269.652488231512L189,268.8330314924031L190,268.000317792221L191,267.154690313944L192,266.2965331187772L193,265.4262724391746L194,264.5443778897319L195,263.65136358317875L196,262.7477891382904L197,261.8342605661966L198,260.91143102132384L199,259.98000140305913L200,259.0407207941955L200.99999999999997,258.09438672231056L202,257.14184523046447L202.99999999999997,256.1839907439768L204,255.22176572057558L204.99999999999997,254.2561600719109L206,253.28821034528673L206.99999999999997,252.31899865551253L208,251.3496513579906L209,250.3813374555557L210,249.41526673315596L211,248.45268761620866L212,247.49488475037398L213,246.54317630254903L214,245.598910985086L215,244.6634648075584L216,243.7382375628229L217,242.8246490566262L218.00000000000003,241.92413509255877L219,241.03814322673628L220.00000000000003,240.16812830915896L221,239.31554783122996L222.00000000000003,238.48185710137108L223,237.66850427301893L224.00000000000003,236.8769252514924L225,236.10853850824074L225.99999999999997,235.36473983279544L227,234.64689705431206L227.99999999999997,233.956344765876L229,233.2943790857331L229.99999999999997,232.66225249026317L231,232.061168753829L231.99999999999997,231.492278030586L233,230.95667211291874L234,230.45537990038412L235,229.98936311187234L236,229.55951227217494L237,229.16664300226694L238,228.81149264040081L239,228.4947172185917L240,228.21688881627549L241,227.978493309881L242,227.77992853380928L243.00000000000003,227.62150286490018L244,227.5034342389321L245.00000000000003,227.4258496040898L246,227.38878481269532L247.00000000000003,227.3921849488727L248,227.43590508625618L249.00000000000003,227.5197114663955L250,227.64328308520533L250.99999999999997,227.80621367168308L252,228.00801404022081L252.99999999999997,228.24811479518826L254,228.52586936409395L254.99999999999997,228.84055733356215L256,229.19138806060698L257,229.57750453025832L258,229.9979874294965L259,230.45185940669148L260,230.93808948530577L261,231.45559760050918L262,232.00325922754462L263,232.57991007117135L264,233.18435078626527L265,233.81535170066437L266,234.47165751257415L267,235.15199193627626L268,235.85506227148247L269,236.5795638734169L270,237.32418450256444L271,238.0876085349679L272,238.8685210159579L273,239.66561154223822L274,240.47757795929436L275,241.30312986312964L276,242.1409918973317L277,242.98990683842064L278,243.8486384643085L279,244.71597420249546L280,245.5907275563255L281,246.47174030921983L282,247.35788450828417L283,248.24806423004728L284,249.1412171323244L285,250.03631579731137L286,250.93236887200064L287,251.8284220128715L288,252.72355864254658L289,253.61690052672694L290,254.50760818022326L291,255.394881111302L292,256.2779579138573L293,257.1561162171219L294,258.0286725027407L295,258.8949817990592L296,259.75443726243753L297,260.6064696552843L298,261.45054673034025L299,262.2861725305129L300,263.1128866132995L301,263.93026320852556L302,264.7379103177901L303,265.5354687636408L304,266.3226111961185L305,267.0990410639075L306,267.864491556917L307,268.61872452669974L308,269.3615293906935L309,270.0927220258516L310,270.8121436568122L311,271.5196597433478L312,272.2151588714368L313,272.89855165191267L314,273.56976963026625L315,274.2287642108235L316,274.8755055981678L317,275.5099817583522L318,276.132197402133L319,276.742172992161L320,277.3399437757899L321,277.9255588449005L322,278.49908022389883L323,279.0605819868191L324,279.61014940425474L325,280.14787812064935L326,280.673873362302L327,281.1882491762822L328,281.691127700302L329,282.1826384634622L330,282.66291771767015L331,283.1321077994204L332,283.59035652153574L333,284.03781659438425L334,284.4746450760127L335,284.9010028505774L336,285.3170541343981L337,285.72296600891553L338,286.1189079797969L339,286.5050515614029L340,286.88156988580545L341,287.24863733552985L342,287.6064291991806L343,287.9551213491041L344,288.29488994023876L345,288.62591112930374L346,288.9483608134819L347,289.26241438776117L348,289.56824652010914L349,289.86603094366694L350,290.1559402651666L351,290.43814578878954L352,290.7128173547052L353,290.9801231915463L354,291.24022978209877L355,291.4933017415065L356,291.73950170731183L357,291.97899024067635L358,292.21192573814886L359,292.4384643533716L360,292.6587599281372L361,292.8729639322329L362,293.0812254115325L363,293.28369094381725L364,293.4805046018301" style="fill: none; stroke: orange; stroke-width: 2;"></path></g></g><path class="foreground" d="" style="display: none; fill: none;"></path></g></g></g></svg>