<?xml version="1.0" encoding="UTF-8"?>
<svg width="420px" height="383px" viewBox="0 0 420 383" version="1.1" xmlns="http://www.w3.org/2000/svg" xmlns:xlink="http://www.w3.org/1999/xlink">
    <!-- Generator: Sketch 60.1 (88133) - https://sketch.com -->
    <title>60Mod</title>
    <desc>Created with Sketch.</desc>
    <g id="60Mod" stroke="none" stroke-width="1" fill="none" fill-rule="evenodd">
        <rect fill="#FFFFFF" x="0" y="0" width="420" height="383"></rect>
        <rect id="Rectangle" fill="#FFFFFF" fill-rule="nonzero" x="0" y="36" width="454" height="347"></rect>
        <g id="Group" transform="translate(2.000000, 40.000000)">
            <g>
                <g>
                    <polygon id="Path" stroke="#DDDDDD" points="46.5 6.5 412.5 6.5 412.5 306.5 46.5 306.5"></polygon>
                    <g>
                        <g transform="translate(45.500000, 6.500000)">
                            <g transform="translate(1.000000, 300.000000)"></g>
                            <g id="Path" stroke="#DDDDDD">
                                <g>
                                    <line x1="1" y1="0" x2="1" y2="300"></line>
                                    <line x1="51" y1="0" x2="51" y2="300"></line>
                                    <line x1="101" y1="0" x2="101" y2="300"></line>
                                    <line x1="151" y1="0" x2="151" y2="300"></line>
                                    <line x1="201" y1="0" x2="201" y2="300"></line>
                                    <line x1="251" y1="0" x2="251" y2="300"></line>
                                    <line x1="301" y1="0" x2="301" y2="300"></line>
                                    <line x1="351" y1="0" x2="351" y2="300"></line>
                                    <line x1="368" y1="0" x2="368" y2="300"></line>
                                </g>
                            </g>
                        </g>
                        <g transform="translate(46.500000, 5.500000)">
                            <g transform="translate(0.000000, 1.000000)"></g>
                            <g id="Path" stroke="#DDDDDD">
                                <g>
                                    <line x1="0" y1="301" x2="365" y2="301"></line>
                                    <line x1="0" y1="271" x2="365" y2="271"></line>
                                    <line x1="0" y1="241" x2="365" y2="241"></line>
                                    <line x1="0" y1="211" x2="365" y2="211"></line>
                                    <line x1="0" y1="181" x2="365" y2="181"></line>
                                    <line x1="0" y1="151" x2="365" y2="151"></line>
                                    <line x1="0" y1="121" x2="365" y2="121"></line>
                                    <line x1="0" y1="91" x2="365" y2="91"></line>
                                    <line x1="0" y1="61" x2="365" y2="61"></line>
                                    <line x1="0" y1="31" x2="365" y2="31"></line>
                                    <line x1="0" y1="1" x2="365" y2="1"></line>
                                </g>
                            </g>
                        </g>
                        <g transform="translate(45.500000, 305.500000)">
                            <g transform="translate(1.000000, 1.000000)"></g>
                            <g>
                                <g id="Path" stroke="#888888">
                                    <line x1="1" y1="1" x2="1" y2="6"></line>
                                    <line x1="51" y1="1" x2="51" y2="6"></line>
                                    <line x1="101" y1="1" x2="101" y2="6"></line>
                                    <line x1="151" y1="1" x2="151" y2="6"></line>
                                    <line x1="201" y1="1" x2="201" y2="6"></line>
                                    <line x1="251" y1="1" x2="251" y2="6"></line>
                                    <line x1="301" y1="1" x2="301" y2="6"></line>
                                    <line x1="351" y1="1" x2="351" y2="6"></line>
                                    <line x1="366" y1="1" x2="362" y2="1"></line>
                                </g>
                                <g transform="translate(1.000000, 7.000000)" fill="#000000" font-family="Interstate-Light, Interstate" font-size="10" font-weight="300">
                                    <text id="0">
                                        <tspan x="7.10542736e-15" y="9">0</tspan>
                                    </text>
                                    <text id="50">
                                        <tspan x="44" y="9">50</tspan>
                                    </text>
                                    <text id="100">
                                        <tspan x="91.5" y="9">100</tspan>
                                    </text>
                                    <text id="150">
                                        <tspan x="141.5" y="9">150</tspan>
                                    </text>
                                    <text id="200">
                                        <tspan x="191.5" y="9">200</tspan>
                                    </text>
                                    <text id="250">
                                        <tspan x="241.5" y="9">250</tspan>
                                    </text>
                                    <text id="300">
                                        <tspan x="291.5" y="9">300</tspan>
                                    </text>
                                    <text id="350">
                                        <tspan x="341.5" y="9">350</tspan>
                                    </text>
                                </g>
                                <line x1="1" y1="1" x2="369" y2="1" id="Path" stroke="#888888"></line>
                                <text id="Tage" fill="#000000" font-family="Helvetica" font-size="11" font-weight="normal">
                                    <tspan x="189" y="31">Tage</tspan>
                                </text>
                            </g>
                        </g>
                        <g transform="translate(0.500000, 0.500000)">
                            <g transform="translate(46.000000, 6.000000)"></g>
                            <g>
                                <g transform="translate(41.000000, 5.000000)" id="Path" stroke="#888888">
                                    <line x1="5" y1="301" x2="0" y2="301"></line>
                                    <line x1="5" y1="271" x2="0" y2="271"></line>
                                    <line x1="5" y1="241" x2="0" y2="241"></line>
                                    <line x1="5" y1="211" x2="0" y2="211"></line>
                                    <line x1="5" y1="181" x2="0" y2="181"></line>
                                    <line x1="5" y1="151" x2="0" y2="151"></line>
                                    <line x1="5" y1="121" x2="0" y2="121"></line>
                                    <line x1="5" y1="91" x2="0" y2="91"></line>
                                    <line x1="5" y1="61" x2="0" y2="61"></line>
                                    <line x1="5" y1="31" x2="0" y2="31"></line>
                                    <line x1="5" y1="1" x2="0" y2="1"></line>
                                </g>
                                <g transform="translate(14.000000, 0.000000)" fill="#000000" font-family="Interstate-Light, Interstate" font-size="10" font-weight="300">
                                    <text id="0%">
                                        <tspan x="8.95" y="309">0%</tspan>
                                    </text>
                                    <text id="2%">
                                        <tspan x="9.68" y="279">2%</tspan>
                                    </text>
                                    <text id="4%">
                                        <tspan x="9.37" y="249">4%</tspan>
                                    </text>
                                    <text id="6%">
                                        <tspan x="9.38" y="219">6%</tspan>
                                    </text>
                                    <text id="8%">
                                        <tspan x="9.11" y="189">8%</tspan>
                                    </text>
                                    <text id="10%">
                                        <tspan x="5.83" y="159">10%</tspan>
                                    </text>
                                    <text id="12%">
                                        <tspan x="6.56" y="129">12%</tspan>
                                    </text>
                                    <text id="14%">
                                        <tspan x="6.25" y="99">14%</tspan>
                                    </text>
                                    <text id="16%">
                                        <tspan x="6.26" y="69">16%</tspan>
                                    </text>
                                    <text id="18%">
                                        <tspan x="5.99" y="39">18%</tspan>
                                    </text>
                                    <text id="20%">
                                        <tspan x="3.44" y="9">20%</tspan>
                                    </text>
                                </g>
                                <line x1="46" y1="306" x2="46" y2="6" id="Path" stroke="#888888"></line>
                                <text id="Anteil-der-Bevölkerung" fill="#000000" transform="translate(6.985352, 139.000000) rotate(-90.000000) translate(-6.985352, -139.000000) " font-family="Interstate-Light, Interstate" font-size="11" font-weight="300">
                                    <tspan x="-59.5146484" y="143">Anteil der Bevölkerung</tspan>
                                </text>
                            </g>
                        </g>
                        <polygon id="Path" fill="#82B7D7" fill-rule="nonzero" opacity="0.5" points="46 306 46 306 47 306 47 306 48 306 48 306 49 306 49 306 50 306 50 306 51 306 51 306 52 306 52 306 53 306 53 306 54 306 54 306 55 306 55 306 56 306 56 306 57 306 57 306 58 306 58 306 59 306 59 306 60 306 60 306 61 306 61 306 62 306 62 306 63 306 63 306 64 306 64 306 65 306 65 306 66 306 66 306 67 306 67 306 68 306 68 306 69 306 69 306 70 306 70 306 71 306 71 306 72 306 72 306 73 306 73 306 74 306 74 306 75 306 75 6 76 6 76 6 77 6 77 6 78 6 78 6 79 6 79 6 80 6 80 6 81 6 81 6 82 6 82 6 83 6 83 6 84 6 84 6 85 6 85 6 86 6 86 6 87 6 87 6 88 6 88 6 89 6 89 6 90 6 90 6 91 6 91 6 92 6 92 6 93 6 93 6 94 6 94 6 95 6 95 6 96 6 96 6 97 6 97 6 98 6 98 6 99 6 99 6 100 6 100 6 101 6 101 6 102 6 102 6 103 6 103 6 104 6 104 306 105 306 105 306 106 306 106 306 107 306 107 306 108 306 108 306 109 306 109 306 110 306 110 306 111 306 111 306 112 306 112 306 113 306 113 306 114 306 114 306 115 306 115 306 116 306 116 306 117 306 117 306 118 306 118 306 119 306 119 306 120 306 120 306 121 306 121 306 122 306 122 306 123 306 123 306 124 306 124 306 125 306 125 306 126 306 126 306 127 306 127 306 128 306 128 306 129 306 129 306 130 306 130 306 131 306 131 306 132 306 132 306 133 306 133 306 134 306 134 306 135 306 135 306 136 306 136 306 137 306 137 306 138 306 138 306 139 306 139 306 140 306 140 306 141 306 141 306 142 306 142 306 143 306 143 306 144 306 144 306 145 306 145 306 146 306 146 306 147 306 147 306 148 306 148 306 149 306 149 306 150 306 150 306 151 306 151 306 152 306 152 306 153 306 153 306 154 306 154 306 155 306 155 306 156 306 156 306 157 306 157 306 158 306 158 306 159 306 159 306 160 306 160 306 161 306 161 306 162 306 162 306 163 306 163 306 164 306 164 306 165 306 165 306 166 306 166 306 167 306 167 306 168 306 168 306 169 306 169 306 170 306 170 306 171 306 171 306 172 306 172 306 173 306 173 306 174 306 174 306 175 306 175 306 176 306 176 306 177 306 177 306 178 306 178 306 179 306 179 306 180 306 180 306 181 306 181 306 182 306 182 306 183 306 183 306 184 306 184 306 185 306 185 306 186 306 186 306 187 306 187 306 188 306 188 306 189 306 189 306 190 306 190 306 191 306 191 306 192 306 192 306 193 306 193 306 194 306 194 306 195 306 195 306 196 306 196 306 197 306 197 306 198 306 198 306 199 306 199 306 200 306 200 306 201 306 201 306 202 306 202 306 203 306 203 306 204 306 204 306 205 306 205 306 206 306 206 306 207 306 207 306 208 306 208 306 209 306 209 306 210 306 210 306 211 306 211 306 212 306 212 306 213 306 213 306 214 306 214 306 215 306 215 306 216 306 216 306 217 306 217 306 218 306 218 306 219 306 219 306 220 306 220 306 221 306 221 306 222 306 222 306 223 306 223 306 224 306 224 306 225 306 225 306 226 306 226 306 227 306 227 306 228 306 228 306 229 306 229 306 230 306 230 306 231 306 231 306 232 306 232 306 233 306 233 306 234 306 234 306 235 306 235 306 236 306 236 306 237 306 237 306 238 306 238 306 239 306 239 306 240 306 240 306 241 306 241 306 242 306 242 306 243 306 243 306 244 306 244 306 245 306 245 306 246 306 246 306 247 306 247 306 248 306 248 306 249 306 249 306 250 306 250 306 251 306 251 306 252 306 252 306 253 306 253 306 254 306 254 306 255 306 255 306 256 306 256 306 257 306 257 306 258 306 258 306 259 306 259 306 260 306 260 306 261 306 261 306 262 306 262 306 263 306 263 306 264 306 264 306 265 306 265 306 266 306 266 306 267 306 267 306 268 306 268 306 269 306 269 306 270 306 270 306 271 306 271 306 272 306 272 306 273 306 273 306 274 306 274 306 275 306 275 306 276 306 276 306 277 306 277 306 278 306 278 306 279 306 279 306 280 306 280 306 281 306 281 306 282 306 282 306 283 306 283 306 284 306 284 306 285 306 285 306 286 306 286 306 287 306 287 306 288 306 288 306 289 306 289 306 290 306 290 306 291 306 291 306 292 306 292 306 293 306 293 306 294 306 294 306 295 306 295 306 296 306 296 306 297 306 297 306 298 306 298 306 299 306 299 306 300 306 300 306 301 306 301 306 302 306 302 306 303 306 303 306 304 306 304 306 305 306 305 306 306 306 306 306 307 306 307 306 308 306 308 306 309 306 309 306 310 306 310 306 311 306 311 306 312 306 312 306 313 306 313 306 314 306 314 306 315 306 315 306 316 306 316 306 317 306 317 306 318 306 318 306 319 306 319 306 320 306 320 306 321 306 321 306 322 306 322 306 323 306 323 306 324 306 324 306 325 306 325 306 326 306 326 306 327 306 327 306 328 306 328 306 329 306 329 306 330 306 330 306 331 306 331 306 332 306 332 306 333 306 333 306 334 306 334 306 335 306 335 306 336 306 336 306 337 306 337 306 338 306 338 306 339 306 339 306 340 306 340 306 341 306 341 306 342 306 342 306 343 306 343 306 344 306 344 306 345 306 345 306 346 306 346 306 347 306 347 306 348 306 348 306 349 306 349 306 350 306 350 306 351 306 351 306 352 306 352 306 353 306 353 306 354 306 354 306 355 306 355 306 356 306 356 306 357 306 357 306 358 306 358 306 359 306 359 306 360 306 360 306 361 306 361 306 362 306 362 306 363 306 363 306 364 306 364 306 365 306 365 306 366 306 366 306 367 306 367 306 368 306 368 306 369 306 369 306 370 306 370 306 371 306 371 306 372 306 372 306 373 306 373 306 374 306 374 306 375 306 375 306 376 306 376 306 377 306 377 306 378 306 378 306 379 306 379 306 380 306 380 306 381 306 381 306 382 306 382 306 383 306 383 306 384 306 384 306 385 306 385 306 386 306 386 306 387 306 387 306 388 306 388 306 389 306 389 306 390 306 390 306 391 306 391 306 392 306 392 306 393 306 393 306 394 306 394 306 395 306 395 306 396 306 396 306 397 306 397 306 398 306 398 306 399 306 399 306 400 306 400 306 401 306 401 306 402 306 402 306 403 306 403 306 404 306 404 306 405 306 405 306 406 306 406 306 407 306 407 306 408 306 408 306 409 306 409 306 410 306 410 306 409 306 409 306 408 306 408 306 407 306 407 306 406 306 406 306 405 306 405 306 404 306 404 306 403 306 403 306 402 306 402 306 401 306 401 306 400 306 400 306 399 306 399 306 398 306 398 306 397 306 397 306 396 306 396 306 395 306 395 306 394 306 394 306 393 306 393 306 392 306 392 306 391 306 391 306 390 306 390 306 389 306 389 306 388 306 388 306 387 306 387 306 386 306 386 306 385 306 385 306 384 306 384 306 383 306 383 306 382 306 382 306 381 306 381 306 380 306 380 306 379 306 379 306 378 306 378 306 377 306 377 306 376 306 376 306 375 306 375 306 374 306 374 306 373 306 373 306 372 306 372 306 371 306 371 306 370 306 370 306 369 306 369 306 368 306 368 306 367 306 367 306 366 306 366 306 365 306 365 306 364 306 364 306 363 306 363 306 362 306 362 306 361 306 361 306 360 306 360 306 359 306 359 306 358 306 358 306 357 306 357 306 356 306 356 306 355 306 355 306 354 306 354 306 353 306 353 306 352 306 352 306 351 306 351 306 350 306 350 306 349 306 349 306 348 306 348 306 347 306 347 306 346 306 346 306 345 306 345 306 344 306 344 306 343 306 343 306 342 306 342 306 341 306 341 306 340 306 340 306 339 306 339 306 338 306 338 306 337 306 337 306 336 306 336 306 335 306 335 306 334 306 334 306 333 306 333 306 332 306 332 306 331 306 331 306 330 306 330 306 329 306 329 306 328 306 328 306 327 306 327 306 326 306 326 306 325 306 325 306 324 306 324 306 323 306 323 306 322 306 322 306 321 306 321 306 320 306 320 306 319 306 319 306 318 306 318 306 317 306 317 306 316 306 316 306 315 306 315 306 314 306 314 306 313 306 313 306 312 306 312 306 311 306 311 306 310 306 310 306 309 306 309 306 308 306 308 306 307 306 307 306 306 306 306 306 305 306 305 306 304 306 304 306 303 306 303 306 302 306 302 306 301 306 301 306 300 306 300 306 299 306 299 306 298 306 298 306 297 306 297 306 296 306 296 306 295 306 295 306 294 306 294 306 293 306 293 306 292 306 292 306 291 306 291 306 290 306 290 306 289 306 289 306 288 306 288 306 287 306 287 306 286 306 286 306 285 306 285 306 284 306 284 306 283 306 283 306 282 306 282 306 281 306 281 306 280 306 280 306 279 306 279 306 278 306 278 306 277 306 277 306 276 306 276 306 275 306 275 306 274 306 274 306 273 306 273 306 272 306 272 306 271 306 271 306 270 306 270 306 269 306 269 306 268 306 268 306 267 306 267 306 266 306 266 306 265 306 265 306 264 306 264 306 263 306 263 306 262 306 262 306 261 306 261 306 260 306 260 306 259 306 259 306 258 306 258 306 257 306 257 306 256 306 256 306 255 306 255 306 254 306 254 306 253 306 253 306 252 306 252 306 251 306 251 306 250 306 250 306 249 306 249 306 248 306 248 306 247 306 247 306 246 306 246 306 245 306 245 306 244 306 244 306 243 306 243 306 242 306 242 306 241 306 241 306 240 306 240 306 239 306 239 306 238 306 238 306 237 306 237 306 236 306 236 306 235 306 235 306 234 306 234 306 233 306 233 306 232 306 232 306 231 306 231 306 230 306 230 306 229 306 229 306 228 306 228 306 227 306 227 306 226 306 226 306 225 306 225 306 224 306 224 306 223 306 223 306 222 306 222 306 221 306 221 306 220 306 220 306 219 306 219 306 218 306 218 306 217 306 217 306 216 306 216 306 215 306 215 306 214 306 214 306 213 306 213 306 212 306 212 306 211 306 211 306 210 306 210 306 209 306 209 306 208 306 208 306 207 306 207 306 206 306 206 306 205 306 205 306 204 306 204 306 203 306 203 306 202 306 202 306 201 306 201 306 200 306 200 306 199 306 199 306 198 306 198 306 197 306 197 306 196 306 196 306 195 306 195 306 194 306 194 306 193 306 193 306 192 306 192 306 191 306 191 306 190 306 190 306 189 306 189 306 188 306 188 306 187 306 187 306 186 306 186 306 185 306 185 306 184 306 184 306 183 306 183 306 182 306 182 306 181 306 181 306 180 306 180 306 179 306 179 306 178 306 178 306 177 306 177 306 176 306 176 306 175 306 175 306 174 306 174 306 173 306 173 306 172 306 172 306 171 306 171 306 170 306 170 306 169 306 169 306 168 306 168 306 167 306 167 306 166 306 166 306 165 306 165 306 164 306 164 306 163 306 163 306 162 306 162 306 161 306 161 306 160 306 160 306 159 306 159 306 158 306 158 306 157 306 157 306 156 306 156 306 155 306 155 306 154 306 154 306 153 306 153 306 152 306 152 306 151 306 151 306 150 306 150 306 149 306 149 306 148 306 148 306 147 306 147 306 146 306 146 306 145 306 145 306 144 306 144 306 143 306 143 306 142 306 142 306 141 306 141 306 140 306 140 306 139 306 139 306 138 306 138 306 137 306 137 306 136 306 136 306 135 306 135 306 134 306 134 306 133 306 133 306 132 306 132 306 131 306 131 306 130 306 130 306 129 306 129 306 128 306 128 306 127 306 127 306 126 306 126 306 125 306 125 306 124 306 124 306 123 306 123 306 122 306 122 306 121 306 121 306 120 306 120 306 119 306 119 306 118 306 118 306 117 306 117 306 116 306 116 306 115 306 115 306 114 306 114 306 113 306 113 306 112 306 112 306 111 306 111 306 110 306 110 306 109 306 109 306 108 306 108 306 107 306 107 306 106 306 106 306 105 306 105 306 104 306 104 306 103 306 103 306 102 306 102 306 101 306 101 306 100 306 100 306 99 306 99 306 98 306 98 306 97 306 97 306 96 306 96 306 95 306 95 306 94 306 94 306 93 306 93 306 92 306 92 306 91 306 91 306 90 306 90 306 89 306 89 306 88 306 88 306 87 306 87 306 86 306 86 306 85 306 85 306 84 306 84 306 83 306 83 306 82 306 82 306 81 306 81 306 80 306 80 306 79 306 79 306 78 306 78 306 77 306 77 306 76 306 76 306 75 306 75 306 74 306 74 306 73 306 73 306 72 306 72 306 71 306 71 306 70 306 70 306 69 306 69 306 68 306 68 306 67 306 67 306 66 306 66 306 65 306 65 306 64 306 64 306 63 306 63 306 62 306 62 306 61 306 61 306 60 306 60 306 59 306 59 306 58 306 58 306 57 306 57 306 56 306 56 306 55 306 55 306 54 306 54 306 53 306 53 306 52 306 52 306 51 306 51 306 50 306 50 306 49 306 49 306 48 306 48 306 47 306 47 306"></polygon>
                        <polygon id="Path" fill="#9BC6DF" fill-rule="nonzero" opacity="0.5" points="46 306 47 306 47 306 48 306 48 306 49 306 49 306 50 306 50 306 51 306 51 306 52 306 52 306 53 306 53 306 54 306 54 306 55 306 55 306 56 306 56 306 57 306 57 306 58 306 58 306 59 306 59 306 60 306 60 306 61 306 61 306 62 306 62 306 63 306 63 306 64 306 64 306 65 306 65 306 66 306 66 306 67 306 67 306 68 306 68 306 69 306 69 306 70 306 70 306 71 306 71 306 72 306 72 306 73 306 73 306 74 306 74 306 75 306 75 306 76 306 76 306 77 306 77 306 78 306 78 306 79 306 79 306 80 306 80 306 81 306 81 306 82 306 82 306 83 306 83 306 84 306 84 306 85 306 85 306 86 306 86 306 87 306 87 306 88 306 88 306 89 306 89 306 90 306 90 306 91 306 91 306 92 306 92 306 93 306 93 306 94 306 94 306 95 306 95 306 96 306 96 306 97 306 97 306 98 306 98 306 99 306 99 306 100 306 100 306 101 306 101 306 102 306 102 306 103 306 103 306 104 306 104 6 105 6 105 6 106 6 106 6 107 6 107 6 108 6 108 6 109 6 109 6 110 6 110 6 111 6 111 6 112 6 112 6 113 6 113 6 114 6 114 6 115 6 115 6 116 6 116 6 117 6 117 6 118 6 118 6 119 6 119 6 120 6 120 6 121 6 121 6 122 6 122 6 123 6 123 6 124 6 124 6 125 6 125 6 126 6 126 6 127 6 127 6 128 6 128 6 129 6 129 6 130 6 130 6 131 6 131 6 132 6 132 6 133 6 133 6 134 6 134 6 135 6 135 6 136 6 136 6 137 6 137 6 138 6 138 6 139 6 139 6 140 6 140 6 141 6 141 6 142 6 142 6 143 6 143 6 144 6 144 6 145 6 145 6 146 6 146 6 147 6 147 6 148 6 148 6 149 6 149 6 150 6 150 6 151 6 151 6 152 6 152 6 153 6 153 6 154 6 154 6 155 6 155 6 156 6 156 6 157 6 157 6 158 6 158 6 159 6 159 6 160 6 160 6 161 6 161 6 162 6 162 6 163 6 163 6 164 6 164 6 165 6 165 6 166 6 166 6 167 6 167 6 168 6 168 6 169 6 169 6 170 6 170 6 171 6 171 6 172 6 172 6 173 6 173 6 174 6 174 6 175 6 175 6 176 6 176 6 177 6 177 6 178 6 178 6 179 6 179 6 180 6 180 6 181 6 181 6 182 6 182 6 183 6 183 6 184 6 184 6 185 6 185 6 186 6 186 6 187 6 187 6 188 6 188 6 189 6 189 6 190 6 190 6 191 6 191 6 192 6 192 6 193 6 193 6 194 6 194 6 195 6 195 6 196 6 196 6 197 6 197 6 198 6 198 6 199 6 199 6 200 6 200 6 201 6 201 6 202 6 202 6 203 6 203 6 204 6 204 6 205 6 205 6 206 6 206 6 207 6 207 6 208 6 208 6 209 6 209 6 210 6 210 6 211 6 211 6 212 6 212 6 213 6 213 6 214 6 214 6 215 6 215 6 216 6 216 6 217 6 217 6 218 6 218 6 219 6 219 6 220 6 220 6 221 6 221 6 222 6 222 6 223 6 223 6 224 6 224 6 225 6 225 6 226 6 226 6 227 6 227 6 228 6 228 6 229 6 229 6 230 6 230 6 231 6 231 6 232 6 232 6 233 6 233 6 234 6 234 6 235 6 235 6 236 6 236 6 237 6 237 6 238 6 238 6 239 6 239 6 240 6 240 6 241 6 241 6 242 6 242 6 243 6 243 6 244 6 244 6 245 6 245 6 246 6 246 6 247 6 247 6 248 6 248 6 249 6 249 6 250 6 250 6 251 6 251 6 252 6 252 6 253 6 253 6 254 6 254 6 255 6 255 6 256 6 256 6 257 6 257 6 258 6 258 6 259 6 259 6 260 6 260 6 261 6 261 6 262 6 262 6 263 6 263 6 264 6 264 6 265 6 265 6 266 6 266 6 267 6 267 6 268 6 268 6 269 6 269 6 270 6 270 6 271 6 271 6 272 6 272 6 273 6 273 6 274 6 274 6 275 6 275 6 276 6 276 6 277 6 277 6 278 6 278 6 279 6 279 6 280 6 280 6 281 6 281 6 282 6 282 6 283 6 283 6 284 6 284 6 285 6 285 6 286 6 286 6 287 6 287 6 288 6 288 6 289 6 289 6 290 6 290 6 291 6 291 6 292 6 292 6 293 6 293 6 294 6 294 6 295 6 295 6 296 6 296 6 297 6 297 6 298 6 298 6 299 6 299 6 300 6 300 6 301 6 301 6 302 6 302 6 303 6 303 6 304 6 304 6 305 6 305 6 306 6 306 6 307 6 307 6 308 6 308 6 309 6 309 6 310 6 310 6 311 6 311 6 312 6 312 6 313 6 313 6 314 6 314 6 315 6 315 6 316 6 316 6 317 6 317 6 318 6 318 6 319 6 319 6 320 6 320 6 321 6 321 6 322 6 322 6 323 6 323 6 324 6 324 6 325 6 325 6 326 6 326 6 327 6 327 6 328 6 328 6 329 6 329 6 330 6 330 6 331 6 331 6 332 6 332 6 333 6 333 6 334 6 334 6 335 6 335 6 336 6 336 6 337 6 337 6 338 6 338 6 339 6 339 6 340 6 340 6 341 6 341 6 342 6 342 6 343 6 343 6 344 6 344 6 345 6 345 6 346 6 346 6 347 6 347 6 348 6 348 6 349 6 349 6 350 6 350 6 351 6 351 6 352 6 352 6 353 6 353 6 354 6 354 6 355 6 355 6 356 6 356 6 357 6 357 6 358 6 358 6 359 6 359 6 360 6 360 6 361 6 361 6 362 6 362 6 363 6 363 6 364 6 364 6 365 6 365 6 366 6 366 6 367 6 367 6 368 6 368 6 369 6 369 6 370 6 370 6 371 6 371 6 372 6 372 6 373 6 373 6 374 6 374 6 375 6 375 6 376 6 376 6 377 6 377 6 378 6 378 6 379 6 379 6 380 6 380 6 381 6 381 6 382 6 382 6 383 6 383 6 384 6 384 6 385 6 385 6 386 6 386 6 387 6 387 6 388 6 388 6 389 6 389 6 390 6 390 6 391 6 391 6 392 6 392 6 393 6 393 6 394 6 394 6 395 6 395 6 396 6 396 6 397 6 397 6 398 6 398 6 399 6 399 6 400 6 400 6 401 6 401 6 402 6 402 6 403 6 403 6 404 6 404 6 405 6 405 6 406 6 406 6 407 6 407 6 408 6 408 6 409 6 409 6 410 6 410 6 410 306 410 306 409 306 409 306 408 306 408 306 407 306 407 306 406 306 406 306 405 306 405 306 404 306 404 306 403 306 403 306 402 306 402 306 401 306 401 306 400 306 400 306 399 306 399 306 398 306 398 306 397 306 397 306 396 306 396 306 395 306 395 306 394 306 394 306 393 306 393 306 392 306 392 306 391 306 391 306 390 306 390 306 389 306 389 306 388 306 388 306 387 306 387 306 386 306 386 306 385 306 385 306 384 306 384 306 383 306 383 306 382 306 382 306 381 306 381 306 380 306 380 306 379 306 379 306 378 306 378 306 377 306 377 306 376 306 376 306 375 306 375 306 374 306 374 306 373 306 373 306 372 306 372 306 371 306 371 306 370 306 370 306 369 306 369 306 368 306 368 306 367 306 367 306 366 306 366 306 365 306 365 306 364 306 364 306 363 306 363 306 362 306 362 306 361 306 361 306 360 306 360 306 359 306 359 306 358 306 358 306 357 306 357 306 356 306 356 306 355 306 355 306 354 306 354 306 353 306 353 306 352 306 352 306 351 306 351 306 350 306 350 306 349 306 349 306 348 306 348 306 347 306 347 306 346 306 346 306 345 306 345 306 344 306 344 306 343 306 343 306 342 306 342 306 341 306 341 306 340 306 340 306 339 306 339 306 338 306 338 306 337 306 337 306 336 306 336 306 335 306 335 306 334 306 334 306 333 306 333 306 332 306 332 306 331 306 331 306 330 306 330 306 329 306 329 306 328 306 328 306 327 306 327 306 326 306 326 306 325 306 325 306 324 306 324 306 323 306 323 306 322 306 322 306 321 306 321 306 320 306 320 306 319 306 319 306 318 306 318 306 317 306 317 306 316 306 316 306 315 306 315 306 314 306 314 306 313 306 313 306 312 306 312 306 311 306 311 306 310 306 310 306 309 306 309 306 308 306 308 306 307 306 307 306 306 306 306 306 305 306 305 306 304 306 304 306 303 306 303 306 302 306 302 306 301 306 301 306 300 306 300 306 299 306 299 306 298 306 298 306 297 306 297 306 296 306 296 306 295 306 295 306 294 306 294 306 293 306 293 306 292 306 292 306 291 306 291 306 290 306 290 306 289 306 289 306 288 306 288 306 287 306 287 306 286 306 286 306 285 306 285 306 284 306 284 306 283 306 283 306 282 306 282 306 281 306 281 306 280 306 280 306 279 306 279 306 278 306 278 306 277 306 277 306 276 306 276 306 275 306 275 306 274 306 274 306 273 306 273 306 272 306 272 306 271 306 271 306 270 306 270 306 269 306 269 306 268 306 268 306 267 306 267 306 266 306 266 306 265 306 265 306 264 306 264 306 263 306 263 306 262 306 262 306 261 306 261 306 260 306 260 306 259 306 259 306 258 306 258 306 257 306 257 306 256 306 256 306 255 306 255 306 254 306 254 306 253 306 253 306 252 306 252 306 251 306 251 306 250 306 250 306 249 306 249 306 248 306 248 306 247 306 247 306 246 306 246 306 245 306 245 306 244 306 244 306 243 306 243 306 242 306 242 306 241 306 241 306 240 306 240 306 239 306 239 306 238 306 238 306 237 306 237 306 236 306 236 306 235 306 235 306 234 306 234 306 233 306 233 306 232 306 232 306 231 306 231 306 230 306 230 306 229 306 229 306 228 306 228 306 227 306 227 306 226 306 226 306 225 306 225 306 224 306 224 306 223 306 223 306 222 306 222 306 221 306 221 306 220 306 220 306 219 306 219 306 218 306 218 306 217 306 217 306 216 306 216 306 215 306 215 306 214 306 214 306 213 306 213 306 212 306 212 306 211 306 211 306 210 306 210 306 209 306 209 306 208 306 208 306 207 306 207 306 206 306 206 306 205 306 205 306 204 306 204 306 203 306 203 306 202 306 202 306 201 306 201 306 200 306 200 306 199 306 199 306 198 306 198 306 197 306 197 306 196 306 196 306 195 306 195 306 194 306 194 306 193 306 193 306 192 306 192 306 191 306 191 306 190 306 190 306 189 306 189 306 188 306 188 306 187 306 187 306 186 306 186 306 185 306 185 306 184 306 184 306 183 306 183 306 182 306 182 306 181 306 181 306 180 306 180 306 179 306 179 306 178 306 178 306 177 306 177 306 176 306 176 306 175 306 175 306 174 306 174 306 173 306 173 306 172 306 172 306 171 306 171 306 170 306 170 306 169 306 169 306 168 306 168 306 167 306 167 306 166 306 166 306 165 306 165 306 164 306 164 306 163 306 163 306 162 306 162 306 161 306 161 306 160 306 160 306 159 306 159 306 158 306 158 306 157 306 157 306 156 306 156 306 155 306 155 306 154 306 154 306 153 306 153 306 152 306 152 306 151 306 151 306 150 306 150 306 149 306 149 306 148 306 148 306 147 306 147 306 146 306 146 306 145 306 145 306 144 306 144 306 143 306 143 306 142 306 142 306 141 306 141 306 140 306 140 306 139 306 139 306 138 306 138 306 137 306 137 306 136 306 136 306 135 306 135 306 134 306 134 306 133 306 133 306 132 306 132 306 131 306 131 306 130 306 130 306 129 306 129 306 128 306 128 306 127 306 127 306 126 306 126 306 125 306 125 306 124 306 124 306 123 306 123 306 122 306 122 306 121 306 121 306 120 306 120 306 119 306 119 306 118 306 118 306 117 306 117 306 116 306 116 306 115 306 115 306 114 306 114 306 113 306 113 306 112 306 112 306 111 306 111 306 110 306 110 306 109 306 109 306 108 306 108 306 107 306 107 306 106 306 106 306 105 306 105 306 104 306 104 306 103 306 103 306 102 306 102 306 101 306 101 306 100 306 100 306 99 306 99 306 98 306 98 306 97 306 97 306 96 306 96 306 95 306 95 306 94 306 94 306 93 306 93 306 92 306 92 306 91 306 91 306 90 306 90 306 89 306 89 306 88 306 88 306 87 306 87 306 86 306 86 306 85 306 85 306 84 306 84 306 83 306 83 306 82 306 82 306 81 306 81 306 80 306 80 306 79 306 79 306 78 306 78 306 77 306 77 306 76 306 76 306 75 306 75 306 74 306 74 306 73 306 73 306 72 306 72 306 71 306 71 306 70 306 70 306 69 306 69 306 68 306 68 306 67 306 67 306 66 306 66 306 65 306 65 306 64 306 64 306 63 306 63 306 62 306 62 306 61 306 61 306 60 306 60 306 59 306 59 306 58 306 58 306 57 306 57 306 56 306 56 306 55 306 55 306 54 306 54 306 53 306 53 306 52 306 52 306 51 306 51 306 50 306 50 306 49 306 49 306 48 306 48 306 47 306 47 306"></polygon>
                        <polyline id="Path" stroke="#FFA500" stroke-width="2" points="46 305.981707 47 305.982806 48 305.982813 49 305.982115 50 305.98093 51 305.979382 52 305.977535 53 305.975419 54 305.973042 55 305.9704 56 305.967476 57 305.964252 58 305.9607 59 305.956791 60 305.95249 61 305.94776 62 305.942558 63 305.936838 64 305.930548 65 305.923631 66 305.916026 67 305.907663 68 305.898467 69 305.888357 70 305.877239 71 305.865015 72 305.851573 73 305.836794 74 305.820544 75 305.802676 76 305.786747 77 305.774983 78 305.765839 79 305.758327 80 305.751823 81 305.745927 82 305.740385 83 305.735034 84 305.729772 85 305.724531 86 305.719269 87 305.713958 88 305.708579 89 305.70312 90 305.697572 91 305.69193 92 305.686188 93 305.680343 94 305.674393 95 305.668333 96 305.662163 97 305.655879 98 305.649479 99 305.642962 100 305.636324 101 305.629564 102 305.62268 103 305.615668 104 305.607118 105 305.596251 106 305.583737 107 305.569987 108 305.555251 109 305.539677 110 305.523351 111 305.506317 112 305.488595 113 305.470187 114 305.451088 115 305.431283 116 305.410754 117 305.38948 118 305.367437 119 305.344598 120 305.320937 121 305.296425 122 305.271032 123 305.244727 124 305.217479 125 305.189253 126 305.160015 127 305.129729 128 305.098359 129 305.065866 130 305.03221 131 304.997351 132 304.961245 133 304.92385 134 304.88512 135 304.845008 136 304.803465 137 304.760443 138 304.715888 139 304.669747 140 304.621966 141 304.572486 142 304.52125 143 304.468196 144 304.413261 145 304.356379 146 304.297485 147 304.236509 148 304.173378 149 304.10802 150 304.040357 151 303.970312 152 303.897802 153 303.822745 154 303.745053 155 303.664638 156 303.581408 157 303.495267 158 303.406119 159 303.313863 160 303.218395 161 303.119608 162 303.017392 163 302.911635 164 302.802219 165 302.689025 166 302.571929 167 302.450805 168 302.325523 169 302.195947 170 302.061941 171 301.923363 172 301.780067 173 301.631906 174 301.478726 175 301.320369 176 301.156676 177 300.987482 178 300.812618 179 300.631911 180 300.445184 181 300.252258 182 300.052947 183 299.847063 184 299.634413 185 299.4148 186 299.188025 187 298.953884 188 298.712168 189 298.462667 190 298.205166 191 297.939447 192 297.665289 193 297.382467 194 297.090755 195 296.789924 196 296.479741 197 296.159973 198 295.830385 199 295.490739 200 295.140797 201 294.780321 202 294.409071 203 294.02681 204 293.633298 205 293.2283 206 292.81158 207 292.382907 208 291.942049 209 291.488783 210 291.022886 211 290.544144 212 290.052346 213 289.547289 214 289.02878 215 288.496633 216 287.950671 217 287.390731 218 286.816659 219 286.228317 220 285.625581 221 285.008342 222 284.376508 223 283.730006 224 283.068784 225 282.39281 226 281.702075 227 280.996595 228 280.276411 229 279.541591 230 278.792235 231 278.028469 232 277.250454 233 276.458384 234 275.652488 235 274.833031 236 274.000318 237 273.15469 238 272.296533 239 271.426272 240 270.544378 241 269.651364 242 268.747789 243 267.834261 244 266.911431 245 265.980001 246 265.040721 247 264.094387 248 263.141845 249 262.183991 250 261.221766 251 260.25616 252 259.28821 253 258.318999 254 257.349651 255 256.381337 256 255.415267 257 254.452688 258 253.494885 259 252.543176 260 251.598911 261 250.663465 262 249.738238 263 248.824649 264 247.924135 265 247.038143 266 246.168128 267 245.315548 268 244.481857 269 243.668504 270 242.876925 271 242.108539 272 241.36474 273 240.646897 274 239.956345 275 239.294379 276 238.662252 277 238.061169 278 237.492278 279 236.956672 280 236.45538 281 235.989363 282 235.559512 283 235.166643 284 234.811493 285 234.494717 286 234.216889 287 233.978493 288 233.779929 289 233.621503 290 233.503434 291 233.42585 292 233.388785 293 233.392185 294 233.435905 295 233.519711 296 233.643283 297 233.806214 298 234.008014 299 234.248115 300 234.525869 301 234.840557 302 235.191388 303 235.577505 304 235.997987 305 236.451859 306 236.938089 307 237.455598 308 238.003259 309 238.57991 310 239.184351 311 239.815352 312 240.471658 313 241.151992 314 241.855062 315 242.579564 316 243.324185 317 244.087609 318 244.868521 319 245.665612 320 246.477578 321 247.30313 322 248.140992 323 248.989907 324 249.848638 325 250.715974 326 251.590728 327 252.47174 328 253.357885 329 254.248064 330 255.141217 331 256.036316 332 256.932369 333 257.828422 334 258.723559 335 259.616901 336 260.507608 337 261.394881 338 262.277958 339 263.156116 340 264.028673 341 264.894982 342 265.754437 343 266.60647 344 267.450547 345 268.286173 346 269.112887 347 269.930263 348 270.73791 349 271.535469 350 272.322611 351 273.099041 352 273.864492 353 274.618725 354 275.361529 355 276.092722 356 276.812144 357 277.51966 358 278.215159 359 278.898552 360 279.56977 361 280.228764 362 280.875506 363 281.509982 364 282.132197 365 282.742173 366 283.339944 367 283.925559 368 284.49908 369 285.060582 370 285.610149 371 286.147878 372 286.673873 373 287.188249 374 287.691128 375 288.182638 376 288.662918 377 289.132108 378 289.590357 379 290.037817 380 290.474645 381 290.901003 382 291.317054 383 291.722966 384 292.118908 385 292.505052 386 292.88157 387 293.248637 388 293.606429 389 293.955121 390 294.29489 391 294.625911 392 294.948361 393 295.262414 394 295.568247 395 295.866031 396 296.15594 397 296.438146 398 296.712817 399 296.980123 400 297.24023 401 297.493302 402 297.739502 403 297.97899 404 298.211926 405 298.438464 406 298.65876 407 298.872964 408 299.081225 409 299.283691 410 299.480505"></polyline>
                    </g>
                </g>
            </g>
        </g>
        <g id="Brackets-Copy-4" transform="translate(76.000000, 10.000000)">
            <g id="bracket-copy-3" transform="translate(15.000000, 30.000000) rotate(180.000000) translate(-15.000000, -30.000000) translate(0.000000, 25.000000)" stroke="#000000">
                <path d="M1,10 C1.82777331,6.52461181 3.03823597,4.55289235 4.63138799,4.08484162 C6.22454,3.61679089 8.29775334,3.25517702 10.851028,3 L15,3" id="Path-3-Copy" transform="translate(8.000000, 6.500000) scale(-1, 1) translate(-8.000000, -6.500000) "></path>
                <line x1="0.0826161392" y1="0.5" x2="0.832616139" y2="3" id="Path-2"></line>
                <path d="M15,10 C15.8277733,6.52461181 17.038236,4.55289235 18.631388,4.08484162 C20.22454,3.61679089 22.2977533,3.25517702 24.851028,3 L29,3" id="Path-3-Copy"></path>
                <line x1="29.0826161" y1="0.5" x2="29.8326161" y2="3" id="Path-2" transform="translate(29.500000, 1.500000) scale(-1, 1) translate(-29.500000, -1.500000) "></line>
            </g>
            <g id="bracket-copy-4" transform="translate(185.000000, 30.000000) rotate(180.000000) translate(-185.000000, -30.000000) translate(35.000000, 25.000000)" stroke="#000000">
                <path d="M10,10 C18.2777331,6.52461181 30.3823597,4.55289235 46.3138799,4.08484162 C62.2454,3.61679089 82.9775334,3.25517702 108.51028,3 L150,3" id="Path-3-Copy" transform="translate(80.000000, 6.500000) scale(-1, 1) translate(-80.000000, -6.500000) "></path>
                <line x1="0.826161392" y1="0.5" x2="12.5" y2="3.5" id="Path-2"></line>
                <path d="M150,10 C158.277733,6.52461181 170.38236,4.55289235 186.31388,4.08484162 C202.2454,3.61679089 222.977533,3.25517702 248.51028,3 L290,3" id="Path-3-Copy"></path>
                <line x1="289.826161" y1="0.5" x2="299.5" y2="2.5" id="Path-2" transform="translate(294.500000, 1.500000) scale(-1, 1) translate(-294.500000, -1.500000) "></line>
            </g>
            <text id="Vierwöchiger-Lockdow" font-family="Interstate-Light, Interstate" font-size="10" font-weight="300" fill="#000000">
                <tspan x="0" y="9">Vierwöchiger</tspan>
                <tspan x="0" y="20">Lockdown</tspan>
            </text>
            <text id="Zeit-nach-dem-Lockdo" font-family="Interstate-Light, Interstate" font-size="10" font-weight="300" fill="#000000">
                <tspan x="160" y="9">Zeit nach dem</tspan>
                <tspan x="160" y="20">Lockdown</tspan>
            </text>
        </g>
    </g>
</svg>