<?xml version="1.0" encoding="UTF-8"?>
<svg width="420px" height="383px" viewBox="0 0 420 383" version="1.1" xmlns="http://www.w3.org/2000/svg" xmlns:xlink="http://www.w3.org/1999/xlink">
    <!-- Generator: Sketch 60.1 (88133) - https://sketch.com -->
    <title>70Mod</title>
    <desc>Created with Sketch.</desc>
    <g id="70Mod" stroke="none" stroke-width="1" fill="none" fill-rule="evenodd">
        <rect fill="#FFFFFF" x="0" y="0" width="420" height="383"></rect>
        <rect id="Rectangle" fill="#FFFFFF" fill-rule="nonzero" x="-2.27373675e-13" y="36" width="454" height="347"></rect>
        <g id="Group" transform="translate(2.000000, 40.000000)">
            <g>
                <g>
                    <polygon id="Path" stroke="#DDDDDD" points="46.5 6.5 412.5 6.5 412.5 306.5 46.5 306.5"></polygon>
                    <g>
                        <g transform="translate(45.500000, 6.500000)">
                            <g transform="translate(1.000000, 300.000000)"></g>
                            <g id="Path" stroke="#DDDDDD">
                                <g>
                                    <line x1="1" y1="0" x2="1" y2="300"></line>
                                    <line x1="51" y1="0" x2="51" y2="300"></line>
                                    <line x1="101" y1="0" x2="101" y2="300"></line>
                                    <line x1="151" y1="0" x2="151" y2="300"></line>
                                    <line x1="201" y1="0" x2="201" y2="300"></line>
                                    <line x1="251" y1="0" x2="251" y2="300"></line>
                                    <line x1="301" y1="0" x2="301" y2="300"></line>
                                    <line x1="351" y1="0" x2="351" y2="300"></line>
                                    <line x1="368" y1="0" x2="368" y2="300"></line>
                                </g>
                            </g>
                        </g>
                        <g transform="translate(46.500000, 5.500000)">
                            <g transform="translate(0.000000, 1.000000)"></g>
                            <g id="Path" stroke="#DDDDDD">
                                <g>
                                    <line x1="0" y1="301" x2="365" y2="301"></line>
                                    <line x1="0" y1="271" x2="365" y2="271"></line>
                                    <line x1="0" y1="241" x2="365" y2="241"></line>
                                    <line x1="0" y1="211" x2="365" y2="211"></line>
                                    <line x1="0" y1="181" x2="365" y2="181"></line>
                                    <line x1="0" y1="151" x2="365" y2="151"></line>
                                    <line x1="0" y1="121" x2="365" y2="121"></line>
                                    <line x1="0" y1="91" x2="365" y2="91"></line>
                                    <line x1="0" y1="61" x2="365" y2="61"></line>
                                    <line x1="0" y1="31" x2="365" y2="31"></line>
                                    <line x1="0" y1="1" x2="365" y2="1"></line>
                                </g>
                            </g>
                        </g>
                        <g transform="translate(45.500000, 305.500000)">
                            <g transform="translate(1.000000, 1.000000)"></g>
                            <g>
                                <g id="Path" stroke="#888888">
                                    <line x1="1" y1="1" x2="1" y2="6"></line>
                                    <line x1="51" y1="1" x2="51" y2="6"></line>
                                    <line x1="101" y1="1" x2="101" y2="6"></line>
                                    <line x1="151" y1="1" x2="151" y2="6"></line>
                                    <line x1="201" y1="1" x2="201" y2="6"></line>
                                    <line x1="251" y1="1" x2="251" y2="6"></line>
                                    <line x1="301" y1="1" x2="301" y2="6"></line>
                                    <line x1="351" y1="1" x2="351" y2="6"></line>
                                    <line x1="366" y1="1" x2="362" y2="1"></line>
                                </g>
                                <g transform="translate(1.000000, 7.000000)" fill="#000000" font-family="Interstate-Light, Interstate" font-size="10" font-weight="300">
                                    <text id="0">
                                        <tspan x="7.10542736e-15" y="9">0</tspan>
                                    </text>
                                    <text id="50">
                                        <tspan x="44" y="9">50</tspan>
                                    </text>
                                    <text id="100">
                                        <tspan x="91.5" y="9">100</tspan>
                                    </text>
                                    <text id="150">
                                        <tspan x="141.5" y="9">150</tspan>
                                    </text>
                                    <text id="200">
                                        <tspan x="191.5" y="9">200</tspan>
                                    </text>
                                    <text id="250">
                                        <tspan x="241.5" y="9">250</tspan>
                                    </text>
                                    <text id="300">
                                        <tspan x="291.5" y="9">300</tspan>
                                    </text>
                                    <text id="350">
                                        <tspan x="341.5" y="9">350</tspan>
                                    </text>
                                </g>
                                <line x1="1" y1="1" x2="369" y2="1" id="Path" stroke="#888888"></line>
                                <text id="Tage" fill="#000000" font-family="Helvetica" font-size="11" font-weight="normal">
                                    <tspan x="189" y="31">Tage</tspan>
                                </text>
                            </g>
                        </g>
                        <g transform="translate(0.500000, 0.500000)">
                            <g transform="translate(46.000000, 6.000000)"></g>
                            <g>
                                <g transform="translate(41.000000, 5.000000)" id="Path" stroke="#888888">
                                    <line x1="5" y1="301" x2="0" y2="301"></line>
                                    <line x1="5" y1="271" x2="0" y2="271"></line>
                                    <line x1="5" y1="241" x2="0" y2="241"></line>
                                    <line x1="5" y1="211" x2="0" y2="211"></line>
                                    <line x1="5" y1="181" x2="0" y2="181"></line>
                                    <line x1="5" y1="151" x2="0" y2="151"></line>
                                    <line x1="5" y1="121" x2="0" y2="121"></line>
                                    <line x1="5" y1="91" x2="0" y2="91"></line>
                                    <line x1="5" y1="61" x2="0" y2="61"></line>
                                    <line x1="5" y1="31" x2="0" y2="31"></line>
                                    <line x1="5" y1="1" x2="0" y2="1"></line>
                                </g>
                                <g transform="translate(14.000000, 0.000000)" fill="#000000" font-family="Interstate-Light, Interstate" font-size="10" font-weight="300">
                                    <text id="0%">
                                        <tspan x="8.95" y="309">0%</tspan>
                                    </text>
                                    <text id="2%">
                                        <tspan x="9.68" y="279">2%</tspan>
                                    </text>
                                    <text id="4%">
                                        <tspan x="9.37" y="249">4%</tspan>
                                    </text>
                                    <text id="6%">
                                        <tspan x="9.38" y="219">6%</tspan>
                                    </text>
                                    <text id="8%">
                                        <tspan x="9.11" y="189">8%</tspan>
                                    </text>
                                    <text id="10%">
                                        <tspan x="5.83" y="159">10%</tspan>
                                    </text>
                                    <text id="12%">
                                        <tspan x="6.56" y="129">12%</tspan>
                                    </text>
                                    <text id="14%">
                                        <tspan x="6.25" y="99">14%</tspan>
                                    </text>
                                    <text id="16%">
                                        <tspan x="6.26" y="69">16%</tspan>
                                    </text>
                                    <text id="18%">
                                        <tspan x="5.99" y="39">18%</tspan>
                                    </text>
                                    <text id="20%">
                                        <tspan x="3.44" y="9">20%</tspan>
                                    </text>
                                </g>
                                <line x1="46" y1="306" x2="46" y2="6" id="Path" stroke="#888888"></line>
                                <text id="Anteil-der-Bevölkerung" fill="#000000" transform="translate(6.985352, 139.000000) rotate(-90.000000) translate(-6.985352, -139.000000) " font-family="Interstate-Light, Interstate" font-size="11" font-weight="300">
                                    <tspan x="-59.5146484" y="143">Anteil der Bevölkerung</tspan>
                                </text>
                            </g>
                        </g>
                        <polygon id="Path" fill="#82B7D7" fill-rule="nonzero" opacity="0.5" points="46 306 46 306 47 306 47 306 48 306 48 306 49 306 49 306 50 306 50 306 51 306 51 306 52 306 52 306 53 306 53 306 54 306 54 306 55 306 55 306 56 306 56 306 57 306 57 306 58 306 58 306 59 306 59 306 60 306 60 306 61 306 61 306 62 306 62 306 63 306 63 306 64 306 64 306 65 306 65 306 66 306 66 306 67 306 67 306 68 306 68 306 69 306 69 306 70 306 70 306 71 306 71 306 72 306 72 306 73 306 73 306 74 306 74 306 75 306 75 6 76 6 76 6 77 6 77 6 78 6 78 6 79 6 79 6 80 6 80 6 81 6 81 6 82 6 82 6 83 6 83 6 84 6 84 6 85 6 85 6 86 6 86 6 87 6 87 6 88 6 88 6 89 6 89 6 90 6 90 6 91 6 91 6 92 6 92 6 93 6 93 6 94 6 94 6 95 6 95 6 96 6 96 6 97 6 97 6 98 6 98 6 99 6 99 6 100 6 100 6 101 6 101 6 102 6 102 6 103 6 103 6 104 6 104 306 105 306 105 306 106 306 106 306 107 306 107 306 108 306 108 306 109 306 109 306 110 306 110 306 111 306 111 306 112 306 112 306 113 306 113 306 114 306 114 306 115 306 115 306 116 306 116 306 117 306 117 306 118 306 118 306 119 306 119 306 120 306 120 306 121 306 121 306 122 306 122 306 123 306 123 306 124 306 124 306 125 306 125 306 126 306 126 306 127 306 127 306 128 306 128 306 129 306 129 306 130 306 130 306 131 306 131 306 132 306 132 306 133 306 133 306 134 306 134 306 135 306 135 306 136 306 136 306 137 306 137 306 138 306 138 306 139 306 139 306 140 306 140 306 141 306 141 306 142 306 142 306 143 306 143 306 144 306 144 306 145 306 145 306 146 306 146 306 147 306 147 306 148 306 148 306 149 306 149 306 150 306 150 306 151 306 151 306 152 306 152 306 153 306 153 306 154 306 154 306 155 306 155 306 156 306 156 306 157 306 157 306 158 306 158 306 159 306 159 306 160 306 160 306 161 306 161 306 162 306 162 306 163 306 163 306 164 306 164 306 165 306 165 306 166 306 166 306 167 306 167 306 168 306 168 306 169 306 169 306 170 306 170 306 171 306 171 306 172 306 172 306 173 306 173 306 174 306 174 306 175 306 175 306 176 306 176 306 177 306 177 306 178 306 178 306 179 306 179 306 180 306 180 306 181 306 181 306 182 306 182 306 183 306 183 306 184 306 184 306 185 306 185 306 186 306 186 306 187 306 187 306 188 306 188 306 189 306 189 306 190 306 190 306 191 306 191 306 192 306 192 306 193 306 193 306 194 306 194 306 195 306 195 306 196 306 196 306 197 306 197 306 198 306 198 306 199 306 199 306 200 306 200 306 201 306 201 306 202 306 202 306 203 306 203 306 204 306 204 306 205 306 205 306 206 306 206 306 207 306 207 306 208 306 208 306 209 306 209 306 210 306 210 306 211 306 211 306 212 306 212 306 213 306 213 306 214 306 214 306 215 306 215 306 216 306 216 306 217 306 217 306 218 306 218 306 219 306 219 306 220 306 220 306 221 306 221 306 222 306 222 306 223 306 223 306 224 306 224 306 225 306 225 306 226 306 226 306 227 306 227 306 228 306 228 306 229 306 229 306 230 306 230 306 231 306 231 306 232 306 232 306 233 306 233 306 234 306 234 306 235 306 235 306 236 306 236 306 237 306 237 306 238 306 238 306 239 306 239 306 240 306 240 306 241 306 241 306 242 306 242 306 243 306 243 306 244 306 244 306 245 306 245 306 246 306 246 306 247 306 247 306 248 306 248 306 249 306 249 306 250 306 250 306 251 306 251 306 252 306 252 306 253 306 253 306 254 306 254 306 255 306 255 306 256 306 256 306 257 306 257 306 258 306 258 306 259 306 259 306 260 306 260 306 261 306 261 306 262 306 262 306 263 306 263 306 264 306 264 306 265 306 265 306 266 306 266 306 267 306 267 306 268 306 268 306 269 306 269 306 270 306 270 306 271 306 271 306 272 306 272 306 273 306 273 306 274 306 274 306 275 306 275 306 276 306 276 306 277 306 277 306 278 306 278 306 279 306 279 306 280 306 280 306 281 306 281 306 282 306 282 306 283 306 283 306 284 306 284 306 285 306 285 306 286 306 286 306 287 306 287 306 288 306 288 306 289 306 289 306 290 306 290 306 291 306 291 306 292 306 292 306 293 306 293 306 294 306 294 306 295 306 295 306 296 306 296 306 297 306 297 306 298 306 298 306 299 306 299 306 300 306 300 306 301 306 301 306 302 306 302 306 303 306 303 306 304 306 304 306 305 306 305 306 306 306 306 306 307 306 307 306 308 306 308 306 309 306 309 306 310 306 310 306 311 306 311 306 312 306 312 306 313 306 313 306 314 306 314 306 315 306 315 306 316 306 316 306 317 306 317 306 318 306 318 306 319 306 319 306 320 306 320 306 321 306 321 306 322 306 322 306 323 306 323 306 324 306 324 306 325 306 325 306 326 306 326 306 327 306 327 306 328 306 328 306 329 306 329 306 330 306 330 306 331 306 331 306 332 306 332 306 333 306 333 306 334 306 334 306 335 306 335 306 336 306 336 306 337 306 337 306 338 306 338 306 339 306 339 306 340 306 340 306 341 306 341 306 342 306 342 306 343 306 343 306 344 306 344 306 345 306 345 306 346 306 346 306 347 306 347 306 348 306 348 306 349 306 349 306 350 306 350 306 351 306 351 306 352 306 352 306 353 306 353 306 354 306 354 306 355 306 355 306 356 306 356 306 357 306 357 306 358 306 358 306 359 306 359 306 360 306 360 306 361 306 361 306 362 306 362 306 363 306 363 306 364 306 364 306 365 306 365 306 366 306 366 306 367 306 367 306 368 306 368 306 369 306 369 306 370 306 370 306 371 306 371 306 372 306 372 306 373 306 373 306 374 306 374 306 375 306 375 306 376 306 376 306 377 306 377 306 378 306 378 306 379 306 379 306 380 306 380 306 381 306 381 306 382 306 382 306 383 306 383 306 384 306 384 306 385 306 385 306 386 306 386 306 387 306 387 306 388 306 388 306 389 306 389 306 390 306 390 306 391 306 391 306 392 306 392 306 393 306 393 306 394 306 394 306 395 306 395 306 396 306 396 306 397 306 397 306 398 306 398 306 399 306 399 306 400 306 400 306 401 306 401 306 402 306 402 306 403 306 403 306 404 306 404 306 405 306 405 306 406 306 406 306 407 306 407 306 408 306 408 306 409 306 409 306 410 306 410 306 409 306 409 306 408 306 408 306 407 306 407 306 406 306 406 306 405 306 405 306 404 306 404 306 403 306 403 306 402 306 402 306 401 306 401 306 400 306 400 306 399 306 399 306 398 306 398 306 397 306 397 306 396 306 396 306 395 306 395 306 394 306 394 306 393 306 393 306 392 306 392 306 391 306 391 306 390 306 390 306 389 306 389 306 388 306 388 306 387 306 387 306 386 306 386 306 385 306 385 306 384 306 384 306 383 306 383 306 382 306 382 306 381 306 381 306 380 306 380 306 379 306 379 306 378 306 378 306 377 306 377 306 376 306 376 306 375 306 375 306 374 306 374 306 373 306 373 306 372 306 372 306 371 306 371 306 370 306 370 306 369 306 369 306 368 306 368 306 367 306 367 306 366 306 366 306 365 306 365 306 364 306 364 306 363 306 363 306 362 306 362 306 361 306 361 306 360 306 360 306 359 306 359 306 358 306 358 306 357 306 357 306 356 306 356 306 355 306 355 306 354 306 354 306 353 306 353 306 352 306 352 306 351 306 351 306 350 306 350 306 349 306 349 306 348 306 348 306 347 306 347 306 346 306 346 306 345 306 345 306 344 306 344 306 343 306 343 306 342 306 342 306 341 306 341 306 340 306 340 306 339 306 339 306 338 306 338 306 337 306 337 306 336 306 336 306 335 306 335 306 334 306 334 306 333 306 333 306 332 306 332 306 331 306 331 306 330 306 330 306 329 306 329 306 328 306 328 306 327 306 327 306 326 306 326 306 325 306 325 306 324 306 324 306 323 306 323 306 322 306 322 306 321 306 321 306 320 306 320 306 319 306 319 306 318 306 318 306 317 306 317 306 316 306 316 306 315 306 315 306 314 306 314 306 313 306 313 306 312 306 312 306 311 306 311 306 310 306 310 306 309 306 309 306 308 306 308 306 307 306 307 306 306 306 306 306 305 306 305 306 304 306 304 306 303 306 303 306 302 306 302 306 301 306 301 306 300 306 300 306 299 306 299 306 298 306 298 306 297 306 297 306 296 306 296 306 295 306 295 306 294 306 294 306 293 306 293 306 292 306 292 306 291 306 291 306 290 306 290 306 289 306 289 306 288 306 288 306 287 306 287 306 286 306 286 306 285 306 285 306 284 306 284 306 283 306 283 306 282 306 282 306 281 306 281 306 280 306 280 306 279 306 279 306 278 306 278 306 277 306 277 306 276 306 276 306 275 306 275 306 274 306 274 306 273 306 273 306 272 306 272 306 271 306 271 306 270 306 270 306 269 306 269 306 268 306 268 306 267 306 267 306 266 306 266 306 265 306 265 306 264 306 264 306 263 306 263 306 262 306 262 306 261 306 261 306 260 306 260 306 259 306 259 306 258 306 258 306 257 306 257 306 256 306 256 306 255 306 255 306 254 306 254 306 253 306 253 306 252 306 252 306 251 306 251 306 250 306 250 306 249 306 249 306 248 306 248 306 247 306 247 306 246 306 246 306 245 306 245 306 244 306 244 306 243 306 243 306 242 306 242 306 241 306 241 306 240 306 240 306 239 306 239 306 238 306 238 306 237 306 237 306 236 306 236 306 235 306 235 306 234 306 234 306 233 306 233 306 232 306 232 306 231 306 231 306 230 306 230 306 229 306 229 306 228 306 228 306 227 306 227 306 226 306 226 306 225 306 225 306 224 306 224 306 223 306 223 306 222 306 222 306 221 306 221 306 220 306 220 306 219 306 219 306 218 306 218 306 217 306 217 306 216 306 216 306 215 306 215 306 214 306 214 306 213 306 213 306 212 306 212 306 211 306 211 306 210 306 210 306 209 306 209 306 208 306 208 306 207 306 207 306 206 306 206 306 205 306 205 306 204 306 204 306 203 306 203 306 202 306 202 306 201 306 201 306 200 306 200 306 199 306 199 306 198 306 198 306 197 306 197 306 196 306 196 306 195 306 195 306 194 306 194 306 193 306 193 306 192 306 192 306 191 306 191 306 190 306 190 306 189 306 189 306 188 306 188 306 187 306 187 306 186 306 186 306 185 306 185 306 184 306 184 306 183 306 183 306 182 306 182 306 181 306 181 306 180 306 180 306 179 306 179 306 178 306 178 306 177 306 177 306 176 306 176 306 175 306 175 306 174 306 174 306 173 306 173 306 172 306 172 306 171 306 171 306 170 306 170 306 169 306 169 306 168 306 168 306 167 306 167 306 166 306 166 306 165 306 165 306 164 306 164 306 163 306 163 306 162 306 162 306 161 306 161 306 160 306 160 306 159 306 159 306 158 306 158 306 157 306 157 306 156 306 156 306 155 306 155 306 154 306 154 306 153 306 153 306 152 306 152 306 151 306 151 306 150 306 150 306 149 306 149 306 148 306 148 306 147 306 147 306 146 306 146 306 145 306 145 306 144 306 144 306 143 306 143 306 142 306 142 306 141 306 141 306 140 306 140 306 139 306 139 306 138 306 138 306 137 306 137 306 136 306 136 306 135 306 135 306 134 306 134 306 133 306 133 306 132 306 132 306 131 306 131 306 130 306 130 306 129 306 129 306 128 306 128 306 127 306 127 306 126 306 126 306 125 306 125 306 124 306 124 306 123 306 123 306 122 306 122 306 121 306 121 306 120 306 120 306 119 306 119 306 118 306 118 306 117 306 117 306 116 306 116 306 115 306 115 306 114 306 114 306 113 306 113 306 112 306 112 306 111 306 111 306 110 306 110 306 109 306 109 306 108 306 108 306 107 306 107 306 106 306 106 306 105 306 105 306 104 306 104 306 103 306 103 306 102 306 102 306 101 306 101 306 100 306 100 306 99 306 99 306 98 306 98 306 97 306 97 306 96 306 96 306 95 306 95 306 94 306 94 306 93 306 93 306 92 306 92 306 91 306 91 306 90 306 90 306 89 306 89 306 88 306 88 306 87 306 87 306 86 306 86 306 85 306 85 306 84 306 84 306 83 306 83 306 82 306 82 306 81 306 81 306 80 306 80 306 79 306 79 306 78 306 78 306 77 306 77 306 76 306 76 306 75 306 75 306 74 306 74 306 73 306 73 306 72 306 72 306 71 306 71 306 70 306 70 306 69 306 69 306 68 306 68 306 67 306 67 306 66 306 66 306 65 306 65 306 64 306 64 306 63 306 63 306 62 306 62 306 61 306 61 306 60 306 60 306 59 306 59 306 58 306 58 306 57 306 57 306 56 306 56 306 55 306 55 306 54 306 54 306 53 306 53 306 52 306 52 306 51 306 51 306 50 306 50 306 49 306 49 306 48 306 48 306 47 306 47 306"></polygon>
                        <polygon id="Path" fill="#B4D4E7" fill-rule="nonzero" opacity="0.5" points="46 306 47 306 47 306 48 306 48 306 49 306 49 306 50 306 50 306 51 306 51 306 52 306 52 306 53 306 53 306 54 306 54 306 55 306 55 306 56 306 56 306 57 306 57 306 58 306 58 306 59 306 59 306 60 306 60 306 61 306 61 306 62 306 62 306 63 306 63 306 64 306 64 306 65 306 65 306 66 306 66 306 67 306 67 306 68 306 68 306 69 306 69 306 70 306 70 306 71 306 71 306 72 306 72 306 73 306 73 306 74 306 74 306 75 306 75 306 76 306 76 306 77 306 77 306 78 306 78 306 79 306 79 306 80 306 80 306 81 306 81 306 82 306 82 306 83 306 83 306 84 306 84 306 85 306 85 306 86 306 86 306 87 306 87 306 88 306 88 306 89 306 89 306 90 306 90 306 91 306 91 306 92 306 92 306 93 306 93 306 94 306 94 306 95 306 95 306 96 306 96 306 97 306 97 306 98 306 98 306 99 306 99 306 100 306 100 306 101 306 101 306 102 306 102 306 103 306 103 306 104 306 104 6 105 6 105 6 106 6 106 6 107 6 107 6 108 6 108 6 109 6 109 6 110 6 110 6 111 6 111 6 112 6 112 6 113 6 113 6 114 6 114 6 115 6 115 6 116 6 116 6 117 6 117 6 118 6 118 6 119 6 119 6 120 6 120 6 121 6 121 6 122 6 122 6 123 6 123 6 124 6 124 6 125 6 125 6 126 6 126 6 127 6 127 6 128 6 128 6 129 6 129 6 130 6 130 6 131 6 131 6 132 6 132 6 133 6 133 6 134 6 134 6 135 6 135 6 136 6 136 6 137 6 137 6 138 6 138 6 139 6 139 6 140 6 140 6 141 6 141 6 142 6 142 6 143 6 143 6 144 6 144 6 145 6 145 6 146 6 146 6 147 6 147 6 148 6 148 6 149 6 149 6 150 6 150 6 151 6 151 6 152 6 152 6 153 6 153 6 154 6 154 6 155 6 155 6 156 6 156 6 157 6 157 6 158 6 158 6 159 6 159 6 160 6 160 6 161 6 161 6 162 6 162 6 163 6 163 6 164 6 164 6 165 6 165 6 166 6 166 6 167 6 167 6 168 6 168 6 169 6 169 6 170 6 170 6 171 6 171 6 172 6 172 6 173 6 173 6 174 6 174 6 175 6 175 6 176 6 176 6 177 6 177 6 178 6 178 6 179 6 179 6 180 6 180 6 181 6 181 6 182 6 182 6 183 6 183 6 184 6 184 6 185 6 185 6 186 6 186 6 187 6 187 6 188 6 188 6 189 6 189 6 190 6 190 6 191 6 191 6 192 6 192 6 193 6 193 6 194 6 194 6 195 6 195 6 196 6 196 6 197 6 197 6 198 6 198 6 199 6 199 6 200 6 200 6 201 6 201 6 202 6 202 6 203 6 203 6 204 6 204 6 205 6 205 6 206 6 206 6 207 6 207 6 208 6 208 6 209 6 209 6 210 6 210 6 211 6 211 6 212 6 212 6 213 6 213 6 214 6 214 6 215 6 215 6 216 6 216 6 217 6 217 6 218 6 218 6 219 6 219 6 220 6 220 6 221 6 221 6 222 6 222 6 223 6 223 6 224 6 224 6 225 6 225 6 226 6 226 6 227 6 227 6 228 6 228 6 229 6 229 6 230 6 230 6 231 6 231 6 232 6 232 6 233 6 233 6 234 6 234 6 235 6 235 6 236 6 236 6 237 6 237 6 238 6 238 6 239 6 239 6 240 6 240 6 241 6 241 6 242 6 242 6 243 6 243 6 244 6 244 6 245 6 245 6 246 6 246 6 247 6 247 6 248 6 248 6 249 6 249 6 250 6 250 6 251 6 251 6 252 6 252 6 253 6 253 6 254 6 254 6 255 6 255 6 256 6 256 6 257 6 257 6 258 6 258 6 259 6 259 6 260 6 260 6 261 6 261 6 262 6 262 6 263 6 263 6 264 6 264 6 265 6 265 6 266 6 266 6 267 6 267 6 268 6 268 6 269 6 269 6 270 6 270 6 271 6 271 6 272 6 272 6 273 6 273 6 274 6 274 6 275 6 275 6 276 6 276 6 277 6 277 6 278 6 278 6 279 6 279 6 280 6 280 6 281 6 281 6 282 6 282 6 283 6 283 6 284 6 284 6 285 6 285 6 286 6 286 6 287 6 287 6 288 6 288 6 289 6 289 6 290 6 290 6 291 6 291 6 292 6 292 6 293 6 293 6 294 6 294 6 295 6 295 6 296 6 296 6 297 6 297 6 298 6 298 6 299 6 299 6 300 6 300 6 301 6 301 6 302 6 302 6 303 6 303 6 304 6 304 6 305 6 305 6 306 6 306 6 307 6 307 6 308 6 308 6 309 6 309 6 310 6 310 6 311 6 311 6 312 6 312 6 313 6 313 6 314 6 314 6 315 6 315 6 316 6 316 6 317 6 317 6 318 6 318 6 319 6 319 6 320 6 320 6 321 6 321 6 322 6 322 6 323 6 323 6 324 6 324 6 325 6 325 6 326 6 326 6 327 6 327 6 328 6 328 6 329 6 329 6 330 6 330 6 331 6 331 6 332 6 332 6 333 6 333 6 334 6 334 6 335 6 335 6 336 6 336 6 337 6 337 6 338 6 338 6 339 6 339 6 340 6 340 6 341 6 341 6 342 6 342 6 343 6 343 6 344 6 344 6 345 6 345 6 346 6 346 6 347 6 347 6 348 6 348 6 349 6 349 6 350 6 350 6 351 6 351 6 352 6 352 6 353 6 353 6 354 6 354 6 355 6 355 6 356 6 356 6 357 6 357 6 358 6 358 6 359 6 359 6 360 6 360 6 361 6 361 6 362 6 362 6 363 6 363 6 364 6 364 6 365 6 365 6 366 6 366 6 367 6 367 6 368 6 368 6 369 6 369 6 370 6 370 6 371 6 371 6 372 6 372 6 373 6 373 6 374 6 374 6 375 6 375 6 376 6 376 6 377 6 377 6 378 6 378 6 379 6 379 6 380 6 380 6 381 6 381 6 382 6 382 6 383 6 383 6 384 6 384 6 385 6 385 6 386 6 386 6 387 6 387 6 388 6 388 6 389 6 389 6 390 6 390 6 391 6 391 6 392 6 392 6 393 6 393 6 394 6 394 6 395 6 395 6 396 6 396 6 397 6 397 6 398 6 398 6 399 6 399 6 400 6 400 6 401 6 401 6 402 6 402 6 403 6 403 6 404 6 404 6 405 6 405 6 406 6 406 6 407 6 407 6 408 6 408 6 409 6 409 6 410 6 410 6 410 306 410 306 409 306 409 306 408 306 408 306 407 306 407 306 406 306 406 306 405 306 405 306 404 306 404 306 403 306 403 306 402 306 402 306 401 306 401 306 400 306 400 306 399 306 399 306 398 306 398 306 397 306 397 306 396 306 396 306 395 306 395 306 394 306 394 306 393 306 393 306 392 306 392 306 391 306 391 306 390 306 390 306 389 306 389 306 388 306 388 306 387 306 387 306 386 306 386 306 385 306 385 306 384 306 384 306 383 306 383 306 382 306 382 306 381 306 381 306 380 306 380 306 379 306 379 306 378 306 378 306 377 306 377 306 376 306 376 306 375 306 375 306 374 306 374 306 373 306 373 306 372 306 372 306 371 306 371 306 370 306 370 306 369 306 369 306 368 306 368 306 367 306 367 306 366 306 366 306 365 306 365 306 364 306 364 306 363 306 363 306 362 306 362 306 361 306 361 306 360 306 360 306 359 306 359 306 358 306 358 306 357 306 357 306 356 306 356 306 355 306 355 306 354 306 354 306 353 306 353 306 352 306 352 306 351 306 351 306 350 306 350 306 349 306 349 306 348 306 348 306 347 306 347 306 346 306 346 306 345 306 345 306 344 306 344 306 343 306 343 306 342 306 342 306 341 306 341 306 340 306 340 306 339 306 339 306 338 306 338 306 337 306 337 306 336 306 336 306 335 306 335 306 334 306 334 306 333 306 333 306 332 306 332 306 331 306 331 306 330 306 330 306 329 306 329 306 328 306 328 306 327 306 327 306 326 306 326 306 325 306 325 306 324 306 324 306 323 306 323 306 322 306 322 306 321 306 321 306 320 306 320 306 319 306 319 306 318 306 318 306 317 306 317 306 316 306 316 306 315 306 315 306 314 306 314 306 313 306 313 306 312 306 312 306 311 306 311 306 310 306 310 306 309 306 309 306 308 306 308 306 307 306 307 306 306 306 306 306 305 306 305 306 304 306 304 306 303 306 303 306 302 306 302 306 301 306 301 306 300 306 300 306 299 306 299 306 298 306 298 306 297 306 297 306 296 306 296 306 295 306 295 306 294 306 294 306 293 306 293 306 292 306 292 306 291 306 291 306 290 306 290 306 289 306 289 306 288 306 288 306 287 306 287 306 286 306 286 306 285 306 285 306 284 306 284 306 283 306 283 306 282 306 282 306 281 306 281 306 280 306 280 306 279 306 279 306 278 306 278 306 277 306 277 306 276 306 276 306 275 306 275 306 274 306 274 306 273 306 273 306 272 306 272 306 271 306 271 306 270 306 270 306 269 306 269 306 268 306 268 306 267 306 267 306 266 306 266 306 265 306 265 306 264 306 264 306 263 306 263 306 262 306 262 306 261 306 261 306 260 306 260 306 259 306 259 306 258 306 258 306 257 306 257 306 256 306 256 306 255 306 255 306 254 306 254 306 253 306 253 306 252 306 252 306 251 306 251 306 250 306 250 306 249 306 249 306 248 306 248 306 247 306 247 306 246 306 246 306 245 306 245 306 244 306 244 306 243 306 243 306 242 306 242 306 241 306 241 306 240 306 240 306 239 306 239 306 238 306 238 306 237 306 237 306 236 306 236 306 235 306 235 306 234 306 234 306 233 306 233 306 232 306 232 306 231 306 231 306 230 306 230 306 229 306 229 306 228 306 228 306 227 306 227 306 226 306 226 306 225 306 225 306 224 306 224 306 223 306 223 306 222 306 222 306 221 306 221 306 220 306 220 306 219 306 219 306 218 306 218 306 217 306 217 306 216 306 216 306 215 306 215 306 214 306 214 306 213 306 213 306 212 306 212 306 211 306 211 306 210 306 210 306 209 306 209 306 208 306 208 306 207 306 207 306 206 306 206 306 205 306 205 306 204 306 204 306 203 306 203 306 202 306 202 306 201 306 201 306 200 306 200 306 199 306 199 306 198 306 198 306 197 306 197 306 196 306 196 306 195 306 195 306 194 306 194 306 193 306 193 306 192 306 192 306 191 306 191 306 190 306 190 306 189 306 189 306 188 306 188 306 187 306 187 306 186 306 186 306 185 306 185 306 184 306 184 306 183 306 183 306 182 306 182 306 181 306 181 306 180 306 180 306 179 306 179 306 178 306 178 306 177 306 177 306 176 306 176 306 175 306 175 306 174 306 174 306 173 306 173 306 172 306 172 306 171 306 171 306 170 306 170 306 169 306 169 306 168 306 168 306 167 306 167 306 166 306 166 306 165 306 165 306 164 306 164 306 163 306 163 306 162 306 162 306 161 306 161 306 160 306 160 306 159 306 159 306 158 306 158 306 157 306 157 306 156 306 156 306 155 306 155 306 154 306 154 306 153 306 153 306 152 306 152 306 151 306 151 306 150 306 150 306 149 306 149 306 148 306 148 306 147 306 147 306 146 306 146 306 145 306 145 306 144 306 144 306 143 306 143 306 142 306 142 306 141 306 141 306 140 306 140 306 139 306 139 306 138 306 138 306 137 306 137 306 136 306 136 306 135 306 135 306 134 306 134 306 133 306 133 306 132 306 132 306 131 306 131 306 130 306 130 306 129 306 129 306 128 306 128 306 127 306 127 306 126 306 126 306 125 306 125 306 124 306 124 306 123 306 123 306 122 306 122 306 121 306 121 306 120 306 120 306 119 306 119 306 118 306 118 306 117 306 117 306 116 306 116 306 115 306 115 306 114 306 114 306 113 306 113 306 112 306 112 306 111 306 111 306 110 306 110 306 109 306 109 306 108 306 108 306 107 306 107 306 106 306 106 306 105 306 105 306 104 306 104 306 103 306 103 306 102 306 102 306 101 306 101 306 100 306 100 306 99 306 99 306 98 306 98 306 97 306 97 306 96 306 96 306 95 306 95 306 94 306 94 306 93 306 93 306 92 306 92 306 91 306 91 306 90 306 90 306 89 306 89 306 88 306 88 306 87 306 87 306 86 306 86 306 85 306 85 306 84 306 84 306 83 306 83 306 82 306 82 306 81 306 81 306 80 306 80 306 79 306 79 306 78 306 78 306 77 306 77 306 76 306 76 306 75 306 75 306 74 306 74 306 73 306 73 306 72 306 72 306 71 306 71 306 70 306 70 306 69 306 69 306 68 306 68 306 67 306 67 306 66 306 66 306 65 306 65 306 64 306 64 306 63 306 63 306 62 306 62 306 61 306 61 306 60 306 60 306 59 306 59 306 58 306 58 306 57 306 57 306 56 306 56 306 55 306 55 306 54 306 54 306 53 306 53 306 52 306 52 306 51 306 51 306 50 306 50 306 49 306 49 306 48 306 48 306 47 306 47 306"></polygon>
                        <polyline id="Path" stroke="#FFA500" stroke-width="2" points="46 305.981707 47 305.982806 48 305.982813 49 305.982115 50 305.98093 51 305.979382 52 305.977535 53 305.975419 54 305.973042 55 305.9704 56 305.967476 57 305.964252 58 305.9607 59 305.956791 60 305.95249 61 305.94776 62 305.942558 63 305.936838 64 305.930548 65 305.923631 66 305.916026 67 305.907663 68 305.898467 69 305.888357 70 305.877239 71 305.865015 72 305.851573 73 305.836794 74 305.820544 75 305.802676 76 305.786747 77 305.774983 78 305.765839 79 305.758327 80 305.751823 81 305.745927 82 305.740385 83 305.735034 84 305.729772 85 305.724531 86 305.719269 87 305.713958 88 305.708579 89 305.70312 90 305.697572 91 305.69193 92 305.686188 93 305.680343 94 305.674393 95 305.668333 96 305.662163 97 305.655879 98 305.649479 99 305.642962 100 305.636324 101 305.629564 102 305.62268 103 305.615668 104 305.605707 105 305.59122 106 305.57351 107 305.553352 108 305.531198 109 305.507303 110 305.481795 111 305.454724 112 305.426091 113 305.395865 114 305.363995 115 305.330413 116 305.295042 117 305.257796 118 305.21858 119 305.177294 120 305.133832 121 305.088082 122 305.039924 123 304.989233 124 304.935878 125 304.87972 126 304.820614 127 304.758406 128 304.692936 129 304.624034 130 304.551524 131 304.475218 132 304.39492 133 304.310425 134 304.221518 135 304.12797 136 304.029545 137 303.925992 138 303.81705 139 303.702444 140 303.581886 141 303.455073 142 303.321688 143 303.1814 144 303.033861 145 302.878707 146 302.715556 147 302.544008 148 302.363646 149 302.174033 150 301.974711 151 301.765203 152 301.545008 153 301.313607 154 301.070453 155 300.814979 156 300.546593 157 300.264676 158 299.968586 159 299.657653 160 299.331179 161 298.98844 162 298.628684 163 298.251129 164 297.854964 165 297.439349 166 297.003416 167 296.546265 168 296.066965 169 295.56456 170 295.03806 171 294.486449 172 293.908681 173 293.303685 174 292.67036 175 292.007584 176 291.314209 177 290.589069 178 289.830977 179 289.038731 180 288.211115 181 287.346905 182 286.444872 183 285.503787 184 284.522423 185 283.499568 186 282.434023 187 281.324614 188 280.1702 189 278.969678 190 277.721996 191 276.426158 192 275.081239 193 273.686396 194 272.240877 195 270.744035 196 269.195343 197 267.594406 198 265.940978 199 264.234975 200 262.476491 201 260.665814 202 258.803445 203 256.890108 204 254.926773 205 252.914668 206 250.855293 207 248.75044 208 246.602201 209 244.412983 210 242.18552 211 239.922879 212 237.62847 213 235.30605 214 232.959725 215 230.593947 216 228.213514 217 225.82356 218 223.429543 219 221.037233 220 218.652688 221 216.282239 222 213.932453 223 211.61011 224 209.322165 225 207.075708 226 204.877926 227 202.736051 228 200.657319 229 198.648919 230 196.717935 231 194.871303 232 193.11575 233 191.457746 234 189.903449 235 188.458661 236 187.128772 237 185.918724 238 184.832966 239 183.875418 240 183.049443 241 182.357816 242 181.80271 243 181.385678 244 181.107642 245 180.9689 246 180.969119 247 181.107354 248 181.382059 249 181.791108 250 182.331823 251 183.001002 252 183.794957 253 184.709546 254 185.740218 255 186.882053 256 188.129808 257 189.477961 258 190.920755 259 192.452246 260 194.066344 261 195.756861 262 197.517548 263 199.342136 264 201.224377 265 203.158076 266 205.137121 267 207.15552 268 209.20742 269 211.287136 270 213.389169 271 215.508224 272 217.639227 273 219.777335 274 221.917949 275 224.056717 276 226.18954 277 228.312578 278 230.422246 279 232.515217 280 234.588416 281 236.639019 282 238.664443 283 240.662347 284 242.630617 285 244.567363 286 246.470906 287 248.339773 288 250.172686 289 251.968549 290 253.726443 291 255.445613 292 257.125457 293 258.765519 294 260.365475 295 261.92513 296 263.444401 297 264.923313 298 266.361988 299 267.760637 300 269.119554 301 270.439104 302 271.719719 303 272.961892 304 274.166165 305 275.33313 306 276.463418 307 277.557696 308 278.61666 309 279.641033 310 280.631559 311 281.588999 312 282.514127 313 283.407728 314 284.270593 315 285.103518 316 285.9073 317 286.682736 318 287.430618 319 288.151735 320 288.84687 321 289.516795 322 290.162275 323 290.784064 324 291.382904 325 291.959523 326 292.514639 327 293.048951 328 293.563149 329 294.057903 330 294.533871 331 294.991694 332 295.431996 333 295.855387 334 296.26246 335 296.653792 336 297.029943 337 297.391458 338 297.738865 339 298.072679 340 298.393396 341 298.701499 342 298.997453 343 299.281713 344 299.554714 345 299.81688 346 300.06862 347 300.310329 348 300.54239 349 300.765171 350 300.979028 351 301.184304 352 301.381333 353 301.570432 354 301.751911 355 301.926067 356 302.093185 357 302.253543 358 302.407406 359 302.55503 360 302.696661 361 302.832537 362 302.962886 363 303.087928 364 303.207874 365 303.322928 366 303.433286 367 303.539135 368 303.640656 369 303.738023 370 303.831404 371 303.920959 372 304.006842 373 304.089202 374 304.168181 375 304.243917 376 304.31654 377 304.386177 378 304.45295 379 304.516975 380 304.578364 381 304.637224 382 304.693659 383 304.747767 384 304.799644 385 304.84938 386 304.897064 387 304.942779 388 304.986606 389 305.028623 390 305.068904 391 305.107519 392 305.144538 393 305.180026 394 305.214046 395 305.246658 396 305.27792 397 305.307889 398 305.336616 399 305.364154 400 305.390552 401 305.415855 402 305.44011 403 305.46336 404 305.485647 405 305.507009 406 305.527486 407 305.547113 408 305.565927 409 305.58396 410 305.601245"></polyline>
                    </g>
                </g>
            </g>
        </g>
        <g id="Brackets-Copy-3" transform="translate(76.000000, 10.000000)">
            <g id="bracket-copy-3" transform="translate(15.000000, 30.000000) rotate(180.000000) translate(-15.000000, -30.000000) translate(0.000000, 25.000000)" stroke="#000000">
                <path d="M1,10 C1.82777331,6.52461181 3.03823597,4.55289235 4.63138799,4.08484162 C6.22454,3.61679089 8.29775334,3.25517702 10.851028,3 L15,3" id="Path-3-Copy" transform="translate(8.000000, 6.500000) scale(-1, 1) translate(-8.000000, -6.500000) "></path>
                <line x1="0.0826161392" y1="0.5" x2="0.832616139" y2="3" id="Path-2"></line>
                <path d="M15,10 C15.8277733,6.52461181 17.038236,4.55289235 18.631388,4.08484162 C20.22454,3.61679089 22.2977533,3.25517702 24.851028,3 L29,3" id="Path-3-Copy"></path>
                <line x1="29.0826161" y1="0.5" x2="29.8326161" y2="3" id="Path-2" transform="translate(29.500000, 1.500000) scale(-1, 1) translate(-29.500000, -1.500000) "></line>
            </g>
            <g id="bracket-copy-4" transform="translate(185.000000, 30.000000) rotate(180.000000) translate(-185.000000, -30.000000) translate(35.000000, 25.000000)" stroke="#000000">
                <path d="M10,10 C18.2777331,6.52461181 30.3823597,4.55289235 46.3138799,4.08484162 C62.2454,3.61679089 82.9775334,3.25517702 108.51028,3 L150,3" id="Path-3-Copy" transform="translate(80.000000, 6.500000) scale(-1, 1) translate(-80.000000, -6.500000) "></path>
                <line x1="0.826161392" y1="0.5" x2="12.5" y2="3.5" id="Path-2"></line>
                <path d="M150,10 C158.277733,6.52461181 170.38236,4.55289235 186.31388,4.08484162 C202.2454,3.61679089 222.977533,3.25517702 248.51028,3 L290,3" id="Path-3-Copy"></path>
                <line x1="289.826161" y1="0.5" x2="299.5" y2="2.5" id="Path-2" transform="translate(294.500000, 1.500000) scale(-1, 1) translate(-294.500000, -1.500000) "></line>
            </g>
            <text id="Vierwöchiger-Lockdow" font-family="Interstate-Light, Interstate" font-size="10" font-weight="300" fill="#000000">
                <tspan x="0" y="9">Vierwöchiger</tspan>
                <tspan x="0" y="20">Lockdown</tspan>
            </text>
            <text id="Zeit-nach-dem-Lockdo" font-family="Interstate-Light, Interstate" font-size="10" font-weight="300" fill="#000000">
                <tspan x="160" y="9">Zeit nach dem</tspan>
                <tspan x="160" y="20">Lockdown</tspan>
            </text>
        </g>
    </g>
</svg>