<svg class="marks" width="454" height="347" viewBox="0 0 454 347" version="1.1" xmlns="http://www.w3.org/2000/svg" xmlns:xlink="http://www.w3.org/1999/xlink"><rect width="454" height="347" style="fill: white;"></rect><g transform="translate(48,10)"><g class="mark-group role-frame root"><g transform="translate(0,0)"><path class="background" d="M0.5,0.5h400v300h-400Z" style="fill: none; stroke: #ddd;"></path><g><g class="mark-group role-axis"><g transform="translate(0.5,300.5)"><path class="background" d="M0,0h0v0h0Z" style="pointer-events: none; fill: none;"></path><g><g class="mark-rule role-axis-grid" style="pointer-events: none;"><line transform="translate(0,-300)" x2="0" y2="300" style="fill: none; stroke: #ddd; stroke-width: 1; opacity: 1;"></line><line transform="translate(50,-300)" x2="0" y2="300" style="fill: none; stroke: #ddd; stroke-width: 1; opacity: 1;"></line><line transform="translate(100,-300)" x2="0" y2="300" style="fill: none; stroke: #ddd; stroke-width: 1; opacity: 1;"></line><line transform="translate(150,-300)" x2="0" y2="300" style="fill: none; stroke: #ddd; stroke-width: 1; opacity: 1;"></line><line transform="translate(200,-300)" x2="0" y2="300" style="fill: none; stroke: #ddd; stroke-width: 1; opacity: 1;"></line><line transform="translate(250,-300)" x2="0" y2="300" style="fill: none; stroke: #ddd; stroke-width: 1; opacity: 1;"></line><line transform="translate(300,-300)" x2="0" y2="300" style="fill: none; stroke: #ddd; stroke-width: 1; opacity: 1;"></line><line transform="translate(350,-300)" x2="0" y2="300" style="fill: none; stroke: #ddd; stroke-width: 1; opacity: 1;"></line><line transform="translate(400,-300)" x2="0" y2="300" style="fill: none; stroke: #ddd; stroke-width: 1; opacity: 1;"></line></g></g><path class="foreground" d="" style="pointer-events: none; display: none; fill: none;"></path></g></g><g class="mark-group role-axis"><g transform="translate(0.5,0.5)"><path class="background" d="M0,0h0v0h0Z" style="pointer-events: none; fill: none;"></path><g><g class="mark-rule role-axis-grid" style="pointer-events: none;"><line transform="translate(0,300)" x2="400" y2="0" style="fill: none; stroke: #ddd; stroke-width: 1; opacity: 1;"></line><line transform="translate(0,270)" x2="400" y2="0" style="fill: none; stroke: #ddd; stroke-width: 1; opacity: 1;"></line><line transform="translate(0,240)" x2="400" y2="0" style="fill: none; stroke: #ddd; stroke-width: 1; opacity: 1;"></line><line transform="translate(0,210)" x2="400" y2="0" style="fill: none; stroke: #ddd; stroke-width: 1; opacity: 1;"></line><line transform="translate(0,180)" x2="400" y2="0" style="fill: none; stroke: #ddd; stroke-width: 1; opacity: 1;"></line><line transform="translate(0,150)" x2="400" y2="0" style="fill: none; stroke: #ddd; stroke-width: 1; opacity: 1;"></line><line transform="translate(0,120)" x2="400" y2="0" style="fill: none; stroke: #ddd; stroke-width: 1; opacity: 1;"></line><line transform="translate(0,90)" x2="400" y2="0" style="fill: none; stroke: #ddd; stroke-width: 1; opacity: 1;"></line><line transform="translate(0,60)" x2="400" y2="0" style="fill: none; stroke: #ddd; stroke-width: 1; opacity: 1;"></line><line transform="translate(0,30)" x2="400" y2="0" style="fill: none; stroke: #ddd; stroke-width: 1; opacity: 1;"></line><line transform="translate(0,0)" x2="400" y2="0" style="fill: none; stroke: #ddd; stroke-width: 1; opacity: 1;"></line></g></g><path class="foreground" d="" style="pointer-events: none; display: none; fill: none;"></path></g></g><g class="mark-group role-axis"><g transform="translate(0.5,300.5)"><path class="background" d="M0,0h0v0h0Z" style="pointer-events: none; fill: none;"></path><g><g class="mark-rule role-axis-tick" style="pointer-events: none;"><line transform="translate(0,0)" x2="0" y2="5" style="fill: none; stroke: #888; stroke-width: 1; opacity: 1;"></line><line transform="translate(50,0)" x2="0" y2="5" style="fill: none; stroke: #888; stroke-width: 1; opacity: 1;"></line><line transform="translate(100,0)" x2="0" y2="5" style="fill: none; stroke: #888; stroke-width: 1; opacity: 1;"></line><line transform="translate(150,0)" x2="0" y2="5" style="fill: none; stroke: #888; stroke-width: 1; opacity: 1;"></line><line transform="translate(200,0)" x2="0" y2="5" style="fill: none; stroke: #888; stroke-width: 1; opacity: 1;"></line><line transform="translate(250,0)" x2="0" y2="5" style="fill: none; stroke: #888; stroke-width: 1; opacity: 1;"></line><line transform="translate(300,0)" x2="0" y2="5" style="fill: none; stroke: #888; stroke-width: 1; opacity: 1;"></line><line transform="translate(350,0)" x2="0" y2="5" style="fill: none; stroke: #888; stroke-width: 1; opacity: 1;"></line><line transform="translate(400,0)" x2="0" y2="5" style="fill: none; stroke: #888; stroke-width: 1; opacity: 1;"></line></g><g class="mark-text role-axis-label" style="pointer-events: none;"><text text-anchor="start" transform="translate(0,15)" style="font-family: sans-serif; font-size: 10px; fill: #000; opacity: 1;">0</text><text text-anchor="middle" transform="translate(50,15)" style="font-family: sans-serif; font-size: 10px; fill: #000; opacity: 1;">50</text><text text-anchor="middle" transform="translate(100,15)" style="font-family: sans-serif; font-size: 10px; fill: #000; opacity: 1;">100</text><text text-anchor="middle" transform="translate(150,15)" style="font-family: sans-serif; font-size: 10px; fill: #000; opacity: 1;">150</text><text text-anchor="middle" transform="translate(200,15)" style="font-family: sans-serif; font-size: 10px; fill: #000; opacity: 1;">200</text><text text-anchor="middle" transform="translate(250,15)" style="font-family: sans-serif; font-size: 10px; fill: #000; opacity: 1;">250</text><text text-anchor="middle" transform="translate(300,15)" style="font-family: sans-serif; font-size: 10px; fill: #000; opacity: 1;">300</text><text text-anchor="middle" transform="translate(350,15)" style="font-family: sans-serif; font-size: 10px; fill: #000; opacity: 1;">350</text><text text-anchor="end" transform="translate(400,15)" style="font-family: sans-serif; font-size: 10px; fill: #000; opacity: 1;">400</text></g><g class="mark-rule role-axis-domain" style="pointer-events: none;"><line transform="translate(0,0)" x2="400" y2="0" style="fill: none; stroke: #888; stroke-width: 1; opacity: 1;"></line></g><g class="mark-text role-axis-title" style="pointer-events: none;"><text text-anchor="middle" transform="translate(200,30)" style="font-family: sans-serif; font-size: 11px; font-weight: bold; fill: #000; opacity: 1;">Tage</text></g></g><path class="foreground" d="" style="pointer-events: none; display: none; fill: none;"></path></g></g><g class="mark-group role-axis"><g transform="translate(0.5,0.5)"><path class="background" d="M0,0h0v0h0Z" style="pointer-events: none; fill: none;"></path><g><g class="mark-rule role-axis-tick" style="pointer-events: none;"><line transform="translate(0,300)" x2="-5" y2="0" style="fill: none; stroke: #888; stroke-width: 1; opacity: 1;"></line><line transform="translate(0,270)" x2="-5" y2="0" style="fill: none; stroke: #888; stroke-width: 1; opacity: 1;"></line><line transform="translate(0,240)" x2="-5" y2="0" style="fill: none; stroke: #888; stroke-width: 1; opacity: 1;"></line><line transform="translate(0,210)" x2="-5" y2="0" style="fill: none; stroke: #888; stroke-width: 1; opacity: 1;"></line><line transform="translate(0,180)" x2="-5" y2="0" style="fill: none; stroke: #888; stroke-width: 1; opacity: 1;"></line><line transform="translate(0,150)" x2="-5" y2="0" style="fill: none; stroke: #888; stroke-width: 1; opacity: 1;"></line><line transform="translate(0,120)" x2="-5" y2="0" style="fill: none; stroke: #888; stroke-width: 1; opacity: 1;"></line><line transform="translate(0,90)" x2="-5" y2="0" style="fill: none; stroke: #888; stroke-width: 1; opacity: 1;"></line><line transform="translate(0,60)" x2="-5" y2="0" style="fill: none; stroke: #888; stroke-width: 1; opacity: 1;"></line><line transform="translate(0,30)" x2="-5" y2="0" style="fill: none; stroke: #888; stroke-width: 1; opacity: 1;"></line><line transform="translate(0,0)" x2="-5" y2="0" style="fill: none; stroke: #888; stroke-width: 1; opacity: 1;"></line></g><g class="mark-text role-axis-label" style="pointer-events: none;"><text text-anchor="end" transform="translate(-7,303)" style="font-family: sans-serif; font-size: 10px; fill: #000; opacity: 1;">0%</text><text text-anchor="end" transform="translate(-7,273)" style="font-family: sans-serif; font-size: 10px; fill: #000; opacity: 1;">2%</text><text text-anchor="end" transform="translate(-7,243)" style="font-family: sans-serif; font-size: 10px; fill: #000; opacity: 1;">4%</text><text text-anchor="end" transform="translate(-7,213)" style="font-family: sans-serif; font-size: 10px; fill: #000; opacity: 1;">6%</text><text text-anchor="end" transform="translate(-7,183.00000000000003)" style="font-family: sans-serif; font-size: 10px; fill: #000; opacity: 1;">8%</text><text text-anchor="end" transform="translate(-7,153)" style="font-family: sans-serif; font-size: 10px; fill: #000; opacity: 1;">10%</text><text text-anchor="end" transform="translate(-7,123)" style="font-family: sans-serif; font-size: 10px; fill: #000; opacity: 1;">12%</text><text text-anchor="end" transform="translate(-7,92.99999999999999)" style="font-family: sans-serif; font-size: 10px; fill: #000; opacity: 1;">14%</text><text text-anchor="end" transform="translate(-7,63.00000000000002)" style="font-family: sans-serif; font-size: 10px; fill: #000; opacity: 1;">16%</text><text text-anchor="end" transform="translate(-7,33.00000000000003)" style="font-family: sans-serif; font-size: 10px; fill: #000; opacity: 1;">18%</text><text text-anchor="end" transform="translate(-7,3)" style="font-family: sans-serif; font-size: 10px; fill: #000; opacity: 1;">20%</text></g><g class="mark-rule role-axis-domain" style="pointer-events: none;"><line transform="translate(0,300)" x2="0" y2="-300" style="fill: none; stroke: #888; stroke-width: 1; opacity: 1;"></line></g><g class="mark-text role-axis-title" style="pointer-events: none;"><text text-anchor="middle" transform="translate(-31.0146484375,150) rotate(-90) translate(0,-2)" style="font-family: sans-serif; font-size: 11px; font-weight: bold; fill: #000; opacity: 1;">Anteil der Bevölkerung</text></g></g><path class="foreground" d="" style="pointer-events: none; display: none; fill: none;"></path></g></g><g class="mark-area role-mark layer_0_marks"><path d="M0,300L0,300L1,300L1,300L2,300L2,300L3,300L3,300L4,300L4,300L5,300L5,300L6,300L6,300L7.000000000000001,300L7.000000000000001,300L8,300L8,300L9,300L9,300L10,300L10,300L11,300L11,300L12,300L12,300L13,300L13,300L14.000000000000002,300L14.000000000000002,300L15,300L15,300L16,300L16,300L17,300L17,300L18,300L18,300L19,300L19,300L20,300L20,300L21,300L21,300L22,300L22,300L23,300L23,300L24,300L24,300L25,300L25,300L26,300L26,300L27,300L27,300L28.000000000000004,300L28.000000000000004,300L28.999999999999996,300L28.999999999999996,0L30,0L30,0L31,0L31,0L32,0L32,0L33,0L33,0L34,0L34,0L35,0L35,0L36,0L36,0L37,0L37,0L38,0L38,0L39,0L39,0L40,0L40,0L41,0L41,0L42,0L42,0L43,0L43,0L44,0L44,0L45,0L45,0L46,0L46,0L47,0L47,0L48,0L48,0L49,0L49,0L50,0L50,0L51,0L51,0L52,0L52,0L53,0L53,0L54,0L54,0L55.00000000000001,0L55.00000000000001,0L56.00000000000001,0L56.00000000000001,0L56.99999999999999,0L56.99999999999999,0L57.99999999999999,0L57.99999999999999,300L59,300L59,300L60,300L60,300L61,300L61,300L62,300L62,300L63,300L63,300L64,300L64,300L65,300L65,300L66,300L66,300L67,300L67,300L68,300L68,300L69,300L69,300L70,300L70,300L71,300L71,300L72,300L72,300L73,300L73,300L74,300L74,300L75,300L75,300L76,300L76,300L77,300L77,300L78,300L78,300L79,300L79,300L80,300L80,300L81,300L81,300L82,300L82,300L83,300L83,300L84,300L84,300L85,300L85,300L86,300L86,300L87,300L87,300L88,300L88,300L89,300L89,300L90,300L90,300L91,300L91,300L92,300L92,300L93,300L93,300L94,300L94,300L95,300L95,300L96,300L96,300L97,300L97,300L98,300L98,300L99,300L99,300L100,300L100,300L101,300L101,300L102,300L102,300L103,300L103,300L104,300L104,300L105,300L105,300L106,300L106,300L107,300L107,300L108,300L108,300L109.00000000000001,300L109.00000000000001,300L110.00000000000001,300L110.00000000000001,300L111.00000000000001,300L111.00000000000001,300L112.00000000000001,300L112.00000000000001,300L112.99999999999999,300L112.99999999999999,300L113.99999999999999,300L113.99999999999999,300L114.99999999999999,300L114.99999999999999,300L115.99999999999999,300L115.99999999999999,300L117,300L117,300L118,300L118,300L119,300L119,300L120,300L120,300L121,300L121,300L122,300L122,300L123,300L123,300L124,300L124,300L125,300L125,300L126,300L126,300L127,300L127,300L128,300L128,300L129,300L129,300L130,300L130,300L131,300L131,300L132,300L132,300L133,300L133,300L134,300L134,300L135,300L135,300L136,300L136,300L137,300L137,300L138,300L138,300L139,300L139,300L140,300L140,300L141,300L141,300L142,300L142,300L143,300L143,300L144,300L144,300L145,300L145,300L146,300L146,300L147,300L147,300L148,300L148,300L149,300L149,300L150,300L150,300L151,300L151,300L152,300L152,300L153,300L153,300L154,300L154,300L155,300L155,300L156,300L156,300L157,300L157,300L158,300L158,300L159,300L159,300L160,300L160,300L161,300L161,300L162,300L162,300L163,300L163,300L164,300L164,300L165,300L165,300L166,300L166,300L167,300L167,300L168,300L168,300L169,300L169,300L170,300L170,300L171,300L171,300L172,300L172,300L173,300L173,300L174,300L174,300L175,300L175,300L176,300L176,300L177,300L177,300L178,300L178,300L179,300L179,300L180,300L180,300L181,300L181,300L182,300L182,300L183,300L183,300L184,300L184,300L185,300L185,300L186,300L186,300L187,300L187,300L188,300L188,300L189,300L189,300L190,300L190,300L191,300L191,300L192,300L192,300L193,300L193,300L194,300L194,300L195,300L195,300L196,300L196,300L197,300L197,300L198,300L198,300L199,300L199,300L200,300L200,300L200.99999999999997,300L200.99999999999997,300L202,300L202,300L202.99999999999997,300L202.99999999999997,300L204,300L204,300L204.99999999999997,300L204.99999999999997,300L206,300L206,300L206.99999999999997,300L206.99999999999997,300L208,300L208,300L209,300L209,300L210,300L210,300L211,300L211,300L212,300L212,300L213,300L213,300L214,300L214,300L215,300L215,300L216,300L216,300L217,300L217,300L218.00000000000003,300L218.00000000000003,300L219,300L219,300L220.00000000000003,300L220.00000000000003,300L221,300L221,300L222.00000000000003,300L222.00000000000003,300L223,300L223,300L224.00000000000003,300L224.00000000000003,300L225,300L225,300L225.99999999999997,300L225.99999999999997,300L227,300L227,300L227.99999999999997,300L227.99999999999997,300L229,300L229,300L229.99999999999997,300L229.99999999999997,300L231,300L231,300L231.99999999999997,300L231.99999999999997,300L233,300L233,300L234,300L234,300L235,300L235,300L236,300L236,300L237,300L237,300L238,300L238,300L239,300L239,300L240,300L240,300L241,300L241,300L242,300L242,300L243.00000000000003,300L243.00000000000003,300L244,300L244,300L245.00000000000003,300L245.00000000000003,300L246,300L246,300L247.00000000000003,300L247.00000000000003,300L248,300L248,300L249.00000000000003,300L249.00000000000003,300L250,300L250,300L250.99999999999997,300L250.99999999999997,300L252,300L252,300L252.99999999999997,300L252.99999999999997,300L254,300L254,300L254.99999999999997,300L254.99999999999997,300L256,300L256,300L257,300L257,300L258,300L258,300L259,300L259,300L260,300L260,300L261,300L261,300L262,300L262,300L263,300L263,300L264,300L264,300L265,300L265,300L266,300L266,300L267,300L267,300L268,300L268,300L269,300L269,300L270,300L270,300L271,300L271,300L272,300L272,300L273,300L273,300L274,300L274,300L275,300L275,300L276,300L276,300L277,300L277,300L278,300L278,300L279,300L279,300L280,300L280,300L281,300L281,300L282,300L282,300L283,300L283,300L284,300L284,300L285,300L285,300L286,300L286,300L287,300L287,300L288,300L288,300L289,300L289,300L290,300L290,300L291,300L291,300L292,300L292,300L293,300L293,300L294,300L294,300L295,300L295,300L296,300L296,300L297,300L297,300L298,300L298,300L299,300L299,300L300,300L300,300L301,300L301,300L302,300L302,300L303,300L303,300L304,300L304,300L305,300L305,300L306,300L306,300L307,300L307,300L308,300L308,300L309,300L309,300L310,300L310,300L311,300L311,300L312,300L312,300L313,300L313,300L314,300L314,300L315,300L315,300L316,300L316,300L317,300L317,300L318,300L318,300L319,300L319,300L320,300L320,300L321,300L321,300L322,300L322,300L323,300L323,300L324,300L324,300L325,300L325,300L326,300L326,300L327,300L327,300L328,300L328,300L329,300L329,300L330,300L330,300L331,300L331,300L332,300L332,300L333,300L333,300L334,300L334,300L335,300L335,300L336,300L336,300L337,300L337,300L338,300L338,300L339,300L339,300L340,300L340,300L341,300L341,300L342,300L342,300L343,300L343,300L344,300L344,300L345,300L345,300L346,300L346,300L347,300L347,300L348,300L348,300L349,300L349,300L350,300L350,300L351,300L351,300L352,300L352,300L353,300L353,300L354,300L354,300L355,300L355,300L356,300L356,300L357,300L357,300L358,300L358,300L359,300L359,300L360,300L360,300L361,300L361,300L362,300L362,300L363,300L363,300L364,300L364,300L363,300L363,300L362,300L362,300L361,300L361,300L360,300L360,300L359,300L359,300L358,300L358,300L357,300L357,300L356,300L356,300L355,300L355,300L354,300L354,300L353,300L353,300L352,300L352,300L351,300L351,300L350,300L350,300L349,300L349,300L348,300L348,300L347,300L347,300L346,300L346,300L345,300L345,300L344,300L344,300L343,300L343,300L342,300L342,300L341,300L341,300L340,300L340,300L339,300L339,300L338,300L338,300L337,300L337,300L336,300L336,300L335,300L335,300L334,300L334,300L333,300L333,300L332,300L332,300L331,300L331,300L330,300L330,300L329,300L329,300L328,300L328,300L327,300L327,300L326,300L326,300L325,300L325,300L324,300L324,300L323,300L323,300L322,300L322,300L321,300L321,300L320,300L320,300L319,300L319,300L318,300L318,300L317,300L317,300L316,300L316,300L315,300L315,300L314,300L314,300L313,300L313,300L312,300L312,300L311,300L311,300L310,300L310,300L309,300L309,300L308,300L308,300L307,300L307,300L306,300L306,300L305,300L305,300L304,300L304,300L303,300L303,300L302,300L302,300L301,300L301,300L300,300L300,300L299,300L299,300L298,300L298,300L297,300L297,300L296,300L296,300L295,300L295,300L294,300L294,300L293,300L293,300L292,300L292,300L291,300L291,300L290,300L290,300L289,300L289,300L288,300L288,300L287,300L287,300L286,300L286,300L285,300L285,300L284,300L284,300L283,300L283,300L282,300L282,300L281,300L281,300L280,300L280,300L279,300L279,300L278,300L278,300L277,300L277,300L276,300L276,300L275,300L275,300L274,300L274,300L273,300L273,300L272,300L272,300L271,300L271,300L270,300L270,300L269,300L269,300L268,300L268,300L267,300L267,300L266,300L266,300L265,300L265,300L264,300L264,300L263,300L263,300L262,300L262,300L261,300L261,300L260,300L260,300L259,300L259,300L258,300L258,300L257,300L257,300L256,300L256,300L254.99999999999997,300L254.99999999999997,300L254,300L254,300L252.99999999999997,300L252.99999999999997,300L252,300L252,300L250.99999999999997,300L250.99999999999997,300L250,300L250,300L249.00000000000003,300L249.00000000000003,300L248,300L248,300L247.00000000000003,300L247.00000000000003,300L246,300L246,300L245.00000000000003,300L245.00000000000003,300L244,300L244,300L243.00000000000003,300L243.00000000000003,300L242,300L242,300L241,300L241,300L240,300L240,300L239,300L239,300L238,300L238,300L237,300L237,300L236,300L236,300L235,300L235,300L234,300L234,300L233,300L233,300L231.99999999999997,300L231.99999999999997,300L231,300L231,300L229.99999999999997,300L229.99999999999997,300L229,300L229,300L227.99999999999997,300L227.99999999999997,300L227,300L227,300L225.99999999999997,300L225.99999999999997,300L225,300L225,300L224.00000000000003,300L224.00000000000003,300L223,300L223,300L222.00000000000003,300L222.00000000000003,300L221,300L221,300L220.00000000000003,300L220.00000000000003,300L219,300L219,300L218.00000000000003,300L218.00000000000003,300L217,300L217,300L216,300L216,300L215,300L215,300L214,300L214,300L213,300L213,300L212,300L212,300L211,300L211,300L210,300L210,300L209,300L209,300L208,300L208,300L206.99999999999997,300L206.99999999999997,300L206,300L206,300L204.99999999999997,300L204.99999999999997,300L204,300L204,300L202.99999999999997,300L202.99999999999997,300L202,300L202,300L200.99999999999997,300L200.99999999999997,300L200,300L200,300L199,300L199,300L198,300L198,300L197,300L197,300L196,300L196,300L195,300L195,300L194,300L194,300L193,300L193,300L192,300L192,300L191,300L191,300L190,300L190,300L189,300L189,300L188,300L188,300L187,300L187,300L186,300L186,300L185,300L185,300L184,300L184,300L183,300L183,300L182,300L182,300L181,300L181,300L180,300L180,300L179,300L179,300L178,300L178,300L177,300L177,300L176,300L176,300L175,300L175,300L174,300L174,300L173,300L173,300L172,300L172,300L171,300L171,300L170,300L170,300L169,300L169,300L168,300L168,300L167,300L167,300L166,300L166,300L165,300L165,300L164,300L164,300L163,300L163,300L162,300L162,300L161,300L161,300L160,300L160,300L159,300L159,300L158,300L158,300L157,300L157,300L156,300L156,300L155,300L155,300L154,300L154,300L153,300L153,300L152,300L152,300L151,300L151,300L150,300L150,300L149,300L149,300L148,300L148,300L147,300L147,300L146,300L146,300L145,300L145,300L144,300L144,300L143,300L143,300L142,300L142,300L141,300L141,300L140,300L140,300L139,300L139,300L138,300L138,300L137,300L137,300L136,300L136,300L135,300L135,300L134,300L134,300L133,300L133,300L132,300L132,300L131,300L131,300L130,300L130,300L129,300L129,300L128,300L128,300L127,300L127,300L126,300L126,300L125,300L125,300L124,300L124,300L123,300L123,300L122,300L122,300L121,300L121,300L120,300L120,300L119,300L119,300L118,300L118,300L117,300L117,300L115.99999999999999,300L115.99999999999999,300L114.99999999999999,300L114.99999999999999,300L113.99999999999999,300L113.99999999999999,300L112.99999999999999,300L112.99999999999999,300L112.00000000000001,300L112.00000000000001,300L111.00000000000001,300L111.00000000000001,300L110.00000000000001,300L110.00000000000001,300L109.00000000000001,300L109.00000000000001,300L108,300L108,300L107,300L107,300L106,300L106,300L105,300L105,300L104,300L104,300L103,300L103,300L102,300L102,300L101,300L101,300L100,300L100,300L99,300L99,300L98,300L98,300L97,300L97,300L96,300L96,300L95,300L95,300L94,300L94,300L93,300L93,300L92,300L92,300L91,300L91,300L90,300L90,300L89,300L89,300L88,300L88,300L87,300L87,300L86,300L86,300L85,300L85,300L84,300L84,300L83,300L83,300L82,300L82,300L81,300L81,300L80,300L80,300L79,300L79,300L78,300L78,300L77,300L77,300L76,300L76,300L75,300L75,300L74,300L74,300L73,300L73,300L72,300L72,300L71,300L71,300L70,300L70,300L69,300L69,300L68,300L68,300L67,300L67,300L66,300L66,300L65,300L65,300L64,300L64,300L63,300L63,300L62,300L62,300L61,300L61,300L60,300L60,300L59,300L59,300L57.99999999999999,300L57.99999999999999,300L56.99999999999999,300L56.99999999999999,300L56.00000000000001,300L56.00000000000001,300L55.00000000000001,300L55.00000000000001,300L54,300L54,300L53,300L53,300L52,300L52,300L51,300L51,300L50,300L50,300L49,300L49,300L48,300L48,300L47,300L47,300L46,300L46,300L45,300L45,300L44,300L44,300L43,300L43,300L42,300L42,300L41,300L41,300L40,300L40,300L39,300L39,300L38,300L38,300L37,300L37,300L36,300L36,300L35,300L35,300L34,300L34,300L33,300L33,300L32,300L32,300L31,300L31,300L30,300L30,300L28.999999999999996,300L28.999999999999996,300L28.000000000000004,300L28.000000000000004,300L27,300L27,300L26,300L26,300L25,300L25,300L24,300L24,300L23,300L23,300L22,300L22,300L21,300L21,300L20,300L20,300L19,300L19,300L18,300L18,300L17,300L17,300L16,300L16,300L15,300L15,300L14.000000000000002,300L14.000000000000002,300L13,300L13,300L12,300L12,300L11,300L11,300L10,300L10,300L9,300L9,300L8,300L8,300L7.000000000000001,300L7.000000000000001,300L6,300L6,300L5,300L5,300L4,300L4,300L3,300L3,300L2,300L2,300L1,300L1,300L0,300L0,300Z" style="fill: #82b7d7; opacity: 0.5;"></path></g><g class="mark-area role-mark layer_1_marks"><path d="M0,300L1,300L1,300L2,300L2,300L3,300L3,300L4,300L4,300L5,300L5,300L6,300L6,300L7.000000000000001,300L7.000000000000001,300L8,300L8,300L9,300L9,300L10,300L10,300L11,300L11,300L12,300L12,300L13,300L13,300L14.000000000000002,300L14.000000000000002,300L15,300L15,300L16,300L16,300L17,300L17,300L18,300L18,300L19,300L19,300L20,300L20,300L21,300L21,300L22,300L22,300L23,300L23,300L24,300L24,300L25,300L25,300L26,300L26,300L27,300L27,300L28.000000000000004,300L28.000000000000004,300L28.999999999999996,300L28.999999999999996,300L30,300L30,300L31,300L31,300L32,300L32,300L33,300L33,300L34,300L34,300L35,300L35,300L36,300L36,300L37,300L37,300L38,300L38,300L39,300L39,300L40,300L40,300L41,300L41,300L42,300L42,300L43,300L43,300L44,300L44,300L45,300L45,300L46,300L46,300L47,300L47,300L48,300L48,300L49,300L49,300L50,300L50,300L51,300L51,300L52,300L52,300L53,300L53,300L54,300L54,300L55.00000000000001,300L55.00000000000001,300L56.00000000000001,300L56.00000000000001,300L56.99999999999999,300L56.99999999999999,300L57.99999999999999,300L57.99999999999999,0L59,0L59,0L60,0L60,0L61,0L61,0L62,0L62,0L63,0L63,0L64,0L64,0L65,0L65,0L66,0L66,0L67,0L67,0L68,0L68,0L69,0L69,0L70,0L70,0L71,0L71,0L72,0L72,0L73,0L73,0L74,0L74,0L75,0L75,0L76,0L76,0L77,0L77,0L78,0L78,0L79,0L79,0L80,0L80,0L81,0L81,0L82,0L82,0L83,0L83,0L84,0L84,0L85,0L85,0L86,0L86,0L87,0L87,0L88,0L88,0L89,0L89,0L90,0L90,0L91,0L91,0L92,0L92,0L93,0L93,0L94,0L94,0L95,0L95,0L96,0L96,0L97,0L97,0L98,0L98,0L99,0L99,0L100,0L100,0L101,0L101,0L102,0L102,0L103,0L103,0L104,0L104,0L105,0L105,0L106,0L106,0L107,0L107,0L108,0L108,0L109.00000000000001,0L109.00000000000001,0L110.00000000000001,0L110.00000000000001,0L111.00000000000001,0L111.00000000000001,0L112.00000000000001,0L112.00000000000001,0L112.99999999999999,0L112.99999999999999,0L113.99999999999999,0L113.99999999999999,0L114.99999999999999,0L114.99999999999999,0L115.99999999999999,0L115.99999999999999,0L117,0L117,0L118,0L118,0L119,0L119,0L120,0L120,0L121,0L121,0L122,0L122,0L123,0L123,0L124,0L124,0L125,0L125,0L126,0L126,0L127,0L127,0L128,0L128,0L129,0L129,0L130,0L130,0L131,0L131,0L132,0L132,0L133,0L133,0L134,0L134,0L135,0L135,0L136,0L136,0L137,0L137,0L138,0L138,0L139,0L139,0L140,0L140,0L141,0L141,0L142,0L142,0L143,0L143,0L144,0L144,0L145,0L145,0L146,0L146,0L147,0L147,0L148,0L148,0L149,0L149,0L150,0L150,0L151,0L151,0L152,0L152,0L153,0L153,0L154,0L154,0L155,0L155,0L156,0L156,0L157,0L157,0L158,0L158,0L159,0L159,0L160,0L160,0L161,0L161,0L162,0L162,0L163,0L163,0L164,0L164,0L165,0L165,0L166,0L166,0L167,0L167,0L168,0L168,0L169,0L169,0L170,0L170,0L171,0L171,0L172,0L172,0L173,0L173,0L174,0L174,0L175,0L175,0L176,0L176,0L177,0L177,0L178,0L178,0L179,0L179,0L180,0L180,0L181,0L181,0L182,0L182,0L183,0L183,0L184,0L184,0L185,0L185,0L186,0L186,0L187,0L187,0L188,0L188,0L189,0L189,0L190,0L190,0L191,0L191,0L192,0L192,0L193,0L193,0L194,0L194,0L195,0L195,0L196,0L196,0L197,0L197,0L198,0L198,0L199,0L199,0L200,0L200,0L200.99999999999997,0L200.99999999999997,0L202,0L202,0L202.99999999999997,0L202.99999999999997,0L204,0L204,0L204.99999999999997,0L204.99999999999997,0L206,0L206,0L206.99999999999997,0L206.99999999999997,0L208,0L208,0L209,0L209,0L210,0L210,0L211,0L211,0L212,0L212,0L213,0L213,0L214,0L214,0L215,0L215,0L216,0L216,0L217,0L217,0L218.00000000000003,0L218.00000000000003,0L219,0L219,0L220.00000000000003,0L220.00000000000003,0L221,0L221,0L222.00000000000003,0L222.00000000000003,0L223,0L223,0L224.00000000000003,0L224.00000000000003,0L225,0L225,0L225.99999999999997,0L225.99999999999997,0L227,0L227,0L227.99999999999997,0L227.99999999999997,0L229,0L229,0L229.99999999999997,0L229.99999999999997,0L231,0L231,0L231.99999999999997,0L231.99999999999997,0L233,0L233,0L234,0L234,0L235,0L235,0L236,0L236,0L237,0L237,0L238,0L238,0L239,0L239,0L240,0L240,0L241,0L241,0L242,0L242,0L243.00000000000003,0L243.00000000000003,0L244,0L244,0L245.00000000000003,0L245.00000000000003,0L246,0L246,0L247.00000000000003,0L247.00000000000003,0L248,0L248,0L249.00000000000003,0L249.00000000000003,0L250,0L250,0L250.99999999999997,0L250.99999999999997,0L252,0L252,0L252.99999999999997,0L252.99999999999997,0L254,0L254,0L254.99999999999997,0L254.99999999999997,0L256,0L256,0L257,0L257,0L258,0L258,0L259,0L259,0L260,0L260,0L261,0L261,0L262,0L262,0L263,0L263,0L264,0L264,0L265,0L265,0L266,0L266,0L267,0L267,0L268,0L268,0L269,0L269,0L270,0L270,0L271,0L271,0L272,0L272,0L273,0L273,0L274,0L274,0L275,0L275,0L276,0L276,0L277,0L277,0L278,0L278,0L279,0L279,0L280,0L280,0L281,0L281,0L282,0L282,0L283,0L283,0L284,0L284,0L285,0L285,0L286,0L286,0L287,0L287,0L288,0L288,0L289,0L289,0L290,0L290,0L291,0L291,0L292,0L292,0L293,0L293,0L294,0L294,0L295,0L295,0L296,0L296,0L297,0L297,0L298,0L298,0L299,0L299,0L300,0L300,0L301,0L301,0L302,0L302,0L303,0L303,0L304,0L304,0L305,0L305,0L306,0L306,0L307,0L307,0L308,0L308,0L309,0L309,0L310,0L310,0L311,0L311,0L312,0L312,0L313,0L313,0L314,0L314,0L315,0L315,0L316,0L316,0L317,0L317,0L318,0L318,0L319,0L319,0L320,0L320,0L321,0L321,0L322,0L322,0L323,0L323,0L324,0L324,0L325,0L325,0L326,0L326,0L327,0L327,0L328,0L328,0L329,0L329,0L330,0L330,0L331,0L331,0L332,0L332,0L333,0L333,0L334,0L334,0L335,0L335,0L336,0L336,0L337,0L337,0L338,0L338,0L339,0L339,0L340,0L340,0L341,0L341,0L342,0L342,0L343,0L343,0L344,0L344,0L345,0L345,0L346,0L346,0L347,0L347,0L348,0L348,0L349,0L349,0L350,0L350,0L351,0L351,0L352,0L352,0L353,0L353,0L354,0L354,0L355,0L355,0L356,0L356,0L357,0L357,0L358,0L358,0L359,0L359,0L360,0L360,0L361,0L361,0L362,0L362,0L363,0L363,0L364,0L364,0L364,300L364,300L363,300L363,300L362,300L362,300L361,300L361,300L360,300L360,300L359,300L359,300L358,300L358,300L357,300L357,300L356,300L356,300L355,300L355,300L354,300L354,300L353,300L353,300L352,300L352,300L351,300L351,300L350,300L350,300L349,300L349,300L348,300L348,300L347,300L347,300L346,300L346,300L345,300L345,300L344,300L344,300L343,300L343,300L342,300L342,300L341,300L341,300L340,300L340,300L339,300L339,300L338,300L338,300L337,300L337,300L336,300L336,300L335,300L335,300L334,300L334,300L333,300L333,300L332,300L332,300L331,300L331,300L330,300L330,300L329,300L329,300L328,300L328,300L327,300L327,300L326,300L326,300L325,300L325,300L324,300L324,300L323,300L323,300L322,300L322,300L321,300L321,300L320,300L320,300L319,300L319,300L318,300L318,300L317,300L317,300L316,300L316,300L315,300L315,300L314,300L314,300L313,300L313,300L312,300L312,300L311,300L311,300L310,300L310,300L309,300L309,300L308,300L308,300L307,300L307,300L306,300L306,300L305,300L305,300L304,300L304,300L303,300L303,300L302,300L302,300L301,300L301,300L300,300L300,300L299,300L299,300L298,300L298,300L297,300L297,300L296,300L296,300L295,300L295,300L294,300L294,300L293,300L293,300L292,300L292,300L291,300L291,300L290,300L290,300L289,300L289,300L288,300L288,300L287,300L287,300L286,300L286,300L285,300L285,300L284,300L284,300L283,300L283,300L282,300L282,300L281,300L281,300L280,300L280,300L279,300L279,300L278,300L278,300L277,300L277,300L276,300L276,300L275,300L275,300L274,300L274,300L273,300L273,300L272,300L272,300L271,300L271,300L270,300L270,300L269,300L269,300L268,300L268,300L267,300L267,300L266,300L266,300L265,300L265,300L264,300L264,300L263,300L263,300L262,300L262,300L261,300L261,300L260,300L260,300L259,300L259,300L258,300L258,300L257,300L257,300L256,300L256,300L254.99999999999997,300L254.99999999999997,300L254,300L254,300L252.99999999999997,300L252.99999999999997,300L252,300L252,300L250.99999999999997,300L250.99999999999997,300L250,300L250,300L249.00000000000003,300L249.00000000000003,300L248,300L248,300L247.00000000000003,300L247.00000000000003,300L246,300L246,300L245.00000000000003,300L245.00000000000003,300L244,300L244,300L243.00000000000003,300L243.00000000000003,300L242,300L242,300L241,300L241,300L240,300L240,300L239,300L239,300L238,300L238,300L237,300L237,300L236,300L236,300L235,300L235,300L234,300L234,300L233,300L233,300L231.99999999999997,300L231.99999999999997,300L231,300L231,300L229.99999999999997,300L229.99999999999997,300L229,300L229,300L227.99999999999997,300L227.99999999999997,300L227,300L227,300L225.99999999999997,300L225.99999999999997,300L225,300L225,300L224.00000000000003,300L224.00000000000003,300L223,300L223,300L222.00000000000003,300L222.00000000000003,300L221,300L221,300L220.00000000000003,300L220.00000000000003,300L219,300L219,300L218.00000000000003,300L218.00000000000003,300L217,300L217,300L216,300L216,300L215,300L215,300L214,300L214,300L213,300L213,300L212,300L212,300L211,300L211,300L210,300L210,300L209,300L209,300L208,300L208,300L206.99999999999997,300L206.99999999999997,300L206,300L206,300L204.99999999999997,300L204.99999999999997,300L204,300L204,300L202.99999999999997,300L202.99999999999997,300L202,300L202,300L200.99999999999997,300L200.99999999999997,300L200,300L200,300L199,300L199,300L198,300L198,300L197,300L197,300L196,300L196,300L195,300L195,300L194,300L194,300L193,300L193,300L192,300L192,300L191,300L191,300L190,300L190,300L189,300L189,300L188,300L188,300L187,300L187,300L186,300L186,300L185,300L185,300L184,300L184,300L183,300L183,300L182,300L182,300L181,300L181,300L180,300L180,300L179,300L179,300L178,300L178,300L177,300L177,300L176,300L176,300L175,300L175,300L174,300L174,300L173,300L173,300L172,300L172,300L171,300L171,300L170,300L170,300L169,300L169,300L168,300L168,300L167,300L167,300L166,300L166,300L165,300L165,300L164,300L164,300L163,300L163,300L162,300L162,300L161,300L161,300L160,300L160,300L159,300L159,300L158,300L158,300L157,300L157,300L156,300L156,300L155,300L155,300L154,300L154,300L153,300L153,300L152,300L152,300L151,300L151,300L150,300L150,300L149,300L149,300L148,300L148,300L147,300L147,300L146,300L146,300L145,300L145,300L144,300L144,300L143,300L143,300L142,300L142,300L141,300L141,300L140,300L140,300L139,300L139,300L138,300L138,300L137,300L137,300L136,300L136,300L135,300L135,300L134,300L134,300L133,300L133,300L132,300L132,300L131,300L131,300L130,300L130,300L129,300L129,300L128,300L128,300L127,300L127,300L126,300L126,300L125,300L125,300L124,300L124,300L123,300L123,300L122,300L122,300L121,300L121,300L120,300L120,300L119,300L119,300L118,300L118,300L117,300L117,300L115.99999999999999,300L115.99999999999999,300L114.99999999999999,300L114.99999999999999,300L113.99999999999999,300L113.99999999999999,300L112.99999999999999,300L112.99999999999999,300L112.00000000000001,300L112.00000000000001,300L111.00000000000001,300L111.00000000000001,300L110.00000000000001,300L110.00000000000001,300L109.00000000000001,300L109.00000000000001,300L108,300L108,300L107,300L107,300L106,300L106,300L105,300L105,300L104,300L104,300L103,300L103,300L102,300L102,300L101,300L101,300L100,300L100,300L99,300L99,300L98,300L98,300L97,300L97,300L96,300L96,300L95,300L95,300L94,300L94,300L93,300L93,300L92,300L92,300L91,300L91,300L90,300L90,300L89,300L89,300L88,300L88,300L87,300L87,300L86,300L86,300L85,300L85,300L84,300L84,300L83,300L83,300L82,300L82,300L81,300L81,300L80,300L80,300L79,300L79,300L78,300L78,300L77,300L77,300L76,300L76,300L75,300L75,300L74,300L74,300L73,300L73,300L72,300L72,300L71,300L71,300L70,300L70,300L69,300L69,300L68,300L68,300L67,300L67,300L66,300L66,300L65,300L65,300L64,300L64,300L63,300L63,300L62,300L62,300L61,300L61,300L60,300L60,300L59,300L59,300L57.99999999999999,300L57.99999999999999,300L56.99999999999999,300L56.99999999999999,300L56.00000000000001,300L56.00000000000001,300L55.00000000000001,300L55.00000000000001,300L54,300L54,300L53,300L53,300L52,300L52,300L51,300L51,300L50,300L50,300L49,300L49,300L48,300L48,300L47,300L47,300L46,300L46,300L45,300L45,300L44,300L44,300L43,300L43,300L42,300L42,300L41,300L41,300L40,300L40,300L39,300L39,300L38,300L38,300L37,300L37,300L36,300L36,300L35,300L35,300L34,300L34,300L33,300L33,300L32,300L32,300L31,300L31,300L30,300L30,300L28.999999999999996,300L28.999999999999996,300L28.000000000000004,300L28.000000000000004,300L27,300L27,300L26,300L26,300L25,300L25,300L24,300L24,300L23,300L23,300L22,300L22,300L21,300L21,300L20,300L20,300L19,300L19,300L18,300L18,300L17,300L17,300L16,300L16,300L15,300L15,300L14.000000000000002,300L14.000000000000002,300L13,300L13,300L12,300L12,300L11,300L11,300L10,300L10,300L9,300L9,300L8,300L8,300L7.000000000000001,300L7.000000000000001,300L6,300L6,300L5,300L5,300L4,300L4,300L3,300L3,300L2,300L2,300L1,300L1,300L0,300Z" style="fill: #e6f1f7; opacity: 0.5;"></path></g><g class="mark-line role-mark layer_2_marks"><path d="M0,299.9817073170732L1,299.98280600763405L2,299.9828134660762L3,299.98211458094653L4,299.98092967413373L5,299.97938152026904L6,299.9775347522981L7.000000000000001,299.97541899958725L8,299.9730424372456L9,299.97039968235345L10,299.96747635236716L11,299.96425164865093L12,299.9606997662924L13,299.9567906036526L14.000000000000002,299.95249004457105L15,299.94775997783705L16,299.94255814629935L17,299.9368378797482L18,299.9305477416677L19,299.92363110583767L20,299.91602567028025L21,299.90766291086163L22,299.89846747360224L23,299.88835650260586L24,299.87723889901105L25,299.8650145052126L26,299.85157320762744L27,299.83679395038365L28.000000000000004,299.8205436514393L28.999999999999996,299.8026760117356L30,299.7867465858244L31,299.77498342154865L32,299.765838500261L33,299.75832715753126L34,299.75182285729073L35,299.745926720752L36,299.74038458489844L37,299.7350342750188L38,299.729772084687L39,299.7245314662258L40,299.7192694829148L41,299.71395819978676L42,299.70857920277575L43,299.7031201222864L44,299.69757241858304L45,299.691929974698L46,299.6861882017005L47,299.6803434696858L48,299.67439274583063L49,299.6683333640842L50,299.6621628785418L51,299.65587897001393L52,299.6494793864121L53,299.6429619046297L54,299.6363243060841L55.00000000000001,299.62956436094225L56.00000000000001,299.6226798178631L56.99999999999999,299.61566839724367L57.99999999999999,299.60287802573L59,299.581080787292L60,299.5527107497351L61,299.5191207894007L62,299.48100977869166L63,299.43867696779535L64,299.39217312387L65,299.34138996399724L66,299.28611268050787L67,299.2260503455946L68,299.16085306698955L69,299.0901211026835L70,299.0134091277909L71,298.93022749655853L72,298.8400416147958L73,298.7422700784985L74,298.6362819632819L75,298.5213934870704L76,298.39686417143963L77,298.26189256887557L78,298.1156115883955L79,297.9570834311481L80,297.7852941352345L81,297.5991477217933L82,297.39745993042925L83,297.1789515302239L84,296.9422411922124L85,296.68583791001913L86,296.4081329571627L87,296.10739137235345L88,295.781742967956L89,295.42917286180085L90,295.0475115388473L91,294.6344244570312L92,294.1874012212014L93,293.7037443606233L94,293.1805577594087L95,292.6147348057486L96,292.00294634533805L97,291.34162854729067L98,290.62697081755186L99,289.854903925777L100,289.0210885472818L101,288.12090446243593L102,287.1494407021683L103,286.1014869804401L104,284.97152681290044L105,283.7537327856046L106,282.441964508619L107,281.02976986626675L108,279.5103902580739L109.00000000000001,277.87677061112043L110.00000000000001,276.1215750339135L111.00000000000001,274.237209071866L112.00000000000001,272.2158496119665L112.99999999999999,270.04948356533316L113.99999999999999,267.7299565260412L114.99999999999999,265.24903265668985L115.99999999999999,262.59846707810055L117,259.7700920334207L118,256.75591804547486L119,253.54825117892156L120,250.13982734309207L121,246.52396431411765L122,242.69473180295677L123,238.6471394369293L124,234.37734194613682L125,229.88286014597068L126,225.16281548126145L127,220.21817495213966L128,215.0520021912038L129,209.6697093321601L130,204.0793031407051L131,198.29161772212314L132,192.32052504426485L133,186.18311359995786L134,179.89982487076185L135,173.49453694172536L136,166.99458475128247L137,160.4307071296033L138,153.8369120516637L139,147.25025344757876L140,140.71051547217007L141,134.25980328968748L142,127.94204307576696L143,121.80239792017306L144,115.88661042405747L145,110.2402867792155L146,104.90814072731952L147,99.93321875769657L148,95.35612997078702L149,91.21430501783563L150,87.54130830290883L151,84.36622616405313L152,81.71315109241563L153,79.60077834820352L154,78.04212681611776L155,77.04439089484623L156,76.60892495288016L157,76.73135672855615L158,77.40182130512136L159,78.60530320448156L160,80.32207090480395L161,82.52818581221324L162,85.19606644469876L163,88.29508828598999L164,91.792200348189L165,95.65254080942066L166,99.84003600355044L167,104.31796935793537L168,109.04950942942588L169,113.99818881957447L170,119.12832832065958L171,124.40540304534731L172,129.79634944423768L173,135.26981396521862L174,140.79634563020386L175,146.34853599409075L176,151.9011108206843L177,157.43097838670604L178,162.91723964218406L179,168.34116555241877L180,173.68614686380926L181,178.93762131254766L182,184.0829829682524L183,189.11147800683895L184,194.01409076654772L185,198.78342348159276L186,203.41357262818275L187,207.900004372189L188,212.23943118710656L189,216.42969132237656L190,220.4696324500549L191,224.35900050432625L192,228.09833445381707L193,231.68886751005763L194,235.13243507477966L195,238.43138956140567L196,241.58852208905978L197,244.60699093750452L198,247.4902565653627L199,250.24202292866065L200,252.86618478916157L200.99999999999997,255.36678066938714L202,257.7479510911338L202.99999999999997,260.0139017244553L204,262.16887107249755L204.99999999999997,264.21710232253963L206,266.1628190036091L206.99999999999997,268.01020410485404L208,269.76338232540377L209,271.4264051448543L210,273.0032384230541L211,274.49775225795764L212,275.9137128504961L213,277.2547761453196L214,278.5244830356277L215,279.726255938907L216,280.86339656810435L217,281.9390847394772L218.00000000000003,282.95637807402215L219,283.9182124639687L220.00000000000003,284.8274031893294L221,285.6866465819406L222.00000000000003,286.4985221458433L223,287.2654950532805L224.00000000000003,287.9899189450745L225,288.67403897275454L225.99999999999997,289.31999502758055L227,289.92982510861685L227.99999999999997,290.5054687883038L229,291.0487707396132L229.99999999999997,291.56148429390873L231,292.0452750031193L231.99999999999997,292.5017241838145L233,292.9323324243036L234,293.33852303899374L235,293.72164545698985L236,294.08297853432924L237,294.4237337813544L238,294.74505849856735L239,295.0480388159112L240,295.3337026318091L241,295.60302244948656L242,295.856918109129L243.00000000000003,296.0962594153016L244,296.32186865980134L245.00000000000003,296.5345230407389L246,296.7349569791687L247.00000000000003,296.92386433501997L248,297.10190052443676L249.00000000000003,297.2696845409169L250,297.4278008828678L250.99999999999997,297.5768013903689L252,297.71720699405853L252.99999999999997,297.84950937915266L254,297.9741725676597L254.99999999999997,298.0916344218823L256,298.2023080723022L257,298.3065832729268L258,298.40482768714435L259,298.49738810708567L260,298.5845916094325L261,298.6667466505451L262,298.7441441037053L263,298.81705824119L264,298.8857476638061L265,298.9504561804284L266,299.01141363999056L267,299.06883671829064L268,299.1229296618775L269,299.17388499119465L270,299.2218841650677L271,299.2670982085306L272,299.30968830589933L273,299.3498063609153L274,299.38759552569746L275,299.4231907001599L276,299.4567190034748L277,299.4883002190816L278,299.5180472146729L279,299.5460663385145L280,299.5724577933898L281,299.5973159893938L282,299.62072987673866L283,299.6427832596731L284,299.6635550925608L285,299.68311975910825L286,299.70154733567955L287,299.7189038395869L288,299.7352514631974L289,299.7506487946516L290,299.7651510259465L291,299.7788101490957L292,299.7916751410378L293,299.8037921379317L294,299.8152045994381L295,299.82595346355663L296,299.8360772925542L297,299.8456124104928L298,299.8545930328341L299,299.86305138857404L300,299.87101783533336L301,299.8785209678071L302,299.8855877199534L303,299.8922434612796L304,299.8985120875656L305,299.90441610634196L306,299.90997671742554L307,299.91521388879596L308,299.9201464280813L309,299.9247920499058L310,299.9291674393375L311,299.9332883116615L312,299.9371694686894L313,299.9408248518064L314,299.9442675919429L315,299.9475100566493L316,299.95056389444096L317,299.95344007657064L318,299.9561489363781L319,299.9587002063567L320,299.96110305306854L321,299.96336611003335L322,299.96549750870827L323,299.9675049076691L324,299.9693955200968L325,299.9711761396685L326,299.97285316494407L327,299.97443262233674L328,299.9759201877493L329,299.977321206953L330,299.9786407147827L331,299.9798834532172L332,299.98105388840753L333,299.98215622671694L334,299.98319442982836L335,299.98417222897336L336,299.98509313833455L337,299.9859604676684L338,299.986777334195L339,299.9875466737955L340,299.98827125156004L341,299.9889536717207L342,299.98959638700836L343,299.9902017074648L344,299.9907718087423L345,299.99130873992107L346,299.9918144308717L347,299.9922906991896L348,299.99273925672617L349,299.99316171574003L350,299.9935595946907L351,299.99393432369504L352,299.99428724966657L353,299.99461964115574L354,299.9949326929088L355,299.9952275301612L356,299.9955052126815L357,299.9957667385804L358,299.9960130478973L359,299.99624502597885L360,299.9964635066612L361,299.99666927526636L362,299.99686307142497L363,299.99704559173455L364,299.997217492263" style="fill: none; stroke: orange; stroke-width: 2;"></path></g></g><path class="foreground" d="" style="display: none; fill: none;"></path></g></g></g></svg>