<?xml version="1.0" encoding="UTF-8"?>
<svg width="420px" height="383px" viewBox="0 0 420 383" version="1.1" xmlns="http://www.w3.org/2000/svg" xmlns:xlink="http://www.w3.org/1999/xlink">
    <!-- Generator: Sketch 60.1 (88133) - https://sketch.com -->
    <title>90Mod</title>
    <desc>Created with Sketch.</desc>
    <g id="90Mod" stroke="none" stroke-width="1" fill="none" fill-rule="evenodd">
        <rect fill="#FFFFFF" x="0" y="0" width="420" height="383"></rect>
        <rect id="Rectangle" fill="#FFFFFF" fill-rule="nonzero" x="0" y="36" width="454" height="347"></rect>
        <g id="Group" transform="translate(2.000000, 40.000000)">
            <g>
                <g>
                    <polygon id="Path" stroke="#DDDDDD" points="46.5 6.5 412.5 6.5 412.5 306.5 46.5 306.5"></polygon>
                    <g>
                        <g transform="translate(45.500000, 6.500000)">
                            <g transform="translate(1.000000, 300.000000)"></g>
                            <g id="Path" stroke="#DDDDDD">
                                <g>
                                    <line x1="1" y1="0" x2="1" y2="300"></line>
                                    <line x1="51" y1="0" x2="51" y2="300"></line>
                                    <line x1="101" y1="0" x2="101" y2="300"></line>
                                    <line x1="151" y1="0" x2="151" y2="300"></line>
                                    <line x1="201" y1="0" x2="201" y2="300"></line>
                                    <line x1="251" y1="0" x2="251" y2="300"></line>
                                    <line x1="301" y1="0" x2="301" y2="300"></line>
                                    <line x1="351" y1="0" x2="351" y2="300"></line>
                                    <line x1="368" y1="0" x2="368" y2="300"></line>
                                </g>
                            </g>
                        </g>
                        <g transform="translate(46.500000, 5.500000)">
                            <g transform="translate(0.000000, 1.000000)"></g>
                            <g id="Path" stroke="#DDDDDD">
                                <g>
                                    <line x1="0" y1="301" x2="365" y2="301"></line>
                                    <line x1="0" y1="271" x2="365" y2="271"></line>
                                    <line x1="0" y1="241" x2="365" y2="241"></line>
                                    <line x1="0" y1="211" x2="365" y2="211"></line>
                                    <line x1="0" y1="181" x2="365" y2="181"></line>
                                    <line x1="0" y1="151" x2="365" y2="151"></line>
                                    <line x1="0" y1="121" x2="365" y2="121"></line>
                                    <line x1="0" y1="91" x2="365" y2="91"></line>
                                    <line x1="0" y1="61" x2="365" y2="61"></line>
                                    <line x1="0" y1="31" x2="365" y2="31"></line>
                                    <line x1="0" y1="1" x2="365" y2="1"></line>
                                </g>
                            </g>
                        </g>
                        <g transform="translate(45.500000, 305.500000)">
                            <g transform="translate(1.000000, 1.000000)"></g>
                            <g>
                                <g id="Path" stroke="#888888">
                                    <line x1="1" y1="1" x2="1" y2="6"></line>
                                    <line x1="51" y1="1" x2="51" y2="6"></line>
                                    <line x1="101" y1="1" x2="101" y2="6"></line>
                                    <line x1="151" y1="1" x2="151" y2="6"></line>
                                    <line x1="201" y1="1" x2="201" y2="6"></line>
                                    <line x1="251" y1="1" x2="251" y2="6"></line>
                                    <line x1="301" y1="1" x2="301" y2="6"></line>
                                    <line x1="351" y1="1" x2="351" y2="6"></line>
                                    <line x1="366" y1="1" x2="362" y2="1"></line>
                                </g>
                                <g transform="translate(1.000000, 7.000000)" fill="#000000" font-family="Interstate-Light, Interstate" font-size="10" font-weight="300">
                                    <text id="0">
                                        <tspan x="7.10542736e-15" y="9">0</tspan>
                                    </text>
                                    <text id="50">
                                        <tspan x="44" y="9">50</tspan>
                                    </text>
                                    <text id="100">
                                        <tspan x="91.5" y="9">100</tspan>
                                    </text>
                                    <text id="150">
                                        <tspan x="141.5" y="9">150</tspan>
                                    </text>
                                    <text id="200">
                                        <tspan x="191.5" y="9">200</tspan>
                                    </text>
                                    <text id="250">
                                        <tspan x="241.5" y="9">250</tspan>
                                    </text>
                                    <text id="300">
                                        <tspan x="291.5" y="9">300</tspan>
                                    </text>
                                    <text id="350">
                                        <tspan x="341.5" y="9">350</tspan>
                                    </text>
                                </g>
                                <line x1="1" y1="1" x2="369" y2="1" id="Path" stroke="#888888"></line>
                                <text id="Tage" fill="#000000" font-family="Helvetica" font-size="11" font-weight="normal">
                                    <tspan x="189" y="31">Tage</tspan>
                                </text>
                            </g>
                        </g>
                        <g transform="translate(0.500000, 0.500000)">
                            <g transform="translate(46.000000, 6.000000)"></g>
                            <g>
                                <g transform="translate(41.000000, 5.000000)" id="Path" stroke="#888888">
                                    <line x1="5" y1="301" x2="0" y2="301"></line>
                                    <line x1="5" y1="271" x2="0" y2="271"></line>
                                    <line x1="5" y1="241" x2="0" y2="241"></line>
                                    <line x1="5" y1="211" x2="0" y2="211"></line>
                                    <line x1="5" y1="181" x2="0" y2="181"></line>
                                    <line x1="5" y1="151" x2="0" y2="151"></line>
                                    <line x1="5" y1="121" x2="0" y2="121"></line>
                                    <line x1="5" y1="91" x2="0" y2="91"></line>
                                    <line x1="5" y1="61" x2="0" y2="61"></line>
                                    <line x1="5" y1="31" x2="0" y2="31"></line>
                                    <line x1="5" y1="1" x2="0" y2="1"></line>
                                </g>
                                <g transform="translate(14.000000, 0.000000)" fill="#000000" font-family="Interstate-Light, Interstate" font-size="10" font-weight="300">
                                    <text id="0%">
                                        <tspan x="8.95" y="309">0%</tspan>
                                    </text>
                                    <text id="2%">
                                        <tspan x="9.68" y="279">2%</tspan>
                                    </text>
                                    <text id="4%">
                                        <tspan x="9.37" y="249">4%</tspan>
                                    </text>
                                    <text id="6%">
                                        <tspan x="9.38" y="219">6%</tspan>
                                    </text>
                                    <text id="8%">
                                        <tspan x="9.11" y="189">8%</tspan>
                                    </text>
                                    <text id="10%">
                                        <tspan x="5.83" y="159">10%</tspan>
                                    </text>
                                    <text id="12%">
                                        <tspan x="6.56" y="129">12%</tspan>
                                    </text>
                                    <text id="14%">
                                        <tspan x="6.25" y="99">14%</tspan>
                                    </text>
                                    <text id="16%">
                                        <tspan x="6.26" y="69">16%</tspan>
                                    </text>
                                    <text id="18%">
                                        <tspan x="5.99" y="39">18%</tspan>
                                    </text>
                                    <text id="20%">
                                        <tspan x="3.44" y="9">20%</tspan>
                                    </text>
                                </g>
                                <line x1="46" y1="306" x2="46" y2="6" id="Path" stroke="#888888"></line>
                                <text id="Anteil-der-Bevölkerung" fill="#000000" transform="translate(6.985352, 139.000000) rotate(-90.000000) translate(-6.985352, -139.000000) " font-family="Interstate-Light, Interstate" font-size="11" font-weight="300">
                                    <tspan x="-59.5146484" y="143">Anteil der Bevölkerung</tspan>
                                </text>
                            </g>
                        </g>
                        <polygon id="Path-Copy-3" fill="#82B7D7" fill-rule="nonzero" opacity="0.5" points="46 306 46 306 47 306 47 306 48 306 48 306 49 306 49 306 50 306 50 306 51 306 51 306 52 306 52 306 53 306 53 306 54 306 54 306 55 306 55 306 56 306 56 306 57 306 57 306 58 306 58 306 59 306 59 306 60 306 60 306 61 306 61 306 62 306 62 306 63 306 63 306 64 306 64 306 65 306 65 306 66 306 66 306 67 306 67 306 68 306 68 306 69 306 69 306 70 306 70 306 71 306 71 306 72 306 72 306 73 306 73 306 74 306 74 306 75 306 75 6 76 6 76 6 77 6 77 6 78 6 78 6 79 6 79 6 80 6 80 6 81 6 81 6 82 6 82 6 83 6 83 6 84 6 84 6 85 6 85 6 86 6 86 6 87 6 87 6 88 6 88 6 89 6 89 6 90 6 90 6 91 6 91 6 92 6 92 6 93 6 93 6 94 6 94 6 95 6 95 6 96 6 96 6 97 6 97 6 98 6 98 6 99 6 99 6 100 6 100 6 101 6 101 6 102 6 102 6 103 6 103 6 104 6 104 306 105 306 105 306 106 306 106 306 107 306 107 306 108 306 108 306 109 306 109 306 110 306 110 306 111 306 111 306 112 306 112 306 113 306 113 306 114 306 114 306 115 306 115 306 116 306 116 306 117 306 117 306 118 306 118 306 119 306 119 306 120 306 120 306 121 306 121 306 122 306 122 306 123 306 123 306 124 306 124 306 125 306 125 306 126 306 126 306 127 306 127 306 128 306 128 306 129 306 129 306 130 306 130 306 131 306 131 306 132 306 132 306 133 306 133 306 134 306 134 306 135 306 135 306 136 306 136 306 137 306 137 306 138 306 138 306 139 306 139 306 140 306 140 306 141 306 141 306 142 306 142 306 143 306 143 306 144 306 144 306 145 306 145 306 146 306 146 306 147 306 147 306 148 306 148 306 149 306 149 306 150 306 150 306 151 306 151 306 152 306 152 306 153 306 153 306 154 306 154 306 155 306 155 306 156 306 156 306 157 306 157 306 158 306 158 306 159 306 159 306 160 306 160 306 161 306 161 306 162 306 162 306 163 306 163 306 164 306 164 306 165 306 165 306 166 306 166 306 167 306 167 306 168 306 168 306 169 306 169 306 170 306 170 306 171 306 171 306 172 306 172 306 173 306 173 306 174 306 174 306 175 306 175 306 176 306 176 306 177 306 177 306 178 306 178 306 179 306 179 306 180 306 180 306 181 306 181 306 182 306 182 306 183 306 183 306 184 306 184 306 185 306 185 306 186 306 186 306 187 306 187 306 188 306 188 306 189 306 189 306 190 306 190 306 191 306 191 306 192 306 192 306 193 306 193 306 194 306 194 306 195 306 195 306 196 306 196 306 197 306 197 306 198 306 198 306 199 306 199 306 200 306 200 306 201 306 201 306 202 306 202 306 203 306 203 306 204 306 204 306 205 306 205 306 206 306 206 306 207 306 207 306 208 306 208 306 209 306 209 306 210 306 210 306 211 306 211 306 212 306 212 306 213 306 213 306 214 306 214 306 215 306 215 306 216 306 216 306 217 306 217 306 218 306 218 306 219 306 219 306 220 306 220 306 221 306 221 306 222 306 222 306 223 306 223 306 224 306 224 306 225 306 225 306 226 306 226 306 227 306 227 306 228 306 228 306 229 306 229 306 230 306 230 306 231 306 231 306 232 306 232 306 233 306 233 306 234 306 234 306 235 306 235 306 236 306 236 306 237 306 237 306 238 306 238 306 239 306 239 306 240 306 240 306 241 306 241 306 242 306 242 306 243 306 243 306 244 306 244 306 245 306 245 306 246 306 246 306 247 306 247 306 248 306 248 306 249 306 249 306 250 306 250 306 251 306 251 306 252 306 252 306 253 306 253 306 254 306 254 306 255 306 255 306 256 306 256 306 257 306 257 306 258 306 258 306 259 306 259 306 260 306 260 306 261 306 261 306 262 306 262 306 263 306 263 306 264 306 264 306 265 306 265 306 266 306 266 306 267 306 267 306 268 306 268 306 269 306 269 306 270 306 270 306 271 306 271 306 272 306 272 306 273 306 273 306 274 306 274 306 275 306 275 306 276 306 276 306 277 306 277 306 278 306 278 306 279 306 279 306 280 306 280 306 281 306 281 306 282 306 282 306 283 306 283 306 284 306 284 306 285 306 285 306 286 306 286 306 287 306 287 306 288 306 288 306 289 306 289 306 290 306 290 306 291 306 291 306 292 306 292 306 293 306 293 306 294 306 294 306 295 306 295 306 296 306 296 306 297 306 297 306 298 306 298 306 299 306 299 306 300 306 300 306 301 306 301 306 302 306 302 306 303 306 303 306 304 306 304 306 305 306 305 306 306 306 306 306 307 306 307 306 308 306 308 306 309 306 309 306 310 306 310 306 311 306 311 306 312 306 312 306 313 306 313 306 314 306 314 306 315 306 315 306 316 306 316 306 317 306 317 306 318 306 318 306 319 306 319 306 320 306 320 306 321 306 321 306 322 306 322 306 323 306 323 306 324 306 324 306 325 306 325 306 326 306 326 306 327 306 327 306 328 306 328 306 329 306 329 306 330 306 330 306 331 306 331 306 332 306 332 306 333 306 333 306 334 306 334 306 335 306 335 306 336 306 336 306 337 306 337 306 338 306 338 306 339 306 339 306 340 306 340 306 341 306 341 306 342 306 342 306 343 306 343 306 344 306 344 306 345 306 345 306 346 306 346 306 347 306 347 306 348 306 348 306 349 306 349 306 350 306 350 306 351 306 351 306 352 306 352 306 353 306 353 306 354 306 354 306 355 306 355 306 356 306 356 306 357 306 357 306 358 306 358 306 359 306 359 306 360 306 360 306 361 306 361 306 362 306 362 306 363 306 363 306 364 306 364 306 365 306 365 306 366 306 366 306 367 306 367 306 368 306 368 306 369 306 369 306 370 306 370 306 371 306 371 306 372 306 372 306 373 306 373 306 374 306 374 306 375 306 375 306 376 306 376 306 377 306 377 306 378 306 378 306 379 306 379 306 380 306 380 306 381 306 381 306 382 306 382 306 383 306 383 306 384 306 384 306 385 306 385 306 386 306 386 306 387 306 387 306 388 306 388 306 389 306 389 306 390 306 390 306 391 306 391 306 392 306 392 306 393 306 393 306 394 306 394 306 395 306 395 306 396 306 396 306 397 306 397 306 398 306 398 306 399 306 399 306 400 306 400 306 401 306 401 306 402 306 402 306 403 306 403 306 404 306 404 306 405 306 405 306 406 306 406 306 407 306 407 306 408 306 408 306 409 306 409 306 410 306 410 306 409 306 409 306 408 306 408 306 407 306 407 306 406 306 406 306 405 306 405 306 404 306 404 306 403 306 403 306 402 306 402 306 401 306 401 306 400 306 400 306 399 306 399 306 398 306 398 306 397 306 397 306 396 306 396 306 395 306 395 306 394 306 394 306 393 306 393 306 392 306 392 306 391 306 391 306 390 306 390 306 389 306 389 306 388 306 388 306 387 306 387 306 386 306 386 306 385 306 385 306 384 306 384 306 383 306 383 306 382 306 382 306 381 306 381 306 380 306 380 306 379 306 379 306 378 306 378 306 377 306 377 306 376 306 376 306 375 306 375 306 374 306 374 306 373 306 373 306 372 306 372 306 371 306 371 306 370 306 370 306 369 306 369 306 368 306 368 306 367 306 367 306 366 306 366 306 365 306 365 306 364 306 364 306 363 306 363 306 362 306 362 306 361 306 361 306 360 306 360 306 359 306 359 306 358 306 358 306 357 306 357 306 356 306 356 306 355 306 355 306 354 306 354 306 353 306 353 306 352 306 352 306 351 306 351 306 350 306 350 306 349 306 349 306 348 306 348 306 347 306 347 306 346 306 346 306 345 306 345 306 344 306 344 306 343 306 343 306 342 306 342 306 341 306 341 306 340 306 340 306 339 306 339 306 338 306 338 306 337 306 337 306 336 306 336 306 335 306 335 306 334 306 334 306 333 306 333 306 332 306 332 306 331 306 331 306 330 306 330 306 329 306 329 306 328 306 328 306 327 306 327 306 326 306 326 306 325 306 325 306 324 306 324 306 323 306 323 306 322 306 322 306 321 306 321 306 320 306 320 306 319 306 319 306 318 306 318 306 317 306 317 306 316 306 316 306 315 306 315 306 314 306 314 306 313 306 313 306 312 306 312 306 311 306 311 306 310 306 310 306 309 306 309 306 308 306 308 306 307 306 307 306 306 306 306 306 305 306 305 306 304 306 304 306 303 306 303 306 302 306 302 306 301 306 301 306 300 306 300 306 299 306 299 306 298 306 298 306 297 306 297 306 296 306 296 306 295 306 295 306 294 306 294 306 293 306 293 306 292 306 292 306 291 306 291 306 290 306 290 306 289 306 289 306 288 306 288 306 287 306 287 306 286 306 286 306 285 306 285 306 284 306 284 306 283 306 283 306 282 306 282 306 281 306 281 306 280 306 280 306 279 306 279 306 278 306 278 306 277 306 277 306 276 306 276 306 275 306 275 306 274 306 274 306 273 306 273 306 272 306 272 306 271 306 271 306 270 306 270 306 269 306 269 306 268 306 268 306 267 306 267 306 266 306 266 306 265 306 265 306 264 306 264 306 263 306 263 306 262 306 262 306 261 306 261 306 260 306 260 306 259 306 259 306 258 306 258 306 257 306 257 306 256 306 256 306 255 306 255 306 254 306 254 306 253 306 253 306 252 306 252 306 251 306 251 306 250 306 250 306 249 306 249 306 248 306 248 306 247 306 247 306 246 306 246 306 245 306 245 306 244 306 244 306 243 306 243 306 242 306 242 306 241 306 241 306 240 306 240 306 239 306 239 306 238 306 238 306 237 306 237 306 236 306 236 306 235 306 235 306 234 306 234 306 233 306 233 306 232 306 232 306 231 306 231 306 230 306 230 306 229 306 229 306 228 306 228 306 227 306 227 306 226 306 226 306 225 306 225 306 224 306 224 306 223 306 223 306 222 306 222 306 221 306 221 306 220 306 220 306 219 306 219 306 218 306 218 306 217 306 217 306 216 306 216 306 215 306 215 306 214 306 214 306 213 306 213 306 212 306 212 306 211 306 211 306 210 306 210 306 209 306 209 306 208 306 208 306 207 306 207 306 206 306 206 306 205 306 205 306 204 306 204 306 203 306 203 306 202 306 202 306 201 306 201 306 200 306 200 306 199 306 199 306 198 306 198 306 197 306 197 306 196 306 196 306 195 306 195 306 194 306 194 306 193 306 193 306 192 306 192 306 191 306 191 306 190 306 190 306 189 306 189 306 188 306 188 306 187 306 187 306 186 306 186 306 185 306 185 306 184 306 184 306 183 306 183 306 182 306 182 306 181 306 181 306 180 306 180 306 179 306 179 306 178 306 178 306 177 306 177 306 176 306 176 306 175 306 175 306 174 306 174 306 173 306 173 306 172 306 172 306 171 306 171 306 170 306 170 306 169 306 169 306 168 306 168 306 167 306 167 306 166 306 166 306 165 306 165 306 164 306 164 306 163 306 163 306 162 306 162 306 161 306 161 306 160 306 160 306 159 306 159 306 158 306 158 306 157 306 157 306 156 306 156 306 155 306 155 306 154 306 154 306 153 306 153 306 152 306 152 306 151 306 151 306 150 306 150 306 149 306 149 306 148 306 148 306 147 306 147 306 146 306 146 306 145 306 145 306 144 306 144 306 143 306 143 306 142 306 142 306 141 306 141 306 140 306 140 306 139 306 139 306 138 306 138 306 137 306 137 306 136 306 136 306 135 306 135 306 134 306 134 306 133 306 133 306 132 306 132 306 131 306 131 306 130 306 130 306 129 306 129 306 128 306 128 306 127 306 127 306 126 306 126 306 125 306 125 306 124 306 124 306 123 306 123 306 122 306 122 306 121 306 121 306 120 306 120 306 119 306 119 306 118 306 118 306 117 306 117 306 116 306 116 306 115 306 115 306 114 306 114 306 113 306 113 306 112 306 112 306 111 306 111 306 110 306 110 306 109 306 109 306 108 306 108 306 107 306 107 306 106 306 106 306 105 306 105 306 104 306 104 306 103 306 103 306 102 306 102 306 101 306 101 306 100 306 100 306 99 306 99 306 98 306 98 306 97 306 97 306 96 306 96 306 95 306 95 306 94 306 94 306 93 306 93 306 92 306 92 306 91 306 91 306 90 306 90 306 89 306 89 306 88 306 88 306 87 306 87 306 86 306 86 306 85 306 85 306 84 306 84 306 83 306 83 306 82 306 82 306 81 306 81 306 80 306 80 306 79 306 79 306 78 306 78 306 77 306 77 306 76 306 76 306 75 306 75 306 74 306 74 306 73 306 73 306 72 306 72 306 71 306 71 306 70 306 70 306 69 306 69 306 68 306 68 306 67 306 67 306 66 306 66 306 65 306 65 306 64 306 64 306 63 306 63 306 62 306 62 306 61 306 61 306 60 306 60 306 59 306 59 306 58 306 58 306 57 306 57 306 56 306 56 306 55 306 55 306 54 306 54 306 53 306 53 306 52 306 52 306 51 306 51 306 50 306 50 306 49 306 49 306 48 306 48 306 47 306 47 306"></polygon>
                        <polygon id="Path-Copy-2" fill="#E6F1F7" fill-rule="nonzero" opacity="0.5" points="46 306 47 306 47 306 48 306 48 306 49 306 49 306 50 306 50 306 51 306 51 306 52 306 52 306 53 306 53 306 54 306 54 306 55 306 55 306 56 306 56 306 57 306 57 306 58 306 58 306 59 306 59 306 60 306 60 306 61 306 61 306 62 306 62 306 63 306 63 306 64 306 64 306 65 306 65 306 66 306 66 306 67 306 67 306 68 306 68 306 69 306 69 306 70 306 70 306 71 306 71 306 72 306 72 306 73 306 73 306 74 306 74 306 75 306 75 306 76 306 76 306 77 306 77 306 78 306 78 306 79 306 79 306 80 306 80 306 81 306 81 306 82 306 82 306 83 306 83 306 84 306 84 306 85 306 85 306 86 306 86 306 87 306 87 306 88 306 88 306 89 306 89 306 90 306 90 306 91 306 91 306 92 306 92 306 93 306 93 306 94 306 94 306 95 306 95 306 96 306 96 306 97 306 97 306 98 306 98 306 99 306 99 306 100 306 100 306 101 306 101 306 102 306 102 306 103 306 103 306 104 306 104 6 105 6 105 6 106 6 106 6 107 6 107 6 108 6 108 6 109 6 109 6 110 6 110 6 111 6 111 6 112 6 112 6 113 6 113 6 114 6 114 6 115 6 115 6 116 6 116 6 117 6 117 6 118 6 118 6 119 6 119 6 120 6 120 6 121 6 121 6 122 6 122 6 123 6 123 6 124 6 124 6 125 6 125 6 126 6 126 6 127 6 127 6 128 6 128 6 129 6 129 6 130 6 130 6 131 6 131 6 132 6 132 6 133 6 133 6 134 6 134 6 135 6 135 6 136 6 136 6 137 6 137 6 138 6 138 6 139 6 139 6 140 6 140 6 141 6 141 6 142 6 142 6 143 6 143 6 144 6 144 6 145 6 145 6 146 6 146 6 147 6 147 6 148 6 148 6 149 6 149 6 150 6 150 6 151 6 151 6 152 6 152 6 153 6 153 6 154 6 154 6 155 6 155 6 156 6 156 6 157 6 157 6 158 6 158 6 159 6 159 6 160 6 160 6 161 6 161 6 162 6 162 6 163 6 163 6 164 6 164 6 165 6 165 6 166 6 166 6 167 6 167 6 168 6 168 6 169 6 169 6 170 6 170 6 171 6 171 6 172 6 172 6 173 6 173 6 174 6 174 6 175 6 175 6 176 6 176 6 177 6 177 6 178 6 178 6 179 6 179 6 180 6 180 6 181 6 181 6 182 6 182 6 183 6 183 6 184 6 184 6 185 6 185 6 186 6 186 6 187 6 187 6 188 6 188 6 189 6 189 6 190 6 190 6 191 6 191 6 192 6 192 6 193 6 193 6 194 6 194 6 195 6 195 6 196 6 196 6 197 6 197 6 198 6 198 6 199 6 199 6 200 6 200 6 201 6 201 6 202 6 202 6 203 6 203 6 204 6 204 6 205 6 205 6 206 6 206 6 207 6 207 6 208 6 208 6 209 6 209 6 210 6 210 6 211 6 211 6 212 6 212 6 213 6 213 6 214 6 214 6 215 6 215 6 216 6 216 6 217 6 217 6 218 6 218 6 219 6 219 6 220 6 220 6 221 6 221 6 222 6 222 6 223 6 223 6 224 6 224 6 225 6 225 6 226 6 226 6 227 6 227 6 228 6 228 6 229 6 229 6 230 6 230 6 231 6 231 6 232 6 232 6 233 6 233 6 234 6 234 6 235 6 235 6 236 6 236 6 237 6 237 6 238 6 238 6 239 6 239 6 240 6 240 6 241 6 241 6 242 6 242 6 243 6 243 6 244 6 244 6 245 6 245 6 246 6 246 6 247 6 247 6 248 6 248 6 249 6 249 6 250 6 250 6 251 6 251 6 252 6 252 6 253 6 253 6 254 6 254 6 255 6 255 6 256 6 256 6 257 6 257 6 258 6 258 6 259 6 259 6 260 6 260 6 261 6 261 6 262 6 262 6 263 6 263 6 264 6 264 6 265 6 265 6 266 6 266 6 267 6 267 6 268 6 268 6 269 6 269 6 270 6 270 6 271 6 271 6 272 6 272 6 273 6 273 6 274 6 274 6 275 6 275 6 276 6 276 6 277 6 277 6 278 6 278 6 279 6 279 6 280 6 280 6 281 6 281 6 282 6 282 6 283 6 283 6 284 6 284 6 285 6 285 6 286 6 286 6 287 6 287 6 288 6 288 6 289 6 289 6 290 6 290 6 291 6 291 6 292 6 292 6 293 6 293 6 294 6 294 6 295 6 295 6 296 6 296 6 297 6 297 6 298 6 298 6 299 6 299 6 300 6 300 6 301 6 301 6 302 6 302 6 303 6 303 6 304 6 304 6 305 6 305 6 306 6 306 6 307 6 307 6 308 6 308 6 309 6 309 6 310 6 310 6 311 6 311 6 312 6 312 6 313 6 313 6 314 6 314 6 315 6 315 6 316 6 316 6 317 6 317 6 318 6 318 6 319 6 319 6 320 6 320 6 321 6 321 6 322 6 322 6 323 6 323 6 324 6 324 6 325 6 325 6 326 6 326 6 327 6 327 6 328 6 328 6 329 6 329 6 330 6 330 6 331 6 331 6 332 6 332 6 333 6 333 6 334 6 334 6 335 6 335 6 336 6 336 6 337 6 337 6 338 6 338 6 339 6 339 6 340 6 340 6 341 6 341 6 342 6 342 6 343 6 343 6 344 6 344 6 345 6 345 6 346 6 346 6 347 6 347 6 348 6 348 6 349 6 349 6 350 6 350 6 351 6 351 6 352 6 352 6 353 6 353 6 354 6 354 6 355 6 355 6 356 6 356 6 357 6 357 6 358 6 358 6 359 6 359 6 360 6 360 6 361 6 361 6 362 6 362 6 363 6 363 6 364 6 364 6 365 6 365 6 366 6 366 6 367 6 367 6 368 6 368 6 369 6 369 6 370 6 370 6 371 6 371 6 372 6 372 6 373 6 373 6 374 6 374 6 375 6 375 6 376 6 376 6 377 6 377 6 378 6 378 6 379 6 379 6 380 6 380 6 381 6 381 6 382 6 382 6 383 6 383 6 384 6 384 6 385 6 385 6 386 6 386 6 387 6 387 6 388 6 388 6 389 6 389 6 390 6 390 6 391 6 391 6 392 6 392 6 393 6 393 6 394 6 394 6 395 6 395 6 396 6 396 6 397 6 397 6 398 6 398 6 399 6 399 6 400 6 400 6 401 6 401 6 402 6 402 6 403 6 403 6 404 6 404 6 405 6 405 6 406 6 406 6 407 6 407 6 408 6 408 6 409 6 409 6 410 6 410 6 410 306 410 306 409 306 409 306 408 306 408 306 407 306 407 306 406 306 406 306 405 306 405 306 404 306 404 306 403 306 403 306 402 306 402 306 401 306 401 306 400 306 400 306 399 306 399 306 398 306 398 306 397 306 397 306 396 306 396 306 395 306 395 306 394 306 394 306 393 306 393 306 392 306 392 306 391 306 391 306 390 306 390 306 389 306 389 306 388 306 388 306 387 306 387 306 386 306 386 306 385 306 385 306 384 306 384 306 383 306 383 306 382 306 382 306 381 306 381 306 380 306 380 306 379 306 379 306 378 306 378 306 377 306 377 306 376 306 376 306 375 306 375 306 374 306 374 306 373 306 373 306 372 306 372 306 371 306 371 306 370 306 370 306 369 306 369 306 368 306 368 306 367 306 367 306 366 306 366 306 365 306 365 306 364 306 364 306 363 306 363 306 362 306 362 306 361 306 361 306 360 306 360 306 359 306 359 306 358 306 358 306 357 306 357 306 356 306 356 306 355 306 355 306 354 306 354 306 353 306 353 306 352 306 352 306 351 306 351 306 350 306 350 306 349 306 349 306 348 306 348 306 347 306 347 306 346 306 346 306 345 306 345 306 344 306 344 306 343 306 343 306 342 306 342 306 341 306 341 306 340 306 340 306 339 306 339 306 338 306 338 306 337 306 337 306 336 306 336 306 335 306 335 306 334 306 334 306 333 306 333 306 332 306 332 306 331 306 331 306 330 306 330 306 329 306 329 306 328 306 328 306 327 306 327 306 326 306 326 306 325 306 325 306 324 306 324 306 323 306 323 306 322 306 322 306 321 306 321 306 320 306 320 306 319 306 319 306 318 306 318 306 317 306 317 306 316 306 316 306 315 306 315 306 314 306 314 306 313 306 313 306 312 306 312 306 311 306 311 306 310 306 310 306 309 306 309 306 308 306 308 306 307 306 307 306 306 306 306 306 305 306 305 306 304 306 304 306 303 306 303 306 302 306 302 306 301 306 301 306 300 306 300 306 299 306 299 306 298 306 298 306 297 306 297 306 296 306 296 306 295 306 295 306 294 306 294 306 293 306 293 306 292 306 292 306 291 306 291 306 290 306 290 306 289 306 289 306 288 306 288 306 287 306 287 306 286 306 286 306 285 306 285 306 284 306 284 306 283 306 283 306 282 306 282 306 281 306 281 306 280 306 280 306 279 306 279 306 278 306 278 306 277 306 277 306 276 306 276 306 275 306 275 306 274 306 274 306 273 306 273 306 272 306 272 306 271 306 271 306 270 306 270 306 269 306 269 306 268 306 268 306 267 306 267 306 266 306 266 306 265 306 265 306 264 306 264 306 263 306 263 306 262 306 262 306 261 306 261 306 260 306 260 306 259 306 259 306 258 306 258 306 257 306 257 306 256 306 256 306 255 306 255 306 254 306 254 306 253 306 253 306 252 306 252 306 251 306 251 306 250 306 250 306 249 306 249 306 248 306 248 306 247 306 247 306 246 306 246 306 245 306 245 306 244 306 244 306 243 306 243 306 242 306 242 306 241 306 241 306 240 306 240 306 239 306 239 306 238 306 238 306 237 306 237 306 236 306 236 306 235 306 235 306 234 306 234 306 233 306 233 306 232 306 232 306 231 306 231 306 230 306 230 306 229 306 229 306 228 306 228 306 227 306 227 306 226 306 226 306 225 306 225 306 224 306 224 306 223 306 223 306 222 306 222 306 221 306 221 306 220 306 220 306 219 306 219 306 218 306 218 306 217 306 217 306 216 306 216 306 215 306 215 306 214 306 214 306 213 306 213 306 212 306 212 306 211 306 211 306 210 306 210 306 209 306 209 306 208 306 208 306 207 306 207 306 206 306 206 306 205 306 205 306 204 306 204 306 203 306 203 306 202 306 202 306 201 306 201 306 200 306 200 306 199 306 199 306 198 306 198 306 197 306 197 306 196 306 196 306 195 306 195 306 194 306 194 306 193 306 193 306 192 306 192 306 191 306 191 306 190 306 190 306 189 306 189 306 188 306 188 306 187 306 187 306 186 306 186 306 185 306 185 306 184 306 184 306 183 306 183 306 182 306 182 306 181 306 181 306 180 306 180 306 179 306 179 306 178 306 178 306 177 306 177 306 176 306 176 306 175 306 175 306 174 306 174 306 173 306 173 306 172 306 172 306 171 306 171 306 170 306 170 306 169 306 169 306 168 306 168 306 167 306 167 306 166 306 166 306 165 306 165 306 164 306 164 306 163 306 163 306 162 306 162 306 161 306 161 306 160 306 160 306 159 306 159 306 158 306 158 306 157 306 157 306 156 306 156 306 155 306 155 306 154 306 154 306 153 306 153 306 152 306 152 306 151 306 151 306 150 306 150 306 149 306 149 306 148 306 148 306 147 306 147 306 146 306 146 306 145 306 145 306 144 306 144 306 143 306 143 306 142 306 142 306 141 306 141 306 140 306 140 306 139 306 139 306 138 306 138 306 137 306 137 306 136 306 136 306 135 306 135 306 134 306 134 306 133 306 133 306 132 306 132 306 131 306 131 306 130 306 130 306 129 306 129 306 128 306 128 306 127 306 127 306 126 306 126 306 125 306 125 306 124 306 124 306 123 306 123 306 122 306 122 306 121 306 121 306 120 306 120 306 119 306 119 306 118 306 118 306 117 306 117 306 116 306 116 306 115 306 115 306 114 306 114 306 113 306 113 306 112 306 112 306 111 306 111 306 110 306 110 306 109 306 109 306 108 306 108 306 107 306 107 306 106 306 106 306 105 306 105 306 104 306 104 306 103 306 103 306 102 306 102 306 101 306 101 306 100 306 100 306 99 306 99 306 98 306 98 306 97 306 97 306 96 306 96 306 95 306 95 306 94 306 94 306 93 306 93 306 92 306 92 306 91 306 91 306 90 306 90 306 89 306 89 306 88 306 88 306 87 306 87 306 86 306 86 306 85 306 85 306 84 306 84 306 83 306 83 306 82 306 82 306 81 306 81 306 80 306 80 306 79 306 79 306 78 306 78 306 77 306 77 306 76 306 76 306 75 306 75 306 74 306 74 306 73 306 73 306 72 306 72 306 71 306 71 306 70 306 70 306 69 306 69 306 68 306 68 306 67 306 67 306 66 306 66 306 65 306 65 306 64 306 64 306 63 306 63 306 62 306 62 306 61 306 61 306 60 306 60 306 59 306 59 306 58 306 58 306 57 306 57 306 56 306 56 306 55 306 55 306 54 306 54 306 53 306 53 306 52 306 52 306 51 306 51 306 50 306 50 306 49 306 49 306 48 306 48 306 47 306 47 306"></polygon>
                        <polyline id="Path-Copy" stroke="#FFA500" stroke-width="2" points="46 305.981707 47 305.982806 48 305.982813 49 305.982115 50 305.98093 51 305.979382 52 305.977535 53 305.975419 54 305.973042 55 305.9704 56 305.967476 57 305.964252 58 305.9607 59 305.956791 60 305.95249 61 305.94776 62 305.942558 63 305.936838 64 305.930548 65 305.923631 66 305.916026 67 305.907663 68 305.898467 69 305.888357 70 305.877239 71 305.865015 72 305.851573 73 305.836794 74 305.820544 75 305.802676 76 305.786747 77 305.774983 78 305.765839 79 305.758327 80 305.751823 81 305.745927 82 305.740385 83 305.735034 84 305.729772 85 305.724531 86 305.719269 87 305.713958 88 305.708579 89 305.70312 90 305.697572 91 305.69193 92 305.686188 93 305.680343 94 305.674393 95 305.668333 96 305.662163 97 305.655879 98 305.649479 99 305.642962 100 305.636324 101 305.629564 102 305.62268 103 305.615668 104 305.602878 105 305.581081 106 305.552711 107 305.519121 108 305.48101 109 305.438677 110 305.392173 111 305.34139 112 305.286113 113 305.22605 114 305.160853 115 305.090121 116 305.013409 117 304.930227 118 304.840042 119 304.74227 120 304.636282 121 304.521393 122 304.396864 123 304.261893 124 304.115612 125 303.957083 126 303.785294 127 303.599148 128 303.39746 129 303.178952 130 302.942241 131 302.685838 132 302.408133 133 302.107391 134 301.781743 135 301.429173 136 301.047512 137 300.634424 138 300.187401 139 299.703744 140 299.180558 141 298.614735 142 298.002946 143 297.341629 144 296.626971 145 295.854904 146 295.021089 147 294.120904 148 293.149441 149 292.101487 150 290.971527 151 289.753733 152 288.441965 153 287.02977 154 285.51039 155 283.876771 156 282.121575 157 280.237209 158 278.21585 159 276.049484 160 273.729957 161 271.249033 162 268.598467 163 265.770092 164 262.755918 165 259.548251 166 256.139827 167 252.523964 168 248.694732 169 244.647139 170 240.377342 171 235.88286 172 231.162815 173 226.218175 174 221.052002 175 215.669709 176 210.079303 177 204.291618 178 198.320525 179 192.183114 180 185.899825 181 179.494537 182 172.994585 183 166.430707 184 159.836912 185 153.250253 186 146.710515 187 140.259803 188 133.942043 189 127.802398 190 121.88661 191 116.240287 192 110.908141 193 105.933219 194 101.35613 195 97.214305 196 93.5413083 197 90.3662262 198 87.7131511 199 85.6007783 200 84.0421268 201 83.0443909 202 82.608925 203 82.7313567 204 83.4018213 205 84.6053032 206 86.3220709 207 88.5281858 208 91.1960664 209 94.2950883 210 97.7922003 211 101.652541 212 105.840036 213 110.317969 214 115.049509 215 119.998189 216 125.128328 217 130.405403 218 135.796349 219 141.269814 220 146.796346 221 152.348536 222 157.901111 223 163.430978 224 168.91724 225 174.341166 226 179.686147 227 184.937621 228 190.082983 229 195.111478 230 200.014091 231 204.783423 232 209.413573 233 213.900004 234 218.239431 235 222.429691 236 226.469632 237 230.359001 238 234.098334 239 237.688868 240 241.132435 241 244.43139 242 247.588522 243 250.606991 244 253.490257 245 256.242023 246 258.866185 247 261.366781 248 263.747951 249 266.013902 250 268.168871 251 270.217102 252 272.162819 253 274.010204 254 275.763382 255 277.426405 256 279.003238 257 280.497752 258 281.913713 259 283.254776 260 284.524483 261 285.726256 262 286.863397 263 287.939085 264 288.956378 265 289.918212 266 290.827403 267 291.686647 268 292.498522 269 293.265495 270 293.989919 271 294.674039 272 295.319995 273 295.929825 274 296.505469 275 297.048771 276 297.561484 277 298.045275 278 298.501724 279 298.932332 280 299.338523 281 299.721645 282 300.082979 283 300.423734 284 300.745058 285 301.048039 286 301.333703 287 301.603022 288 301.856918 289 302.096259 290 302.321869 291 302.534523 292 302.734957 293 302.923864 294 303.101901 295 303.269685 296 303.427801 297 303.576801 298 303.717207 299 303.849509 300 303.974173 301 304.091634 302 304.202308 303 304.306583 304 304.404828 305 304.497388 306 304.584592 307 304.666747 308 304.744144 309 304.817058 310 304.885748 311 304.950456 312 305.011414 313 305.068837 314 305.12293 315 305.173885 316 305.221884 317 305.267098 318 305.309688 319 305.349806 320 305.387596 321 305.423191 322 305.456719 323 305.4883 324 305.518047 325 305.546066 326 305.572458 327 305.597316 328 305.62073 329 305.642783 330 305.663555 331 305.68312 332 305.701547 333 305.718904 334 305.735251 335 305.750649 336 305.765151 337 305.77881 338 305.791675 339 305.803792 340 305.815205 341 305.825953 342 305.836077 343 305.845612 344 305.854593 345 305.863051 346 305.871018 347 305.878521 348 305.885588 349 305.892243 350 305.898512 351 305.904416 352 305.909977 353 305.915214 354 305.920146 355 305.924792 356 305.929167 357 305.933288 358 305.937169 359 305.940825 360 305.944268 361 305.94751 362 305.950564 363 305.95344 364 305.956149 365 305.9587 366 305.961103 367 305.963366 368 305.965498 369 305.967505 370 305.969396 371 305.971176 372 305.972853 373 305.974433 374 305.97592 375 305.977321 376 305.978641 377 305.979883 378 305.981054 379 305.982156 380 305.983194 381 305.984172 382 305.985093 383 305.98596 384 305.986777 385 305.987547 386 305.988271 387 305.988954 388 305.989596 389 305.990202 390 305.990772 391 305.991309 392 305.991814 393 305.992291 394 305.992739 395 305.993162 396 305.99356 397 305.993934 398 305.994287 399 305.99462 400 305.994933 401 305.995228 402 305.995505 403 305.995767 404 305.996013 405 305.996245 406 305.996464 407 305.996669 408 305.996863 409 305.997046 410 305.997217"></polyline>
                    </g>
                </g>
            </g>
        </g>
        <g id="Brackets-Copy" transform="translate(76.000000, 10.000000)">
            <g id="bracket-copy-3" transform="translate(15.000000, 30.000000) rotate(180.000000) translate(-15.000000, -30.000000) translate(0.000000, 25.000000)" stroke="#000000">
                <path d="M1,10 C1.82777331,6.52461181 3.03823597,4.55289235 4.63138799,4.08484162 C6.22454,3.61679089 8.29775334,3.25517702 10.851028,3 L15,3" id="Path-3-Copy" transform="translate(8.000000, 6.500000) scale(-1, 1) translate(-8.000000, -6.500000) "></path>
                <line x1="0.0826161392" y1="0.5" x2="0.832616139" y2="3" id="Path-2"></line>
                <path d="M15,10 C15.8277733,6.52461181 17.038236,4.55289235 18.631388,4.08484162 C20.22454,3.61679089 22.2977533,3.25517702 24.851028,3 L29,3" id="Path-3-Copy"></path>
                <line x1="29.0826161" y1="0.5" x2="29.8326161" y2="3" id="Path-2" transform="translate(29.500000, 1.500000) scale(-1, 1) translate(-29.500000, -1.500000) "></line>
            </g>
            <g id="bracket-copy-4" transform="translate(185.000000, 30.000000) rotate(180.000000) translate(-185.000000, -30.000000) translate(35.000000, 25.000000)" stroke="#000000">
                <path d="M10,10 C18.2777331,6.52461181 30.3823597,4.55289235 46.3138799,4.08484162 C62.2454,3.61679089 82.9775334,3.25517702 108.51028,3 L150,3" id="Path-3-Copy" transform="translate(80.000000, 6.500000) scale(-1, 1) translate(-80.000000, -6.500000) "></path>
                <line x1="0.826161392" y1="0.5" x2="12.5" y2="3.5" id="Path-2"></line>
                <path d="M150,10 C158.277733,6.52461181 170.38236,4.55289235 186.31388,4.08484162 C202.2454,3.61679089 222.977533,3.25517702 248.51028,3 L290,3" id="Path-3-Copy"></path>
                <line x1="289.826161" y1="0.5" x2="299.5" y2="2.5" id="Path-2" transform="translate(294.500000, 1.500000) scale(-1, 1) translate(-294.500000, -1.500000) "></line>
            </g>
            <text id="Vierwöchiger-Lockdow" font-family="Interstate-Light, Interstate" font-size="10" font-weight="300" fill="#000000">
                <tspan x="0" y="9">Vierwöchiger</tspan>
                <tspan x="0" y="20">Lockdown</tspan>
            </text>
            <text id="Zeit-nach-dem-Lockdo" font-family="Interstate-Light, Interstate" font-size="10" font-weight="300" fill="#000000">
                <tspan x="160" y="9">Zeit nach dem</tspan>
                <tspan x="160" y="20">Lockdown</tspan>
            </text>
        </g>
    </g>
</svg>